<svg width="389" height="500" viewBox="0 0 389 500" fill="none" xmlns="http://www.w3.org/2000/svg">
<path d="M487.588 808.654C454.636 812.132 421.029 800.8 396.991 777.915C383.894 765.446 375.318 749.768 366.576 734.147C357.473 717.907 347.659 700.505 331.103 690.812C313.659 680.599 293.23 682.705 273.957 684.182C257.094 685.479 240.702 685.431 224.448 680.256C194.642 670.781 170.259 648.537 153.577 622.572C134.529 592.935 125.9 556.735 119.44 522.482C116.193 505.266 114.334 487.811 114.275 470.287C114.224 453.347 113.875 434.431 121.26 418.877C128.417 403.813 140.46 391.163 154.644 382.489C171.644 372.088 191.504 369.226 210.844 366.213C232.665 362.815 253.659 358.334 272.404 345.998C290.951 333.793 305.666 316.546 317.625 298.02C358.629 234.438 367.947 148.18 434.925 103.455C490.532 66.3182 565.874 67.9366 625.181 95.2136C695.159 127.391 741.341 195.89 766.273 266.618C778.811 302.195 787.778 340.105 790.029 377.847C792.017 411.181 787.745 446.985 767.177 474.446C744.758 504.379 708.067 516.984 675.353 531.993C657.293 540.273 639.209 549.606 624.851 563.604C611.696 576.419 603.221 592.558 598.472 610.202C589.868 642.216 592.09 675.908 586.534 708.423C580.814 741.945 564.731 771.448 535.966 790.604C521.423 800.29 504.913 806.43 487.588 808.654C486.382 808.808 485.964 806.943 487.19 806.789C525.998 801.804 560.952 775.991 575.977 739.644C588.197 710.094 587.656 677.315 590.642 645.997C593.416 616.939 599.713 587.594 620.235 565.587C644.904 539.141 681.22 528.331 712.864 512.944C730.104 504.559 747.067 494.58 760 480.182C771.576 467.294 779.285 451.571 783.615 434.862C792.509 400.547 788.356 363.968 781.514 329.698C765.905 251.639 730.628 173.064 666.688 122.928C613.78 81.4525 539.918 65.1242 475.299 86.1217C441.294 97.1662 413.117 118.952 393.023 148.445C371.087 180.651 358.774 218.025 343.216 253.441C328.205 287.641 308.564 322.416 277.658 344.676C263.227 355.069 247.09 361.379 229.738 364.913C209.196 369.091 187.54 369.987 167.919 377.909C150.979 384.754 136.089 397.329 126.605 412.961C116.208 430.089 116.12 450.851 116.178 470.379C116.298 506.547 124.728 541.682 134.841 576.2C144.309 608.529 162.505 638.549 189.334 659.376C202.179 669.354 217.007 676.909 232.884 680.601C250.013 684.586 267.124 682.651 284.445 681.48C299.994 680.433 316.06 680.571 330.154 688.094C344.493 695.746 354.238 709.306 362.37 722.975C371.503 738.326 379.094 754.868 390.763 768.559C402.669 782.539 418.223 793.291 435.337 799.896C451.858 806.268 469.575 808.642 487.186 806.781C488.396 806.654 488.806 808.522 487.588 808.654Z" fill="#6200EE"/>
<path d="M486.595 791.014C454.899 794.341 422.49 783.291 399.63 760.974C374.946 736.863 367.816 695.093 336.238 678.133C319.561 669.171 300.192 671.562 282.091 672.912C266.863 674.048 252.012 673.829 237.314 669.27C208.777 660.423 185.408 639.243 169.434 614.472C151.202 586.2 142.935 551.549 136.805 518.843C133.862 503.178 132.132 487.296 131.968 471.348C131.805 454.947 131.345 436.216 138.409 421.103C145.351 406.249 157.342 393.764 171.415 385.481C187.327 376.106 205.764 373.473 223.716 370.679C244.708 367.406 264.982 362.995 282.917 350.99C300.388 339.284 314.239 322.889 325.506 305.3C364.028 245.147 373.034 163.852 436.066 121.42C489.049 85.7525 561.056 87.2843 617.645 113.429C683.587 143.9 727.226 208.368 750.951 275.029C763.092 309.142 771.736 345.522 773.903 381.737C775.831 414.011 771.548 448.732 751.097 474.983C729.327 502.93 694.388 514.596 663.395 528.948C646.276 536.867 629.206 545.901 615.8 559.424C603.995 571.341 596.359 586.202 592.008 602.303C583.648 633.219 585.955 665.787 580.371 697.168C574.786 728.568 559.341 756.12 532.369 774.002C518.582 783.138 502.986 788.902 486.595 791.014C485.389 791.169 484.983 789.308 486.197 789.149C522.356 784.489 555.108 760.81 569.737 727.201C581.922 699.23 581.547 667.888 584.278 638.047C586.799 610.563 592.345 582.648 611.281 561.445C634.05 535.954 668.379 525.42 698.312 511.127C714.413 503.441 730.226 494.481 742.784 481.613C754.851 469.255 762.911 453.753 767.395 437.151C776.337 404.048 772.264 368.567 765.602 335.439C750.768 261.751 717.434 187.528 657.159 140.066C606.706 100.331 536.131 84.6046 474.417 104.9C442.249 115.473 415.608 136.187 396.645 164.15C375.919 194.716 364.244 230.102 349.492 263.666C335.68 295.103 317.823 326.94 290.086 348.174C276.062 358.916 260.161 365.663 242.932 369.28C224.295 373.196 204.929 374.191 186.838 380.444C168.798 386.682 152.834 399.608 143.187 416.101C133.913 431.968 133.853 451.174 133.864 469.117C133.884 503.618 141.92 537.122 151.541 570.049C160.587 600.977 178.056 629.842 203.891 649.585C216.28 659.044 230.501 666.187 245.773 669.545C261.655 673.038 277.481 671.219 293.506 670.141C308.031 669.164 322.98 669.214 336.253 676.005C349.66 682.864 358.905 695.102 366.57 707.699C375.653 722.613 382.888 738.83 394.183 752.292C405.367 765.616 420.014 775.907 436.169 782.292C452.077 788.579 469.193 790.931 486.197 789.149C487.407 789.022 487.825 790.887 486.595 791.014Z" fill="#6200EE"/>
<path d="M485.611 773.371C456.452 776.422 426.885 766.706 405.255 746.853C393.177 735.78 385.244 721.702 377.334 707.553C369.036 692.713 360.269 676.741 345.289 667.664C329.484 658.093 310.749 660.076 293.181 661.415C278.58 662.529 264.313 662.548 250.182 658.284C223.254 650.173 201.114 630.437 185.87 607.261C168.42 580.723 160.56 548.276 154.587 517.442C151.639 502.202 149.86 486.758 149.659 471.231C149.455 455.471 148.959 437.368 155.797 422.843C161.698 410.316 171.339 399.64 182.753 391.891C197.66 381.772 215.117 378.498 232.605 375.757C251.704 372.77 270.544 369.702 287.472 359.751C304.876 349.523 318.814 334.3 330.034 317.698C368.511 260.789 376.106 182.111 435.665 140.46C485.113 105.89 553.027 106.345 606.844 130.176C670.225 158.246 712.416 219.243 735.373 282.718C747.197 315.406 755.565 350.308 757.745 385.073C759.628 415.064 755.894 447.231 737.63 472.093C717.561 499.402 684.233 510.861 654.616 524.44C638.12 532.007 621.583 540.537 608.573 553.443C597.146 564.782 589.742 578.972 585.536 594.409C577.607 623.56 579.762 654.283 574.571 683.888C569.359 713.583 555.03 739.711 529.637 756.813C516.419 765.722 501.41 771.33 485.611 773.371C484.401 773.537 483.991 771.668 485.213 771.506C520.165 766.98 551.603 743.777 565.099 710.992C576.003 684.471 575.532 655.083 578.212 626.996C580.661 601.229 586.162 575.213 604.027 555.449C625.934 531.211 658.842 521.344 687.415 507.551C718.043 492.76 742.41 471.92 751.536 438.074C760.049 406.489 756.085 372.62 749.661 341.049C735.396 270.934 703.45 200.448 645.715 155.684C597.609 118.394 530.312 104.177 472.094 124.152C440.642 134.951 415.356 156.102 397.534 184.013C378.954 213.093 368.292 246.155 354.189 277.429C340.591 307.597 322.679 338.097 294.888 357.258C281.735 366.33 267.134 371.55 251.536 374.566C233.248 378.094 213.948 379.026 196.634 386.437C181.223 393.029 167.621 404.965 159.531 419.708C151.259 434.78 151.419 453.332 151.554 470.17C151.806 502.999 159.572 535.151 168.993 566.424C177.602 594.977 194.474 621.707 218.46 639.778C230.09 648.551 243.399 655.146 257.665 658.25C273.332 661.668 288.909 659.596 304.697 658.65C318.258 657.84 332.169 658.29 344.375 664.937C356.853 671.728 365.421 683.493 372.589 695.435C381.111 709.629 388.062 725.012 398.97 737.634C409.465 749.783 423.054 759.189 437.974 765.067C453.011 770.981 469.158 773.188 485.213 771.506C486.415 771.382 486.833 773.247 485.611 773.371Z" fill="#6200EE"/>
<path d="M484.622 755.739C456.744 758.627 428.331 749.225 407.898 729.939C385.488 708.792 379.267 672.539 352.374 656.094C337.067 646.726 319.008 648.82 301.977 650.096C288.08 651.13 274.501 650.939 261.106 646.695C235.954 638.733 215.347 620.077 201.152 598.262C184.751 573.045 177.339 542.182 171.788 512.956C169.059 498.594 167.45 484.043 167.325 469.42C167.197 454.827 166.798 438.294 173.072 424.838C179.084 411.939 189.325 401.039 201.407 393.612C215.544 384.903 231.967 382.323 248.11 379.809C266.567 376.93 284.519 373.418 300.524 363.22C316.923 352.758 329.845 337.659 340.279 321.416C375.086 267.255 383.064 193.877 440.314 156.044C487.791 124.677 551.934 126.303 602.299 149.745C661.701 177.395 700.779 235.835 721.808 296.049C732.384 326.331 739.964 358.579 741.722 390.676C743.277 419.089 739.37 449.54 721.513 472.708C701.999 498.021 670.442 508.522 642.507 521.464C627.073 528.617 611.669 536.815 599.688 549.128C589.05 560.077 582.343 573.739 578.571 588.42C571.587 615.647 573.479 644.179 568.57 671.734C563.596 699.656 549.938 724.179 526.033 740.214C513.583 748.559 499.476 753.806 484.622 755.739C483.409 755.898 483.003 754.037 484.224 753.874C516.9 749.616 546.344 728.135 559.262 697.604C569.864 672.545 569.436 644.637 571.938 618.008C574.189 594.13 579.05 569.87 595.19 551.227C615.058 528.263 645.447 518.613 672.086 506.088C701.407 492.3 725.747 473.338 735.092 441.087C743.592 411.768 740.266 380.111 734.509 350.619C721.57 284.312 692.05 217.477 638.214 174.421C593.381 138.555 530.563 124.077 475.227 141.603C445.637 150.975 421.175 169.872 403.873 195.569C385.535 222.825 375.153 254.289 362.015 284.149C349.484 312.644 333.205 341.542 307.8 360.495C295.703 369.521 282.072 375.267 267.353 378.407C250.482 382.015 232.922 382.878 216.514 388.533C200.882 393.924 187.123 404.951 178.391 418.985C169.457 433.351 169.244 450.692 169.221 467.15C169.172 498.545 176.5 529.039 185.328 558.98C193.405 586.376 209.255 611.987 232.208 629.356C243.271 637.735 255.952 644.028 269.557 646.975C284.222 650.147 298.85 648.213 313.633 647.318C326.583 646.54 339.846 646.953 351.476 653.359C362.847 659.625 370.782 670.285 377.404 681.174C385.393 694.32 391.792 708.604 401.669 720.525C411.537 732.43 424.5 741.669 438.814 747.458C453.218 753.289 468.777 755.477 484.224 753.874C485.435 753.747 485.844 755.616 484.622 755.739Z" fill="#6200EE"/>
<path d="M483.629 738.1C457.934 740.749 431.919 732.371 412.707 715.023C401.881 705.245 394.749 692.863 387.704 680.268C380.007 666.51 371.912 651.437 357.67 643.46C343.79 635.688 327.601 637.489 312.404 638.648C299.337 639.634 286.602 639.575 273.973 635.71C250.442 628.507 231.045 611.256 217.591 591.039C201.78 567.283 194.71 538.138 189.366 510.444C186.746 496.88 185.18 483.131 185.013 469.315C184.85 455.566 184.435 439.777 190.224 427.053C195.697 415.043 205.119 404.912 216.181 397.828C229.27 389.446 244.585 386.832 259.69 384.474C277.081 381.754 294.07 378.713 309.3 369.329C324.429 359.998 336.488 346.358 346.236 331.668C380.195 280.51 387.125 210.297 441.455 174.009C485.635 144.5 545.545 145.612 592.789 167.051C649.222 192.667 686.395 247.588 706.493 304.456C716.623 333.084 723.819 363.627 725.571 394.009C727.068 420.115 723.744 448.094 708.017 469.823C690.457 494.093 661.216 504.442 634.997 516.376C620.722 522.869 606.419 530.084 594.836 540.856C583.686 551.235 576.473 564.432 572.497 579.043C565.414 605.075 567.379 632.518 562.684 658.951C558.052 684.977 545.464 707.875 523.324 723.014C511.42 731.144 497.9 736.234 483.629 738.1C482.427 738.262 482.017 736.394 483.231 736.235C514.319 732.153 542.311 711.563 554.223 682.309C563.939 658.437 563.397 632.071 565.885 606.833C568.139 583.946 573.291 560.909 589.411 543.572C608.719 522.803 637.083 514.057 661.985 502.139C689.55 488.957 711.655 470.38 719.822 439.908C727.11 412.7 723.95 383.598 718.6 356.349C706.337 293.973 678.451 231.141 627.68 190.756C585.446 157.174 526.283 143.705 474.334 160.378C446.592 169.282 423.658 187.111 407.488 211.279C390.109 237.262 380.355 267.212 367.752 295.587C355.925 322.203 340.528 349.073 316.647 366.647C305.226 375.046 292.382 380.267 278.568 383.182C262.889 386.496 246.596 387.32 231.36 392.584C216.336 397.767 203.13 408.477 194.965 422.11C186.777 435.793 186.807 452.695 186.899 468.239C187.095 497.514 193.975 526.217 202.402 554.098C210.119 579.628 225.222 603.496 246.769 619.554C257.069 627.239 268.841 632.992 281.453 635.688C295.163 638.609 308.83 636.83 322.647 635.984C334.615 635.244 346.84 635.588 357.665 641.312C368.772 647.184 376.433 657.427 382.823 667.945C390.356 680.345 396.393 693.816 405.729 705.036C415.013 716.174 427.187 724.821 440.622 730.241C454.156 735.699 468.73 737.73 483.231 736.235C484.442 736.108 484.852 737.977 483.629 738.1Z" fill="#6200EE"/>
<path d="M482.641 720.468C458.561 722.917 434.202 715.123 416.169 698.873C395.216 679.984 389.839 646.23 364.771 631.881C351.478 624.276 335.794 626.237 321.216 627.321C308.842 628.242 296.785 627.978 284.893 624.113C263.138 617.04 245.282 600.924 232.865 582.044C218.255 559.825 211.682 532.622 206.728 506.797C204.268 494.014 202.819 481.059 202.691 468.037C202.56 455.125 202.192 440.392 207.756 428.483C212.779 417.727 221.102 408.618 230.952 402.074C243.392 393.803 257.994 391.215 272.503 388.94C289.249 386.32 305.69 383.416 320.212 374.085C334.551 364.878 345.882 351.764 355.055 337.539C386.09 289.43 393.042 224.066 444.353 190.817C485.828 163.948 541.429 165.234 585.372 185.322C637.67 209.235 672.358 260.104 691.183 312.871C700.878 340.035 707.786 369.039 709.449 397.906C710.884 422.964 707.543 449.793 691.977 470.358C675.055 492.717 647.422 502.095 622.892 513.388C609.35 519.628 595.782 526.687 585.1 537.305C575.405 546.93 569.255 558.997 565.779 572.111C559.322 596.473 561.17 622.102 556.678 646.789C552.258 671.065 540.363 692.327 519.708 706.412C508.591 713.996 495.954 718.706 482.641 720.468C481.435 720.623 481.029 718.762 482.251 718.599C511.518 714.736 537.502 695.442 548.786 667.987C557.738 646.2 557.344 621.956 559.517 598.875C561.529 577.526 565.918 555.839 580.569 539.322C597.858 519.827 623.72 511.348 646.667 500.66C673.188 488.305 695.28 471.482 703.586 442.205C710.84 416.634 707.945 389.045 702.942 363.354C691.635 305.302 665.973 246.736 619.146 208.693C579.77 176.702 524.493 163.417 475.455 178.51C449.101 186.626 427.266 203.187 411.8 225.949C395.651 249.742 386.489 277.293 375.054 303.452C364.021 328.685 349.822 354.305 327.51 371.291C317.25 379.107 305.657 384.336 293.106 387.225C277.68 390.781 261.583 391.395 246.528 396.555C232.698 401.295 220.469 410.841 212.726 423.302C204.661 436.294 204.53 452.071 204.581 466.968C204.676 494.195 211.079 520.691 218.741 546.662C225.927 571.054 240.025 593.724 260.506 609.127C269.948 616.237 280.79 621.579 292.347 624.174C305.399 627.113 318.413 625.456 331.588 624.64C342.519 623.966 353.776 624.183 363.779 629.195C374.273 634.452 381.587 643.893 387.631 653.669C394.837 665.325 400.457 678.07 409.169 688.749C417.96 699.524 429.6 707.86 442.493 713.031C455.136 718.096 468.702 719.983 482.251 718.599C483.453 718.476 483.871 720.341 482.641 720.468Z" fill="#6200EE"/>
<path d="M481.656 702.825C459.428 705.079 436.948 698.028 420.156 683.186C400.472 665.779 395.493 634.911 372.827 620.897C360.198 613.095 345.237 614.858 331.153 615.911C319.799 616.755 308.711 616.577 297.76 613.128C276.933 606.574 259.874 591.124 248.144 573.057C234.538 552.094 228.4 526.314 223.87 502.027C221.696 490.401 220.444 478.601 220.361 466.764C220.273 454.634 219.984 441.039 225.291 429.901C236.583 406.172 259.752 397.461 284.111 393.6C299.663 391.138 314.957 388.711 328.651 380.399C342.164 372.19 352.874 360.056 361.535 346.981C390.921 302.603 397.045 241.792 443.735 209.95C482.407 183.583 535.072 184.3 576.733 203.039C625.576 225.023 658.113 272.217 675.865 321.289C685.103 346.816 691.63 374.082 693.291 401.242C694.696 424.333 691.804 449.132 677.824 468.324C662.45 489.447 637.002 498.458 614.132 508.88C601.205 514.772 588.167 521.321 577.881 531.321C568.329 540.616 562.33 552.349 559.057 565.172C553.267 587.832 554.936 611.6 550.695 634.518C546.522 657.075 535.317 676.772 516.096 689.817C505.758 696.84 494.02 701.182 481.656 702.825C480.446 702.991 480.037 701.122 481.258 700.96C508.159 697.381 532.345 679.806 542.949 654.599C551.656 633.891 551.253 610.84 553.349 588.859C555.168 569.751 559.055 550.199 571.755 535.108C587.857 515.973 612.69 507.841 634.651 497.616C659.379 486.102 680.003 470.405 687.723 443.12C694.639 418.677 691.677 392.34 686.781 367.821C675.97 313.733 651.655 259.279 607.618 224.227C570.465 194.647 518.179 182.814 472.549 197.926C448.461 205.907 428.699 221.58 414.72 242.706C399.499 265.713 391.019 292.194 379.773 317.185C369.556 339.884 356.27 362.741 335.902 377.796C326.414 384.81 315.759 389.424 304.283 392.02C290.803 395.067 276.843 395.81 263.584 399.852C249.937 404.016 237.886 412.978 230.172 425.021C222.619 436.824 222.33 450.897 222.265 464.51C222.132 490.047 227.944 514.857 235.071 539.23C241.849 562.42 254.728 584.025 274.242 598.702C283.156 605.398 293.323 610.461 304.231 612.902C316.688 615.679 329.101 613.942 341.673 613.232C352.033 612.648 362.564 613.114 371.886 618.155C381.121 623.143 387.629 631.637 393.046 640.413C399.965 651.649 405.356 663.952 413.932 674.103C422.039 683.711 432.636 691.154 444.298 695.806C456.062 700.502 468.663 702.232 481.258 700.96C482.461 700.837 482.878 702.702 481.656 702.825Z" fill="#6200EE"/>
<path d="M480.668 685.194C460.027 687.252 439.248 680.772 423.633 667.027C405.199 650.799 400.549 621.341 378.968 608.737C367.529 602.056 354.204 603.51 341.581 604.462C331.076 605.259 320.796 605.221 310.627 602.142C291.409 596.325 275.588 582.314 264.591 565.83C251.76 546.605 246.025 523.061 241.655 500.635C239.544 489.811 238.262 478.841 238.062 467.821C237.864 456.671 237.404 443.616 241.95 433.226C251.667 411.003 272.998 401.948 295.525 398.302C310.045 395.953 324.489 394.026 337.419 386.474C350.021 379.121 360.085 368.106 368.196 356.112C396.091 314.895 401.527 257.965 444.877 227.934C480.479 203.277 529.245 203.651 567.918 220.681C613.941 240.957 644.528 285.245 661.12 331.305C669.555 354.716 675.533 379.694 677.133 404.579C678.494 425.729 676.05 448.459 663.652 466.31C649.633 486.505 625.75 495.145 604.261 504.88C579.977 515.888 559.536 530.215 552.589 557.266C547.148 578.459 548.778 600.696 544.732 622.117C540.78 643.019 530.287 661.267 512.399 673.267C502.832 679.694 492.066 683.659 480.668 685.194C479.462 685.348 479.048 683.491 480.27 683.328C505.692 679.908 528.153 663.228 537.899 639.34C545.683 620.26 545.218 599.018 547.181 578.844C548.903 561.082 552.642 543.08 564.47 529.108C579.382 511.504 602.389 504.015 622.639 494.58C645.559 483.896 664.742 469.338 671.875 444.027C678.216 421.523 675.578 397.305 671.105 374.717C661 323.807 638.041 272.4 596.185 239.85C560.907 212.428 510.939 201.995 468.48 217.828C446.489 226.027 429.067 241.252 416.655 261.044C403.417 282.159 395.795 306.054 385.502 328.606C375.997 349.404 363.598 370.299 344.756 383.943C336.149 390.176 326.54 394.288 316.21 396.652C302.252 399.839 287.436 400.142 273.993 405.399C262.836 409.764 253.006 417.898 246.746 428.126C239.783 439.515 239.805 453.75 239.952 466.752C240.208 489.84 245.646 512.32 252.146 534.348C258.436 555.67 270.755 575.592 288.815 588.903C297.238 595.107 306.849 599.723 317.12 601.826C328.276 604.119 339.443 602.538 350.668 601.898C359.984 601.365 369.539 601.71 378.02 606.038C386.638 610.443 392.783 618.124 397.842 626.172C404.254 636.355 409.153 647.52 416.666 656.985C424.123 666.381 434.115 673.568 445.146 678.193C456.243 682.853 468.317 684.513 480.266 683.321C481.48 683.201 481.89 685.07 480.668 685.194Z" fill="#6200EE"/>
<path d="M479.675 667.554C460.681 669.417 441.505 663.548 427.099 650.884C410.083 635.933 405.771 608.98 386.061 597.163C374.843 590.435 361.631 592.371 349.252 593.227C339.454 593.891 329.944 593.425 320.592 590.217C303.238 584.267 289.084 571.198 279.287 555.947C267.861 538.163 262.667 516.42 258.802 495.873C256.913 485.817 255.805 475.62 255.719 465.386C255.638 455.256 255.36 443.706 259.617 434.33C268.956 413.726 288.918 405.873 309.862 402.528C323.247 400.394 336.522 398.426 348.331 391.269C360.164 384.099 369.493 373.505 377.009 362.026C402.047 323.763 407.453 271.542 447.983 244.575C481.453 222.3 526.756 223.323 562.384 239.801C604.171 259.123 631.765 300.026 646.721 342.291C654.401 363.981 659.877 387.139 661.114 410.17C662.162 429.754 659.525 450.749 647.574 466.944C634.168 485.122 612.036 492.785 592.284 501.835C570.054 512.033 552.006 525.58 545.885 550.326C541.133 569.552 542.513 589.661 538.885 609.068C535.243 628.543 525.491 645.532 508.802 656.664C499.999 662.538 490.14 666.131 479.675 667.554C478.473 667.716 478.06 665.859 479.277 665.689C502.77 662.504 523.476 647.117 532.45 625.014C539.519 607.621 539.159 588.249 540.907 569.855C542.492 553.285 545.892 536.41 556.974 523.385C570.152 507.888 590.165 500.873 608.129 492.691C628.99 483.184 647.573 470.784 655.065 448.036C661.806 427.572 659.802 405.107 655.921 384.283C647.144 337.182 626.621 289.449 588.669 258.595C556.837 232.704 511.863 222.095 472.361 234.96C451.441 241.779 434.352 255.338 422.269 273.664C409.455 293.096 402.261 315.414 392.808 336.519C384.268 355.599 373.32 374.769 356.591 387.847C348.677 394.035 339.722 398.386 329.986 400.836C318.312 403.77 306.138 404.264 294.553 407.594C282.664 411.023 272.175 418.075 265.164 428.389C258.108 438.765 257.694 450.988 257.619 463.163C257.489 484.958 262.424 506.129 268.488 526.939C274.269 546.768 285.124 565.191 301.728 577.854C309.495 583.779 318.442 588.249 328.015 590.332C338.144 592.539 348.268 591.273 358.479 590.629C367.179 590.082 376.075 590.16 384.104 593.977C392.128 597.786 397.909 604.615 402.646 611.946C408.735 621.355 413.21 631.797 420.106 640.679C426.664 649.137 435.331 655.755 445.067 660.139C455.84 664.987 467.534 666.843 479.277 665.689C480.491 665.57 480.901 667.438 479.675 667.554Z" fill="#6200EE"/>
<path d="M478.694 649.919C461.513 651.587 444.266 646.426 431.086 635.178C415.225 621.64 411.321 597.99 394.06 586.2C384.037 579.352 371.731 580.916 360.334 581.734C351.537 582.36 342.901 582.216 334.418 579.568C318.264 574.527 304.946 562.654 295.718 548.728C285.082 532.675 280.296 513.136 276.594 494.457C274.764 485.215 273.611 475.838 273.423 466.411C273.226 456.853 272.851 445.589 276.74 436.678C284.629 418.614 301.878 410.529 320.288 407.389C332.547 405.3 344.865 404.024 355.977 397.945C367.414 391.697 376.459 381.899 383.67 371.177C407.073 336.384 411.732 288.458 448.248 263.141C478.523 242.162 520.018 242.489 552.859 257.115C591.614 274.377 617.364 311.709 631.366 350.581C643.331 383.824 655.472 431.978 633.993 464.044C610.132 499.694 552.962 494.097 540.055 539.978C534.984 558.004 536.447 577.079 533.161 595.406C529.945 613.334 521.307 629.028 506.066 639.468C497.824 645.119 488.563 648.559 478.694 649.919C477.485 650.085 477.075 648.216 478.292 648.046C500.563 644.985 520.048 630.064 527.748 608.74C533.635 592.401 533.117 574.692 534.967 557.65C536.632 542.255 540.481 526.984 551.445 515.453C564.344 501.879 582.926 495.89 599.442 488.116C618.502 479.131 634.218 466.824 640.165 445.85C645.645 426.492 643.212 405.604 639.277 386.192C630.717 343.937 611.613 301.438 577.137 274.121C547.772 250.848 506.34 241.711 470.464 254.07C450.938 260.793 435.462 274.016 424.566 291.451C413.29 309.496 406.863 329.905 397.994 349.126C390.102 366.239 379.853 383.368 364.463 394.77C347.38 407.413 327.501 406.17 308.036 412.028C297.682 415.141 288.509 421.569 282.343 430.522C275.495 440.466 275.235 452.531 275.3 464.22C275.394 483.533 279.811 502.341 285.201 520.792C291.236 541.47 303.376 560.857 322.257 572.043C331.055 577.248 340.909 580.137 351.151 580.234C361.837 580.335 372.65 577.729 383.28 579.804C402.283 583.504 409.67 601.999 418.588 616.861C431.228 637.913 453.486 650.459 478.292 648.046C479.499 647.93 479.917 649.795 478.694 649.919Z" fill="#6200EE"/>
<path d="M477.702 632.279C461.766 633.792 445.809 628.944 433.734 618.311C419.736 605.996 416.169 584.057 400.228 574.016C391.26 568.369 380.792 569.558 370.769 570.281C362.074 570.914 353.684 570.79 345.355 567.963C331.309 563.203 319.729 552.805 311.583 540.625C301.563 525.646 297.062 507.206 293.737 489.706C292.337 482.352 291.415 474.897 291.155 467.413C290.841 458.406 290.333 447.624 293.792 439.152C300.11 423.7 314.655 415.417 330.341 412.365C341.551 410.182 353.076 409.554 363.537 404.548C375.005 399.06 383.993 389.644 391.049 379.248C412.599 347.489 416.705 303.551 450.27 280.511C477.264 261.99 513.89 262.016 543.334 274.467C579.063 289.568 602.973 323.466 616 358.888C627.145 389.207 638.448 433.191 619.267 462.76C607.859 480.343 587.18 486.869 569.174 495.386C557.945 500.692 546.854 507.172 539.915 517.812C534.092 526.744 531.888 537.313 530.711 547.742C528.708 565.493 529.645 584.407 521.659 600.883C513.336 618.053 496.444 629.664 477.702 632.279C476.492 632.446 476.086 630.585 477.304 630.414C497.263 627.629 514.825 614.453 521.935 595.379C527.489 580.479 527.04 564.266 528.69 548.673C530.129 535.153 533.33 521.622 542.592 511.2C554.054 498.302 571.121 492.668 586.323 485.596C604.231 477.247 619.147 465.935 624.498 446.064C629.255 428.437 626.981 409.558 623.362 391.946C615.412 353.213 597.632 314.269 565.593 289.683C538.507 268.89 500.207 261.211 467.854 273.489C429.9 287.898 419.738 325.955 404.236 359.397C396.985 375.039 387.517 390.683 373.302 400.925C357.336 412.429 338.576 410.655 320.76 416.796C311.682 419.925 303.676 426.012 298.532 434.17C292.934 443.024 292.887 453.928 292.988 464.096C293.16 482.122 297.317 499.994 302.633 517.129C308.12 534.822 319.056 551.357 335.125 561.077C343.983 566.436 353.821 569.03 364.163 568.77C372.961 568.545 381.884 566.724 390.647 568.343C407.873 571.512 414.738 587.941 422.763 601.46C434.319 620.914 454.385 632.585 477.304 630.414C478.511 630.299 478.928 632.164 477.702 632.279Z" fill="#6200EE"/>
<path d="M476.71 614.64C462.614 615.954 448.555 611.829 437.705 602.593C424.786 591.584 421.627 571.622 407.289 562.438C392.912 553.236 374.003 562.113 358.206 556.986C345.44 552.838 334.881 543.5 327.444 532.514C318.455 519.239 314.455 503.013 311.366 487.482C308.583 473.452 305.641 453.909 311.387 440.382C317.785 425.35 332.151 418.711 347.354 416.106C356.529 414.527 365.785 413.574 374.291 409.494C384.594 404.561 392.705 395.856 398.977 386.485C417.957 358.12 421.855 319.25 451.419 298.491C476.038 281.202 509.922 281.355 536.803 293.123C568.769 307.103 590.051 337.79 601.556 369.749C611.276 396.734 621.008 435.288 604.414 461.629C594.316 477.649 575.742 483.653 559.473 491.298C549.796 495.847 540.12 501.289 533.751 510.151C527.939 518.233 525.7 528.035 524.547 537.754C522.692 553.405 523.559 569.951 517.074 584.685C509.873 601.047 494.244 612.141 476.71 614.64C475.504 614.814 475.098 612.953 476.311 612.775C494.815 610.136 510.554 597.837 516.83 580.108C521.629 566.534 520.968 551.767 522.639 537.654C524.038 525.892 527.136 514.3 535.238 505.296C545.449 493.96 560.572 488.931 574.036 482.673C589.873 475.33 603.275 465.49 608.343 448.025C612.839 432.525 611.03 415.791 607.964 400.21C601.029 364.966 585.125 329.26 556.077 306.805C531.441 287.765 496.421 280.691 466.997 292.295C433.36 305.563 424.472 339.679 410.561 369.488C404.185 383.145 395.957 396.751 383.714 405.931C370.535 415.802 355.465 415.56 340.185 419.472C330.889 421.86 322.727 426.624 316.978 434.487C311.004 442.653 310.644 452.501 310.658 462.273C310.675 478.808 314.433 495.248 319.337 510.966C324.414 527.223 334.631 542.658 349.75 551.152C357.596 555.564 366.132 557.596 375.117 557.314C382.683 557.08 390.336 555.593 397.886 556.861C413.431 559.478 419.773 573.821 426.949 586.063C437.393 603.865 455.303 614.73 476.311 612.775C477.522 612.667 477.936 614.524 476.71 614.64Z" fill="#6200EE"/>
<path d="M475.729 597.005C463.599 598.094 451.602 594.804 442.039 587.139C429.552 577.133 426.719 557.591 412.64 549.815C399.618 542.619 383.149 550.407 369.153 545.366C357.823 541.279 348.569 532.658 342.136 522.643C334.545 510.813 331.09 496.356 328.516 482.708C326.188 470.386 323.751 453.369 329.009 441.608C334.715 428.819 346.961 422.937 360.047 420.606C369.474 418.925 378.883 418.079 387.366 413.197C395.904 408.286 402.525 400.629 407.758 392.416C424.246 366.513 428.069 331.549 456.047 314.147C478.072 300.452 507.156 301.268 530.268 311.771C558.491 324.61 577.09 352.133 587.116 380.599C595.579 404.632 604.112 439.302 588.392 462.313C579.062 475.971 562.707 481.029 548.479 487.822C539.554 492.079 530.78 497.289 525.329 505.822C520.751 512.988 519.08 521.464 518.16 529.796C516.675 543.341 517.255 557.63 511.641 570.351C505.212 584.929 491.334 594.741 475.729 597.005C474.515 597.183 474.105 595.314 475.331 595.14C491.846 592.737 505.937 581.745 511.37 565.799C515.313 554.209 514.932 541.722 516.253 529.696C517.382 519.459 519.751 509.207 526.439 501.073C534.663 491.073 547.221 486.285 558.694 481.148C573.501 474.506 587.044 466.301 592.187 449.966C596.385 436.615 595.063 421.994 592.538 408.459C586.885 378.146 573.978 347.572 550.251 326.99C529.146 308.681 498.857 300.714 471.801 309.086C439.569 319.063 430.442 349.729 417.868 377.44C412.457 389.379 405.629 401.257 395.466 409.79C384.279 419.187 371.578 420.16 357.821 422.958C349.124 424.721 341.476 428.13 335.599 434.969C329.426 442.148 328.493 450.683 328.361 459.814C328.133 474.326 331.291 488.416 335.31 502.276C339.753 517.595 348.505 532.024 362.617 540.205C369.388 544.135 376.87 546.046 384.687 545.898C391.456 545.773 398.311 544.377 405.078 545.383C418.728 547.412 424.652 559.38 430.887 570.225C440.296 586.6 455.929 596.88 475.331 595.14C476.534 595.036 476.947 596.893 475.729 597.005Z" fill="#6200EE"/>
<path d="M474.736 579.365C463.887 580.291 453.267 577.347 444.786 570.387C434.194 561.705 431.708 545.047 419.741 538.236C408.269 531.699 393.479 538.676 381.06 534.043C371.425 530.441 363.515 523.087 357.997 514.531C351.221 504.046 348.133 491.205 345.878 479.061C343.86 468.208 341.788 453.446 346.487 443.124C350.763 433.748 359.671 428.037 369.432 425.77C377.586 423.867 386.113 423.744 393.885 420.31C402.172 416.639 408.668 409.97 413.738 402.597C429.113 380.266 431.823 349.287 455.652 333.105C474.772 320.111 500.784 320.362 521.458 329.42C546.11 340.223 562.588 363.79 571.587 388.42C579.191 409.246 586.671 438.689 574.678 459.384C567.131 472.391 552.571 477.314 539.677 483.307C531.663 487.032 523.653 491.482 518.593 498.988C514.234 505.461 512.72 513.178 511.894 520.804C510.616 532.552 511.11 544.991 506.207 556.017C500.516 568.818 488.439 577.313 474.736 579.365C473.527 579.551 473.117 577.682 474.338 577.5C488.985 575.301 501.143 565.635 505.894 551.496C509.424 540.985 508.841 529.585 510.214 518.72C511.292 510.237 513.51 501.87 519.07 495.176C526.142 486.666 536.831 482.495 546.643 478.112C559.305 472.465 571.174 465.669 575.988 451.86C580.198 439.819 578.929 426.417 576.617 414.126C571.456 386.711 559.393 358.919 537.127 341.153C518.12 325.977 490.816 320.094 467.748 328.96C441.315 339.119 434.377 365.772 423.48 389.07C418.486 399.751 412.037 410.352 402.418 417.474C392.938 424.484 382.215 425.049 371.074 427.383C364.048 428.848 357.714 431.683 352.816 437.062C346.956 443.499 346.111 451.39 346.022 459.733C345.88 472.158 348.587 484.264 352.019 496.14C355.858 509.426 363.293 522.014 375.481 529.25C381.309 532.706 387.741 534.505 394.523 534.481C400.728 534.463 406.926 533.123 413.114 534.055C424.127 535.715 429.479 544.858 434.501 553.779C443.038 568.928 456.127 579.055 474.342 577.508C475.541 577.396 475.959 579.261 474.736 579.365Z" fill="#6200EE"/>
<path d="M473.748 561.734C464.797 562.46 456.025 560.237 448.84 554.696C439.643 547.587 437.572 534.719 428.455 527.933C418.612 520.599 405.089 527.066 393.92 523.081C385.87 520.208 379.233 514.265 374.447 507.293C368.446 498.546 365.761 487.921 363.674 477.653C361.727 468.109 359.951 455.677 363.264 446.3C366.125 438.188 373.908 432.58 381.928 430.402C387.923 428.784 394.224 428.647 400.189 426.878C409.068 424.254 415.864 418.127 421.105 410.665C434.433 391.713 436.624 365.088 456.79 351.081C473.34 339.588 495.931 339.699 513.926 347.643C534.911 356.903 548.951 376.963 556.659 397.952C563.169 415.684 569.507 440.486 559.759 458.278C553.688 469.361 541.815 473.842 530.916 478.799C523.831 482.023 516.527 485.695 511.841 492.181C507.758 497.844 506.366 504.85 505.638 511.659C504.538 522.067 504.936 533.073 500.27 542.721C495.204 553.204 485.108 559.974 473.748 561.734C472.538 561.919 472.132 560.058 473.35 559.869C486.028 557.906 496.618 549.476 500.458 537.046C503.206 528.149 502.803 518.667 503.965 509.513C504.903 502.163 506.877 494.914 511.792 489.173C517.738 482.239 526.46 478.725 534.588 475.088C545.813 470.079 556.386 464.152 560.484 451.745C563.714 441.96 562.744 431.083 560.942 421.12C556.805 398.327 547.16 375.271 529.36 359.773C513.104 345.624 489.351 339.696 468.748 347.106C445.706 355.398 439.569 378.032 430.273 398.172C426.018 407.4 420.504 416.662 412.271 422.897C404.004 429.16 394.665 429.498 384.906 431.675C378.356 433.129 372.228 436.004 368.124 441.53C364.158 446.867 363.746 453.208 363.701 459.632C363.644 470.384 365.989 480.998 369.097 491.247C372.471 502.368 378.919 512.847 389.229 518.789C400.034 525.025 410.077 520.746 421.415 522.729C430.564 524.334 435.056 531.95 439.287 539.426C446.698 552.479 457.652 561.14 473.35 559.869C474.553 559.765 474.97 561.63 473.748 561.734Z" fill="#6200EE"/>
<path d="M472.51 544.114C464.839 544.677 457.337 542.649 451.303 537.718C443.201 531.092 440.999 516.476 430.266 513.502C421.839 511.169 413.35 514.925 404.894 511.399C398.284 508.632 392.936 503.415 389.151 497.426C384.36 489.857 382.151 480.527 380.61 471.803C379.298 464.373 378.078 454.717 380.844 447.538C383.444 440.799 389.852 436.306 396.607 434.509C401.422 433.229 406.475 433.091 411.261 431.718C419.408 429.386 425.394 423.512 429.929 416.583C440.195 400.889 442.366 379.733 458.819 368.467C472.648 358.995 491.463 359.189 506.398 365.854C523.743 373.605 535.381 390.208 541.788 407.591C547.285 422.501 552.743 443.94 543.96 458.748C538.72 467.593 528.939 471.185 520.054 475.254C507.007 481.218 500.608 489.379 499.278 503.697C498.471 512.304 498.617 521.517 494.375 529.333C489.925 537.523 481.82 542.642 472.763 544.091C471.558 544.284 471.152 542.423 472.365 542.225C482.853 540.545 491.282 533.893 494.658 523.708C497.227 515.944 496.681 507.548 497.828 499.54C499.985 484.489 509.282 477.996 522.443 472.1C531.415 468.084 540.27 463.785 544.12 454.06C547.662 445.104 546.592 434.81 544.801 425.586C541.021 406.055 532.211 386.217 516.068 373.837C502.235 363.223 482.318 359.447 466.061 366.605C447.589 374.735 443.634 394.402 435.397 410.772C431.925 417.668 427.486 424.478 421.126 429.044C414.427 433.865 407.212 434.094 399.434 435.831C386.978 438.621 381.355 447.067 381.381 459.532C381.396 468.606 383.411 477.713 386.167 486.318C389.365 496.323 396.201 506.169 406.4 509.969C414.526 512.989 422.775 509.416 430.843 511.681C437.955 513.676 441.221 520.16 444.651 526.089C450.824 536.739 459.897 543.137 472.61 542.206C473.833 542.122 473.729 544.022 472.51 544.114Z" fill="#6200EE"/>
<path d="M471.529 526.478C465.357 526.882 459.499 525.337 454.63 521.402C447.985 516.033 446.555 505.592 438.25 502.605C431.223 500.075 423.955 503.345 416.82 500.056C411.886 497.795 407.902 493.844 405.004 489.319C398.718 479.492 393.738 460.033 398.45 448.772C400.335 444.249 404.541 440.869 409.074 439.254C413.238 437.761 417.772 437.814 422.011 436.636C429.018 434.699 433.972 429.959 437.78 423.9C445.688 411.323 447.637 394.622 460.821 385.838C471.624 378.633 486.211 378.645 497.889 383.631C511.722 389.533 521.152 402.372 526.463 416.053C530.991 427.714 535.181 443.567 529.963 455.71C526.649 463.438 519.658 466.977 512.379 470.282C506.877 472.773 500.921 475.108 497.239 480.199C494.192 484.411 493.463 489.649 493.004 494.689C491.669 509.431 488.808 523.503 471.775 526.459C470.566 526.664 470.16 524.803 471.377 524.594C480.222 523.058 487.092 517.226 489.452 508.451C491.195 501.989 490.571 495.165 491.865 488.633C493.957 478.112 501.08 473.258 510.389 469.076C517.629 465.83 524.936 462.54 528.211 454.754C531.313 447.391 530.427 438.984 528.894 431.336C525.688 415.316 518.231 399.107 504.521 389.469C493.184 381.488 476.822 379.284 464.358 385.957C451.036 393.094 448.192 408.296 441.785 420.682C435.898 432.063 428.363 437.523 415.906 439.686C404.693 441.635 398.919 447.802 399.065 459.4C399.162 466.4 400.702 473.514 402.864 480.159C405.597 488.53 411.421 496.652 420.211 499.308C426.637 501.247 433.711 498.077 439.907 500.764C444.293 502.671 446.604 506.803 448.885 510.745C454.038 519.618 460.905 525.265 471.618 524.567C472.845 524.49 472.744 526.398 471.529 526.478Z" fill="#6200EE"/>
</svg>
