<svg width="378" height="807" viewBox="0 0 378 807" fill="none" xmlns="http://www.w3.org/2000/svg">
<path d="M536.975 650.909C555.747 626.411 567.111 595.939 560.526 564.991C554.863 538.389 536.018 506.274 553.862 480.545C564.924 464.59 586.136 459.964 604.354 459.25C621.359 458.581 638.239 461.693 655.232 461.75C670.699 461.794 686.662 459.308 699.425 449.968C711.922 440.822 719.783 426.469 723.147 411.559C730.904 377.162 714.923 340.587 698.329 311.241C679.562 278.052 653.899 248.75 623.415 225.837C592.366 202.501 555.375 188.11 525.461 163.201C511.282 151.397 498.649 137.007 490.874 120.139C487.053 111.847 484.545 103.039 483.582 93.9528C482.813 86.7357 481.717 79.7949 478.19 73.3241C466.088 51.1042 436.743 51.1962 414.982 54.6885C399.866 57.121 385.622 61.6166 372.778 70.1665C357.65 80.2399 345.302 94.1878 335.555 109.42C314.936 141.611 305.682 179.246 289.74 213.67C281.424 231.642 271.227 249.063 257.397 263.386C242.738 278.574 224.27 288.276 204.56 295.3C170.144 307.566 131.387 313.649 103.794 339.624C78.6412 363.304 76.8832 396.533 82.9946 428.613C89.1181 460.792 101.242 495.505 127.481 516.835C151.827 536.62 182.633 536.008 212.294 537.828C227.58 538.763 243.156 540.599 257.154 547.205C275.453 555.846 288.627 572.065 297.888 589.659C315.474 623.101 319.086 662.134 338.04 694.956C352.724 720.393 378.401 742.187 409.403 739.417C442.059 736.499 470.507 710.975 495.029 691.498C510.32 679.354 524.841 666.281 536.975 650.909C537.591 650.116 536.36 649.171 535.734 649.961C522.947 666.172 507.468 679.777 491.266 692.48C477.605 703.195 463.799 714.145 448.931 723.169C434.273 732.069 417.619 739.089 400.133 738.008C384.335 737.023 369.981 729.325 358.57 718.66C330.985 692.875 323.63 654.638 312.197 620.269C302.162 590.091 286.248 557.985 255.406 544.698C229.572 533.57 200.548 537.264 173.305 533.604C156.903 531.402 141.413 526.146 128.429 515.594C114.159 504.001 104.165 487.953 97.0851 471.174C90.4219 455.378 86.0349 438.567 83.3511 421.66C80.6522 404.64 79.9345 386.676 85.545 370.145C97.867 333.806 136.541 318.11 170.235 307.757C188.364 302.178 206.829 297.231 223.997 289.013C239.645 281.52 253.319 271.092 264.511 257.817C287.865 230.101 299.216 195.101 312.147 161.859C325.799 126.749 343.185 90.24 376.415 69.6664C389.821 61.3608 404.992 57.398 420.522 55.4748C433.697 53.8384 448.103 53.6316 460.458 59.1752C476.144 66.209 480.271 80.322 482.25 96.1145C484.073 110.654 490.115 124.349 498.397 136.347C518.385 165.333 549.491 182.689 579.379 199.743C613.143 219.012 643.789 241.148 668.824 271.251C692.343 299.539 712.782 334.101 720.803 370.35C728.81 406.557 716.818 449.774 676.174 458.325C644.523 464.989 612.186 452.175 580.665 461.224C566.933 465.168 554.448 473.364 548.55 486.796C543.87 497.435 544.312 509.241 546.582 520.409C549.344 533.991 554.478 546.942 557.853 560.362C561.843 576.275 561.946 592.312 557.462 608.155C553.134 623.414 545.346 637.415 535.734 649.961C535.121 650.759 536.363 651.707 536.975 650.909Z" fill="#6200EE"/>
<path d="M530.159 638.117C548.081 614.715 558.807 585.716 552.41 556.193C546.941 530.951 528.744 499.606 546.883 475.572C557.755 461.17 577.193 457.016 594.271 456.372C610.902 455.754 627.414 458.913 644.044 458.752C658.846 458.604 673.994 455.779 685.835 446.324C696.665 437.685 703.55 424.855 706.628 411.499C714.131 378.937 699.14 344.335 683.469 316.483C665.76 285.036 641.572 257.248 612.786 235.471C583.06 212.976 547.458 199.267 518.845 175.242C505.569 164.095 493.803 150.526 486.512 134.67C482.92 126.867 480.547 118.602 479.561 110.063C478.74 102.894 477.794 96.0809 474.173 89.6993C462.465 69.0905 434.741 69.3921 414.347 72.6776C399.917 75.0095 386.321 79.3434 374.084 87.5478C360.272 96.8168 348.924 109.51 339.866 123.375C320.051 153.688 311.223 189.34 296.303 222.008C288.418 239.284 278.78 256.074 265.622 269.912C251.621 284.634 233.964 294.024 214.997 300.797C182.402 312.429 145.717 318.182 119.515 342.686C95.873 364.793 93.7771 395.894 99.3511 426.079C105.002 456.671 116.328 489.723 140.963 510.301C164.08 529.614 193.485 529.154 221.927 530.879C236.749 531.783 251.889 533.529 265.404 540.09C282.373 548.326 294.619 563.468 303.284 579.856C320.364 612.195 323.548 650.208 342.506 681.682C356.714 705.266 380.958 724.931 409.915 721.996C424.05 720.561 437.192 714.287 449.119 706.865C464.071 697.563 478.106 686.455 491.837 675.454C505.807 664.262 519.04 652.206 530.159 638.117C530.786 637.326 529.545 636.378 528.918 637.169C516.913 652.381 502.42 665.172 487.233 677.112C474.6 687.044 461.838 697.128 448.176 705.628C433.919 714.5 417.656 721.681 400.499 720.654C385.412 719.756 371.697 712.378 360.83 702.168C334.925 677.849 327.898 641.892 317.173 609.512C307.614 580.631 292.45 549.829 262.86 537.22C237.867 526.573 209.829 530.431 183.549 526.575C168.237 524.333 153.894 519.074 141.905 509.064C128.819 498.131 119.615 483.239 113.038 467.673C106.381 451.909 102.053 435.034 99.6161 418.111C97.3354 402.287 97.0384 385.654 102.583 370.438C115.177 335.882 152.831 321.707 185.103 311.889C202.113 306.714 219.396 301.923 235.368 293.96C249.837 286.755 262.371 276.773 272.653 264.317C294.688 237.614 305.293 204.132 317.724 172.401C330.616 139.519 347.318 105.505 378.614 86.5018C391.385 78.7517 405.907 75.1033 420.627 73.3758C432.79 71.9536 446.006 71.8553 457.419 76.8691C472.764 83.6071 476.2 97.0257 478.252 112.243C480.152 126.293 486.107 139.498 494.207 151.044C513.265 178.208 542.576 194.456 570.762 210.546C603.282 229.112 632.67 250.609 656.535 279.8C678.718 306.945 698.309 340.358 705.057 375.146C711.672 409.255 698.815 448.272 661.106 455.637C631.384 461.441 601.153 449.697 571.594 458.167C558.477 461.929 546.583 469.747 541.001 482.606C536.577 492.791 537.077 504.095 539.293 514.757C541.996 527.802 546.965 540.242 550.117 553.169C553.706 567.861 553.682 582.694 549.592 597.288C545.505 611.851 538.08 625.208 528.924 637.165C528.312 637.963 529.547 638.914 530.159 638.117Z" fill="#6200EE"/>
<path d="M523.344 625.324C540.402 603.028 550.495 575.48 544.295 547.395C538.993 523.398 521.63 493.148 539.947 470.656C551.117 456.95 570.566 453.577 587.281 453.434C602.501 453.307 617.601 456.106 632.835 455.726C646.358 455.395 660.105 452.461 670.826 443.761C681.735 434.908 688.341 421.593 690.838 407.934C696.432 377.399 682.146 345.336 667.311 319.467C649.875 289.05 625.974 262.298 597.588 241.706C569.758 221.524 536.904 208.728 510.823 186.085C498.372 175.279 487.441 162.123 480.994 146.835C477.611 138.81 476.212 130.718 475.143 122.152C474.419 116.372 472.863 110.677 469.776 105.692C457.898 86.5214 431.011 87.6033 411.642 91.0227C380.803 96.4672 357.531 115.539 341.28 141.875C323.513 170.675 315.276 203.922 301.012 234.377C293.046 251.383 283.101 267.887 269.401 280.918C256.321 293.351 240.185 301.17 223.289 307.048C192.835 317.651 158.708 323.384 134.487 346.461C112.073 367.813 110.734 397.718 116.254 426.429C121.827 455.412 132.877 486.71 156.774 505.671C178.808 523.163 206.539 522.318 233.16 524.031C246.717 524.91 260.541 526.636 272.902 532.623C289.913 540.855 301.851 556.347 310.141 572.913C324.952 602.496 328.352 636.658 345.171 665.357C358.628 688.321 382.08 707.746 410.15 704.589C439.229 701.32 464.525 678.653 486.457 661.156C499.913 650.418 512.65 638.865 523.344 625.324C523.975 624.539 522.733 623.592 522.107 624.383C510.768 638.737 497.099 650.821 482.757 662.09C470.465 671.754 458.033 681.622 444.672 689.776C431.528 697.802 416.531 704.242 400.819 703.299C386.08 702.423 372.792 695.088 362.331 684.963C338.612 661.984 332.033 628.654 322.067 598.495C313.171 571.557 299.219 542.783 271.953 530.458C248.976 520.079 222.905 523.247 198.522 520.198C183.672 518.338 169.581 513.848 157.721 504.43C144.88 494.243 135.841 480.05 129.414 465.142C123.013 450.303 118.877 434.422 116.457 418.463C114.167 403.275 113.697 387.203 118.977 372.547C130.615 340.244 165.396 326.596 195.595 317.353C226.116 308.016 256.348 299.124 277.986 274.149C299.067 249.821 309.462 218.796 320.853 189.255C332.9 157.985 347.673 125.619 376.355 106.185C388.895 97.696 403.046 93.5851 417.919 91.6338C429.687 90.0818 442.529 89.7393 453.706 94.3495C467.691 100.114 472.332 112.23 473.978 126.312C475.532 139.649 480.721 152.154 488.201 163.239C505.351 188.663 532.125 204.241 558.188 219.096C588.846 236.56 616.872 255.973 639.887 283.094C661.734 308.844 680.703 340.579 688.042 373.859C695.196 406.284 684.355 445.075 647.896 452.574C619.587 458.397 590.695 447.058 562.527 455.115C550.578 458.527 539.623 465.495 534.106 476.977C529.51 486.548 529.684 497.33 531.671 507.538C533.915 519.049 538.143 530.044 541.196 541.333C545.003 555.393 545.867 569.461 542.424 583.714C538.816 598.613 531.37 612.272 522.107 624.383C521.5 625.176 522.736 626.128 523.344 625.324Z" fill="#6200EE"/>
<path d="M516.532 612.538C532.313 591.896 541.979 566.287 536.526 540.207C531.765 517.403 514.901 488.774 531.812 467.226C552.199 441.257 591.894 453.428 619.681 452.737C632.575 452.417 645.667 449.588 655.823 441.184C665.772 432.954 671.864 420.765 674.275 408.231C679.785 379.553 666.476 349.374 652.628 325.013C636.592 296.812 614.682 271.944 588.651 252.572C562.273 232.944 530.842 220.814 505.725 199.427C493.5 189.023 482.75 176.258 476.518 161.335C473.367 153.78 472.138 146.276 471.107 138.255C470.437 133.052 469.082 127.95 466.404 123.397C455.515 104.936 430.135 105.713 411.752 108.884C383.269 113.807 361.587 130.808 346.15 154.928C328.791 182.036 320.975 213.716 307.584 242.727C300.616 257.816 292.104 272.457 280.563 284.544C268.181 297.504 252.598 305.79 235.869 311.792C206.915 322.186 174.383 327.234 150.951 348.84C129.72 368.412 127.551 395.954 132.437 422.914C137.402 450.343 147.467 479.996 169.454 498.51C190.122 515.903 216.426 515.48 241.918 517.04C255.027 517.839 268.413 519.378 280.38 525.154C296.1 532.727 307.259 546.912 315.051 562.153C329.459 590.347 332.547 623.097 348.701 650.5C361.184 671.667 382.661 689.627 408.551 687.377C436.203 684.978 460.331 663.344 481.072 646.862C494.009 636.574 506.259 625.525 516.532 612.538C517.159 611.747 515.917 610.8 515.291 611.591C504.612 625.093 491.769 636.458 478.283 647.075C466.833 656.089 455.245 665.252 442.823 672.907C430.351 680.59 416.097 686.816 401.133 685.949C387.124 685.135 374.499 678.13 364.601 668.474C342.546 646.962 336.302 615.897 327.039 587.723C318.614 562.086 305.426 534.622 279.412 522.976C257.278 513.067 232.201 516.411 208.769 513.185C195.009 511.285 182.049 506.795 171.181 497.904C159.26 488.147 150.9 474.728 144.949 460.668C139.048 446.722 135.217 431.819 133.018 416.857C130.863 402.248 130.615 386.797 136.045 372.833C147.916 342.344 181.698 330.211 210.445 321.499C238.794 312.901 266.347 304.012 286.135 280.66C305.904 257.341 315.539 227.827 326.421 199.785C337.693 170.748 351.767 140.832 378.543 122.984C390.022 115.339 402.923 111.588 416.469 109.732C427.649 108.197 439.854 107.783 450.527 112.06C463.937 117.446 468.341 128.98 469.941 142.425C471.478 155.281 476.577 167.326 483.912 177.938C500.434 201.841 525.856 216.385 550.558 230.456C579.292 246.828 605.446 265.291 626.906 290.78C647.179 314.876 664.866 344.538 671.662 375.586C678.356 406.218 668.146 442.609 633.745 449.689C607.131 455.171 579.957 444.499 553.456 452.048C542.132 455.28 531.756 461.888 526.553 472.782C522.201 481.907 522.433 492.177 524.366 501.889C526.556 512.858 530.619 523.342 533.474 534.137C537.052 547.6 537.607 561.051 534.076 574.6C530.546 588.139 523.756 600.518 515.296 611.586C514.684 612.384 515.92 613.336 516.532 612.538Z" fill="#6200EE"/>
<path d="M509.723 599.742C524.639 580.215 533.671 556.057 528.417 531.405C523.85 509.987 508.201 483.213 524.281 463.06C543.693 438.73 581.254 450.606 607.489 449.716C619.361 449.314 631.353 446.524 640.65 438.746C649.826 431.079 655.47 419.822 657.761 408.213C663.063 381.335 650.655 353.035 637.711 330.156C622.388 303.08 601.302 279.235 576.197 260.844C551.602 242.827 522.508 231.482 499.248 211.579C487.699 201.699 477.563 189.516 471.835 175.314C467.192 163.809 468.884 150.153 462.105 139.576C451.381 122.863 427.658 123.921 410.549 126.974C383.169 131.874 362.568 148.976 348.238 172.406C332.473 198.192 325.232 227.919 312.29 255.045C305.227 269.856 296.445 284.201 284.372 295.483C272.918 306.176 258.846 312.935 244.172 318.045C216.79 327.583 185.861 332.71 164.473 354.007C145.671 372.742 144.669 398.589 149.339 423.275C154.217 449.083 164.025 476.995 185.275 493.882C204.857 509.447 229.503 508.637 253.157 510.187C265.562 511.003 278.241 512.649 289.426 518.447C303.732 525.859 313.839 539.158 320.924 553.305C334.396 580.176 337.193 611.471 353.191 637.208C365.147 656.445 385.05 672.222 408.796 669.982C434.946 667.507 457.955 646.76 477.538 631.089C489.275 621.686 500.361 611.569 509.723 599.742C510.348 598.961 509.107 598.014 508.486 598.8C498.217 611.757 485.848 622.627 472.868 632.788C462.551 640.875 452.119 649.095 440.971 656.032C429.166 663.378 415.653 669.388 401.448 668.599C388.183 667.856 376.298 661.21 366.954 652.047C346.221 631.717 340.427 602.444 331.653 575.889C323.831 552.187 311.58 526.897 287.706 515.882C267.196 506.423 243.836 509.347 222.024 506.565C209.347 504.944 197.263 501.158 187.012 493.277C175.042 484.069 166.731 470.926 160.902 457.168C150.702 433.088 142.681 400.336 152.44 374.943C163.289 346.693 194.314 335.072 220.943 326.959C247.687 318.821 274.044 310.753 292.881 288.825C311.239 267.458 320.422 240.388 330.373 214.517C341.036 186.812 353.975 158.173 379.253 140.784C390.523 133.029 403.39 129.304 416.83 127.591C427.13 126.278 438.355 126.027 448.11 130.088C461.582 135.697 464.256 147.337 466.163 160.467C467.812 171.785 472.587 182.427 479.052 191.791C494.391 214.011 518.006 227.618 540.963 240.703C568.109 256.169 592.886 273.482 613.161 297.568C632.449 320.477 649.337 348.783 655.498 378.396C661.525 407.338 651.054 440.95 618.688 446.992C593.677 451.658 568.239 441.816 543.429 449.28C533.1 452.391 523.724 458.605 519.001 468.587C514.896 477.272 515.194 487.027 517.071 496.242C519.087 506.134 522.691 515.604 525.33 525.325C528.948 538.686 529.511 552.042 525.752 565.468C522.345 577.649 516.12 588.791 508.486 598.8C507.874 599.598 509.109 600.55 509.723 599.742Z" fill="#6200EE"/>
<path d="M502.911 586.956C516.551 569.074 525.136 546.861 520.638 524.215C516.585 503.814 501.032 477.944 516.75 458.893C534.975 436.82 569.055 447.365 593.369 446.754C604.935 446.468 616.663 443.861 625.65 436.159C633.863 429.125 638.988 419 641.177 408.517C646.434 383.359 634.879 356.768 622.792 335.309C608.917 310.664 589.967 288.896 567.401 271.836C543.694 253.915 515.136 243.12 492.599 223.59C481.682 214.127 472.172 202.472 467.006 188.855C462.96 178.205 464.555 165.646 457.935 156.032C447.59 140.995 425.731 142.122 409.922 144.975C384.865 149.497 365.903 165.018 352.542 186.329C337.491 210.344 330.7 238.257 318.715 263.731C312.173 277.625 304.053 291.108 292.88 301.793C281.761 312.42 267.956 318.976 253.55 323.908C228.162 332.601 199.594 337.59 179.891 357.379C162.499 374.844 161.576 398.91 165.903 421.838C170.327 445.248 178.985 470.26 197.498 486.307C215.254 501.701 237.949 501.839 260.153 503.086C271.846 503.743 283.799 504.92 294.578 509.843C308.765 516.332 318.861 528.922 325.834 542.545C338.51 567.287 341.247 596.018 355.376 620.101C366.218 638.581 384.867 654.372 407.448 652.722C432.116 650.927 453.732 631.483 472.147 616.799C483.365 607.846 493.97 598.229 502.911 586.956C503.532 586.169 502.291 585.222 501.67 586.008C492.066 598.118 480.517 608.274 468.391 617.767C458.48 625.528 448.483 633.435 437.734 640.013C426.424 646.938 413.451 652.384 399.922 651.106C387.148 649.9 375.804 642.762 367.219 633.523C334.166 597.92 343.843 528.834 293.594 507.713C274.233 499.576 252.603 502.439 232.267 499.546C220.108 497.817 208.689 493.714 199.192 485.717C188.909 477.063 181.708 465.308 176.576 453.019C167.339 430.887 160.129 401.203 168.559 377.809C178.4 350.497 208.19 339.493 233.61 331.771C258.329 324.26 282.568 316.684 300.033 296.5C317.755 276.04 326.324 249.884 335.939 225.067C345.809 199.607 358.06 173.34 381.454 157.574C397.928 146.466 425.743 140.041 444.936 147.805C457.308 152.806 460.396 163.458 462.018 175.613C463.509 186.818 468.286 197.333 474.793 206.504C489.506 227.255 511.896 239.83 533.517 252.174C558.997 266.711 582.079 283.306 600.883 306.108C618.634 327.632 634.421 354.364 639.518 382.132C644.569 409.674 633.054 439.83 602.691 444.428C579.273 447.97 555.487 438.943 532.467 446.837C512.743 453.594 505.713 471.17 509.776 490.595C511.732 499.949 515.166 508.912 517.613 518.133C520.688 529.711 521.223 541.321 518.306 553.003C515.278 565.093 509.187 576.151 501.664 586.013C501.058 586.806 502.299 587.753 502.911 586.956Z" fill="#6200EE"/>
<path d="M496.096 574.163C509.084 557.11 516.95 536.108 512.353 514.605C508.25 495.398 493.847 470.591 510.472 453.449C529.328 434.008 560.516 445.301 584.037 443.59C605.564 442.016 621.238 427.949 625.041 406.57C629.192 383.187 618.306 358.687 606.974 338.868C593.679 315.61 575.489 295.157 553.883 279.312C531.943 263.229 505.794 253.265 485.371 235.075C475.241 226.045 466.449 214.874 462.02 201.906C458.672 192.115 460.122 180.85 453.565 172.273C443.264 158.79 422.712 160.348 407.97 163.213C384.704 167.744 367.218 183.048 355.149 203.016C341.524 225.559 335.238 251.474 323.867 275.081C317.557 288.171 309.645 300.796 298.739 310.56C288.174 320.03 275.191 325.7 261.858 330.12C238.555 337.854 212.483 342.87 194.755 361.318C178.77 377.945 178.569 400.805 182.815 422.154C187.135 443.895 195.51 467.275 213.26 481.696C229.984 495.276 251.008 495.008 271.402 496.234C282.397 496.894 293.641 498.163 303.641 503.122C316.756 509.63 325.87 521.766 332.184 534.653C343.678 558.124 346.162 585.37 360.367 607.621C371.056 624.369 388.77 637.742 409.535 635.143C431.78 632.358 451.216 614.951 468.019 601.494C478.265 593.29 487.917 584.471 496.096 574.163C496.721 573.383 495.48 572.435 494.859 573.222C486.289 584.016 476.057 593.169 465.269 601.687C456.038 608.975 446.681 616.368 436.714 622.629C426.384 629.122 414.605 634.476 402.133 633.891C389.996 633.32 379.111 626.963 370.796 618.397C339.017 585.644 348.67 521.805 302.683 500.946C285.073 492.964 265.083 495.332 246.383 493.032C234.969 491.633 224.142 488.262 214.985 481.064C205.23 473.398 198.284 462.697 193.349 451.432C184.335 430.853 177.304 402.853 184.646 380.798C193.169 355.171 220.481 344.457 244.113 337.227C267.246 330.153 290.189 323.384 306.764 304.657C323.116 286.19 331.222 262.396 339.904 239.769C349.008 216.059 359.861 191.572 381.04 176.183C396.553 164.92 423.227 158.162 441.857 165.565C453.602 170.236 456.409 180.143 457.981 191.654C459.31 201.386 463.294 210.577 468.774 218.682C482.053 238.337 502.743 250.341 522.907 261.831C546.837 275.476 568.629 290.73 586.429 312.037C603.012 331.885 617.444 356.33 622.748 381.896C628.077 407.613 618.114 436.685 589.487 441.396C568.104 444.914 546.47 436.794 525.291 443.171C506.925 448.697 498.7 464.232 502.018 482.584C505.639 502.641 515.439 520.049 510.683 541.023C508.003 552.839 502.155 563.64 494.859 573.222C494.247 574.02 495.488 574.967 496.096 574.163Z" fill="#6200EE"/>
<path d="M489.285 561.377C501.199 545.705 508.531 526.393 504.419 506.61C500.664 488.591 486.922 465.181 502.975 449.327C520.708 431.827 549.092 442.287 570.859 440.593C591.242 439.001 605.768 425.18 608.795 404.903C612.004 383.439 601.94 361.139 591.487 343.027C579.146 321.635 562.304 302.8 542.33 288.261C521.716 273.248 497.101 263.945 478.178 246.569C469.28 238.393 461.66 228.384 457.734 216.855C454.628 207.722 455.969 197.339 449.797 189.374C440.308 177.146 421.577 178.493 408.087 181.07C386.427 185.202 370.141 199.278 358.881 217.859C346.466 238.351 340.631 261.878 330.447 283.416C324.75 295.475 317.647 307.195 307.835 316.37C298.064 325.504 285.933 331.045 273.377 335.26C251.879 342.479 227.839 346.936 211.196 363.642C196.07 378.817 195.35 399.723 199.169 419.639C203.034 439.816 210.584 461.501 226.747 475.168C242.475 488.465 262.458 488.138 281.903 489.342C291.87 489.959 302.053 491.166 311.115 495.647C323.612 501.826 332.162 513.504 338.035 525.812C348.346 547.423 350.714 572.407 363.887 592.726C373.958 608.25 390.462 620.374 409.756 617.729C430.192 614.922 448.085 598.869 463.554 586.464C472.95 578.934 481.774 570.817 489.285 561.377C489.906 560.59 488.669 559.649 488.043 560.43C473.645 578.54 453.61 594.017 434.032 606.268C424.602 612.174 413.819 617.047 402.447 616.54C391.057 616.02 380.835 610.027 373.094 601.921C344.057 571.521 352.729 512.553 310.143 493.464C293.649 486.076 274.981 488.424 257.495 486.142C233.634 483.036 217.587 467.801 208.487 446.014C200.422 426.703 194.066 400.521 202.013 380.239C210.965 357.379 236.28 348.258 257.859 341.711C279.168 335.245 299.954 328.612 314.94 311.167C329.455 294.269 336.82 272.869 344.675 252.396C353.18 230.208 363.295 207.226 383.248 192.959C397.563 182.714 422.29 176.543 439.35 183.544C450.081 187.956 452.468 197.17 453.948 207.701C455.21 216.65 458.879 225.085 463.912 232.544C476.021 250.498 494.891 261.583 513.296 272.071C535.653 284.815 556.038 298.916 572.688 318.83C587.871 336.982 601.065 359.258 606.147 382.589C611.378 406.623 602.422 434.238 575.353 438.498C555.328 441.655 535.032 433.997 515.27 440.397C499.027 445.661 491.742 459.781 494.565 476.151C497.822 495.06 507.211 511.337 502.567 531.104C500.039 541.872 494.698 551.678 488.043 560.43C487.436 561.233 488.677 562.18 489.285 561.377Z" fill="#6200EE"/>
<path d="M482.469 548.585C493.097 534.592 499.965 517.274 496.651 499.529C493.627 483.33 480.658 462.103 493.574 447.157C509.044 429.264 536.566 438.981 556.736 437.651C574.599 436.471 587.916 425.409 591.757 407.768C596.104 387.787 586.952 366.613 577.355 349.544C566.339 329.95 551.298 312.668 533.368 299.119C514.738 285.026 492.325 276.531 474.558 261.252C465.712 253.638 458.001 244.192 453.922 233.146C450.862 224.839 452.078 215.116 446.902 207.622C438.854 195.957 422.038 196.545 409.665 198.656C390.076 202.01 375.069 213.526 364.299 230.029C351.914 249.018 346.454 271.354 337.024 291.761C331.768 303.126 325.231 314.201 316.109 322.904C307.275 331.325 296.31 336.489 284.88 340.393C264.658 347.296 241.904 351.311 226.362 367.26C213.144 380.83 212.311 399.419 215.528 417.121C218.916 435.742 225.709 455.689 240.242 468.605C254.175 480.992 272.036 481.33 289.655 482.292C298.951 482.792 308.455 483.637 317.066 487.457C328.729 492.621 336.867 502.945 342.496 514.084C352.691 534.249 354.654 557.829 366.928 577.048C375.777 590.91 390.308 602.151 407.521 600.588C426.841 598.837 443.698 583.708 458.185 572.158C467.051 565.085 475.383 557.477 482.469 548.585C483.094 547.804 481.853 546.857 481.232 547.643C467.853 564.43 449.117 579.071 430.81 590.256C421.845 595.727 411.643 600.042 400.921 599.057C390.622 598.11 381.648 592.225 374.78 584.782C348.827 556.643 356.591 502.384 316.881 485.67C301.78 479.311 284.907 481.45 269.028 479.298C246.468 476.241 231.783 461.253 223.649 440.568C216.652 422.767 211.069 398.884 219.136 380.573C228.382 359.57 252.492 351.967 272.661 345.876C291.794 340.098 309.921 333.48 323.08 317.677C336.511 301.559 343.102 281.286 350.589 262.036C358.463 241.8 368.316 220.828 387.155 208.575C400.253 200.064 423.304 194.756 438.091 202.116C448.45 207.277 448.344 216.891 450.457 226.816C452.169 234.848 455.956 242.332 460.825 248.903C472.785 265.06 490.579 274.803 507.681 284.579C528.037 296.227 546.328 309.816 561.102 328.243C574.604 345.082 586.713 365.934 590.365 387.493C594.252 410.433 583.385 433.522 558.432 435.956C540.363 437.713 521.934 431.27 504.342 438C489.859 443.538 484.617 456.901 487.429 471.432C490.668 488.148 498.633 502.756 494.666 520.268C492.391 530.332 487.429 539.481 481.232 547.643C480.62 548.441 481.861 549.388 482.469 548.585Z" fill="#6200EE"/>
<path d="M475.658 535.799C485.243 523.147 491.497 507.579 488.693 491.527C486.071 476.528 474.242 457.787 485.431 443.717C498.962 426.707 525.308 435.938 543.567 434.655C559.858 433.507 571.988 423.241 575.379 407.117C579.154 389.176 571.077 370.251 562.539 354.879C552.795 337.321 539.486 321.76 523.63 309.439C506.672 296.27 486.187 288.424 469.632 274.724C461.296 267.816 453.96 259.169 449.978 248.991C447.043 241.486 448.066 232.663 443.784 225.708C436.843 214.447 421.477 214.631 409.956 216.496C391.985 219.407 378.143 229.65 368.147 244.731C356.696 262.014 351.698 282.446 343.118 301.121C338.648 310.856 333.186 320.314 325.724 328.076C317.334 336.787 306.638 342.033 295.322 345.886C277.332 352.023 257.252 355.616 243.082 369.337C230.267 381.73 229.081 398.866 232.075 415.544C235.137 432.594 241.275 450.798 254.501 462.692C267.33 474.241 283.839 474.488 300.138 475.387C308.925 475.88 318.102 476.696 326.092 480.701C336.673 486 343.854 495.715 348.814 506.199C357.29 524.093 359.341 544.692 370.078 561.574C378.27 574.466 391.789 584.872 407.765 583.193C425.269 581.354 440.558 567.652 453.72 557.128C461.731 550.724 469.238 543.834 475.658 535.799C476.283 535.018 475.047 534.066 474.416 534.851C462.301 550.012 445.45 563.182 428.957 573.381C420.698 578.494 411.193 582.654 401.251 581.704C391.609 580.785 383.216 575.203 376.907 568.105C354.039 542.38 360.571 493.983 325.113 478.532C311.527 472.608 296.223 474.404 281.857 472.615C261.248 470.047 247.624 456.923 239.996 438.033C233.407 421.723 228.109 399.534 235.517 382.666C244.264 362.751 267.353 356.15 286.365 350.365C303.629 345.113 319.612 338.648 331.194 324.189C342.821 309.67 348.712 291.777 355.346 274.682C362.657 255.861 371.873 236.244 389.665 225.183C401.719 217.692 424.49 212.569 437.308 221.16C445.677 226.769 444.603 236.124 446.917 244.712C448.943 252.227 452.909 259.108 457.816 265.094C469.286 279.122 485.519 287.569 500.948 296.467C519.016 306.889 535.103 319.456 548.079 335.934C560.19 351.322 571.198 370.482 574.113 390.118C577.284 411.504 566.199 431.504 543.375 433.106C526.786 434.275 509.365 428.356 493.496 435.711C481.311 441.357 477.639 453.308 480.13 465.779C483.186 481.066 490.316 494.318 486.567 510.337C484.467 519.335 479.965 527.533 474.421 534.857C473.814 535.651 475.05 536.602 475.658 535.799Z" fill="#6200EE"/>
<path d="M468.842 523.006C477.74 511.228 483.377 496.829 480.444 481.951C477.734 468.168 467.01 450.442 479.158 438.305C492.945 424.526 515.281 433.439 532.241 431.485C546.998 429.783 557.169 419.089 559.325 404.488C561.77 387.946 553.966 370.804 545.832 356.881C536.412 340.763 523.611 326.6 508.468 315.673C492.898 304.434 474.349 297.41 460.16 284.25C453.112 277.715 447.107 269.579 444.415 260.248C442.448 253.424 443.324 246.129 438.321 240.441C430.974 232.098 417.732 232.952 407.845 234.749C391.683 237.691 379.386 247.69 370.698 261.416C360.696 277.219 356.243 295.648 348.301 312.439C343.798 321.966 338.152 331.053 330.284 338.164C322.728 345.002 313.247 348.956 303.679 352.08C287.83 357.259 270.266 360.846 258.064 373.114C246.521 384.727 246.026 400.673 248.97 415.883C251.95 431.282 257.79 447.811 270.254 458.115C281.769 467.633 296.349 467.689 310.518 468.489C318.324 468.931 326.486 469.685 333.591 473.235C343.529 478.206 350.136 487.462 354.65 497.361C362.08 513.658 364.004 532.345 374.111 547.446C381.479 558.455 393.281 567.172 407.089 565.896C422.826 564.444 436.504 552.219 448.32 542.838C455.827 536.879 462.848 530.494 468.842 523.006C469.468 522.226 468.236 521.28 467.606 522.065C456.442 535.99 440.814 548.328 425.476 557.512C418.3 561.81 410.117 565.161 401.585 564.356C392.687 563.517 384.978 558.257 379.246 551.635C359.087 528.349 364.692 485.85 333.42 471.419C321.21 465.783 307.239 467.434 294.237 465.881C275.868 463.687 263.406 452.36 256.341 435.507C250.054 420.511 244.995 399.377 252.288 383.879C260.325 366.801 280.248 360.87 296.867 355.831C312.611 351.055 327.254 345.457 337.949 332.365C348.191 319.832 353.574 304.334 359.302 289.418C365.97 272.038 373.923 253.777 390.078 243.146C400.884 236.03 419.609 231.684 431.868 237.561C440.914 241.892 440.444 250.321 442.426 258.767C443.947 265.241 447.08 271.241 451.057 276.535C460.215 288.728 473.476 296.487 486.495 303.928C503.776 313.811 519.438 324.594 532.22 340.098C543.66 353.97 553.789 371.055 557.225 388.914C559.222 399.312 558.27 410.7 551.688 419.406C544.477 428.958 533.088 430.643 521.873 430.177C507.606 429.578 489.527 425.774 478.083 437.07C468.961 446.078 472.124 458.844 475.445 469.696C477.95 477.886 480.428 485.9 479.492 494.577C478.395 504.739 473.692 514.005 467.606 522.065C467.003 522.864 468.239 523.816 468.842 523.006Z" fill="#6200EE"/>
<path d="M462.031 510.22C470.067 499.537 475.071 486.615 472.338 473.154C469.752 460.416 459.626 443.194 472.973 432.996C486.429 422.707 504.729 430.71 519.951 428.359C532.827 426.366 541.394 416.391 542.954 403.599C544.662 389.599 538.423 375.302 531.71 363.399C523.634 349.092 512.614 336.443 499.512 326.527C485.629 316.031 468.891 309.735 455.754 298.24C449.071 292.396 443.251 285.07 440.532 276.504C438.521 270.188 439.435 263.143 434.807 257.841C428.221 250.309 416.27 251.068 407.371 252.713C393.434 255.28 382.748 263.685 374.996 275.389C365.505 289.709 361.554 306.734 354.255 322.12C350.2 330.669 345.125 338.963 337.962 345.268C330.839 351.544 322.024 355.044 313.098 357.902C299.105 362.386 283.592 365.793 273.086 376.895C262.835 387.731 263.003 402.464 265.899 416.222C268.724 429.685 274.114 444.091 285.289 452.856C295.875 461.154 309.138 460.822 321.892 461.649C330.84 462.235 339.648 463.709 346.879 469.414C355.112 475.916 359.801 485.834 363.164 495.515C368.578 511.096 371.553 528.48 384.218 540.19C394.996 550.154 408.523 550.581 421.156 543.851C428.14 540.139 434.425 535.13 440.664 530.308C448.455 524.287 455.846 517.915 462.031 510.22C462.656 509.439 461.421 508.487 460.79 509.273C451.18 521.234 438.117 531.404 425.213 539.65C410.869 548.822 394.98 549.897 382.788 536.545C364.129 516.089 369.438 478.596 342.442 464.693C331.838 459.234 319.478 460.375 307.972 459.279C290.746 457.633 278.941 447.887 272.294 432.006C266.68 418.578 262.15 399.812 268.675 385.967C276.023 370.364 294.356 365.266 309.483 360.646C323.171 356.467 335.854 351.357 345.148 339.995C354.692 328.325 359.495 313.808 364.87 299.958C370.74 284.817 378.033 268.988 392.26 259.958C402.079 253.738 421.45 249.178 431.65 257.016C437.538 261.546 436.811 268.719 438.527 275.178C440.267 281.728 443.79 287.709 448.178 292.825C457.766 304.017 471.038 310.683 483.561 317.991C497.784 326.282 510.422 336.462 520.584 349.504C530.303 361.987 539.281 377.643 541.306 393.589C542.412 402.298 540.866 411.681 535.103 418.589C528.477 426.53 518.428 427.607 508.753 427.162C496.23 426.58 480.709 423.474 470.514 433.03C461.947 441.059 464.726 452.602 467.742 462.476C470.079 470.14 472.366 477.537 471.281 485.654C470.106 494.405 466.043 502.296 460.79 509.273C460.188 510.072 461.423 511.023 462.031 510.22Z" fill="#6200EE"/>
<path d="M455.215 497.428C462.002 488.378 466.488 477.402 464.533 465.941C462.516 454.105 452.462 438.048 465.546 428.965C477.887 420.403 493.976 427.919 507.605 425.148C518.209 422.985 524.968 414.324 526.416 403.822C528.208 390.898 522.043 377.441 515.673 366.588C508.028 353.566 497.606 342.175 485.248 333.494C473.333 325.123 459.349 319.69 448.558 309.745C442.493 304.157 437.318 297.03 435.56 288.844C434.429 283.589 434.664 278.514 430.563 274.471C424.326 268.341 413.874 269.277 406.04 270.837C393.993 273.248 384.728 280.974 378.15 291.157C370.322 303.268 366.774 317.431 360.83 330.449C357.252 338.294 352.728 345.981 346.26 351.81C339.812 357.617 331.739 360.795 323.577 363.385C311.379 367.247 297.993 370.326 288.832 379.955C280.27 388.958 279.879 401.13 282.053 412.738C284.262 424.509 288.569 436.951 297.577 445.284C306.551 453.573 318.11 453.973 329.65 454.595C336.342 454.962 343.285 455.505 349.338 458.662C358.608 463.488 363.924 473.179 367.396 482.616C372.483 496.482 374.742 512.196 385.739 522.988C395.082 532.161 407.152 533.267 418.618 527.372C432.102 520.441 445.723 509.202 455.215 497.428C455.851 496.648 454.609 495.701 453.978 496.486C445.376 507.143 433.633 516.362 422.024 523.612C408.118 532.298 393.413 531.253 383.151 517.668C368.989 498.927 372.323 465.458 346.828 455.848C337.556 452.351 327.404 453.435 317.743 452.253C302.677 450.405 292.983 440.747 287.626 426.925C282.732 414.302 278.872 396.839 286.942 384.74C294.731 373.061 309.488 369.368 322.082 365.474C333.88 361.828 344.649 357.162 352.576 347.325C360.778 337.143 364.976 324.611 369.63 312.584C374.66 299.589 380.8 286.027 392.719 277.912C401.356 272.036 419.156 267.416 428.424 274.665C433.668 278.761 432.894 285.26 434.497 291.017C435.929 296.16 438.647 300.897 441.982 305.03C449.498 314.348 460.018 320.239 470.243 326.094C495.184 340.36 519.947 363.521 524.635 393.449C526.026 402.344 524.401 412.2 517.509 418.532C510.956 424.543 502.141 424.591 493.761 424.021C483.273 423.307 469.762 421.487 461.76 430.153C455.147 437.322 457.501 446.892 460.043 455.261C462.009 461.719 464.008 468.008 463.293 474.867C462.464 482.86 458.729 490.134 453.974 496.48C453.376 497.285 454.612 498.237 455.215 497.428Z" fill="#6200EE"/>
<path d="M448.404 484.642C454.14 476.957 458.05 467.675 456.56 457.931C454.915 447.184 445.661 432.814 458.122 425.129C469.401 418.174 483.121 425.252 495.203 421.874C503.512 419.548 508.726 412.25 509.905 403.892C511.47 392.79 506.272 381.251 500.849 371.901C494.666 361.237 486.325 351.812 476.445 344.43C465.746 336.432 452.806 331.639 442.877 322.59C438.063 318.211 433.87 312.74 431.975 306.434C430.434 301.312 431.171 295.872 427.031 291.859C421.714 286.714 412.935 287.398 406.277 288.665C396.131 290.605 388.207 296.746 382.429 305.189C375.433 315.412 372.307 327.585 367.365 338.81C360.852 353.579 351.527 363.11 336.106 368.204C325.168 371.824 312.926 374.239 304.627 382.916C297.218 390.664 296.754 401.115 298.596 411.156C300.401 421.019 303.912 431.449 311.142 438.696C318.639 446.199 328.287 447.104 338.345 447.616C345.233 447.959 352.427 448.338 358.453 452.118C365.802 456.728 369.936 464.962 372.741 472.888C377.038 485.033 379.257 498.75 389.33 507.762C397.386 514.964 407.46 515.321 416.843 510.482C428.507 504.471 440.159 494.802 448.404 484.642C449.039 483.862 447.798 482.915 447.163 483.694C439.674 492.929 429.48 501.013 419.351 507.263C407.084 514.827 394.218 513.241 385.584 501.206C373.972 485.035 376.526 457.092 355.047 448.693C346.721 445.436 337.555 446.532 328.861 445.348C315.763 443.564 307.581 434.502 303.219 422.47C299.05 410.999 296.082 395.663 304.497 385.383C312.366 375.777 325.518 373.333 336.689 369.653C346.234 366.512 354.515 361.946 360.663 353.813C367.337 344.992 370.815 334.389 374.792 324.205C379.357 312.497 385.178 300.271 396.541 293.782C404.124 289.453 420.201 285.822 426.755 293.853C430.061 297.901 429.343 304.026 431.135 308.805C432.725 313.038 435.33 316.919 438.346 320.255C445.529 328.23 455.164 333.099 464.295 338.425C484.835 350.409 506.17 372.011 508.45 397.045C509.178 405.046 506.716 413.745 499.587 418.222C493.918 421.776 487.121 421.472 480.698 420.998C471.871 420.347 460.937 419.202 454.101 426.173C448.116 432.281 450.152 440.775 452.348 448.053C454.04 453.679 455.734 459.062 455.181 465.025C454.546 471.93 451.243 478.229 447.163 483.694C446.565 484.499 447.806 485.447 448.404 484.642Z" fill="#6200EE"/>
<path d="M441.589 471.85C446.446 465.273 449.756 457.453 448.463 449.146C446.927 439.33 438.568 425.525 452.388 420.447C462.001 416.912 472.458 422.107 482.071 418.69C489.078 416.197 493.014 409.434 493.576 402.245C494.314 392.813 489.691 383.195 484.943 375.357C479.362 366.154 471.8 358.118 462.956 351.991C453.479 345.432 442.121 341.246 434.246 332.552C429.88 327.724 427.915 322.539 426.792 316.211C426.286 313.367 425.334 310.845 423.101 308.913C418.313 304.792 410.675 305.549 404.97 306.808C396.015 308.792 389.276 314.865 384.558 322.555C379.076 331.481 376.619 341.764 372.11 351.143C369.225 357.142 365.646 362.772 360.393 366.969C355.522 370.866 349.442 372.822 343.566 374.633C334.652 377.366 324.557 380.128 318.64 387.951C313.462 394.79 313.849 403.544 315.521 411.535C317.17 419.427 320.166 427.755 326.107 433.474C332.675 439.791 341.008 440.289 349.642 440.756C355.682 441.081 361.626 441.703 366.745 445.258C372.692 449.394 375.836 456.551 378.089 463.185C381.529 473.31 383.637 484.619 392.246 491.839C399.055 497.543 407.375 497.611 415.062 493.607C424.902 488.474 434.589 480.408 441.589 471.85C442.228 471.076 440.987 470.129 440.352 470.908C434.105 478.534 425.805 485.113 417.472 490.4C407.15 496.949 395.892 496.05 388.588 485.504C379.207 471.956 380.89 448.829 363.376 441.563C356.918 438.875 349.766 439.459 342.951 438.801C331.194 437.681 323.64 430.787 319.537 419.921C316.203 411.088 313.561 399.091 318.856 390.567C324.724 381.113 336.256 378.602 346.153 375.452C354.155 372.911 361.336 369.48 366.758 362.867C372.273 356.14 375.334 347.863 378.403 339.832C382.221 329.84 386.466 318.878 395.64 312.54C402.078 308.086 416.07 304.06 422.54 310.614C425.831 313.947 425.173 319.067 426.67 323.271C427.908 326.759 429.952 329.938 432.353 332.738C437.74 339.013 444.953 343.081 452.035 347.141C470.248 357.587 489.054 374.82 491.817 396.966C492.7 404.051 490.802 411.594 484.556 415.676C479.578 418.938 473.326 418.406 467.667 417.97C460.688 417.437 452.149 416.835 446.614 422.063C441.908 426.507 442.404 432.765 443.961 438.485C445.173 442.952 447.016 447.351 447.203 452.025C447.484 459.003 444.388 465.432 440.352 470.908C439.754 471.713 440.995 472.661 441.589 471.85Z" fill="#6200EE"/>
<path d="M434.777 459.063C438.597 453.833 441.269 447.754 440.495 441.142C439.406 431.819 431.569 418.746 446.947 416.517C454.312 415.448 462.362 418.718 469.345 415.132C474.773 412.345 477.221 406.23 477.09 400.357C476.732 384.703 463.7 369.271 451.373 360.936C443.588 355.67 434.136 352.231 428.032 344.78C424.506 340.478 423.952 336.452 422.594 331.334C422.008 329.116 420.91 327.19 419.002 325.863C414.814 322.953 408.38 323.726 403.789 324.952C397.033 326.751 391.915 331.571 388.294 337.404C383.827 344.589 381.761 352.889 378.204 360.502C375.918 365.381 372.99 370.122 368.717 373.509C363.989 377.252 358.139 378.827 352.481 380.571C345.567 382.704 337.895 385.443 333.81 391.88C330.374 397.285 330.799 403.957 332.061 409.973C333.443 416.57 335.984 423.559 341.068 428.235C346.171 432.923 352.6 433.463 359.217 433.815C364.066 434.07 369.241 434.318 373.383 437.191C378.721 440.893 381.364 447.203 383.297 453.157C385.78 460.8 387.616 469.078 393.788 474.711C407.329 487.091 426.134 469.491 434.777 459.063C435.417 458.29 434.175 457.342 433.536 458.116C428.185 464.575 420.848 470.628 413.511 474.761C402.911 480.733 393.799 475.527 389.043 465.239C384.09 454.517 383.536 439.254 370.912 434.122C365.965 432.112 360.473 432.473 355.26 432.021C345.725 431.218 339.453 426.29 335.855 417.371C332.882 410.003 330.718 399.821 335.249 392.722C340.34 384.756 350.242 383.154 358.516 380.335C372.476 375.571 378.135 365.559 383.203 352.392C386.241 344.473 389.346 336.065 396.17 330.564C402.079 325.815 415.594 321.928 420.564 330.117C422.151 332.72 421.755 336.994 423.102 339.942C424.203 342.341 425.685 344.477 427.435 346.445C431.632 351.169 437.079 354.295 442.492 357.411C457.36 365.973 472.601 379.454 475.249 397.526C476.223 404.201 474.23 410.83 467.919 414.119C463.464 416.444 457.723 415.039 452.943 414.804C447.749 414.543 441.426 414.954 437.812 419.266C434.709 422.965 435.332 427.728 436.492 432.056C439.199 442.137 440.08 449.161 433.542 458.112C432.948 458.922 434.184 459.874 434.777 459.063Z" fill="#6200EE"/>
<path d="M427.962 446.271C430.541 442.685 432.552 438.66 432.514 434.133C432.491 431.783 431.804 429.643 431.19 427.411C430.699 425.624 429.39 423.257 429.755 421.392C431.259 419.045 432.765 416.688 434.269 414.341C436.654 413.539 439.102 413.244 441.611 413.477C446.205 413.621 451.161 414.735 455.323 412.087C458.951 409.773 460.53 405.486 460.536 401.347C460.533 389.117 450.273 377.019 440.701 370.513C434.119 366.037 426.035 363.205 421.424 356.348C418.474 351.967 419.893 345.219 414.388 342.783C405.557 338.888 395.68 346.022 391.432 353.211C388.335 358.448 386.861 364.404 384.296 369.881C379.36 380.419 372.106 382.812 361.918 386.381C350.249 390.467 345.926 398.394 349.06 410.367C351.995 421.584 358.429 426.218 369.654 426.909C375.057 427.244 379.89 427.95 383.544 432.396C386.56 436.064 387.741 440.842 389.143 445.263C390.885 450.743 393.01 456.632 398.114 459.885C408.522 466.524 421.782 453.667 427.962 446.271C428.611 445.499 427.365 444.556 426.725 445.33C422.952 449.844 418.125 453.752 413.196 456.984C404.828 462.485 396.615 459.519 392.617 450.438C389.134 442.543 388.526 431.742 379.892 427.329C376.26 425.467 372.116 425.537 368.148 425.285C360.3 424.776 354.887 421.436 351.808 413.87C349.187 407.436 347.942 399.227 352.699 393.579C357.203 388.222 364.927 387.471 371.09 385.083C380.462 381.455 384.548 373.841 388.01 364.901C390.155 359.367 392.138 353.714 396.296 349.328C401.726 343.598 413.713 339.718 417.298 349.491C418.745 353.429 419.108 356.345 422.089 359.671C425.405 363.379 429.729 365.819 433.988 368.28C444.858 374.559 458.955 386.479 458.978 400.479C459.026 420.684 437.566 405.113 429.738 415.881C427.79 418.565 428.033 421.663 428.786 424.748C430.711 432.708 431.927 438.086 426.725 445.33C426.142 446.142 427.377 447.093 427.962 446.271Z" fill="#6200EE"/>
</svg>
