<svg width="423" height="464" viewBox="0 0 423 464" fill="none" xmlns="http://www.w3.org/2000/svg">
<path d="M-203.797 313.642C-168.972 324.274 -130.349 319.063 -99.6373 299.392C-82.9047 288.673 -70.3792 273.548 -57.6858 258.52C-44.4748 242.9 -30.2537 226.174 -10.369 219.173C10.5833 211.795 32.1843 218.332 52.6693 223.949C70.5917 228.868 88.2865 232.239 106.903 230.049C141.038 226.048 171.988 207.14 195.406 182.609C222.143 154.611 239.01 117.357 253.13 81.7506C260.227 63.8546 265.877 45.4111 269.599 26.5165C273.19 8.25079 277.515 -12.0842 272.795 -30.4069C268.218 -48.153 257.865 -64.3145 244.374 -76.6343C228.204 -91.4041 207.374 -98.6375 187.138 -105.926C164.305 -114.147 142.591 -123.364 124.943 -140.587C107.48 -157.626 95.2054 -179.305 86.1706 -201.79C55.2049 -278.946 63.1593 -373.953 0.234921 -436.188C-52.0065 -487.863 -133.629 -501.845 -203.308 -484.797C-285.523 -464.69 -349.648 -400.428 -391.312 -329.327C-412.265 -293.561 -429.853 -254.532 -440.161 -214.283C-449.264 -178.735 -452.13 -139.214 -435.672 -105.293C-417.733 -68.3194 -380.78 -47.0609 -348.619 -24.0388C-330.862 -11.3352 -313.3 2.50929 -300.732 20.6086C-289.214 37.1802 -283.44 56.3621 -282 76.3884C-279.4 112.724 -288.831 148.61 -289.625 184.849C-290.451 222.21 -279.259 257.398 -252.223 284.07C-238.555 297.555 -222.024 307.627 -203.797 313.642C-202.528 314.061 -201.689 312.136 -202.978 311.713C-243.807 298.234 -276.13 263.088 -284.753 220.737C-291.767 186.305 -284.341 151.054 -281.024 116.642C-277.951 84.7127 -278.619 51.7386 -296.165 23.7118C-317.259 -9.97049 -354.183 -29.2145 -385.111 -52.4207C-401.961 -65.0661 -418.179 -79.3735 -429.127 -97.6066C-438.925 -113.928 -443.96 -132.5 -445.144 -151.432C-447.575 -190.309 -435.459 -228.907 -420.923 -264.453C-387.788 -345.41 -333.324 -422.819 -253.874 -463.561C-188.135 -497.264 -105.038 -499.461 -39.7052 -463.317C-5.32349 -444.303 20.5278 -414.916 36.0501 -378.903C52.9935 -339.577 58.4752 -296.684 67.867 -255.226C76.9226 -215.196 90.8531 -173.577 119.55 -143.11C132.95 -128.884 149.043 -118.707 167.025 -111.273C188.316 -102.477 211.493 -96.9889 231.008 -84.3464C247.855 -73.4255 261.294 -56.75 268.263 -37.9046C275.905 -17.2558 271.665 5.16232 267.526 26.2188C259.847 65.2147 243.417 101.362 225.301 136.491C208.337 169.394 182.439 197.983 149.145 214.852C133.204 222.936 115.629 227.992 97.7289 228.66C78.4169 229.384 60.3606 223.724 41.918 218.844C25.3609 214.469 7.99904 211.264 -8.77782 216.438C-25.8444 221.7 -39.1888 234.295 -50.8167 247.346C-63.874 262 -75.5173 278.263 -90.9644 290.598C-106.729 303.195 -125.754 311.548 -145.596 315.101C-164.751 318.527 -184.361 317.39 -202.973 311.705C-204.252 311.316 -205.084 313.246 -203.797 313.642Z" fill="#6200EE"/>
<path d="M-199.044 294.818C-165.543 305.025 -128.27 299.869 -98.9477 280.563C-67.2834 259.703 -50.8714 216.127 -13.2621 204.421C6.60127 198.234 26.9986 204.856 46.2463 210.092C62.4386 214.496 78.5064 217.361 95.3149 215.51C127.95 211.922 157.584 193.951 179.989 170.561C205.562 143.864 221.714 108.206 235.155 74.1991C241.6 57.9128 246.782 41.1394 250.289 23.9674C253.889 6.30743 258.294 -13.8051 253.829 -31.5846C249.439 -49.0594 239.109 -65.0327 225.655 -76.9069C210.445 -90.3428 191.103 -97.0332 172.319 -103.795C150.354 -111.708 129.402 -120.7 112.558 -137.396C96.1525 -153.672 84.6324 -174.252 76.1478 -195.58C47.1448 -268.519 54.3995 -358.107 -4.74668 -417.045C-54.463 -466.586 -132.47 -479.965 -198.98 -463.572C-276.485 -444.463 -337.024 -384.019 -376.536 -317.054C-396.757 -282.784 -413.677 -245.34 -423.575 -206.72C-432.393 -172.303 -435.019 -133.948 -418.436 -101.358C-400.783 -66.6622 -365.523 -46.7817 -335.082 -24.8279C-318.266 -12.7102 -301.734 0.599355 -290.094 17.9884C-279.846 33.3099 -274.71 50.9365 -273.377 69.2164C-270.812 104.315 -280.1 138.971 -280.625 173.993C-281.155 209.036 -270.243 241.985 -244.877 266.908C-231.909 279.643 -216.287 289.118 -199.044 294.818C-197.775 295.237 -196.949 293.314 -198.225 292.889C-236.263 280.313 -266.655 247.929 -275.423 208.615C-282.729 175.894 -275.782 142.158 -272.499 109.393C-269.481 79.2151 -269.638 47.9406 -285.641 21.1116C-304.885 -11.1426 -339.722 -29.6746 -369.033 -51.3439C-384.799 -62.9971 -399.989 -75.965 -410.851 -92.4695C-421.29 -108.321 -426.749 -126.728 -428.121 -145.576C-430.859 -183.157 -419.057 -220.587 -404.954 -254.936C-373.567 -331.341 -322.109 -404.46 -247.172 -443.083C-184.444 -475.419 -105.02 -477.653 -42.6745 -442.874C-10.1759 -424.752 14.2426 -396.842 28.864 -362.714C44.843 -325.411 50.053 -284.797 58.9612 -245.506C67.3006 -208.705 79.9196 -170.63 105.412 -141.931C118.3 -127.414 134.046 -116.815 151.88 -109.315C171.169 -101.2 191.855 -96.0842 210.067 -85.5606C228.228 -75.0651 242.753 -57.7863 249.718 -37.9791C256.411 -18.9244 252.466 1.80949 248.709 21.1649C241.484 58.3831 225.821 92.8526 208.567 126.368C192.351 157.848 167.478 185.343 135.484 201.25C120.143 208.868 103.309 213.606 86.1314 214.041C68.2674 214.494 51.5727 209.228 34.5094 204.72C19.0427 200.634 2.90351 197.566 -12.8339 202.122C-28.7297 206.723 -41.2595 217.996 -52.1584 229.987C-65.0714 244.182 -76.2629 260.167 -91.2592 272.334C-106.106 284.374 -124.057 292.418 -142.819 295.935C-161.295 299.397 -180.252 298.362 -198.225 292.889C-199.504 292.499 -200.344 294.424 -199.044 294.818Z" fill="#6200EE"/>
<path d="M-194.299 275.989C-163.477 285.368 -129.549 281.057 -102.068 264.154C-86.7261 254.729 -75.2292 241.196 -63.7417 227.583C-51.6906 213.304 -38.8973 197.903 -20.8416 191.237C-1.79162 184.21 18.0076 190.261 36.6818 195.373C52.2017 199.623 67.5897 202.621 83.7261 200.971C114.471 197.842 142.477 181.171 163.762 159.349C188.129 134.361 203.382 100.996 216.263 68.9765C222.625 53.1498 227.768 36.8582 231.226 20.1487C234.737 3.1876 239.051 -16.2394 234.706 -33.3375C230.954 -48.0844 222.782 -61.6154 212.085 -72.3578C198.115 -86.3877 179.964 -93.5643 161.668 -100.172C141.687 -107.381 122.001 -114.625 105.815 -128.895C89.173 -143.562 77.3137 -162.896 68.6745 -183.149C39.043 -252.579 47.2735 -339.049 -8.28848 -396.419C-54.4204 -444.039 -127.787 -457.726 -190.824 -443.249C-265.063 -426.196 -323.316 -369.195 -361.335 -305.506C-380.915 -272.708 -397.229 -236.799 -406.839 -199.747C-415.131 -167.784 -417.818 -132.3 -403.303 -101.664C-387.353 -68.0115 -353.787 -48.6909 -324.669 -27.8582C-308.451 -16.2506 -292.391 -3.59526 -281.049 13.0444C-271.088 27.6629 -266.061 44.5182 -264.747 62.0504C-262.277 95.156 -271.016 127.853 -271.596 160.877C-272.172 194.002 -262.167 225.182 -238.341 248.934C-225.941 261.306 -210.918 270.489 -194.299 275.989C-193.028 276.421 -192.196 274.49 -193.48 274.06C-230.244 261.881 -259.318 230.285 -267.035 192.096C-273.262 161.206 -266.62 129.599 -263.647 98.7377C-260.91 70.4266 -261.414 41.2104 -276.563 16.1569C-295.138 -14.566 -328.582 -32.0804 -356.529 -52.9264C-386.486 -75.2776 -408.424 -102.849 -411.204 -141.27C-413.796 -177.123 -402.449 -212.836 -388.927 -245.557C-358.899 -318.224 -309.72 -387.601 -238.085 -423.843C-178.401 -454.033 -102.827 -455.322 -44.1864 -421.618C-12.5085 -403.401 10.3569 -375.304 23.7578 -341.471C37.7327 -306.218 42.3337 -268.322 51.021 -231.637C59.3937 -196.251 72.351 -159.606 98.3343 -133.132C110.631 -120.598 125.295 -111.919 141.493 -105.409C160.487 -97.7846 181.115 -92.7504 198.247 -81.14C213.498 -70.8108 225.681 -55.0937 231.331 -37.4996C237.11 -19.5113 233.064 0.470806 229.404 18.6082C222.278 53.9742 207.188 87.0409 190.495 118.814C175.247 147.822 151.463 173.139 121.813 187.628C107.434 194.665 91.6988 199.002 75.6592 199.373C58.0433 199.79 41.6706 194.302 24.8341 189.986C10.3729 186.281 -4.72945 183.863 -19.2864 188.486C-34.166 193.208 -45.8661 204.112 -56.0919 215.5C-68.25 229.034 -78.9595 244.179 -93.3631 255.52C-107.223 266.437 -123.847 273.748 -141.171 276.974C-158.629 280.216 -176.51 279.226 -193.48 274.06C-194.752 273.676 -195.591 275.601 -194.299 275.989Z" fill="#6200EE"/>
<path d="M-189.551 257.173C-160.077 266.108 -127.46 261.896 -101.389 245.354C-72.797 227.217 -58.5173 189.404 -26.0704 177.275C-7.60012 170.364 11.4466 176.393 29.5546 181.325C44.3314 185.341 59.022 187.97 74.3591 186.188C103.157 182.849 129.284 167.023 149.153 146.45C172.113 122.668 186.551 90.9182 198.641 60.5454C204.584 45.6198 209.357 30.2573 212.545 14.5064C215.729 -1.21011 219.611 -18.9643 215.652 -34.7914C211.858 -49.9629 203.084 -63.8603 191.6 -74.3953C178.166 -86.7423 160.986 -92.9545 144.095 -99.0365C124.783 -105.996 106.148 -113.532 91.0093 -127.877C75.5012 -142.587 64.7115 -161.575 56.8454 -181.277C30.5994 -246.976 37.3103 -327.808 -16.5579 -380.576C-61.2316 -424.328 -130.773 -435.964 -190.006 -421.187C-259.865 -403.757 -314.225 -348.865 -349.483 -288.291C-367.214 -257.829 -382.124 -224.619 -390.722 -190.357C-398.331 -160.028 -400.473 -126.359 -386.043 -97.6362C-370.275 -66.253 -338.42 -48.3358 -310.984 -28.5416C-295.825 -17.6018 -280.918 -5.54192 -270.562 10.2442C-261.371 24.2772 -256.986 40.4163 -255.982 57.0436C-254.131 87.8759 -262.128 118.264 -262.584 149.017C-263.047 180.179 -253.43 209.489 -230.988 231.779C-219.297 243.381 -205.173 251.986 -189.551 257.173C-188.275 257.597 -187.449 255.674 -188.733 255.244C-223.097 243.829 -250.379 214.506 -257.943 178.87C-264.15 149.621 -257.862 119.602 -255.002 90.3497C-252.446 64.1185 -252.626 36.9304 -266.147 13.4468C-282.788 -15.476 -313.56 -32.2306 -339.685 -51.3044C-368.441 -72.3019 -390.743 -97.84 -394.093 -134.586C-397.143 -167.993 -386.945 -201.452 -374.577 -232.069C-346.776 -300.905 -300.975 -366.849 -233.905 -402.062C-178.048 -431.398 -107.252 -433.905 -51.2102 -403.445C-21.2426 -387.156 1.20437 -361.662 14.506 -330.326C28.6009 -297.092 33.2334 -260.979 41.1746 -226.02C48.7458 -192.662 60.2763 -158.087 83.7282 -132.335C94.8954 -120.072 108.402 -111.026 123.627 -104.567C141.075 -97.1517 159.84 -92.5554 176.361 -83.0284C192.101 -73.9491 204.644 -59.1806 211.135 -42.2159C217.775 -24.8526 214.384 -6.09882 210.973 11.6619C204.473 45.544 190.201 76.9134 174.426 107.374C159.993 135.244 137.546 159.566 109.156 173.514C95.4711 180.245 80.4765 184.387 65.183 184.725C48.6991 185.086 33.3213 179.946 17.5586 175.894C3.75036 172.351 -10.6456 170.029 -24.5302 174.513C-38.1057 178.899 -48.8927 188.743 -58.31 199.109C-69.673 211.624 -79.5592 225.698 -92.7032 236.498C-105.835 247.282 -121.749 254.544 -138.401 257.802C-155.159 261.085 -172.401 260.198 -188.733 255.244C-190.012 254.854 -190.844 256.785 -189.551 257.173Z" fill="#6200EE"/>
<path d="M-184.798 238.35C-157.629 246.571 -127.812 242.964 -103.464 228.258C-89.7422 219.969 -79.4634 208.098 -69.2338 195.981C-58.0569 182.745 -46.1764 168.172 -29.146 162.539C-12.5487 157.052 4.54107 162.374 20.6945 166.797C34.5863 170.589 48.3389 173.184 62.7708 171.65C89.6613 168.791 114.19 154.229 132.925 135.226C154.942 112.896 168.654 82.9284 180.202 54.1662C185.86 40.0781 190.419 25.5723 193.484 10.7015C196.53 -4.09896 200.274 -21.0462 196.684 -35.9823C193.286 -50.0818 185.236 -62.9793 174.78 -72.9316C162.409 -84.7066 146.431 -90.7244 130.627 -96.4215C112.432 -102.986 94.7377 -109.813 80.2657 -123.117C65.8914 -136.343 55.7282 -153.577 48.2781 -171.459C22.32 -233.742 29.5007 -310.94 -21.5396 -361.432C-63.0438 -402.492 -127.911 -413.799 -183.358 -400.532C-249.589 -384.675 -301.16 -333.182 -334.715 -276.024C-351.621 -247.253 -365.76 -215.803 -373.993 -183.39C-381.058 -155.538 -383.312 -124.658 -370.881 -97.932C-357.002 -68.0814 -327.615 -50.8114 -301.82 -32.4629C-287.774 -22.4777 -273.849 -11.7082 -263.6 2.3315C-253.738 15.8571 -248.711 31.6011 -247.472 48.1943C-245.264 77.7579 -253.113 106.956 -253.565 136.454C-254.001 165.5 -245.201 192.832 -224.474 213.787C-213.328 225.043 -199.804 233.358 -184.798 238.35C-183.535 238.776 -182.703 236.845 -183.979 236.421C-216.667 225.527 -242.569 197.469 -249.313 163.421C-254.812 135.638 -248.723 107.305 -246.139 79.5572C-243.793 54.3935 -244.542 28.4646 -258.315 6.39424C-274.81 -20.0434 -303.586 -35.4005 -327.964 -53.457C-354.951 -73.4329 -374.921 -98.0897 -377.371 -132.67C-379.555 -163.546 -370.07 -194.284 -358.61 -222.565C-332.358 -287.302 -289.156 -349.269 -225.949 -382.241C-173.374 -409.655 -106.733 -411.835 -54.1662 -383.003C-26.0951 -367.605 -5.07345 -343.581 7.32724 -314.132C20.6529 -282.472 24.9236 -248.123 32.5975 -214.879C39.8003 -183.694 50.8029 -151.491 72.8996 -127.545C83.4674 -116.099 96.2346 -107.785 110.53 -101.756C126.753 -94.9079 144.16 -90.6173 159.499 -81.7574C174.626 -73.0296 186.638 -58.7176 192.602 -42.3051C198.579 -25.833 195.018 -7.6048 191.674 9.14602C185.351 40.6894 171.936 70.2208 157.024 98.5422C143.368 124.475 122.092 147.072 95.4933 159.899C82.7762 166.039 68.8745 169.789 54.7055 170.065C39.3041 170.354 24.9303 165.582 10.1994 161.785C-2.55765 158.488 -15.8191 156.307 -28.6925 160.223C-41.9019 164.239 -52.305 173.691 -61.395 183.705C-72.1109 195.511 -81.4358 208.784 -93.8501 218.939C-106.191 229.018 -121.131 235.806 -136.758 238.849C-152.498 241.912 -168.646 241.061 -183.979 236.421C-185.259 236.031 -186.091 237.961 -184.798 238.35Z" fill="#6200EE"/>
<path d="M-180.051 219.534C-154.582 227.203 -126.676 223.878 -103.827 210.111C-77.2781 194.107 -64.4306 158.812 -34.3898 148.565C-18.4608 143.135 -1.94952 148.525 13.5522 152.737C26.71 156.314 39.7728 158.546 53.4097 156.859C78.3576 153.77 100.987 140.109 118.324 122.333C138.725 101.411 151.496 73.4343 162.232 46.6072C167.554 33.3285 171.822 19.6542 174.678 5.63251C177.515 -8.27091 180.988 -24.089 177.471 -38.0997C174.297 -50.7524 167.219 -62.3176 157.958 -71.4339C146.264 -82.9535 131.05 -88.7941 115.871 -94.2775C98.3513 -100.6 81.2193 -107.166 67.5007 -120.264C53.952 -133.19 44.4656 -149.705 37.5375 -166.966C14.0983 -225.349 20.2434 -297.321 -28.1748 -343.904C-67.3122 -381.55 -127.567 -391.77 -179.169 -379.27C-240.585 -364.389 -288.629 -316.749 -319.954 -263.75C-336.084 -236.466 -349.592 -206.617 -357.412 -175.82C-364.191 -149.085 -366.187 -119.442 -353.687 -94.0054C-340.097 -66.3506 -312.242 -50.4639 -288.136 -33.1599C-274.828 -23.6003 -261.663 -13.1515 -252.355 0.533889C-243.905 12.9418 -239.789 27.2441 -238.776 42.1183C-236.895 69.7496 -244.24 97.0144 -244.547 124.586C-244.846 151.701 -236.452 177.123 -217.107 196.63C-206.696 207.133 -194.046 214.853 -180.051 219.534C-178.782 219.952 -177.956 218.029 -179.24 217.599C-210.009 207.32 -234.015 181.08 -240.457 149.105C-245.567 123.73 -240.081 97.6561 -237.608 72.3004C-235.322 48.8481 -235.529 24.5334 -247.888 3.65545C-262.471 -20.9865 -288.602 -35.5327 -311.129 -51.8545C-337.162 -70.7209 -357.485 -93.4823 -360.334 -126.803C-362.823 -155.905 -353.939 -185.066 -343.178 -211.739C-318.862 -272.01 -278.949 -329.839 -220.487 -361.107C-171.326 -387.401 -108.915 -390.195 -59.1605 -363.674C-32.4219 -349.417 -12.3221 -326.991 -0.387462 -299.205C12.068 -270.164 16.2009 -238.526 23.0778 -207.917C29.7129 -178.39 39.6844 -147.786 60.2103 -124.802C69.6475 -114.227 81.0628 -106.166 94.0011 -100.429C109.902 -93.3726 127.14 -89.3489 142.306 -80.6392C156.237 -72.6383 167.438 -59.7865 173.19 -44.7266C179.18 -29.0263 176.027 -11.9773 172.862 4.08458C167.076 33.4386 154.637 60.6886 140.949 87.1087C128.104 111.924 108.161 133.44 82.8496 145.782C71.1787 151.481 58.3661 154.981 45.3553 155.368C30.6607 155.814 16.9658 151.311 2.92226 147.679C-8.73098 144.67 -20.9212 142.555 -32.7595 145.874C-45.1789 149.355 -55.04 158.014 -63.6013 167.299C-73.8093 178.371 -82.5334 190.947 -94.1618 200.65C-105.896 210.44 -120.193 217.003 -135.184 219.89C-149.881 222.716 -164.911 221.919 -179.24 217.599C-180.511 217.214 -181.351 219.139 -180.051 219.534Z" fill="#6200EE"/>
<path d="M-175.305 200.704C-151.795 207.776 -126.07 204.862 -104.854 192.354C-79.9841 177.684 -68.1684 145.42 -40.7892 135.033C-25.535 129.251 -9.76142 134.277 5.21316 138.353C17.2866 141.633 29.2869 143.757 41.8212 142.321C65.6597 139.599 87.2892 126.491 103.716 109.447C122.771 89.6708 134.776 63.1395 144.733 37.8823C149.505 25.7924 153.319 13.3229 155.88 0.569588C158.507 -12.4982 161.657 -27.1062 158.257 -40.2304C151.027 -68.1879 127.85 -82.4229 102.375 -91.6731C86.1105 -97.5758 70.1161 -103.387 57.077 -115.214C44.2121 -126.891 35.1908 -142.218 28.5761 -158.133C6.13556 -212.145 12.2239 -279.031 -31.5018 -323.133C-67.7198 -359.653 -124.689 -369.872 -173.548 -358.353C-230.834 -344.831 -275.789 -300.706 -305.185 -251.469C-320.48 -225.858 -333.214 -197.803 -340.676 -168.847C-347.013 -144.229 -349.07 -116.87 -337.993 -93.2452C-325.816 -67.2465 -300.242 -52.2129 -277.744 -36.1946C-265.027 -27.139 -252.327 -17.352 -243.318 -4.41597C-234.953 7.60645 -230.93 21.5173 -230.075 36.0349C-228.56 61.6907 -235.322 86.9858 -235.53 112.596C-235.737 137.805 -227.76 161.394 -209.746 179.481C-200.059 189.216 -188.301 196.351 -175.305 200.704C-174.035 201.136 -173.202 199.205 -174.486 198.775C-202.763 189.298 -225.187 165.288 -231.366 135.879C-236.436 111.72 -231.189 86.9351 -228.862 62.7826C-226.836 41.7876 -226.948 19.882 -237.499 0.948359C-250.876 -23.0565 -275.971 -37.0141 -297.529 -52.6304C-321.805 -70.2147 -340.778 -91.4558 -343.411 -122.504C-345.77 -150.318 -337.076 -178.115 -326.676 -203.546C-303.721 -259.643 -266.121 -313.317 -211.293 -341.941C-165.033 -366.098 -106.153 -367.949 -60.0784 -342.119C-35.757 -328.481 -17.7074 -307.446 -7.03653 -281.736C4.58213 -253.736 8.20299 -223.396 15.1197 -194.086C21.4037 -167.464 30.9659 -140.03 49.7981 -119.536C58.5705 -109.988 69.1021 -102.785 80.9413 -97.5888C94.8492 -91.4873 109.755 -87.7719 123.216 -80.6437C137.07 -73.3019 148.201 -61.1169 154.009 -46.5135C159.694 -32.2027 157.068 -16.9601 154.297 -2.25983C149.109 25.3202 137.659 50.8736 124.882 75.6813C112.728 99.2848 94.3234 119.906 70.2057 131.667C59.1913 137.03 47.1646 140.371 34.8866 140.727C20.8677 141.122 7.83861 136.657 -5.577 133.266C-16.6324 130.474 -28.092 128.778 -39.2011 132.271C-50.2057 135.725 -59.0002 143.53 -66.6762 151.867C-76.4868 162.545 -84.8721 174.693 -96.2429 183.854C-106.995 192.528 -119.982 198.346 -133.535 200.93C-147.208 203.541 -161.164 202.776 -174.486 198.775C-175.758 198.391 -176.598 200.316 -175.305 200.704Z" fill="#6200EE"/>
<path d="M-170.558 181.888C-148.72 188.418 -124.948 185.765 -105.233 174.195C-81.9563 160.535 -70.7899 129.724 -44.876 120.632C-31.1396 115.811 -17.0671 120.161 -3.6471 123.824C7.52025 126.876 18.6185 128.982 30.2327 127.782C52.1814 125.518 72.1751 113.705 87.4807 98.2165C105.337 80.1544 116.439 55.9504 125.835 32.6673C130.372 21.4297 134.046 9.86285 136.562 -1.98534C139.103 -13.9728 142.325 -27.9619 139.589 -40.1203C133.745 -66.1253 112.622 -80.3467 89.0793 -88.9829C73.9042 -94.5485 58.7226 -99.643 46.3495 -110.491C34.2889 -121.054 25.7305 -135.038 19.4828 -149.672C-2.00731 -199.964 4.01151 -262.519 -36.4881 -303.968C-69.7515 -338.002 -122.442 -347.779 -167.721 -337.479C-221.607 -325.212 -263.852 -283.815 -291.368 -237.585C-305.355 -214.089 -317.019 -188.388 -323.94 -161.875C-329.823 -139.341 -331.932 -114.307 -322.283 -92.4595C-311.373 -67.7453 -287.41 -53.438 -266.259 -38.4494C-242.358 -21.5033 -223.295 -1.77932 -221.446 28.8556C-220.001 52.856 -226.402 76.5069 -226.509 100.463C-226.608 123.838 -219.096 145.716 -202.302 162.397C-193.322 171.328 -182.535 177.853 -170.558 181.888C-169.289 182.307 -168.455 180.389 -169.739 179.959C-196.453 170.962 -217.203 148.277 -222.732 120.47C-227.147 98.2598 -222.21 75.4403 -220.117 53.2649C-218.267 33.7425 -218.542 13.5398 -228.387 -4.00332C-240.8 -26.1089 -264.059 -38.9914 -283.936 -53.3986C-306.434 -69.7101 -324.091 -89.4201 -326.503 -118.217C-328.646 -143.82 -320.744 -169.398 -311.203 -192.834C-289.674 -245.65 -254.171 -296.319 -202.219 -322.699C-158.434 -344.919 -102.346 -345.744 -59.8438 -319.798C-37.8298 -306.362 -22.211 -286.299 -12.952 -262.355C-3.07774 -236.811 0.157269 -209.439 6.55424 -182.96C12.4667 -158.538 21.4819 -133.406 38.9617 -114.752C46.9467 -106.231 56.4559 -99.7887 67.1066 -95.0813C81.5003 -88.7295 97.4213 -85.3094 110.828 -76.8317C121.954 -69.7934 130.862 -58.9658 135.479 -46.6239C140.614 -32.8832 137.619 -17.5296 134.746 -3.53326C129.651 21.3226 119.09 44.441 107.48 66.8497C96.2419 88.5401 78.7922 107.462 56.5293 118.052C46.1469 122.988 34.8139 125.962 23.2931 126.087C10.7792 126.232 -0.939081 122.194 -12.9155 119.161C-22.8552 116.641 -33.2361 115.018 -43.2892 117.918C-53.5065 120.871 -61.7397 127.875 -68.8778 135.501C-77.9218 145.149 -85.538 156.172 -95.6191 164.815C-105.626 173.396 -117.907 179.063 -130.773 181.751C-143.718 184.462 -157.091 183.732 -169.733 179.952C-171.019 179.569 -171.851 181.5 -170.558 181.888Z" fill="#6200EE"/>
<path d="M-165.805 163.065C-145.701 169.039 -123.787 166.711 -105.602 156.056C-84.1225 143.476 -73.8433 115.298 -50.1123 106.664C-36.6052 101.747 -22.7546 106.594 -9.57768 110.101C0.853813 112.863 11.2116 114.346 21.9716 112.837C41.9358 110.04 59.9346 98.8946 73.6887 84.4861C89.7281 67.6851 99.8704 45.3107 108.331 23.9498C112.468 13.4949 115.791 2.72559 118.021 -8.29854C120.223 -19.2103 122.934 -31.6129 120.299 -42.6171C114.524 -66.7962 94.6269 -79.4353 72.7285 -87.4172C58.733 -92.5131 44.8222 -97.4076 33.5757 -107.595C22.3066 -117.801 14.4528 -131.178 8.7409 -145.131C-10.2847 -191.639 -5.21551 -249.107 -43.3129 -286.663C-74.7738 -317.682 -123.863 -326.036 -165.742 -315.695C-214.859 -303.573 -253.167 -265.204 -278.127 -222.728C-290.94 -200.929 -301.683 -177.087 -307.825 -152.498C-313.044 -131.589 -314.582 -108.387 -305.069 -88.4194C-294.4 -66.0089 -272.123 -53.1215 -252.701 -39.2341C-230.847 -23.5909 -214.203 -5.20842 -212.766 22.7676C-211.652 44.5022 -217.339 65.909 -217.476 87.605C-217.612 109.376 -210.637 129.741 -194.956 145.235C-186.684 153.41 -176.798 159.345 -165.805 163.065C-164.542 163.49 -163.708 161.573 -164.986 161.135C-189.667 152.795 -208.794 131.872 -213.862 106.152C-217.857 85.9107 -213.425 65.0861 -211.472 44.8767C-209.722 26.6681 -209.868 7.75258 -219.105 -8.61348C-230.087 -28.0834 -250.214 -39.8299 -267.888 -52.4068C-288.409 -67.0187 -305.87 -84.2768 -309.203 -110.383C-312.205 -133.868 -305.353 -157.687 -296.818 -179.343C-277.516 -228.328 -245.41 -275.541 -198.023 -300.907C-158.275 -322.194 -107.539 -324.251 -67.6075 -302.125C-46.4607 -290.402 -30.8543 -272.206 -21.644 -249.912C-11.875 -226.272 -8.77308 -200.691 -2.98013 -175.948C2.25048 -153.581 10.0597 -130.613 25.3789 -113.01C32.6256 -104.683 41.3785 -98.1187 51.3709 -93.4439C63.3528 -87.8413 76.3839 -84.7672 88.1883 -78.7554C100.299 -72.5746 110.143 -62.7762 115.554 -50.1855C121 -37.5173 118.895 -24.2442 116.435 -11.0935C112.026 12.4487 102.281 34.2587 91.3942 55.4448C81.0181 75.6306 65.4613 93.2415 44.9046 103.436C35.2872 108.208 24.7019 111.163 13.9385 111.411C2.54999 111.678 -8.10796 108.198 -18.99 105.372C-28.262 102.966 -37.8764 101.192 -47.335 103.635C-56.7876 106.069 -64.4506 112.23 -71.0913 119.151C-79.6246 128.03 -86.6325 138.362 -95.9264 146.505C-104.767 154.261 -115.499 159.592 -126.919 162.289C-139.553 165.271 -152.558 164.832 -164.986 161.135C-166.271 160.753 -167.104 162.684 -165.805 163.065Z" fill="#6200EE"/>
<path d="M-161.065 144.243C-142.877 149.629 -123.192 147.662 -106.624 138.278C-86.6864 126.983 -77.537 102.283 -56.4528 93.1657C-44.2101 87.8707 -31.2598 92.1268 -19.1341 95.3879C-9.77483 97.9001 -0.427339 99.5478 9.27737 98.4611C27.7585 96.3955 44.6052 86.3659 57.4684 73.2677C72.2944 58.1689 81.5373 38.0874 89.4301 18.7082C93.3336 9.11906 96.5357 -0.756741 98.706 -10.8876C100.914 -21.1593 103.67 -33.2331 101.334 -43.6584C96.5942 -64.7944 79.6727 -77.1179 60.4658 -84.349C47.6758 -89.1623 34.6522 -93.1099 23.9328 -101.989C12.8979 -111.117 5.18484 -123.576 -0.35659 -136.649C-18.3416 -179.072 -13.3635 -231.75 -47.4752 -266.688C-75.7578 -295.642 -120.595 -303.951 -159.079 -295.028C-204.495 -284.494 -240.07 -249.593 -263.291 -210.577C-283.139 -177.21 -306.29 -127.792 -289.811 -88.7126C-271.51 -45.2703 -208.662 -39.3741 -204.315 12.8209C-202.608 33.3275 -208.167 53.6014 -208.449 74.0597C-208.721 94.0736 -202.678 112.809 -188.414 127.254C-180.702 135.071 -171.429 140.716 -161.065 144.243C-159.795 144.675 -158.962 142.744 -160.24 142.306C-183.628 134.354 -201.536 114.189 -205.391 89.5758C-208.332 70.7192 -204.077 51.7217 -202.515 32.9486C-201.097 15.9921 -202.062 -1.28751 -211.484 -16.0163C-222.566 -33.3544 -241.364 -43.6941 -257.56 -55.5291C-276.248 -69.2018 -290.634 -85.7605 -292.672 -109.631C-294.543 -131.659 -287.558 -153.687 -279.26 -173.809C-261.204 -217.61 -231.721 -259.474 -188.822 -281.748C-152.283 -300.726 -105.675 -301.935 -69.5495 -281.112C-49.8868 -269.782 -35.9502 -252.285 -27.8348 -231.2C-19.436 -209.378 -16.7626 -186.018 -11.2063 -163.429C-6.26523 -143.319 1.21663 -122.699 15.4409 -107.185C31.2323 -89.9787 52.9387 -87.1695 72.7163 -76.7869C83.2364 -71.2667 91.7914 -62.4161 96.5743 -51.4705C101.887 -39.3116 99.649 -26.2414 97.1381 -13.6438C93.0053 7.1733 84.3137 26.543 74.647 45.3238C63.819 66.3735 46.6747 84.7551 23.9687 92.8816C13.3905 96.6605 2.15556 97.7206 -8.91394 95.6866C-20.464 93.5653 -31.5861 88.4969 -43.4874 88.5162C-64.7623 88.5408 -76.5922 106.953 -89.3169 121.125C-107.349 141.199 -133.982 150.088 -160.24 142.306C-161.518 141.93 -162.358 143.855 -161.065 144.243Z" fill="#6200EE"/>
<path d="M-156.312 125.419C-139.435 130.378 -121.208 128.478 -105.96 119.528C-88.2867 109.163 -79.8583 86.2382 -60.5639 78.7331C-49.7098 74.5131 -38.6645 77.9815 -28.0021 80.8536C-18.7535 83.3514 -9.67539 84.969 -0.0989449 83.6586C16.0482 81.4551 30.7128 72.654 42.0437 61.2133C55.9805 47.1449 64.6861 28.1895 71.9268 10.0041C74.9726 2.36222 77.5237 -5.48811 79.3666 -13.5084C81.5856 -23.1609 84.3846 -34.6874 82.4206 -44.5493C78.8303 -62.5396 64.8675 -74.5115 48.5807 -81.0797C36.9429 -85.7747 24.6401 -88.8584 14.3983 -96.4426C3.17166 -104.758 -4.56027 -116.792 -10.0025 -129.482C-26.6215 -168.245 -21.8801 -216.505 -53.2825 -248.369C-78.539 -273.987 -118.06 -281.605 -152.426 -274.319C-194.125 -265.485 -226.998 -233.904 -248.446 -198.408C-266.8 -168.023 -288.177 -122.929 -273.655 -87.0245C-265.018 -65.6732 -244.071 -54.3152 -226.422 -41.3671C-215.415 -33.2992 -204.803 -23.9923 -199.537 -11.0644C-195.12 -0.212685 -194.948 11.6504 -195.855 23.148C-197.399 42.7167 -202.359 62.9277 -197.182 82.3699C-191.787 102.632 -175.986 118.686 -156.312 125.419C-155.042 125.851 -154.215 123.928 -155.493 123.49C-176.445 116.319 -192.643 98.4365 -196.331 76.3738C-199.213 59.1398 -195.344 41.7417 -193.869 24.5739C-192.599 9.68675 -193.228 -5.57983 -201.044 -18.7567C-210.718 -35.0652 -227.955 -44.7068 -242.88 -55.5102C-260.457 -68.2552 -274.189 -83.5742 -275.814 -106.129C-277.267 -126.14 -270.872 -146.034 -263.291 -164.279C-246.628 -204.407 -219.315 -242.712 -179.617 -262.549C-146.054 -279.327 -103.13 -279.617 -70.7879 -259.616C-32.848 -236.147 -29.8283 -192.968 -20.0853 -153.651C-15.5283 -135.262 -8.5788 -116.407 4.61942 -102.39C19.4432 -86.6456 40.0537 -84.6431 57.9928 -74.299C67.1342 -69.0277 74.5 -60.7889 78.3472 -50.914C82.5382 -40.1929 80.3133 -28.4194 78.0813 -17.4701C74.1329 1.94165 65.9166 20.3562 56.6048 37.7323C46.9907 55.6753 31.7407 71.2324 12.3756 78.364C1.69955 82.2974 -9.45623 83.0415 -20.5592 80.6023C-30.0046 78.5229 -39.2508 74.6954 -49.0437 74.6129C-68.2899 74.4358 -79.1253 90.7277 -90.6059 103.638C-107.134 122.214 -131.22 130.617 -155.493 123.49C-156.771 123.114 -157.611 125.038 -156.312 125.419Z" fill="#6200EE"/>
<path d="M-151.559 106.596C-136.626 110.956 -120.597 109.441 -106.963 101.741C-90.7272 92.5599 -83.1515 71.6836 -65.7657 64.7684C-48.3335 57.841 -29.7861 71.3664 -11.6723 69.1321C2.96613 67.3221 16.3073 59.452 26.6253 49.1516C39.0939 36.706 46.7969 20.035 53.372 3.92457C59.3027 -10.6316 66.5573 -31.1024 63.1815 -46.8951C59.4169 -64.4493 45.3032 -74.6107 29.4456 -80.5947C19.8758 -84.2141 10.0894 -87.1744 1.76322 -93.3517C-8.32249 -100.825 -15.2554 -111.909 -20.0661 -123.328C-34.6224 -157.893 -30.7133 -200.644 -58.2761 -229.211C-81.2276 -253.003 -117.816 -259.912 -149.274 -252.828C-186.68 -244.418 -216.047 -215.753 -235.131 -183.675C-251.25 -156.59 -269.799 -117.027 -257.395 -85.1436C-249.844 -65.7522 -231.059 -55.3975 -215.102 -43.7527C-205.612 -36.8243 -196.309 -28.9333 -191.287 -18.0428C-186.704 -8.11033 -186.334 2.93215 -187.12 13.6589C-188.385 30.9317 -192.774 48.6016 -188.854 65.8515C-184.501 85.0076 -169.955 100.239 -151.559 106.596C-150.295 107.035 -149.468 105.112 -150.74 104.667C-170.152 97.9573 -184.566 81.4018 -187.636 60.9648C-189.979 45.318 -186.183 29.5236 -185.041 13.949C-184.095 0.96752 -185.016 -12.1856 -191.877 -23.5919C-200.527 -37.9537 -215.794 -46.5357 -229.013 -56.0988C-244.567 -67.3268 -256.972 -80.7409 -258.794 -100.641C-260.409 -118.302 -254.964 -135.979 -248.403 -152.149C-233.563 -188.725 -208.952 -223.927 -172.924 -242.089C-142.371 -257.489 -103.112 -257.81 -73.7887 -239.148C-40.2688 -217.811 -37.8013 -179.149 -29.0159 -144.084C-24.9881 -128.02 -18.9514 -111.623 -7.65903 -99.1631C4.49958 -85.7613 20.8084 -82.8771 36.4772 -75.4668C46.0081 -70.9497 53.8187 -64.1056 58.3799 -54.4229C63.1209 -44.3656 61.4531 -33.6658 59.3985 -23.1257C55.9283 -5.28988 48.4421 11.6627 39.8693 27.5962C30.9987 44.0756 16.7532 58.5957 -1.33124 64.6035C-10.7176 67.7258 -20.3509 68.1361 -29.9853 65.9559C-38.0997 64.124 -46.0461 60.9227 -54.456 60.7136C-71.774 60.292 -81.6105 74.4429 -91.9081 86.1522C-106.892 103.178 -128.483 111.162 -150.74 104.667C-152.024 104.298 -152.858 106.215 -151.559 106.596Z" fill="#6200EE"/>
<path d="M-146.82 87.7739C-133.96 91.4815 -120.331 90.4364 -108.413 84.1634C-92.8523 75.974 -85.7159 55.4828 -68.9031 50.0318C-53.352 44.9865 -37.2092 56.8278 -21.0577 54.3102C-7.98048 52.2658 3.80314 44.8971 12.8346 35.4347C23.4938 24.2561 30.2395 9.3803 35.8655 -4.80635C40.9494 -17.6142 47.1314 -35.4652 43.9137 -49.2515C40.4267 -64.2404 28.4433 -73.1426 14.8119 -78.3899C4.99154 -82.1711 -4.98284 -85.0482 -13.116 -92.0866C-21.3016 -99.1665 -26.8468 -108.81 -30.7781 -118.764C-43.1586 -150.152 -39.9852 -188.672 -66.5365 -213.287C-87.4406 -232.66 -118.989 -237.851 -146.117 -231.344C-179.246 -223.384 -205.058 -197.573 -221.817 -168.955C-235.965 -144.793 -252.408 -109.169 -240.252 -81.0612C-233.037 -64.3784 -216.448 -55.5068 -202.516 -45.2085C-193.776 -38.752 -185.397 -31.299 -181.297 -20.9558C-177.854 -12.2681 -177.821 -2.77495 -178.568 6.40649C-179.793 21.3294 -183.401 36.6247 -180 51.5214C-176.108 68.5903 -163.183 82.0736 -146.82 87.7739C-145.548 88.2192 -144.715 86.2886 -146.001 85.8448C-163.317 79.8053 -176.225 65.0042 -178.758 46.666C-180.592 33.3395 -177.574 19.9467 -176.489 6.69668C-175.57 -4.5841 -175.986 -16.1394 -181.504 -26.3109C-188.288 -38.8169 -200.837 -46.6034 -212.143 -54.5413C-226.731 -64.7974 -239.631 -76.477 -241.769 -95.1746C-243.51 -110.455 -239.032 -125.954 -233.482 -140.029C-221.055 -171.552 -200.748 -201.844 -170.853 -219.096C-144.261 -234.444 -109.919 -236.716 -82.4768 -222.036C-49.7855 -204.543 -46.3402 -169.553 -38.5593 -137.031C-35.2133 -123.021 -30.3272 -108.781 -21.1435 -97.4533C-11.0356 -84.9789 2.46379 -81.2775 16.7221 -75.3871C25.7374 -71.6692 33.2769 -66.3958 38.1901 -57.7902C43.3508 -48.7565 42.5753 -39.3536 40.8121 -29.4745C38.0282 -13.7705 31.6801 0.772719 24.4504 14.8867C16.4593 30.4867 4.00469 44.226 -12.9287 50.1069C-21.0541 52.9327 -29.5248 53.4329 -37.9278 51.6413C-45.2047 50.0939 -52.3091 47.1561 -59.8192 46.8288C-74.9696 46.169 -83.8599 57.8442 -92.8507 68.2427C-106.42 83.9455 -125.432 91.7723 -146.001 85.8448C-147.277 85.4818 -148.111 87.399 -146.82 87.7739Z" fill="#6200EE"/>
<path d="M-142.067 68.9503C-130.554 72.2145 -118.483 71.2549 -107.88 65.5165C-94.6399 58.3604 -88.4799 40.9074 -74.1469 36.0581C-60.4052 31.4003 -45.9049 42.0144 -31.5402 39.609C-20.3931 37.7342 -10.3241 31.4511 -2.58392 23.3728C6.91502 13.4743 12.9273 0.265411 17.8955 -12.3654C22.3379 -23.6534 27.6552 -39.1472 24.7405 -51.2643C22.0842 -62.2729 13.6665 -70.294 3.60772 -74.777C-4.79161 -78.5325 -13.9654 -80.4458 -21.6338 -85.7724C-29.808 -91.463 -35.4239 -100.014 -39.355 -109.027C-51.2813 -136.33 -47.738 -170.318 -70.068 -192.751C-87.9843 -210.761 -116.1 -215.92 -140.295 -210.464C-169.148 -203.955 -191.846 -181.969 -206.695 -157.275C-219.247 -136.393 -233.463 -106.189 -224.844 -81.3586C-219.417 -65.7497 -204.737 -57.3995 -192.076 -48.242C-184.209 -42.5499 -176.496 -36.0763 -172.603 -26.9226C-169.252 -19.0286 -169.229 -10.3865 -169.93 -1.98758C-171.004 10.9542 -174.133 24.2713 -171.146 37.1912C-167.678 52.1893 -156.421 63.8756 -142.067 68.9503C-140.8 69.4031 -139.968 67.4724 -141.248 67.0212C-156.591 61.591 -167.69 48.625 -169.864 32.3791C-171.479 20.3018 -168.469 8.12357 -167.683 -3.88496C-167.075 -13.2616 -167.721 -22.7517 -172.322 -31.1345C-178.176 -41.792 -188.836 -48.523 -198.507 -55.3009C-210.989 -64.036 -222.376 -73.8461 -224.688 -89.7488C-226.715 -103.619 -222.549 -117.813 -217.489 -130.591C-206.197 -159.092 -187.381 -186.558 -159.651 -201.077C-135.976 -213.481 -105.29 -214.129 -82.2528 -199.748C-55.856 -183.269 -53.9349 -153.065 -47.0412 -125.655C-43.8835 -113.089 -39.1392 -100.305 -30.248 -90.6142C-21.483 -81.0722 -10.0325 -78.2235 1.4998 -73.3799C8.77379 -70.3323 15.0164 -65.9513 19.1774 -59.1263C24.1557 -50.9578 23.4201 -42.2685 21.7752 -33.2485C19.3343 -19.8138 13.8869 -7.31817 7.70448 4.77877C0.788926 18.3108 -9.85998 30.3404 -24.52 35.6026C-31.5297 38.1147 -38.8437 38.7123 -46.156 37.2713C-52.847 35.9557 -59.2534 33.2163 -66.1246 32.9307C-78.3531 32.4222 -86.0361 41.1688 -93.316 49.7459C-105.689 64.3074 -121.924 72.5002 -141.254 67.0287C-142.524 66.6581 -143.364 68.5829 -142.067 68.9503Z" fill="#6200EE"/>
<path d="M-137.319 50.1345C-127.814 52.7865 -117.886 52.2192 -108.977 47.7412C-97.5713 41.9912 -92.6506 28.541 -81.3972 23.1224C-69.247 17.2655 -56.0071 27.0648 -43.1255 25.0976C-33.8412 23.6779 -25.4396 18.652 -18.8209 12.1289C-10.5204 3.94458 -5.40596 -6.95791 -1.01113 -17.5995C3.08234 -27.4903 7.59376 -40.5316 5.97648 -51.3405C4.58341 -60.6892 -2.64202 -68.3648 -10.8408 -72.389C-16.9703 -75.3855 -23.7397 -76.8488 -29.8057 -80.0027C-38.8379 -84.6868 -44.891 -92.7168 -48.9873 -101.86C-59.4108 -125.09 -56.2159 -154.273 -75.0482 -173.594C-90.5052 -189.449 -114.901 -194.045 -135.974 -189.231C-160.547 -183.621 -179.882 -164.91 -192.58 -143.875C-203.305 -126.103 -215.321 -100.668 -208.518 -79.4376C-204.282 -66.2129 -192.408 -58.9001 -181.684 -51.2764C-174.713 -46.3187 -167.599 -40.8323 -163.897 -32.8563C-160.675 -25.895 -160.636 -18.0457 -161.271 -10.5475C-162.258 0.911652 -164.985 12.7026 -161.965 24.0847C-158.687 36.4528 -149.208 45.8641 -137.319 50.1345C-136.053 50.5873 -135.227 48.6642 -136.5 48.2054C-149.769 43.4409 -159.434 32.1354 -160.983 17.9235C-162.09 7.7507 -159.676 -2.39486 -159.018 -12.5137C-158.496 -20.6395 -159.112 -28.8718 -163.217 -36.0919C-168.184 -44.8139 -176.861 -50.4257 -184.87 -56.0467C-195.935 -63.7943 -206.105 -72.396 -207.936 -86.6364C-209.378 -97.868 -206.061 -109.4 -202.038 -119.774C-192.816 -143.5 -177.597 -166.362 -155.158 -179.366C-134.666 -191.237 -107.801 -192.675 -87.1197 -180.379C-63.9913 -166.623 -62.0958 -140.922 -56.2709 -117.254C-53.6064 -106.41 -49.5913 -95.2658 -42.0106 -86.8202C-34.3982 -78.3373 -24.3937 -76.0228 -14.319 -71.6371C-7.55562 -68.7006 -1.5448 -64.3199 1.72914 -57.5009C4.89422 -50.9148 4.01511 -43.9882 2.72176 -37.0476C0.539475 -25.4359 -4.20673 -14.4739 -9.69909 -4.06609C-15.6611 7.22804 -24.8053 17.1875 -37.1684 21.4466C-50.1272 25.918 -60.07 19.2058 -72.7159 18.9776C-82.9221 18.8 -89.3575 26.079 -95.4838 33.2607C-106.203 45.7963 -119.83 52.8541 -136.5 48.2054C-137.777 47.8424 -138.617 49.7671 -137.319 50.1345Z" fill="#6200EE"/>
<path d="M-132.306 31.3832C-124.147 33.5918 -115.629 32.9702 -108.091 28.9104C-97.9665 23.4526 -92.5391 8.14362 -80.339 7.17597C-70.7598 6.41742 -62.386 12.2416 -52.526 10.2028C-44.8177 8.59807 -37.9585 4.08548 -32.6249 -1.58612C-25.8763 -8.75155 -21.5451 -18.3563 -18.0608 -27.4468C-15.0948 -35.1885 -11.7625 -45.3522 -13.2477 -53.6743C-14.6465 -61.4884 -20.6215 -67.6731 -27.535 -71.0217C-32.4619 -73.408 -37.8854 -74.6118 -42.7619 -77.0926C-51.0649 -81.3092 -56.2961 -88.8961 -59.7426 -97.3177C-67.5427 -116.394 -65.4684 -139.671 -80.8672 -155.26C-93.8096 -168.366 -114.149 -172.084 -131.654 -168.012C-151.985 -163.27 -168.007 -147.787 -178.548 -130.37C-187.591 -115.432 -197.955 -93.441 -191.57 -75.6322C-187.764 -64.9958 -177.962 -59.0786 -169.225 -52.833C-156.394 -43.6749 -151.193 -33.5346 -152.748 -17.8099C-153.674 -8.35531 -155.754 1.55374 -152.81 10.8722C-149.719 20.6372 -142.043 27.8513 -132.574 31.3053C-131.314 31.7656 -130.487 29.8424 -131.755 29.3762C-142.719 25.3733 -150.425 16.4377 -151.94 4.7444C-153.092 -4.16874 -150.75 -13.1129 -150.316 -21.9921C-149.501 -38.6809 -158.176 -47.6266 -171.144 -56.7347C-179.985 -62.9409 -188.641 -69.4277 -190.764 -80.7231C-192.716 -91.125 -189.413 -102.008 -185.556 -111.585C-177.4 -131.867 -163.754 -151.431 -143.752 -161.418C-126.613 -169.982 -104.337 -169.898 -88.2916 -158.781C-70.0598 -146.153 -69.8983 -124.11 -64.4284 -104.729C-62.123 -96.5638 -58.755 -88.29 -52.8469 -82.0362C-46.626 -75.4369 -38.8889 -73.6839 -30.8603 -70.1853C-18.0049 -64.5751 -13.701 -54.2898 -16.3317 -40.8466C-18.242 -31.0595 -22.317 -21.655 -27.0865 -12.9469C-32.6251 -2.82007 -42.0558 6.37504 -53.853 8.34578C-63.2502 9.90811 -71.4044 4.33114 -80.5813 5.09067C-88.6712 5.75798 -93.5485 12.0719 -98.4857 17.752C-107.37 27.954 -118.494 32.9621 -132.015 29.3042C-133.317 28.9577 -133.601 31.0292 -132.306 31.3832Z" fill="#6200EE"/>
</svg>
