<svg width="339" height="528" viewBox="0 0 339 528" fill="none" xmlns="http://www.w3.org/2000/svg">
<path d="M588.176 619.293C588.313 544.681 544.471 472.25 564.992 397.295C569.706 380.065 577.988 364.234 581.952 346.684C585.678 330.17 587.218 313.153 586.246 296.246C584.284 262.093 572.115 228.054 557.598 197.344C542.245 164.866 522.304 134.593 499.223 107.101C478.512 82.4219 455.315 58.2248 426.274 43.4193C401.099 30.583 371.313 26.3717 345.826 40.8471C318.816 56.1957 303.403 86.6153 298.113 116.289C285.429 187.366 320.214 271.48 265.515 331.188C222.391 378.274 153.534 388.616 106.305 430.511C58.6931 472.741 43.8369 547.157 84.1874 599.376C102.941 623.655 130.552 639.001 161.224 641.057C191.689 643.091 221.511 634.35 251.382 629.926C267.114 627.597 283.16 626.358 298.981 628.592C319.189 631.447 337.766 640.359 354.672 651.497C384.938 671.447 410.332 698.151 442.46 715.366C467.761 728.919 497.647 736.931 525.581 726.616C553.253 716.408 571.614 690.746 580.734 663.623C585.542 649.326 587.943 634.363 588.176 619.293C588.199 618.146 586.416 618.052 586.401 619.204C585.904 650.793 575.627 684.351 552.72 707.001C528.96 730.485 495.792 734.284 465.11 723.531C401.444 701.233 361.844 631.106 291.148 625.98C232.206 621.707 170.426 658.916 114.976 624.826C87.3888 607.863 68.0373 578.419 63.3449 546.393C58.3825 512.51 69.2643 477.284 90.0463 450.406C128.213 401.039 193.892 388.103 242.904 353.227C267.263 335.889 285.526 312.747 293.467 283.63C302.654 249.933 299.225 214.722 297.544 180.332C295.803 144.671 296.128 107.208 314.631 75.4442C331.286 46.8485 360.657 28.9855 394.2 34.336C425.184 39.2845 452.323 59.9309 473.787 81.7331C498.34 106.675 520.116 134.502 538.062 164.552C556.208 194.925 570.489 227.736 579.034 262.116C587.538 296.325 586.189 331.572 574.963 365.025C569.77 380.51 562.89 394.716 560.218 411C557.427 428.08 557.497 445.557 559.206 462.746C562.696 498.17 573.93 532.201 580.788 567.001C584.181 584.229 586.437 601.623 586.405 619.197C586.393 620.342 588.172 620.442 588.176 619.293Z" fill="#6200EE"/>
<path d="M579.794 610.125C579.896 539.284 538.499 470.667 557.505 399.471C561.884 383.059 569.831 367.988 573.672 351.328C577.275 335.703 578.835 319.592 578.008 303.577C576.328 271.117 564.954 238.809 551.272 209.579C537.132 179.337 518.796 151.097 497.585 125.35C477.937 101.512 455.924 78.0726 428.48 63.1906C404.998 50.4664 376.863 45.1293 352.082 57.5324C325.271 70.9663 309.467 100.197 303.919 128.684C290.883 195.641 324.207 274.675 275.409 332.358C235.597 379.416 168.516 389.32 122.643 428.724C76.453 468.391 60.8541 539.371 98.8115 589.953C116.199 613.124 142.104 628.273 171.055 630.727C199.841 633.168 228.147 625.113 256.339 620.701C271.431 618.337 286.823 616.909 302.06 618.731C321.232 621.012 338.932 628.993 355.059 639.341C384.323 658.097 408.558 683.801 439.119 700.651C463.146 713.905 491.646 722.171 518.564 712.937C545.557 703.676 563.567 679.09 572.503 652.922C577.218 639.131 579.552 624.68 579.794 610.125C579.812 608.985 578.034 608.884 578.011 610.032C577.521 640.588 567.435 673.253 544.787 694.748C521.639 716.712 489.892 719.398 460.813 708.735C400.969 686.775 363.257 620.93 296.194 616.4C239.66 612.584 180.719 648.102 127.76 614.504C101.185 597.637 83.027 568.438 79.5342 537.19C75.9171 504.814 87.0769 471.624 107.567 446.581C145.076 400.749 207.497 388.989 253.652 354.822C276.734 337.731 293.247 314.901 300.079 286.786C307.941 254.391 304.265 220.919 302.823 188.039C301.362 154.82 302.445 120.081 320.118 90.7989C337.165 62.5566 367.254 46.615 400.138 54.0974C428.402 60.5273 452.627 79.5404 472.433 99.9182C496.17 124.345 517.162 151.552 534.289 181.006C550.801 209.405 563.746 239.977 571.479 271.951C579.404 304.743 577.418 338.764 566.228 370.58C561.198 384.866 555.173 398.076 552.847 413.204C550.344 429.493 550.55 446.119 552.248 462.475C555.732 495.888 566.337 528.007 572.768 560.866C575.943 577.096 578.035 593.48 578.011 610.032C578.011 611.174 579.789 611.275 579.794 610.125Z" fill="#6200EE"/>
<path d="M571.4 600.96C571.483 533.295 531.438 467.273 550.632 399.362C555.021 383.858 562.383 369.605 565.898 353.749C569.103 339.332 570.461 324.51 569.706 309.762C568.159 279.397 557.6 249.199 544.937 221.799C531.341 192.365 513.541 164.89 492.893 139.925C474.392 117.56 453.729 95.5915 427.985 81.5566C406.076 69.6137 379.916 64.2953 356.495 75.2851C330.918 87.291 315.434 114.571 309.719 141.305C296.055 205.325 328.948 280.888 282.716 336.431C244.726 382.073 179.738 391.131 135.96 429.565C93.558 466.78 78.9694 532.239 112.971 579.832C128.976 602.24 153.383 617.463 180.885 620.368C208.662 623.309 236.1 615.493 263.297 611.177C277.435 608.936 291.824 607.513 306.126 609.019C324.249 610.938 341.032 618.164 356.354 627.792C384.803 645.667 408.119 670.663 437.637 686.953C460.52 699.592 487.777 707.513 513.403 698.594C538.972 689.704 556.025 666.431 564.498 641.582C568.958 628.488 571.173 614.776 571.4 600.96C571.418 599.819 569.64 599.719 569.624 600.871C569.139 629.999 559.509 661.061 537.866 681.507C515.651 702.488 485.179 704.666 457.476 694.262C400.295 672.781 364.085 609.535 299.247 606.725C245.791 604.409 189.796 637.047 140.183 603.896C115.529 587.426 98.9461 559.807 96.0364 530.306C93.0797 500.158 103.538 469.37 122.508 446C158.315 401.885 218.329 390.938 262.37 357.871C284.05 341.6 299.427 319.945 305.788 293.413C313.28 262.168 309.526 229.912 308.221 198.227C306.916 166.647 308.369 133.745 325.617 106.191C342.131 79.8175 370.759 65.693 401.557 73.0172C428.897 79.523 452.006 98.2459 471.055 118.108C492.885 140.861 512.22 166.069 528.092 193.336C543.946 220.572 556.33 249.95 563.634 280.644C570.913 311.274 568.985 343.144 558.61 372.853C553.773 386.728 547.894 399.525 545.673 414.213C543.395 429.267 543.536 444.63 545.053 459.753C548.223 491.318 558.147 521.665 564.337 552.666C567.513 568.57 569.637 584.629 569.617 600.866C569.617 602.009 571.395 602.109 571.4 600.96Z" fill="#6200EE"/>
<path d="M563.006 591.794C563.057 527.883 525.53 465.723 543.149 401.531C547.245 386.605 554.416 372.907 557.788 357.678C560.941 343.428 562.216 328.792 561.313 314.225C559.52 285.553 549.368 257.005 537.278 231.162C524.106 203.015 506.878 176.789 486.932 152.995C469.48 132.163 449.993 111.812 425.72 98.9623C404.759 87.8721 379.822 83.4711 357.874 94.5146C333.684 106.691 319.529 133.056 314.537 158.776C302.639 220.074 333.659 293.016 286.409 344.665C249.22 385.309 189.733 394.019 149.221 430.476C109.191 466.491 96.5827 529.224 130.105 573.784C145.436 594.175 168.198 607.762 193.679 610.293C220.184 612.918 246.306 605.351 272.26 601.334C285.773 599.241 299.538 597.994 313.161 599.641C330.492 601.742 346.452 609.023 361.012 618.392C387.75 635.595 409.86 659.195 438.03 674.274C459.388 685.711 484.556 692.54 508.238 684.257C532.384 675.807 548.482 653.713 556.48 630.233C560.702 617.838 562.787 604.866 563.006 591.794C563.024 590.654 561.253 590.558 561.23 591.705C560.774 618.768 552.035 647.477 532.385 666.876C511.333 687.679 481.951 690.216 455.113 680.15C401.277 659.951 367.112 600.514 306.281 597.26C255.732 594.555 202.78 625.79 155.61 595.269C132.172 580.106 116.073 554.254 112.887 526.521C109.572 497.695 119.278 468.113 137.292 445.615C170.786 403.795 227.315 393.125 269.09 362.414C289.607 347.33 304.555 327.208 310.923 302.362C318.387 273.24 315.202 243 313.84 213.38C312.447 183.059 313.174 151.265 329.33 124.513C344.653 99.1343 371.565 84.9023 401.111 91.5008C426.654 97.2024 448.57 114.509 466.416 132.91C487.425 154.557 506.034 178.617 521.296 204.648C536.361 230.349 548.193 258.049 555.239 287.028C562.433 316.602 560.773 347.198 550.723 375.93C546.112 389.108 540.57 401.261 538.493 415.217C536.375 429.455 536.537 443.967 537.986 458.258C541.038 488.333 550.54 517.242 556.38 546.802C559.307 561.621 561.242 576.577 561.23 591.705C561.234 592.841 563.012 592.941 563.006 591.794Z" fill="#6200EE"/>
<path d="M554.623 582.626C554.644 522.479 519.558 464.138 535.661 403.707C539.416 389.593 546.252 376.655 549.508 362.32C552.548 348.976 553.827 335.226 553.075 321.556C551.596 294.587 542.202 267.737 530.938 243.387C518.628 216.766 502.494 191.948 483.764 169.404C467.324 149.621 448.958 130.197 426.114 117.804C406.222 107.002 382.435 102.357 361.345 112.705C338.96 123.683 325.378 147.755 320.341 171.391C307.94 229.678 338.329 299.104 293.876 348.611C258.767 387.71 201.72 395.773 163.26 430.714C125.345 465.158 114.101 525.05 146.668 566.88C161.728 586.22 183.765 598.554 208.266 600.354C232.802 602.159 256.879 595.191 280.928 591.547C293.6 589.622 306.542 588.517 319.308 590.168C336.156 592.346 351.604 599.704 365.649 608.995C390.163 625.211 410.758 646.846 436.854 660.738C457.008 671.462 480.788 677.831 503.074 669.919C525.806 661.839 540.945 641.046 548.48 618.886C552.449 607.198 554.407 594.96 554.623 582.626C554.641 581.485 552.863 581.385 552.841 582.532C552.387 608.464 543.91 636.028 524.75 654.327C504.918 673.271 477.604 675.349 452.736 666.028C402.26 647.12 370.253 591.654 313.501 587.819C266.156 584.623 216.559 614.285 171.954 587.175C148.902 573.167 132.926 548.415 129.625 521.663C126.229 494.147 135.505 465.82 152.77 444.376C184.537 404.939 237.988 394.92 277.418 365.764C296.715 351.501 310.73 332.42 316.643 308.985C323.5 281.827 320.649 253.671 319.348 226.05C317.983 196.947 318.569 166.406 334.271 140.815C348.97 116.871 374.661 103.797 402.53 110.42C427.169 116.268 447.905 133.194 465.043 151.092C484.696 171.629 502.082 194.406 516.293 219.037C530.31 243.32 541.291 269.521 547.666 296.859C554.068 324.272 552.119 352.777 542.739 379.287C538.218 392.063 533.009 403.84 531.15 417.42C529.312 430.852 529.578 444.53 531.044 457.977C534.049 485.649 542.704 512.293 548.131 539.508C550.965 553.709 552.851 568.037 552.843 582.543C552.84 583.675 554.618 583.775 554.623 582.626Z" fill="#6200EE"/>
<path d="M546.23 573.461C546.223 516.446 512.618 460.825 528.796 403.602C532.488 390.523 538.704 378.514 541.647 365.126C544.386 352.679 545.498 339.886 544.744 327.155C543.192 301.089 533.878 275.099 522.766 251.674C510.94 226.744 495.575 203.536 477.79 182.466C462.001 163.753 444.294 145.433 422.13 134.332C402.95 124.728 380.361 121.799 361.103 132.87C340.996 144.43 329.341 166.941 325.122 189.096C314.584 244.544 342.676 310.456 297.966 356.154C263.788 391.081 211.088 398.682 175.812 432.341C141.436 465.14 132.197 520.642 162.587 559.143C176.953 577.345 197.87 588.752 221.054 590.246C243.976 591.731 266.424 585.241 288.89 581.855C301.262 579.993 313.9 578.986 326.34 580.827C341.932 583.132 356.209 590.211 369.192 598.911C392.185 614.311 411.618 634.627 436.308 647.53C455.131 657.371 477.223 662.989 497.903 655.579C519.217 647.932 533.405 628.34 540.458 607.544C544.194 596.549 546.022 585.051 546.23 573.461C546.248 572.32 544.477 572.224 544.454 573.372C544.021 597.501 536.224 623.207 518.553 640.409C499.892 658.564 474.029 660.787 450.369 651.922C403.263 634.275 373.267 582.567 320.519 578.382C275.757 574.834 228.789 603.272 186.535 577.965C164.856 564.982 149.744 541.93 146.38 516.913C142.924 491.318 151.319 464.861 167.052 444.641C196.135 407.246 246.108 397.404 283.33 370.881C301.485 357.935 315.233 340.695 321.432 319.08C328.692 293.781 326.316 267.127 324.983 241.224C323.589 213.965 323.442 185.42 337.013 160.852C349.923 137.483 373.877 123.193 400.783 128.617C424.154 133.326 444.195 149.172 460.405 165.894C479.236 185.326 495.886 206.957 509.508 230.348C522.939 253.43 533.441 278.356 539.55 304.386C545.733 330.714 543.689 358.09 534.449 383.463C530.343 394.744 525.846 405.23 524.146 417.235C522.298 430.227 522.541 443.458 523.97 456.477C526.839 482.658 535.092 507.866 540.172 533.634C542.757 546.75 544.45 559.981 544.454 573.372C544.453 574.514 546.232 574.615 546.23 573.461Z" fill="#6200EE"/>
<path d="M537.842 564.3C537.806 510.771 506.098 458.334 521.629 404.645C525.165 392.433 530.91 381.2 533.626 368.671C536.21 356.709 537.208 344.427 536.369 332.207C534.737 308.269 526.129 284.393 515.939 262.842C505.073 239.847 490.957 218.38 474.642 198.89C459.846 181.212 443.284 163.855 422.561 153.161C404.781 143.985 383.738 140.707 365.486 150.536C346.294 160.862 334.9 181.95 330.72 202.7C320.28 254.572 346.889 316.025 306.135 359.411C274.874 392.688 225.498 399.847 192.095 430.49C159.113 460.755 149.185 512.886 177.202 549.734C190.439 567.138 210.032 578.309 231.885 580.016C253.479 581.695 274.704 575.575 295.86 572.329C307.269 570.574 318.919 569.563 330.412 571.09C345.424 573.081 359.153 579.735 371.628 588.082C393.287 602.559 411.569 621.745 434.839 633.841C452.881 643.217 474.008 648.433 493.666 640.881C513.078 633.427 525.971 615.339 532.453 596.204C535.934 585.906 537.638 575.153 537.842 564.3C537.865 563.153 536.087 563.053 536.06 564.207C535.643 586.906 528.307 611.031 511.637 627.161C493.892 644.343 469.326 646.024 447.043 637.447C402.864 620.433 374.586 571.831 324.584 568.746C282.659 566.157 238.63 592.325 199.317 567.66C154.942 539.818 152.509 479.05 184.566 440.869C212.789 407.261 258.987 398.43 293.264 373.057C309.807 360.811 322.046 344.57 327.47 324.559C333.944 300.694 331.576 275.755 330.373 251.397C329.112 225.838 329.253 198.991 342.479 176.194C355.151 154.359 378.003 141.968 403.177 147.735C424.805 152.684 443.169 167.573 458.206 183.229C475.746 201.496 491.254 221.763 503.903 243.709C528.73 286.811 544.406 337.086 526.854 385.714C522.922 396.599 518.584 406.652 516.977 418.237C515.338 430.003 515.532 441.962 516.771 453.763C519.355 478.489 527.156 502.277 531.976 526.597C534.445 539.012 536.059 551.529 536.064 564.2C536.064 565.342 537.842 565.443 537.842 564.3Z" fill="#6200EE"/>
<path d="M529.453 555.128C529.385 505.073 499.6 455.839 514.45 405.678C517.92 393.961 523.339 383.196 525.822 371.11C528.034 360.373 528.83 349.351 528.067 338.42C526.508 316.172 518.568 294.031 509.111 273.997C498.998 252.563 485.88 232.577 470.71 214.385C456.896 197.832 441.426 181.575 422.079 171.525C405.812 163.072 386.61 159.812 369.668 168.348C350.627 177.946 339.626 198.727 335.788 218.97C326.608 267.443 351.032 324.687 312.251 364.786C282.535 395.503 236.302 402.074 205.402 431.42C175.38 459.938 166.975 508.343 193.219 542.126C205.326 557.723 222.987 567.945 242.71 569.752C262.99 571.617 282.967 565.907 302.823 562.797C313.929 561.064 325.274 560.036 336.469 561.607C350.592 563.592 363.481 570.078 375.177 578.001C395.332 591.654 412.448 609.528 434.316 620.627C451.01 629.101 470.461 633.591 488.488 626.535C506.477 619.492 518.429 602.649 524.442 584.86C527.685 575.26 529.259 565.248 529.453 555.128C529.472 553.987 527.7 553.891 527.677 555.038C527.267 576.292 520.399 598.871 504.723 613.923C488.181 629.8 465.35 631.295 444.673 623.33C403.525 607.478 377.154 562.25 330.616 559.228C291.374 556.679 250.279 581.258 213.473 558.188C172.343 532.398 169.865 476.076 199.353 440.465C225.512 408.874 268.696 400.553 300.793 376.997C316.152 365.722 327.641 350.813 332.881 332.343C339.177 310.139 337.042 286.792 335.891 264.082C334.682 240.201 334.594 215.066 346.756 193.656C358.697 172.628 380.552 160.745 404.616 166.667C424.908 171.662 441.894 185.753 456 200.558C472.26 217.63 486.618 236.576 498.292 257.065C520.994 296.891 535.25 343.151 519.258 387.982C515.665 398.042 511.538 407.379 509.976 418.062C508.373 428.967 508.48 440.092 509.579 451.051C511.865 473.92 518.971 495.927 523.548 518.378C526.014 530.474 527.666 542.67 527.677 555.038C527.677 556.181 529.455 556.281 529.453 555.128Z" fill="#6200EE"/>
<path d="M521.065 545.966C520.978 499.674 493.63 454.266 506.948 407.845C509.938 397.446 514.858 387.881 517.236 377.243C519.592 366.726 520.525 355.89 519.804 345.13C518.439 324.546 511.137 304.053 502.444 285.491C492.964 265.259 480.596 246.398 466.269 229.279C453.352 213.832 438.857 198.667 420.692 189.42C405.911 181.895 388.536 179.026 373.132 186.535C355.91 194.926 345.483 213.412 341.587 231.563C332.001 276.292 355.544 329.74 320.904 367.495C293.743 397.084 250.213 403.209 220.973 430.244C192.522 456.557 184.187 501.751 208.494 533.553C219.452 547.887 235.533 557.515 253.531 559.477C272.479 561.543 291.23 556.239 309.781 553.273C319.935 551.645 330.284 550.626 340.537 551.877C353.677 553.486 365.694 559.237 376.622 566.501C395.594 579.101 411.526 595.939 431.904 606.454C447.421 614.453 465.563 618.92 482.468 612.521C499.261 606.173 510.501 590.649 516.21 574.158C519.35 565.067 520.867 555.565 521.065 545.966C521.088 544.819 519.306 544.725 519.283 545.873C518.879 565.815 512.396 587.014 497.49 600.967C481.564 615.875 459.743 616.476 440.356 608.445C403.032 592.989 378.532 552.081 335.663 549.659C299.277 547.602 261.175 570.196 227.162 548.431C187.899 523.309 187.47 468.504 217.617 436.091C243.064 408.719 282.146 401.337 311.106 378.845C325.347 367.778 335.313 353.128 339.492 335.499C344.293 315.253 342.242 294.353 341.259 273.818C340.222 252.105 340.483 229.293 351.683 209.921C362.832 190.641 382.995 179.933 405.095 185.364C424.039 190.012 439.883 203.239 453.017 217.08C468.038 232.907 481.31 250.449 492.106 269.422C513.618 307.227 526.661 350.973 510.543 393.243C506.978 402.602 503.666 411.397 502.48 421.434C501.334 431.16 501.574 441.028 502.631 450.749C504.945 472.023 511.634 492.498 515.768 513.429C517.894 524.14 519.273 534.936 519.287 545.866C519.287 547.009 521.065 547.109 521.065 545.966Z" fill="#6200EE"/>
<path d="M512.672 536.801C512.55 493.694 486.632 450.894 500.114 407.78C503.084 398.29 507.387 389.491 509.448 379.673C511.401 370.371 512.143 360.821 511.5 351.333C510.199 332.087 503.314 312.905 495.112 295.586C486.291 276.969 474.834 259.618 461.581 243.865C449.608 229.643 436.167 215.697 419.308 207.327C405.649 200.537 389.735 198.194 375.659 205.201C359.954 213.022 350.478 230 346.9 246.612C337.917 288.269 360.045 338.062 327.025 372.893C301.402 399.918 260.97 405.406 234.284 431.196C208.835 455.79 202.009 497 224.414 525.815C234.677 539.012 249.638 547.741 266.327 549.401C284.005 551.163 301.438 546.109 318.756 543.428C328.247 541.961 338.03 541.06 347.582 542.544C359.9 544.439 371.001 550.108 381.183 557.104C398.269 568.86 412.895 584.044 431.627 593.364C445.43 600.229 461.383 603.904 476.337 598.53C492.218 592.812 502.839 578.305 508.199 562.814C511.095 554.417 512.489 545.66 512.672 536.801C512.695 535.654 510.923 535.558 510.901 536.705C510.495 555.493 504.278 575.599 489.84 588.4C474.82 601.721 454.741 601.525 437.089 593.941C402.986 579.311 380.294 541.826 340.7 540.093C306.849 538.623 271.299 559.376 239.982 538.084C204.782 514.147 205.259 464.125 233.204 434.79C256.929 409.882 292.866 403.136 319.417 382.193C332.083 372.196 341.041 359.038 344.927 343.29C349.617 324.268 347.615 304.582 346.71 285.26C345.789 265.523 346.051 244.816 356.075 227.15C366.511 208.766 385.634 198.75 406.523 204.299C423.703 208.856 438.016 220.915 449.984 233.549C464.062 248.412 476.462 264.912 486.481 282.77C496.971 301.464 505.667 322.276 508.886 343.577C510.661 355.364 510.194 367.466 507.751 379.127C505.54 389.701 500.627 399.136 497.766 409.457C485.881 452.39 510.777 493.981 510.901 536.705C510.9 537.848 512.679 537.948 512.672 536.801Z" fill="#6200EE"/>
<path d="M504.29 527.633C504.13 487.747 479.604 447.494 493.317 407.748C499.158 390.806 504.489 375.623 503.186 357.317C501.892 339.114 495.216 320.932 487.279 304.643C479.356 288.391 469.271 273.208 457.656 259.365C446.671 246.272 434.319 233.405 418.835 225.677C406.125 219.328 391.226 217.151 378.193 223.872C364.016 231.178 355.477 246.523 352.21 261.649C344.011 299.624 364.103 344.863 334.494 376.851C310.913 402.316 272.903 407.068 248.341 431.437C225.651 453.961 219.65 491.073 239.679 517.245C249.211 529.712 263.27 537.869 278.943 539.305C294.96 540.774 310.727 536.211 326.416 533.787C335.413 532.399 344.642 531.596 353.689 533.074C366.819 535.224 378.358 542.217 388.864 550.051C405.237 562.251 420.137 577.134 439.929 583.741C455.876 589.064 473.085 587.003 485.565 575.136C498.329 563.014 503.899 544.847 504.29 527.633C504.308 526.492 502.53 526.392 502.507 527.539C502.117 544.869 496.37 563.438 482.922 575.14C469.103 587.157 450.772 586.772 434.708 579.826C403.338 566.258 382.542 531.871 345.961 530.55C315.236 529.44 283.011 548.052 254.537 528.884C221.469 506.615 222.607 459.407 249.518 432.776C271.826 410.702 304.52 404.624 328.485 384.914C355.489 362.694 353.748 329.772 352.221 297.912C351.313 279.049 351.479 259.191 361.557 242.511C371.3 226.4 388.489 218.045 407.003 222.997C423.601 227.43 437.145 239.418 448.547 251.728C460.735 264.89 471.507 279.419 480.265 295.086C489.884 312.268 497.873 331.435 500.729 351.018C502.313 361.883 501.828 373.061 499.484 383.778C497.544 392.695 493.559 400.732 490.91 409.396C478.82 448.997 502.35 488.03 502.507 527.539C502.511 528.675 504.285 528.782 504.29 527.633Z" fill="#6200EE"/>
<path d="M495.896 518.467C495.725 482.33 473.643 445.937 485.795 409.902C491.123 394.093 496.183 380.172 494.856 363.118C493.593 346.875 487.641 330.677 480.595 316.105C473.15 300.705 463.531 286.365 452.44 273.346C442.525 261.713 431.397 250.332 417.446 243.591C405.918 238.017 392.39 236.268 380.736 242.54C368.728 249.002 361.225 261.742 357.991 274.651C349.182 309.777 368.961 351.805 341.28 381.514C319.83 404.534 285.41 408.866 263.138 430.973C242.338 451.625 236.987 485.696 255.593 509.513C264.442 520.84 277.365 528.079 291.722 529.209C305.792 530.322 319.615 526.453 333.386 524.26C343.168 522.715 353.196 521.908 362.923 524.312C373.841 527.009 383.431 533.252 392.288 539.984C406.911 551.103 420.57 564.395 438.559 569.943C472.729 580.488 495.152 549.76 495.896 518.467C495.925 517.324 494.147 517.224 494.12 518.378C493.743 533.959 488.674 550.543 476.739 561.212C463.778 572.801 446.426 572.137 431.365 565.273C403.878 552.754 385.185 522.79 352.971 521.078C324.847 519.59 295.207 537.132 269.102 519.681C238.514 499.241 239.939 455.766 265.056 431.607C285.298 412.125 314.468 406.501 336.011 388.872C360.747 368.631 359.061 338.434 357.676 309.346C356.867 292.498 357.038 274.669 365.941 259.736C374.813 244.849 390.423 237.187 407.483 241.693C421.94 245.511 433.957 255.901 443.964 266.547C455.86 279.201 466.304 293.265 474.665 308.498C483.136 323.928 490.232 341.164 492.607 358.714C494.023 369.103 493.338 379.736 490.865 389.918C488.866 398.134 484.881 405.614 482.812 413.775C473.856 449.169 493.952 483.203 494.12 518.378C494.124 519.514 495.902 519.614 495.896 518.467Z" fill="#6200EE"/>
<path d="M487.507 509.295C487.302 476.65 467.199 443.477 478.649 410.986C483.457 397.361 487.61 384.94 486.626 370.233C485.631 355.396 480.198 340.575 473.782 327.281C467.091 313.441 458.472 300.564 448.529 288.855C439.392 278.098 429.057 267.544 416.074 261.524C406.24 256.955 394.957 255.547 384.92 260.363C372.845 266.166 365.579 279.072 362.833 291.735C355.926 323.566 373.029 361.504 346.728 387.585C326.723 407.423 295.874 411.332 276.45 432.041C258.95 450.709 254.893 480.231 270.964 501.06C278.669 511.041 289.973 517.689 302.565 518.947C315.31 520.22 327.887 516.772 340.356 514.733C349.472 513.251 358.89 512.379 367.959 514.688C377.499 517.114 385.889 522.494 393.672 528.358C407.17 538.528 419.621 550.835 436.227 555.813C466.941 565.022 486.801 537.28 487.507 509.295C487.536 508.152 485.76 508.063 485.731 509.206C485.372 523.339 480.767 538.383 469.821 547.952C457.172 559.007 440.337 557.058 426.338 549.834C403.019 537.813 386.223 512.571 358.026 511.515C332.923 510.587 306.567 525.818 283.296 510.225C256.215 492.066 257.246 453.644 279.123 431.845C296.997 414.027 323.251 408.939 342.761 393.443C365.065 375.738 364.588 349.292 363.245 323.199C362.464 307.992 362.184 291.904 369.675 278.128C377.616 263.534 392.613 255.796 408.895 260.667C421.988 264.587 432.627 274.035 441.723 283.872C452.065 295.046 461.142 307.416 468.438 320.788C476.045 334.71 482.433 350.301 484.446 366.133C485.605 375.23 484.99 384.527 482.842 393.424C480.971 401.166 477.161 408.204 475.349 415.928C467.951 447.6 485.533 477.766 485.731 509.206C485.737 510.353 487.515 510.453 487.507 509.295Z" fill="#6200EE"/>
<path d="M479.119 500.134C478.877 470.884 460.882 441.129 471.492 412.073C476.037 399.64 479.461 388.095 478.168 374.664C476.862 361.121 471.663 347.597 465.527 335.562C454.623 314.176 437.217 289.292 414.48 279.371C391.833 269.489 372.297 285.419 367.92 307.961C362.319 336.749 377.261 370.85 352.091 393.553C333.63 410.217 306.27 413.888 289.8 433.212C274.955 450.644 272.642 477.142 288.198 494.905C305.571 514.744 328.659 507.791 351.299 504.596C359.367 503.453 367.446 503.26 375.298 505.741C384.13 508.528 391.784 514.107 398.976 519.775C409.963 528.443 420.812 538.229 434.68 541.919C461.615 549.101 478.455 524.41 479.119 500.134C479.149 498.991 477.37 498.891 477.337 500.041C477.002 512.307 473.123 525.657 463.646 534.058C453.295 543.22 439.743 542.897 427.671 537.494C405.907 527.76 391.23 504.177 366.023 502.134C343.708 500.327 320.761 514.298 299.588 502.109C273.506 487.083 274.18 451.211 293.914 431.377C309.427 415.795 332.287 411.151 349.518 398.002C368.949 383.184 370.118 360.92 368.896 338.259C368.189 325.194 367.294 311.45 372.371 299.068C378.097 285.113 391.035 275.199 406.576 278.623C418.731 281.295 428.828 289.869 437.14 298.692C446.378 308.488 454.521 319.353 461.117 331.113C468.266 343.86 474.261 358.147 476.16 372.733C477.236 380.959 476.679 389.334 474.717 397.391C473.07 404.119 469.779 410.248 468.18 416.96C461.465 445.132 477.111 472.069 477.337 500.041C477.347 501.181 479.125 501.281 479.119 500.134Z" fill="#6200EE"/>
<path d="M470.725 490.968C470.451 465.107 454.604 438.826 464.381 413.19C468.401 402.641 471.053 392.317 469.877 380.904C468.691 369.447 464.366 358.061 459.256 347.814C449.867 329.024 434.76 307.34 415.128 298.235C396.856 289.765 379.669 300.08 374.239 318.752C366.9 343.951 382.124 374.548 361.495 395.717C345.9 411.715 321.267 414.582 306.024 431.158C292.581 445.764 289.684 468.643 302.163 484.743C316.293 502.982 336.475 498.569 356.277 495.366C363.516 494.199 370.962 493.551 378.144 495.487C386.223 497.665 393.215 502.569 399.728 507.648C409.536 515.302 419.077 524.154 431.388 527.524C455.168 534.038 470.061 512.478 470.725 490.968C470.766 489.823 468.987 489.723 468.949 490.879C468.597 502.192 464.846 514.484 455.601 521.74C445.073 529.999 431.695 527.187 420.921 521.109C403.55 511.308 390.642 492.919 369.096 492.471C349.729 492.069 329.42 503.526 311.542 491.25C289.374 476.026 292.633 444.28 311.755 428.146C326.364 415.832 346.263 411.895 360.516 399.098C375.998 385.205 375.107 365.201 374.146 346.082C373.549 334.108 373.379 321.396 379.538 310.674C386.08 299.311 398.18 294.014 410.747 298.368C430.832 305.32 446.461 327.597 456.029 345.485C461.911 356.46 466.878 368.785 468.131 381.267C468.865 388.567 468.114 396.036 466.139 403.087C464.614 408.531 461.947 413.562 460.743 419.102C455.425 443.475 468.692 466.69 468.949 490.879C468.96 492.019 470.738 492.12 470.725 490.968Z" fill="#6200EE"/>
<path d="M462.343 481.801C462.052 459.683 448.642 437.287 456.845 415.353C460.166 406.468 462.498 397.98 461.685 388.371C460.859 378.59 457.241 368.821 452.959 360.048C445.009 343.779 432.187 325.274 415.532 317.018C400.628 309.622 385.865 316.505 380.215 331.883C372.174 353.759 386.732 380.847 368.976 399.673C355.645 413.815 334.042 416.134 320.894 430.626C309.857 442.796 307.092 461.564 316.823 475.324C328.436 491.749 345.971 488.75 363.227 485.855C369.823 484.746 376.607 484.039 383.158 485.868C390.258 487.855 396.344 492.28 402.057 496.777C410.605 503.498 419.101 511.175 430.026 513.626C449.952 518.082 461.728 499.472 462.343 481.801C462.379 480.662 460.601 480.562 460.56 481.707C460.219 491.568 456.956 502.325 448.669 508.443C438.933 515.627 427.013 512.13 417.642 506.328C402.974 497.254 391.909 482.513 373.124 482.964C356.634 483.345 339.174 492.435 324.408 480.818C305.942 466.275 311.024 439.48 328.165 426.454C341.197 416.544 358.712 413.137 370.153 401.011C381.759 388.706 380.225 371.939 379.536 356.313C379.091 346.07 379.135 334.978 385.014 326.089C391.459 316.352 402.276 313.201 413.001 317.787C430.153 325.139 443.5 344.748 451.362 360.844C456.161 370.658 460.125 381.701 460.091 392.762C460.062 403.538 454.831 412.054 453.117 422.339C449.743 442.591 460.298 461.654 460.556 481.714C460.578 482.852 462.356 482.952 462.343 481.801Z" fill="#6200EE"/>
<path d="M453.948 472.635C453.614 453.073 442.709 434.865 450.138 415.43C456.319 399.258 452.601 383.258 444.668 368.353C437.706 355.277 426.658 339.53 412.198 334.106C399.332 329.268 388.129 337.43 384.556 349.963C379.166 368.824 390.779 391.339 373.64 406.353C361.732 416.79 344.15 419.01 334.184 432.007C325.598 443.192 324.927 459.367 334.7 470.061C345.349 481.705 359.217 477.913 372.9 475.883C385.43 474.028 394.553 478.13 404.344 485.869C411.636 491.632 419.152 498.243 428.715 499.608C444.719 501.886 453.395 486.64 453.948 472.635C453.996 471.494 452.217 471.394 452.173 472.546C451.839 480.961 449.064 490.022 441.775 494.97C432.828 501.039 422.418 496.938 414.377 491.423C403.575 484.01 394.551 473.433 380.446 473.428C367.081 473.42 353.077 481.051 340.65 472.85C323.14 461.287 327.813 437.077 342.978 426.068C353.421 418.493 366.89 415.516 376.259 406.372C386.221 396.647 385.782 383.086 385.116 370.163C384.71 362.319 384.363 354.034 387.61 346.684C391.91 336.952 401.43 331.97 411.651 335.803C425.87 341.126 436.959 357.294 443.628 370.188C448.078 378.792 451.835 388.671 451.779 398.479C451.736 407.21 447.645 414.179 446.083 422.46C442.882 439.463 451.883 455.683 452.173 472.546C452.194 473.684 453.973 473.784 453.948 472.635Z" fill="#6200EE"/>
</svg>
