<svg width="301" height="268" viewBox="0 0 301 268" fill="none" xmlns="http://www.w3.org/2000/svg">
<path d="M-367.309 -67.5282C-341.935 -132.942 -251.73 -156.186 -190.029 -134.704C-171.701 -128.325 -155.845 -117.18 -143.409 -102.306C-133.165 -90.0498 -128.556 -74.3327 -117.107 -63.0688C-93.418 -39.7556 -55.5408 -44.6631 -32.9382 -19.7671C-11.1752 4.20085 -4.79357 41.1522 -7.93278 72.4402C-10.6195 99.2387 -22.1126 128.872 -50.8897 135.876C-63.7349 138.997 -77.352 138.231 -90.4332 137.58C-109.022 136.638 -127.582 135.299 -146.211 135.007C-165.074 134.709 -183.858 135.393 -202.635 137.337C-214.837 138.602 -227.191 140.552 -239.48 139.417C-281.034 135.576 -312.366 104.683 -332.9 70.7747C-357.176 30.6671 -384.299 -19.6983 -367.309 -67.5282C-366.853 -68.8195 -368.838 -69.6003 -369.294 -68.309C-384.654 -25.0708 -364.23 20.472 -342.925 57.7912C-323.727 91.4343 -301.694 121.139 -264.256 135.468C-236.141 146.232 -208.334 139.113 -179.268 137.592C-155.727 136.358 -132.128 137.294 -108.619 138.663C-93.3879 139.55 -77.9459 141.03 -62.6881 139.809C1.70529 134.634 3.99764 48.384 -16.241 2.63663C-22.3043 -11.0722 -31.3552 -23.8669 -44.1148 -32.0594C-59.3534 -41.8316 -77.6401 -43.715 -94.0894 -50.5736C-103.7 -54.5859 -112.308 -60.4436 -119.143 -68.3515C-124.944 -75.0528 -128.007 -83.0298 -132.422 -90.5764C-141.555 -106.173 -155.518 -119.662 -171.213 -128.569C-234.678 -164.564 -341.492 -139.977 -369.294 -68.309C-369.794 -67.0276 -367.808 -66.2468 -367.309 -67.5282Z" fill="#6200EE"/>
<path d="M-365.342 -84.6501C-339.586 -153.197 -244.167 -181.349 -179.313 -157.031C-160.104 -149.831 -143.671 -137.416 -130.761 -121.547C-120.204 -108.572 -115.593 -92.0036 -103.682 -80.1362C-78.3533 -54.9019 -37.3782 -61.4007 -13.2949 -34.2662C8.81922 -9.34311 15.3573 28.4939 12.363 60.7529C9.78942 88.4272 -1.66884 120.769 -31.7592 127.972C-44.6365 131.048 -58.2614 130.074 -71.3463 129.241C-91.0788 127.986 -110.761 126.365 -130.551 126.013C-150.667 125.663 -170.725 126.423 -190.72 128.742C-203.901 130.263 -217.237 132.818 -230.555 132.038C-273.897 129.523 -306.842 96.7713 -327.982 61.6642C-353.512 19.274 -382.804 -34.0397 -365.342 -84.6501C-364.894 -85.9401 -366.88 -86.7209 -367.326 -85.4227C-383.035 -39.8995 -361.152 7.32553 -339.088 46.6464C-319.205 82.0938 -296.154 113.96 -256.539 128.48C-227.012 139.304 -197.128 130.53 -166.817 128.746C-141.985 127.283 -117.075 128.213 -92.2781 129.913C-76.2198 131.012 -59.9339 132.919 -43.8268 131.839C23.3413 127.312 24.0188 34.1093 3.14891 -12.1983C-3.32906 -26.5766 -12.9898 -39.9016 -26.5916 -48.2451C-42.0619 -57.7386 -60.3053 -59.6121 -77.0334 -65.9089C-88.0619 -70.065 -97.9066 -76.404 -105.644 -85.3722C-111.427 -92.068 -114.503 -99.9678 -118.693 -107.625C-128.055 -124.722 -142.848 -139.659 -159.467 -149.765C-219.539 -186.279 -315.554 -165.717 -355.613 -107.941C-360.464 -100.946 -364.333 -93.3948 -367.326 -85.4227C-367.808 -84.1357 -365.832 -83.3618 -365.342 -84.6501Z" fill="#6200EE"/>
<path d="M-363.374 -101.765C-337.7 -172.161 -240.563 -204.827 -173.028 -181.04C-151.955 -173.617 -133.911 -160.036 -119.774 -142.849C-108.085 -128.633 -103.19 -110.155 -90.1577 -97.1117C-63.5744 -70.4886 -20.4364 -78.2056 5.15478 -50.0896C28.9255 -23.9831 35.7761 16.3101 32.5297 50.4128C29.8442 78.6476 18.2288 112.851 -12.7249 120.141C-25.6412 123.181 -39.324 121.999 -52.4115 120.991C-72.273 119.448 -92.0844 117.588 -112.015 117.091C-133.588 116.553 -155.17 117.236 -176.601 119.824C-191.271 121.596 -206.061 124.882 -220.893 124.625C-266.55 123.836 -301.519 88.6898 -323.45 51.962C-350.059 7.3869 -381.224 -48.5878 -363.374 -101.765C-362.943 -103.06 -364.921 -103.843 -365.358 -102.537C-381.696 -53.8583 -357.27 -4.11975 -333.994 37.7994C-313.332 75.0113 -288.332 108.749 -246.134 122.386C-215.008 132.44 -181.791 121.336 -150.147 119.642C-124.648 118.275 -99.1018 119.322 -73.6662 121.363C-57.5608 122.655 -41.2311 124.839 -25.0456 123.939C45.113 120.051 44.0904 19.4079 22.3118 -27.5246C15.215 -42.8075 4.64509 -56.7072 -10.2163 -65.0942C-27.0414 -74.5994 -46.659 -75.9721 -64.4184 -82.9831C-75.8291 -87.4965 -85.9022 -94.5427 -93.6081 -104.159C-99.0357 -110.928 -101.902 -118.927 -105.982 -126.476C-116.189 -145.378 -132.644 -162.015 -151.022 -173.046C-213.922 -210.809 -313.019 -186.228 -353.572 -125.869C-358.462 -118.592 -362.357 -110.778 -365.359 -102.546C-365.831 -101.252 -363.846 -100.471 -363.374 -101.765Z" fill="#6200EE"/>
<path d="M-361.405 -118.879C-335.629 -191.53 -236.389 -228.177 -165.97 -204.796C-142.87 -197.124 -123.221 -181.901 -107.953 -163.155C-101.107 -154.756 -95.6028 -145.753 -91.0955 -135.924C-87.9406 -129.056 -84.4579 -122.757 -79.4089 -117.065C-66.9228 -102.983 -50.3868 -96.2632 -32.5006 -91.8362C-13.2068 -87.0634 6.14669 -82.918 20.9556 -68.6181C47.4219 -43.0539 55.3735 -0.704455 53.1418 34.6412C51.2933 63.9466 40.7981 102.55 8.77292 111.729C-4.28244 115.476 -18.4237 114.141 -31.7539 112.971C-50.997 111.272 -70.1753 109.137 -89.4832 108.35C-113.372 107.375 -137.373 107.864 -161.13 110.693C-176.673 112.544 -192.143 116.121 -207.783 116.986C-248.777 119.236 -285.119 92.0066 -307.632 59.8973C-320.992 40.8589 -332.12 19.8231 -342.382 -1.01538C-354.223 -25.0371 -364.526 -50.8969 -366.394 -77.8786C-367.361 -91.8403 -365.763 -105.581 -361.405 -118.879C-360.984 -120.182 -362.97 -120.962 -363.391 -119.66C-380.333 -67.8705 -353.411 -15.4439 -328.897 29.0275C-307.415 67.9975 -280.114 104.145 -235.076 116.298C-221.25 120.029 -207.506 119.589 -193.459 117.573C-172.877 114.635 -152.525 111.348 -131.703 110.452C-105.06 109.296 -78.4373 110.657 -51.9154 113.179C-36.144 114.682 -20.0739 117.074 -4.19886 116.006C25.6078 113.992 43.1114 91.3282 50.5651 63.9362C60.1267 28.8371 56.7944 -12.3955 40.4065 -45.012C32.8826 -59.9853 21.9888 -73.291 7.09349 -81.3636C-11.1456 -91.2554 -32.4251 -92.0987 -51.4226 -99.9165C-62.9345 -104.648 -73.0548 -112.046 -80.6864 -121.933C-86.3319 -129.235 -89.2151 -137.875 -93.5713 -145.898C-104.278 -165.639 -121.323 -183.211 -140.355 -195.057C-174.945 -216.583 -218.521 -217.408 -257.005 -207.193C-293.919 -197.393 -330.109 -176.5 -351.389 -144.003C-356.375 -136.384 -360.351 -128.232 -363.391 -119.66C-363.855 -118.367 -361.87 -117.587 -361.405 -118.879Z" fill="#6200EE"/>
<path d="M-359.439 -136.001C-333.491 -211.009 -232.163 -251.251 -158.834 -228.537C-134.573 -221.024 -113.923 -204.906 -97.8203 -185.582C-90.1033 -176.319 -83.621 -166.359 -78.6802 -155.371C-75.5544 -148.423 -72.3736 -141.868 -67.5044 -135.938C-55.1256 -120.896 -38.2034 -113.21 -19.6618 -108.652C0.897607 -103.586 21.9967 -100.234 38.2552 -85.4281C66.8332 -59.3953 75.4691 -14.7737 73.4671 22.2394C71.8278 52.4472 61.5875 93.5664 28.6817 103.728C15.2622 107.866 0.603765 106.271 -13.1218 104.87C-32.9671 102.849 -52.7449 100.407 -72.6875 99.4614C-98.0924 98.2502 -123.679 98.7965 -148.933 101.929C-165.373 103.972 -181.627 107.873 -198.139 109.301C-240.285 112.928 -277.964 85.6417 -301.443 52.7577C-315.521 33.0309 -326.915 11.0515 -337.722 -10.5946C-350.567 -36.3204 -362.009 -63.846 -364.331 -92.8023C-365.513 -107.49 -363.929 -121.955 -359.439 -136.001C-359.026 -137.302 -361.011 -138.083 -361.423 -136.773C-378.903 -82.0429 -349.668 -26.8661 -323.949 20.0544C-301.985 60.1176 -273.234 97.9407 -226.548 109.374C-211.97 112.945 -197.552 111.806 -182.895 109.418C-160.635 105.788 -138.595 102.294 -115.995 101.392C-88.825 100.296 -61.7094 101.763 -34.6943 104.658C-18.4855 106.393 -1.97796 109.175 14.3718 108.257C45.4334 106.521 63.2532 81.9453 70.7838 53.6642C80.651 16.6378 76.9818 -27.0471 59.0986 -61.1481C50.7728 -77.0221 38.7523 -90.693 22.4408 -98.5839C3.05405 -107.969 -19.1343 -108.485 -38.812 -117.014C-50.8067 -122.212 -61.541 -130.59 -68.9938 -141.407C-74.1922 -148.947 -76.9859 -157.76 -81.3857 -165.743C-93.0241 -186.89 -111.35 -205.855 -131.887 -218.508C-167.456 -240.414 -212.373 -240.317 -251.588 -229.336C-290.027 -218.569 -327.511 -196.135 -349.322 -161.917C-354.35 -154.033 -358.365 -145.608 -361.423 -136.773C-361.871 -135.483 -359.893 -134.701 -359.439 -136.001Z" fill="#6200EE"/>
<path d="M-357.47 -153.115C-343.741 -193.774 -309.192 -223.262 -270.791 -240.203C-233.563 -256.634 -188.686 -263.757 -149.166 -251.477C-123.487 -243.502 -101.858 -225.568 -85.1478 -204.937C-77.237 -195.186 -70.6243 -184.771 -65.5631 -173.284C-62.2032 -165.647 -58.7318 -158.519 -53.293 -152.103C-40.0604 -136.519 -22.231 -128.959 -2.72875 -124.453C18.3612 -119.571 39.9114 -116.165 56.6459 -101.2C86.8982 -74.137 95.8761 -27.0304 93.6839 11.7415C91.9253 42.7281 81.3987 85.7382 47.4563 96.1049C33.6714 100.309 18.5927 98.3792 4.54374 96.7291C-16.0468 94.3239 -36.5666 91.5736 -57.2868 90.5168C-83.7483 89.1716 -110.419 89.7804 -136.706 93.1431C-154.306 95.4023 -171.614 99.7703 -189.242 101.641C-233.251 106.322 -272.298 77.9908 -296.694 43.5813C-311.347 22.9096 -323.07 -0.0953082 -334.342 -22.7369C-347.731 -49.6297 -359.88 -78.355 -362.358 -108.615C-363.598 -123.727 -361.994 -138.646 -357.47 -153.115C-357.067 -154.423 -359.044 -155.205 -359.456 -153.896C-377.351 -96.6613 -346.321 -39.1036 -319.629 9.96006C-297.266 51.0711 -267.676 90.5574 -219.681 102.026C-204.093 105.755 -188.738 104.143 -173.151 101.357C-149.432 97.1221 -125.916 93.3531 -101.791 92.3778C-73.609 91.2382 -45.5032 92.8417 -17.518 96.168C-0.886853 98.1455 16.0689 101.333 32.8852 100.567C65.3985 99.0866 83.5835 72.2729 91.1177 42.9557C100.993 4.55001 97.1341 -40.5999 78.5083 -75.8615C69.7678 -92.4051 57.1281 -106.613 40.0056 -114.668C19.7885 -124.181 -3.23869 -124.456 -23.7497 -133.079C-35.8619 -138.175 -46.4804 -146.296 -54.3505 -156.847C-60.4522 -165.029 -63.3924 -174.771 -68.149 -183.692C-80.2354 -206.355 -99.5597 -226.883 -121.218 -240.662C-157.772 -263.941 -204.37 -263.437 -244.857 -251.837C-284.898 -240.366 -323.882 -216.643 -346.575 -180.925C-351.952 -172.451 -356.246 -163.406 -359.456 -153.896C-359.893 -152.591 -357.909 -151.818 -357.47 -153.115Z" fill="#6200EE"/>
<path d="M-355.503 -170.237C-341.611 -212.292 -306.309 -243.209 -266.932 -261.315C-228.653 -278.922 -182.359 -287.07 -141.241 -274.984C-113.785 -266.914 -90.9536 -247.341 -73.3291 -225.359C-65.073 -215.061 -58.0405 -204.103 -52.7975 -191.993C-49.3827 -184.113 -45.9735 -176.692 -40.4992 -169.998C-26.7121 -153.123 -7.67001 -145.128 13.109 -140.523C35.4204 -135.575 58.0995 -132.213 75.7469 -116.332C107.139 -88.0789 116.313 -38.8819 113.896 1.42877C111.965 33.545 100.753 79.2522 64.8367 88.9115C50.761 92.7026 35.5567 90.3996 21.3701 88.5124C0.172753 85.7019 -20.9444 82.7117 -42.316 81.5489C-69.9278 80.0595 -97.792 80.7814 -125.21 84.4394C-143.671 86.9014 -161.76 91.618 -180.216 93.9539C-225.197 99.6232 -265.232 71.4813 -290.536 36.3966C-305.91 15.0785 -317.894 -8.78718 -329.645 -32.2385C-343.775 -60.4425 -356.982 -90.3705 -360.166 -122.089C-361.805 -138.4 -360.303 -154.555 -355.503 -170.237C-355.107 -171.536 -357.086 -172.326 -357.488 -171.01C-375.991 -110.589 -342.288 -49.6445 -314.16 2.01532C-291.239 44.1158 -259.707 85.275 -209.941 95.3202C-194.05 98.5337 -178.354 96.174 -162.648 93.1361C-137.718 88.3173 -112.924 84.3884 -87.504 83.3673C-58.5903 82.2042 -29.7609 83.894 -1.08748 87.6128C16.0502 89.8362 33.4811 93.4414 50.8227 92.935C84.1007 91.9602 102.913 64.4129 110.857 34.5716C121.563 -5.6606 117.633 -53.2213 98.1045 -90.2363C89.0772 -107.327 76.019 -122.071 58.3128 -130.385C36.9528 -140.419 12.5729 -140.322 -9.12688 -149.333C-22.283 -154.799 -33.8745 -163.794 -42.0477 -175.524C-47.847 -183.855 -50.7349 -193.688 -55.4413 -202.609C-68.17 -226.749 -88.6932 -248.841 -111.647 -263.577C-149.337 -287.762 -197.798 -286.413 -239.373 -273.974C-280.948 -261.542 -321.243 -236.284 -344.502 -198.857C-349.936 -190.107 -354.261 -180.781 -357.488 -171.01C-357.917 -169.706 -355.932 -168.933 -355.503 -170.237Z" fill="#6200EE"/>
<path d="M-353.535 -187.352C-339.242 -231.524 -302.275 -264.166 -261.093 -283.325C-221.373 -301.802 -172.966 -310.693 -130.266 -297.579C-101.558 -288.771 -77.9971 -267.116 -59.9391 -243.816C-51.5909 -233.04 -44.6207 -221.629 -39.3301 -209.06C-35.9917 -201.135 -32.4645 -193.707 -26.9782 -186.989C-12.6019 -169.397 7.28596 -161.177 28.9819 -156.583C52.1454 -151.686 75.7299 -148.408 94.1467 -132.097C126.718 -103.254 136.351 -52.6257 134.233 -11.1094C132.539 22.1888 121.382 70.7352 84.1393 81.1967C70.073 85.1534 54.8062 82.7183 40.6264 80.663C18.9951 77.5368 -2.5406 74.17 -24.3742 72.7794C-53.4475 70.9193 -82.8415 71.6321 -111.735 75.4645C-131.539 78.0966 -150.845 83.2475 -170.581 86.1528C-217.29 93.0468 -258.696 64.6869 -285.161 28.1233C-301.437 5.63642 -313.93 -19.6021 -326.274 -44.3797C-340.928 -73.7871 -354.829 -104.883 -358.187 -137.911C-359.886 -154.663 -358.384 -171.236 -353.535 -187.352C-353.14 -188.658 -355.126 -189.439 -355.52 -188.124C-374.449 -125.164 -338.864 -61.5519 -309.683 -7.71966C-286.182 35.6255 -253.252 78.9193 -201.635 88.2549C-184.63 91.3343 -167.864 88.1293 -151.187 84.6795C-124.327 79.1301 -97.5129 75.1413 -70.0471 74.2234C-40.8949 73.2482 -11.8563 75.2056 17.0023 79.3044C34.4376 81.7731 52.1905 85.7785 69.8873 85.2996C104.674 84.3623 123.689 53.8098 131.426 22.974C141.822 -18.4287 137.656 -67.0127 117.515 -104.942C107.89 -123.066 93.8793 -138.502 74.8814 -146.905C52.5882 -156.767 27.3762 -156.438 4.9349 -165.809C-8.12897 -171.272 -19.5344 -180.146 -27.8753 -191.617C-33.9992 -200.046 -36.9651 -209.951 -41.5467 -219.191C-54.253 -244.83 -75.4966 -268.471 -99.0934 -284.583C-137.898 -311.065 -188.4 -309.794 -231.863 -296.723C-275.357 -283.638 -317.458 -257.018 -341.762 -217.855C-347.547 -208.524 -352.14 -198.571 -355.521 -188.132C-355.941 -186.822 -353.955 -186.041 -353.535 -187.352Z" fill="#6200EE"/>
<path d="M-351.567 -204.466C-336.985 -250.412 -298.788 -284.626 -256.209 -304.883C-215.798 -324.112 -166.648 -333.797 -122.8 -321.24C-92.509 -312.564 -67.9633 -289.804 -49.0181 -265.433C-40.1342 -254.015 -32.462 -241.913 -26.8799 -228.554C-23.3546 -220.133 -19.9046 -212.083 -14.1812 -204.868C0.527349 -186.335 21.1455 -177.562 43.7752 -172.873C68.1472 -167.832 93.0677 -164.874 112.577 -147.833C146.83 -117.911 156.791 -64.7288 154.457 -21.4077C152.603 12.8426 140.931 63.5165 102.285 73.8236C87.964 77.6451 72.5312 74.9522 58.1782 72.6987C35.8246 69.177 13.5676 65.4731 -9.04175 63.9293C-39.5535 61.8452 -70.3616 62.6474 -100.666 66.8528C-121.227 69.713 -141.235 75.1834 -161.692 78.4947C-210.235 86.363 -253.037 57.0958 -280.453 18.9452C-297.296 -4.48775 -310.126 -30.7505 -322.914 -56.5355C-338.082 -87.1396 -352.676 -119.396 -356.216 -153.739C-357.986 -170.89 -356.45 -187.936 -351.567 -204.466C-351.181 -205.779 -353.167 -206.56 -353.553 -205.247C-372.77 -140.195 -335.883 -74.6333 -306.005 -18.9234C-281.819 26.1678 -247.415 72.4528 -193.34 81.1749C-175.798 84.0026 -158.522 80.3247 -141.409 76.6222C-113.645 70.6046 -85.8259 66.2651 -57.3802 65.2594C-27.0731 64.1938 3.14024 66.2915 33.0951 70.8271C51.072 73.5527 69.3692 77.9901 87.6428 77.7793C123.672 77.3559 143.378 45.4165 151.414 13.665C162.441 -29.8751 157.985 -81.3532 136.195 -121.001C125.932 -139.676 111.089 -155.249 91.1732 -163.49C67.8785 -173.135 41.7611 -172.563 18.5582 -182.474C4.87378 -188.324 -7.0853 -197.954 -15.5153 -210.253C-21.5705 -219.095 -24.4914 -229.508 -29.2822 -239.016C-42.9224 -266.128 -65.4842 -291.506 -90.691 -308.4C-130.372 -334.986 -182.421 -332.561 -226.335 -318.858C-271.387 -304.793 -314.789 -276.681 -339.679 -235.781C-345.521 -226.174 -350.156 -215.955 -353.551 -205.238C-353.964 -203.937 -351.986 -203.155 -351.567 -204.466Z" fill="#6200EE"/>
<path d="M-349.601 -221.588C-334.618 -269.652 -294.738 -305.585 -250.362 -326.893C-208.27 -347.115 -156.54 -357.599 -110.91 -343.594C-80.464 -334.25 -56.0012 -310.374 -37.0127 -285.676C-27.6606 -273.513 -19.5866 -260.665 -13.7623 -246.459C-10.1786 -237.721 -6.60524 -229.365 -0.683251 -221.897C14.6128 -202.605 36.1011 -193.61 59.6652 -188.926C84.8501 -183.922 110.747 -181.076 130.979 -163.582C166.626 -132.76 177.041 -77.7622 174.742 -32.8934C172.932 2.52779 160.948 56.0486 120.625 66.4116C106.001 70.1722 90.2757 67.1581 75.701 64.664C53.3055 60.8232 31.0043 56.8924 8.33023 55.15C-23.4128 52.7257 -55.5538 53.496 -87.0989 57.8304C-109.292 60.8813 -130.783 66.903 -152.798 70.7692C-203.218 79.6519 -247.298 49.5342 -275.739 9.76619C-293.164 -14.6023 -306.332 -41.8973 -319.554 -68.6911C-335.024 -100.041 -350.173 -133.012 -354.095 -168.138C-356.109 -186.194 -354.673 -204.143 -349.601 -221.588C-349.222 -222.892 -351.199 -223.674 -351.585 -222.36C-371.19 -154.901 -332.587 -86.8206 -301.746 -29.0327C-276.973 17.4022 -241.121 66.0813 -185.061 74.0476C-166.667 76.6656 -148.598 72.2947 -130.752 68.2677C-101.343 61.6146 -71.7996 57.1368 -41.6168 56.1827C-10.4439 55.206 20.5946 57.5577 51.3479 62.602C69.2755 65.5442 87.5001 70.2102 105.758 70.2189C142.991 70.2237 163.299 36.544 171.513 3.96266C182.904 -41.1883 178.293 -94.6045 155.617 -135.683C144.938 -155.036 129.483 -171.104 108.754 -179.518C84.6349 -189.309 57.6829 -188.522 33.6292 -198.532C19.2838 -204.495 6.76085 -214.47 -2.04692 -227.311C-8.48253 -236.71 -11.5045 -247.817 -16.5668 -257.934C-30.6336 -286.056 -53.7301 -312.495 -79.5655 -330.408C-120.217 -358.595 -174.291 -355.717 -219.569 -341.39C-266.531 -326.522 -311.8 -296.796 -337.472 -253.918C-343.42 -243.977 -348.143 -233.418 -351.585 -222.36C-351.996 -221.051 -350.011 -220.27 -349.601 -221.588Z" fill="#6200EE"/>
<path d="M-347.632 -238.701C-332.469 -288.214 -291.795 -325.517 -246.409 -347.995C-203.161 -369.409 -149.779 -380.964 -102.459 -366.992C-70.3632 -357.516 -44.9935 -332.18 -25.1928 -306.198C-15.6915 -293.725 -7.28947 -280.544 -1.31332 -266.011C2.49372 -256.757 5.99111 -247.771 12.1648 -239.767C27.7944 -219.525 50.0156 -209.961 74.5121 -205.191C100.577 -200.117 127.496 -197.616 148.715 -179.901C185.853 -148.897 196.925 -92.3826 195.119 -46.3974C193.674 -9.61406 182.005 46.9557 140.369 58.6365C125.548 62.7873 109.507 59.6227 94.7234 56.9192C71.9089 52.752 49.2016 48.4176 26.055 46.4325C-7.03002 43.6018 -40.5704 44.3424 -73.4756 48.7911C-96.8132 51.9474 -119.357 58.2272 -142.409 62.7748C-161.807 66.6039 -180.278 66.0358 -198.975 59.1727C-228.247 48.4327 -251.509 27.5577 -269.628 2.60549C-287.762 -22.3943 -301.243 -50.5086 -314.852 -78.1099C-331.199 -111.267 -347.59 -145.913 -352.009 -183.023C-354.239 -201.814 -352.831 -220.518 -347.632 -238.701C-347.255 -240.014 -349.24 -240.795 -349.617 -239.474C-359.344 -205.476 -354.759 -171.022 -343.325 -138.042C-331.338 -103.462 -314.13 -70.3065 -296.932 -38.06C-271.571 9.50163 -233.991 60.3549 -176.055 67.0231C-156.748 69.2381 -137.829 64.0649 -119.192 59.6961C-87.5066 52.2829 -55.5394 47.765 -22.9636 47.0513C8.00611 46.3739 38.7897 49.0165 69.2746 54.3703C87.8707 57.633 106.878 62.9188 125.882 62.6763C163.722 62.1926 183.918 25.8414 191.909 -6.93033C203.369 -53.9212 198.369 -109.64 174.122 -151.998C162.672 -172.006 146.192 -188.164 124.352 -196.318C99.2468 -205.686 71.4456 -204.724 46.7344 -215.407C32.2927 -221.663 19.632 -232.034 10.8878 -245.161C4.3767 -254.933 1.35135 -266.432 -3.84385 -276.862C-18.6125 -306.468 -42.7669 -334.635 -69.957 -353.513C-111.385 -382.278 -167.035 -378.642 -212.99 -363.849C-261.585 -348.214 -308.333 -317.169 -334.867 -272.711C-341.108 -262.247 -346.052 -251.128 -349.617 -239.474C-350.021 -238.174 -348.034 -237.385 -347.632 -238.701Z" fill="#6200EE"/>
<path d="M-345.665 -255.825C-330.115 -307.436 -287.742 -346.518 -240.555 -370.016C-196.078 -392.167 -141.037 -404.476 -92.2908 -389.885C-59.3413 -380.026 -33.59 -353.489 -13.385 -326.745C-3.5025 -313.655 5.33222 -299.849 11.5274 -284.616C15.3881 -275.128 18.8541 -265.812 25.0771 -257.548C41.2401 -236.096 64.6347 -226.082 90.3432 -221.253C117.281 -216.199 145.144 -213.806 167.147 -195.622C205.967 -163.538 217.372 -104.488 215.352 -56.6895C213.765 -19.0571 201.699 39.2873 159.008 51.1597C143.775 55.4006 127.312 51.8932 112.171 48.929C88.6531 44.3298 65.2421 39.6638 41.3277 37.5242C7.42534 34.4885 -26.9985 35.2933 -60.7199 39.8625C-85.3896 43.2039 -109.13 49.8979 -133.424 54.9839C-153.191 59.1218 -172.09 59.022 -191.28 52.2035C-221.504 41.4634 -245.588 19.9913 -264.27 -5.62359C-283.365 -31.7913 -297.277 -61.3158 -311.525 -90.2694C-328.416 -124.594 -345.52 -160.421 -350.071 -198.847C-352.352 -218.064 -350.911 -237.199 -345.665 -255.825C-345.296 -257.136 -347.282 -257.916 -347.65 -256.597C-357.765 -220.718 -352.49 -184.485 -340.105 -149.867C-327.518 -114.663 -310.027 -80.7178 -292.503 -47.7293C-266.574 1.10395 -227.212 54.357 -167.336 59.8756C-147.691 61.6866 -128.47 56.1064 -109.58 51.5391C-75.9788 43.406 -41.998 38.6288 -7.39102 37.9788C23.7528 37.3992 54.7157 40.1722 85.3309 45.8228C104.298 49.3193 123.606 54.9752 142.996 55.1728C182.412 55.568 203.561 17.7386 211.908 -16.2168C223.857 -64.8214 218.738 -122.509 193.71 -166.373C181.575 -187.651 163.979 -204.584 140.608 -212.806C114.531 -221.987 85.8082 -220.829 60.356 -232.08C44.9939 -238.877 31.4087 -250.396 22.6933 -264.822C16.9195 -274.368 13.9953 -285.331 9.09597 -295.315C-6.06671 -326.254 -31.0933 -355.979 -59.2388 -375.883C-101.917 -406.064 -159.837 -401.727 -207.209 -386.068C-257.368 -369.492 -305.483 -337.004 -332.651 -290.85C-339.015 -280.05 -344.039 -268.592 -347.658 -256.596C-348.045 -255.29 -346.059 -254.51 -345.665 -255.825Z" fill="#6200EE"/>
<path d="M-343.697 -272.938C-327.926 -326.38 -284.285 -367.007 -235.684 -391.605C-189.775 -414.842 -132.552 -428.089 -82.0547 -412.772C-48.6003 -402.625 -22.6836 -375.304 -2.18401 -348.122C8.30186 -334.225 17.7665 -319.55 24.3116 -303.37C28.1293 -293.942 31.417 -284.539 37.3856 -276.194C53.7668 -253.306 78.2665 -242.481 105.201 -237.502C132.713 -232.414 161.348 -230.418 184.213 -212.437C225.557 -179.916 237.63 -117.848 235.638 -68.1248C234.086 -29.3704 221.813 31.3118 177.795 43.6691C162.337 48.0124 145.63 44.2846 130.312 41.1059C106.474 36.1649 82.7604 31.1707 58.4832 28.7961C23.0344 25.3279 -13.0377 26.1673 -48.3249 30.9752C-73.9575 34.4601 -98.6001 41.4135 -123.77 47.0386C-144.092 51.5731 -163.653 52.0956 -183.569 45.2327C-215.142 34.3549 -240.206 11.8598 -259.558 -14.8269C-278.589 -41.0633 -292.549 -70.5217 -306.747 -99.5251C-324.404 -135.583 -342.816 -172.983 -347.962 -213.269C-350.524 -233.368 -349.154 -253.428 -343.697 -272.938C-343.327 -274.249 -345.313 -275.03 -345.681 -273.711C-355.94 -236.999 -350.536 -199.993 -337.86 -164.595C-324.696 -127.853 -306.512 -92.3212 -288.254 -57.8536C-261.717 -7.76313 -220.92 48.0195 -159.105 52.6557C-138.28 54.2139 -117.951 47.8159 -97.9754 42.885C-63.145 34.2824 -27.7725 29.4861 8.12623 28.9246C40.1604 28.43 71.9805 31.502 103.404 37.6682C122.519 41.4169 141.998 47.4133 161.6 47.686C202.305 48.2619 223.885 7.97595 232.236 -26.8068C244.351 -77.3169 238.866 -137.435 212.214 -182.647C199.487 -204.24 181.213 -221.075 157.214 -229.148C129.926 -238.322 99.9224 -236.87 73.4916 -248.977C58.2316 -255.973 44.8103 -267.619 36.1001 -282.012C29.8074 -292.411 26.7293 -304.403 21.3343 -315.252C5.48635 -347.094 -20.0835 -377.986 -49.0794 -398.674C-92.6345 -429.752 -152.375 -424.727 -200.653 -408.565C-252.745 -391.117 -302.704 -357.027 -330.597 -308.796C-337.001 -297.722 -342.064 -285.982 -345.681 -273.711C-346.068 -272.406 -344.083 -271.625 -343.697 -272.938Z" fill="#6200EE"/>
<path d="M199.901 -230.196C243.439 -198.172 256.974 -135.624 256.066 -84.5353C255.601 -58.53 251.364 -31.871 240.512 -8.06865C232.249 10.0638 218.774 28.5676 199.201 35.3641C183.508 40.8135 166.32 37.1615 150.587 33.7812C126.589 28.6231 102.788 23.125 78.3536 20.3909C42.2546 16.3489 5.48528 16.8974 -30.5464 21.3801C-58.2145 24.8271 -84.7914 31.9604 -111.81 38.5203C-132.523 43.5424 -152.71 45.4415 -173.386 39.0495C-205.336 29.1747 -231.299 7.17234 -251.235 -19.1383C-271.393 -45.7398 -286.033 -75.9595 -300.571 -105.853C-318.626 -142.95 -338.01 -180.948 -344.895 -222.046C-366.024 -348.172 -229.542 -444.296 -114.816 -442.137C-86.3446 -441.601 -59.2343 -434.504 -36.3959 -416.953C-6.80882 -394.211 20.3141 -360.833 35.2539 -326.543C39.4285 -316.971 42.3056 -306.835 47.7861 -297.879C55.2662 -285.671 66.0783 -275.159 78.3859 -267.872C102.171 -253.794 130.093 -253.039 156.508 -247.702C172.071 -244.554 186.819 -239.373 199.901 -230.196C201.027 -229.413 202.284 -231.131 201.157 -231.922C176.055 -249.526 146.212 -250.763 117.119 -256.453C85.3555 -262.658 56.5654 -279.554 43.8384 -310.618C38.5096 -323.641 33.5523 -336.322 26.128 -348.388C15.4589 -365.721 2.81864 -382.05 -11.1861 -396.811C-32.8342 -419.628 -57.4303 -436.409 -88.7227 -441.853C-143.251 -451.33 -201.7 -433.94 -248.235 -405.776C-297.264 -376.117 -339.999 -328.843 -348.053 -270.272C-353.444 -231.078 -341.855 -192.46 -326.664 -156.732C-311.67 -121.465 -294.744 -86.1772 -275.733 -52.872C-248.22 -4.68958 -202.899 47.69 -141.992 45.5125C-119.138 44.6876 -96.9111 36.5035 -74.7977 31.4108C-36.5667 22.6057 2.82687 18.9454 42.0317 20.017C72.4973 20.8557 102.454 25.2989 132.169 31.86C149.701 35.7333 168.075 41.3445 186.217 40.0937C229.681 37.0858 249.047 -13.7915 255.129 -50.296C263.748 -102.008 256.378 -162.848 225.686 -206.57C218.877 -216.269 210.711 -224.886 201.149 -231.921C200.052 -232.733 198.795 -231.015 199.901 -230.196Z" fill="#6200EE"/>
</svg>
