<svg width="300" height="416" viewBox="0 0 300 416" fill="none" xmlns="http://www.w3.org/2000/svg">
<path d="M539.534 131.893C503.379 165.326 441.815 148.824 409.025 118.771C399.44 109.986 392.701 99.1465 389.252 86.5972C386.547 76.742 387.668 66.5181 383.822 56.9234C375.095 35.1793 350.113 26.2032 344.803 2.33621C337.143 -32.1198 361.754 -94.6325 405.414 -84.7689C414.794 -82.6542 423.607 -78.3485 432.187 -74.1404C444.135 -68.2682 455.933 -62.093 467.984 -56.4263C478.62 -51.4284 489.476 -47.0981 500.454 -42.9226C508.139 -40.0061 515.716 -36.8919 522.315 -31.9097C545.506 -14.4073 555.41 12.0003 558.736 39.8882C562.428 70.8203 563.503 108.271 539.534 131.893C538.795 132.63 539.922 133.791 540.66 133.06C561.864 112.154 564.191 79.3187 561.588 51.2881C559.219 25.7762 554.779 1.24131 537.841 -18.952C531.489 -26.5203 524.263 -33.474 515.508 -38.1736C507.126 -42.6712 497.897 -45.5117 489.079 -49.0055C463.401 -59.1718 439.881 -74.7033 413.885 -83.9431C397.143 -89.8931 380.971 -87.9191 367.85 -75.3031C352.328 -60.3842 343.331 -37.6077 341.943 -16.3485C341.264 -5.86455 342.558 5.10589 347.453 14.5319C352.868 24.9623 362.336 31.8594 370.397 40.062C375.904 45.6694 380.435 51.9738 383.047 59.4402C385.116 65.3556 385.152 71.3015 385.833 77.434C387.113 89.058 391.721 100.63 398.761 109.972C415.175 131.763 443.617 145.449 470.03 149.982C494.764 154.236 521.664 150.627 540.666 133.062C541.43 132.352 540.304 131.19 539.534 131.893Z" fill="#6200EE"/>
<path d="M532.762 143.101C495.481 178.511 429.518 163.916 395.319 131.36C385.702 122.202 378.841 111.009 375.124 98.2546C371.894 87.1789 373.428 75.476 369.237 64.6719C360.605 42.4468 334.834 33.6861 327.819 10.4944C321.052 -11.8602 327.958 -37.9353 339.545 -57.4951C349.686 -74.6083 366.25 -89.7175 387.485 -85.707C396.832 -83.94 405.596 -79.6219 414.037 -75.407C426.368 -69.252 438.496 -62.6981 450.945 -56.7771C462.92 -51.073 475.092 -46.0037 487.583 -41.5613C496.042 -38.5519 504.704 -35.7788 512.302 -30.8755C537.793 -14.4288 548.861 14.6085 552.275 43.4646C556.214 76.7501 558.302 117.329 532.762 143.101C532.029 143.84 533.154 145.007 533.889 144.263C556.419 121.527 558 86.4461 555.231 56.4033C552.656 28.5301 547.693 2.26063 528.182 -19.0942C521.47 -26.4443 513.921 -32.6162 504.819 -36.7489C494.942 -41.2286 484.42 -44.2159 474.343 -48.2114C458.232 -54.6032 442.747 -62.4467 427.364 -70.3925C417.184 -75.6531 406.999 -81.3123 396.128 -85.0286C351.84 -100.17 324.277 -45.9742 323.703 -8.93232C323.532 2.01287 325.62 13.238 331.546 22.5875C338.233 33.1459 348.895 39.9604 357.289 48.9782C362.628 54.7209 366.749 61.3729 368.984 68.9293C370.735 74.8663 370.487 80.8757 371.157 86.9532C372.568 99.7853 377.726 112.552 385.491 122.839C416.899 164.423 493.514 182.615 533.895 144.264C534.65 143.544 533.523 142.383 532.762 143.101Z" fill="#6200EE"/>
<path d="M525.992 154.304C487.782 191.478 418.11 179.021 382.271 144.673C371.624 134.472 364.192 121.759 360.302 107.551C357.099 95.8446 358.883 83.5281 354.534 72.1264C345.536 48.5301 317.815 39.9467 310.069 15.6002C302.609 -7.83955 309.882 -35.3873 321.942 -56.0123C332.27 -73.6785 349.578 -90.5191 371.675 -86.2613C381.537 -84.3568 390.703 -79.5227 399.535 -74.9381C412.081 -68.4107 424.481 -61.618 437.259 -55.5267C450.198 -49.358 463.392 -43.8924 476.98 -39.2995C485.811 -36.3164 494.963 -33.7578 503.095 -29.0892C530.591 -13.2987 542.473 17.951 545.941 47.8702C550.034 83.2557 552.852 126.628 525.992 154.304C525.269 155.052 526.394 156.219 527.117 155.471C551.399 130.452 551.685 92.5296 548.762 60.0098C546.134 30.6963 540.301 3.2075 518.964 -18.5278C502.942 -34.8527 481.48 -38.725 460.916 -46.8625C444.262 -53.4519 428.253 -61.5594 412.443 -69.9367C402.199 -75.3648 391.998 -81.2693 381.07 -85.2487C334.944 -102.03 306.094 -43.1631 305.615 -5.15739C305.47 6.23106 307.679 17.9325 313.905 27.6264C321.344 39.1957 333.383 46.2779 342.58 56.2167C347.952 62.0272 352.048 68.7956 354.27 76.42C356.16 82.884 355.754 89.3637 356.419 95.9733C357.799 109.636 363.182 123.371 371.21 134.486C403.68 179.419 485.252 196.198 527.117 155.471C527.868 154.743 526.742 153.576 525.992 154.304Z" fill="#6200EE"/>
<path d="M519.221 165.512C479.756 204.73 404.93 194.016 367.808 156.712C356.812 145.665 349.384 131.892 345.481 116.847C342.288 104.545 344.34 91.6395 339.862 79.6746C330.34 54.2327 299.975 45.7694 291.913 19.4082C284.513 -4.8025 291.957 -33.0117 304.224 -54.3533C314.751 -72.6604 332.892 -91.3835 355.959 -86.8479C365.828 -84.9022 374.934 -79.9222 383.711 -75.2099C396.948 -68.1051 410.034 -60.7628 423.597 -54.2635C437.384 -47.6622 451.483 -41.8462 466.031 -37.1279C475.619 -34.0113 485.64 -31.561 494.596 -26.8117C523.746 -11.3726 536.155 21.6711 539.663 52.6103C543.901 89.9693 547.285 136.065 519.221 165.512C518.504 166.262 519.629 167.429 520.348 166.673C545.592 140.186 545.402 100.64 542.588 66.4972C540.057 35.7203 534.204 6.41664 511.424 -16.1388C494.445 -32.9524 471.024 -36.3374 449.517 -44.6866C431.898 -51.5262 414.981 -60.0436 398.386 -69.057C387.638 -74.8929 376.989 -81.3588 365.519 -85.7046C317.68 -103.811 287.748 -39.6295 287.528 -1.03724C287.459 10.9449 289.921 23.2054 296.681 33.27C304.369 44.7198 316.381 51.7815 325.948 61.4204C332.254 67.7783 337.052 75.2702 339.563 83.9125C341.442 90.3671 341.069 96.7974 341.544 103.412C342.607 118.185 348.106 133.181 356.393 145.417C386.355 189.636 459.194 205.783 505.136 178.528C510.699 175.228 515.759 171.235 520.348 166.673C521.087 165.936 519.967 164.777 519.221 165.512Z" fill="#6200EE"/>
<path d="M512.45 176.714C472.458 217.236 395.018 209.097 355.876 171.313C343.663 159.522 335.489 144.435 331.155 128.091C327.573 114.574 330.033 100.26 325.152 87.1277C315.201 60.3295 282.957 52.0241 274.164 24.5082C265.993 -1.0439 273.998 -31.0489 287.022 -53.5847C297.803 -72.2437 316.641 -92.2037 340.332 -87.4547C350.217 -85.472 359.298 -80.3301 368.021 -75.496C381.256 -68.1511 394.356 -60.603 407.969 -53.9594C422.705 -46.7676 437.832 -40.4167 453.457 -35.4299C464.153 -32.0165 475.41 -29.6111 485.576 -24.7448C516.873 -9.76637 529.922 25.5717 533.464 57.8805C537.758 97.0903 541.594 145.616 512.45 176.714C511.744 177.473 512.863 178.639 513.577 177.875C540.255 149.407 539.102 107.32 536.272 70.9992C533.76 38.7568 527.153 7.54338 502.308 -15.2181C483.981 -32.0052 457.521 -34.8339 435.122 -43.6671C417.072 -50.7832 399.753 -59.5824 382.824 -69.0339C372.105 -75.0181 361.513 -81.6892 350.045 -86.184C300.343 -105.677 269.233 -35.8176 269.443 3.49378C269.515 16.2965 272.424 29.2415 280.041 39.7343C288.661 51.6206 301.781 58.7707 311.835 69.229C318.292 75.9547 323.024 84.0074 325.308 93.0875C326.918 99.4799 326.369 105.913 326.802 112.419C327.879 128.705 333.989 145.402 343.199 158.833C374.719 204.809 450.958 219.153 498.058 190.27C503.737 186.788 508.899 182.62 513.576 177.881C514.311 177.137 513.186 175.97 512.45 176.714Z" fill="#6200EE"/>
<path d="M505.68 187.916C464.904 229.964 384.752 223.911 343.49 185.495C329.955 172.892 321.192 156.162 316.569 138.384C314.494 130.417 313.537 122.456 313.53 114.24C313.521 108.498 313.106 103.045 311.418 97.5153C307.242 83.8388 297.942 73.9685 286.983 65.2555C275.162 55.8585 263.101 46.8761 257.389 32.3146C247.185 6.28503 255.079 -25.4887 267.795 -49.2041C278.336 -68.8673 297.791 -92.2215 322.82 -88.4392C333.025 -86.9009 342.373 -81.5082 351.213 -76.4854C363.971 -69.2282 376.547 -61.6901 389.638 -55.0426C405.836 -46.8173 422.573 -39.5672 439.881 -34.0122C451.205 -30.3777 463.025 -27.9583 474.104 -23.6111C503.139 -12.2068 519.64 18.0954 525.044 47.3974C528.256 64.7749 529.295 82.8268 529.797 100.468C530.384 120.809 529.327 141.933 522.089 161.166C518.343 171.118 512.895 180.106 505.68 187.916C504.978 188.683 506.103 189.85 506.805 189.084C534.883 158.657 532.856 113.924 529.978 75.4484C527.454 41.7321 520.019 8.12631 492.744 -14.5078C484.371 -21.4567 474.736 -25.4977 464.393 -28.5455C449.243 -33.0219 434.143 -37.1851 419.473 -43.1477C400.7 -50.772 382.736 -60.1289 365.209 -70.2555C354.787 -76.2801 344.44 -83.0129 333.134 -87.2933C311.904 -95.3247 292.645 -85.1992 278.836 -68.6299C261.134 -47.402 250.401 -17.8603 251.413 9.85569C251.878 22.5795 255.198 35.2166 262.938 45.5029C272.412 58.1032 286.848 65.4129 297.502 76.8201C303.96 83.7283 308.614 92.0389 310.761 101.283C312.353 108.112 311.614 114.993 312.087 121.914C313.244 138.938 319.466 156.467 328.871 170.669C345.965 196.477 375.811 210.822 405.63 215.93C434.232 220.829 465.841 217.834 490.817 202.108C496.671 198.421 501.995 194.045 506.805 189.084C507.535 188.337 506.41 187.17 505.68 187.916Z" fill="#6200EE"/>
<path d="M498.909 199.125C457.269 242.746 374.538 238.517 331.054 199.643C316.667 186.782 307.495 169.118 302.478 150.676C300.074 141.836 298.744 132.906 298.804 123.752C298.841 117.963 298.716 112.428 297.226 106.792C293.429 92.4858 284.167 81.8258 272.797 72.8155C260.193 62.8159 246.675 53.8298 240.123 38.4602C228.607 11.4394 236.747 -22.1206 249.831 -47.0607C260.513 -67.4135 280.587 -92.5862 306.535 -89.2044C317.115 -87.8215 326.738 -82.085 335.779 -76.7784C348.851 -69.1079 361.744 -61.1687 375.224 -54.2109C392.394 -45.3428 410.245 -37.6315 428.684 -31.8126C440.688 -28.0269 453.152 -25.5836 465.011 -21.3503C495.277 -10.5324 512.684 20.2314 518.511 50.3739C522.001 68.454 522.925 87.2419 523.549 105.614C524.291 127.449 523.495 150.084 515.946 170.825C512.119 181.346 506.451 190.839 498.909 199.125C498.212 199.893 499.337 201.06 500.035 200.286C529.415 167.997 526.659 120.633 523.722 80.0842C521.212 45.4603 513.304 10.2385 484.662 -12.4197C475.72 -19.4954 465.397 -23.2665 454.516 -26.25C437.988 -30.7797 421.656 -35.3329 405.756 -41.8542C386.637 -49.6857 368.367 -59.2717 350.617 -69.8119C339.966 -76.1349 329.44 -83.2757 317.854 -87.8102C295.844 -96.4303 275.763 -85.0836 261.619 -67.9244C243.097 -45.4615 231.822 -14.1189 233.397 15.0955C234.131 28.6952 238.115 41.9406 246.89 52.5491C257.318 65.1621 272.485 72.5331 283.384 84.6466C290.029 92.0299 294.796 101.212 296.526 111.042C297.734 117.895 296.878 124.867 297.395 131.773C298.751 150.064 305.417 168.96 315.607 184.194C333.256 210.574 364.321 224.707 394.887 229.517C424.849 234.229 457.839 230.579 483.726 213.832C489.692 209.975 495.13 205.423 500.035 200.286C500.753 199.536 499.634 198.371 498.909 199.125Z" fill="#6200EE"/>
<path d="M492.138 210.327C469.799 234.079 436.606 243.53 404.719 243.096C373.803 242.679 340.545 233.413 317.122 212.435C301.901 198.808 292.627 179.579 287.604 160.042C285.22 150.804 283.944 141.518 284.079 131.982C284.172 125.642 284.026 119.62 282.297 113.468C278.081 98.5175 268.152 87.6581 256.102 78.3795C243.074 68.3393 229.262 59.1732 222.43 43.5435C210.084 15.2815 218.773 -20.1035 232.544 -46.1987C243.555 -67.0519 264.425 -93.4405 291.153 -89.8729C302.007 -88.42 311.815 -82.3196 321 -76.7382C334.466 -68.5672 347.774 -60.18 361.756 -52.8996C379.613 -43.6049 398.233 -35.594 417.458 -29.6073C430.332 -25.6045 443.672 -23.1507 456.442 -18.8709C488.329 -8.19219 506.351 23.7261 512.328 55.2126C515.918 74.1274 516.745 93.7278 517.375 112.935C518.124 135.748 517.437 159.436 509.583 181.126C505.663 191.96 499.838 201.76 492.138 210.327C491.446 211.103 492.565 212.269 493.263 211.494C523.721 177.607 520.477 128.03 517.546 85.6926C515.091 50.2186 507.13 13.5825 477.595 -9.51399C468.004 -17.0182 456.885 -20.7581 445.235 -23.7614C427.509 -28.3334 410.069 -33.1635 393.093 -40.1161C373.261 -48.238 354.349 -58.231 336.065 -69.3762C325.2 -76.0001 314.492 -83.5626 302.631 -88.3495C279.699 -97.605 258.659 -84.8279 244.185 -66.9539C225.221 -43.5405 213.614 -11.1258 215.335 19.1253C216.144 33.3186 220.386 47.1309 229.67 58.1093C240.631 71.0731 256.454 78.5428 267.899 90.9847C274.657 98.3346 279.426 107.302 281.528 117.08C283.157 124.662 282.109 132.323 282.575 139.99C283.761 159.469 290.623 179.761 301.232 196.128C319.128 223.768 351.483 238.15 383.123 242.935C414.414 247.668 448.848 243.601 475.819 226.097C482.213 221.942 488.039 217.05 493.263 211.494C493.978 210.731 492.851 209.569 492.138 210.327Z" fill="#6200EE"/>
<path d="M485.367 221.535C462.473 246.199 428.309 256.401 395.378 256.462C363.365 256.526 328.804 247.521 304.215 226.172C287.797 211.917 278.21 191.175 272.982 170.416C270.533 160.691 269.138 150.897 269.344 140.872C269.476 134.349 269.466 128.144 267.8 121.788C263.609 105.77 252.98 94.2267 240.079 84.476C226.228 74.004 211.622 64.5117 204.449 47.9601C191.692 18.5157 200.906 -18.3756 215.319 -45.4629C226.806 -67.042 249.002 -95.0776 276.871 -90.3971C287.794 -88.5666 297.571 -82.169 306.776 -76.3802C320.534 -67.7373 334.179 -58.9956 348.577 -51.436C367.184 -41.678 386.664 -33.3681 406.763 -27.228C420.297 -23.0929 434.286 -20.6332 447.776 -16.4126C480.646 -6.10977 499.411 25.9903 505.803 58.2304C509.685 77.8194 510.42 98.0971 511.126 118.015C511.972 141.968 511.637 166.821 503.809 189.743C499.785 201.53 493.64 212.218 485.367 221.535C484.682 222.307 485.8 223.479 486.493 222.696C518.378 186.8 514.359 134.038 511.256 89.453C508.729 53.1193 499.954 14.7133 468.745 -7.95962C458.782 -15.2034 447.191 -18.5351 435.379 -21.4014C416.632 -25.9529 398.259 -31.0766 380.373 -38.4071C360.028 -46.744 340.644 -57.0253 322.008 -68.6592C310.871 -75.6131 299.967 -83.6144 287.825 -88.7468C264.525 -98.5934 242.818 -85.5077 227.896 -67.4012C207.78 -42.9886 195.46 -8.88567 197.252 22.8623C198.086 37.5247 202.447 51.8391 212.052 63.1808C223.638 76.866 240.513 84.5063 252.657 97.5925C260.019 105.528 265.185 115.407 267.123 126.096C268.496 133.684 267.383 141.392 267.815 149.043C268.978 169.746 276.174 191.498 287.374 208.935C305.77 237.56 339.679 251.948 372.336 256.496C404.991 261.05 440.816 256.338 468.718 237.831C475.239 233.504 481.175 228.427 486.493 222.696C487.202 221.931 486.075 220.77 485.367 221.535Z" fill="#6200EE"/>
<path d="M478.597 232.737C454.757 258.738 418.897 269.605 384.386 269.823C351.102 270.033 314.846 260.873 289.49 238.313C272.439 223.152 263.006 200.742 257.896 178.935C255.534 168.851 254.326 158.763 254.644 148.406C254.843 141.875 254.754 135.628 253.087 129.253C248.715 112.553 237.573 100.587 224.036 90.5538C209.58 79.8475 194.321 70.1274 186.753 53.0356C173.367 22.8103 182.716 -15.2148 197.304 -43.2295C209.001 -65.7001 232.056 -95.7148 261.096 -91.1693C272.065 -89.4562 281.843 -82.9475 290.991 -77.0447C304.948 -68.0465 318.763 -58.9123 333.408 -51.0493C352.908 -40.5732 373.442 -31.7733 394.616 -25.2871C409.131 -20.845 424.099 -18.3005 438.653 -14.0687C473.105 -4.06589 492.747 28.6181 499.473 62.2469C503.61 82.9288 504.263 104.316 504.959 125.338C505.787 150.288 505.561 176.168 497.44 200.048C493.318 212.16 487.041 223.136 478.597 232.737C477.911 233.515 479.036 234.683 479.723 233.899C512.705 196.382 508.229 141.182 505.085 94.7635C502.55 57.3862 493.485 17.0636 460.773 -5.70407C449.998 -13.2076 437.401 -16.2933 424.788 -19.1818C404.475 -23.8389 384.688 -29.5598 365.421 -37.6084C344.971 -46.1504 325.527 -56.6828 306.883 -68.6378C295.618 -75.8553 284.618 -84.235 272.24 -89.4985C247.908 -99.8482 225.112 -84.7501 210.018 -65.891C189.747 -40.5717 177.267 -5.68694 179.192 26.8859C180.112 42.4511 184.913 57.5456 195.382 69.3568C207.668 83.218 225.191 90.9613 237.733 104.53C245.032 112.435 250.107 122.172 252.244 132.733C253.81 140.493 252.728 148.274 252.973 156.107C253.646 177.839 260.85 200.888 272.06 219.48C290.499 250.044 325.794 265.131 359.955 269.84C394.142 274.549 431.646 269.466 460.819 250.091C467.766 245.473 474.086 240.048 479.722 233.905C480.426 233.132 479.301 231.965 478.597 232.737Z" fill="#6200EE"/>
<path d="M471.826 243.94C447.227 271.075 410.019 282.639 374.197 283.174C340.197 283.685 303.177 274.838 276.851 252.301C258.665 236.731 248.902 213.246 243.516 190.418C240.988 179.721 239.513 168.934 239.879 157.94C240.106 151.006 240.267 144.354 238.593 137.56C234.29 120.105 222.818 107.526 208.665 97.1322C193.419 85.9448 177.136 76.023 169.044 58.0818C154.838 26.5792 164.768 -13.3142 180.076 -42.5074C192.184 -65.5856 216.268 -96.9072 246.227 -91.8115C257.33 -89.9244 267.142 -83.1851 276.346 -77.0907C290.677 -67.5909 304.884 -57.9956 320.017 -49.7815C340.44 -38.6959 361.979 -29.5109 384.246 -22.8363C399.357 -18.3123 414.91 -15.7669 430.091 -11.5878C466.117 -1.67825 486.437 32.0739 493.319 67.1C497.549 88.6148 498.11 110.816 498.794 132.674C499.6 158.614 499.485 185.514 491.074 210.361C486.876 222.771 480.426 234.062 471.826 243.94C471.144 244.725 472.269 245.892 472.951 245.107C506.793 206.237 502.034 149.278 499.002 101.342C496.546 62.5416 487.408 19.6863 452.804 -3.43481C441.577 -10.9341 428.479 -13.8542 415.485 -16.7061C394.4 -21.3253 373.807 -27.1216 353.836 -35.4193C332.559 -44.264 312.347 -55.2648 293.085 -67.868C281.526 -75.4343 270.287 -84.2844 257.595 -89.9156C232.568 -101.013 208.855 -85.1752 193.266 -65.7778C171.882 -39.1813 158.688 -2.20538 161.209 32.0766C162.396 48.224 167.728 63.6755 178.883 75.6652C191.929 89.6935 210.154 97.5551 223.053 111.737C230.658 120.105 235.876 130.54 237.813 141.703C239.201 149.725 237.928 157.843 238.232 165.927C239.085 188.971 246.651 213.638 258.726 233.279C277.738 264.192 314.466 278.971 349.139 283.386C384.712 287.91 423.586 282.208 453.713 261.818C460.787 257.027 467.219 251.432 472.953 245.101C473.649 244.332 472.53 243.167 471.826 243.94Z" fill="#6200EE"/>
<path d="M465.055 255.148C439.509 283.62 400.595 295.839 363.199 296.533C327.724 297.198 288.669 288.088 261.57 263.987C243.488 247.906 234.134 223.676 228.822 200.609C226.206 189.25 224.689 177.82 225.156 166.163C225.442 158.993 225.615 152.09 223.884 145.059C219.414 126.894 207.411 113.886 192.611 103.201C176.792 91.7814 159.8 81.6286 151.352 63.1452C136.466 30.5805 146.656 -10.7108 162.429 -40.9846C174.878 -64.8854 200.077 -98.0755 231.213 -92.4881C242.505 -90.4634 252.418 -83.4096 261.699 -77.0788C275.958 -67.3453 290.124 -57.5793 305.239 -49.2076C326.405 -37.4976 348.855 -27.8692 372.02 -20.8915C388.318 -15.9834 405.071 -13.35 421.503 -9.06174C459.148 0.740415 480.082 35.4844 487.16 71.9515C491.496 94.2966 491.965 117.318 492.63 140.01C493.408 166.561 493.452 194.13 485.057 219.639C480.741 232.751 474.075 244.698 465.055 255.148C464.381 255.929 465.5 257.095 466.182 256.309C501.053 215.898 495.904 156.656 492.864 106.98C490.427 67.0657 481.045 22.0989 444.83 -1.12755C432.949 -8.75139 419.084 -11.4433 405.48 -14.3029C383.058 -19.0032 361.23 -25.2488 340.075 -34.1313C318.228 -43.3112 297.527 -54.7482 277.873 -67.9554C266.417 -75.6557 255.3 -84.6408 242.688 -90.4188C216.965 -102.192 192.286 -85.3427 176.312 -65.4282C154.168 -37.8338 140.467 0.530313 143.148 36.0805C144.408 52.8276 150.007 68.8157 161.669 81.1814C175.238 95.5709 194.109 103.548 207.563 118.068C215.59 126.723 221.089 137.574 223.115 149.23C224.59 157.759 223.166 166.388 223.466 174.978C224.295 198.855 231.894 224.424 244.082 244.968C263.258 277.294 301.529 292.399 337.34 296.814C374.488 301.388 415.162 295.161 446.455 273.652C453.707 268.663 460.308 262.861 466.182 256.309C466.88 255.535 465.755 254.367 465.055 255.148Z" fill="#6200EE"/>
<path d="M458.285 266.35C432.156 295.766 392.261 308.68 353.797 309.863C317.146 310.987 276.611 302.095 248.334 277.482C229.154 260.788 219.635 235.263 214.168 211.052C211.546 199.431 209.908 187.667 210.373 175.737C210.669 168.14 211.093 160.826 209.358 153.344C204.958 134.417 192.628 120.785 177.211 109.745C160.807 97.9991 142.999 87.7613 133.938 68.8139C118.08 35.6521 128.296 -6.89478 144.081 -38.096C156.708 -63.0533 182.654 -98.4494 215.113 -93.3575C226.666 -91.5402 236.749 -84.2824 246.108 -77.7411C260.553 -67.6496 274.872 -57.4764 290.237 -48.7875C312.201 -36.3726 335.609 -26.2812 359.75 -18.9526C376.872 -13.7556 394.434 -10.9676 411.798 -6.82233C426.411 -3.33563 438.993 2.89628 449.742 13.5487C466.571 30.2228 476.044 51.9997 480.674 74.9674C485.3 97.9729 485.727 121.659 486.404 145.032C487.217 173.109 487.589 202.227 478.91 229.265C474.511 242.952 467.625 255.43 458.285 266.35C457.609 267.138 458.734 268.305 459.411 267.511C476.88 247.097 484.604 221.843 487.13 195.441C489.78 167.759 488.372 139.412 486.684 111.696C484.197 70.8171 474.308 23.8014 436.388 0.879114C423.748 -6.75506 409.041 -9.16152 394.784 -12.0346C370.548 -16.9295 347.033 -23.9138 324.3 -33.7189C302.689 -43.0413 282.255 -54.5987 262.885 -67.9349C251.068 -76.068 239.607 -85.7287 226.4 -91.5688C200.103 -103.197 174.657 -84.466 158.776 -64.3497C136.003 -35.5058 121.843 4.57169 125.205 41.5034C126.791 58.947 133.069 75.3203 145.581 87.8586C159.965 102.268 179.478 110.391 193.174 125.584C201.174 134.473 206.643 145.641 208.535 157.475C209.944 166.284 208.399 175.185 208.692 184.034C209.536 209.158 217.32 236.256 230.139 257.894C249.669 290.865 289.267 305.945 325.695 310.253C364.213 314.812 406.326 308.141 438.714 285.812C446.334 280.556 453.264 274.436 459.411 267.511C460.102 266.741 458.979 265.568 458.285 266.35Z" fill="#6200EE"/>
<path d="M451.513 277.558C424.453 308.302 382.822 321.909 342.791 323.226C305.058 324.471 263.138 315.575 234.071 290.084C214.423 272.856 205.02 246.38 199.514 221.515C196.824 209.347 195.085 197.015 195.62 184.532C195.952 176.756 196.503 169.223 194.815 161.547C190.43 141.615 177.432 127.301 161.196 115.837C144.181 103.829 125.687 93.3675 116.233 73.848C99.5547 39.4088 110.342 -4.99591 126.849 -37.3816C139.842 -62.8809 166.623 -99.3777 199.872 -94.0846C211.737 -92.1993 222.003 -84.5714 231.528 -77.7367C246.322 -67.1245 261.022 -56.4997 276.869 -47.4614C299.333 -34.6464 323.371 -24.3201 348.114 -16.8167C366.215 -11.3264 384.734 -8.44656 403.127 -4.28049C418.092 -0.890516 431.119 5.1529 442.222 15.9307C459.709 32.9059 469.561 55.3548 474.371 78.9586C479.292 103.075 479.57 127.872 480.262 152.381C481.081 181.436 481.572 211.597 472.569 239.585C468.07 253.583 461.025 266.348 451.513 277.558C450.843 278.347 451.968 279.515 452.64 278.719C470.971 257.127 478.781 230.426 481.167 202.593C483.599 174.291 482.246 145.308 480.567 116.975C478.09 75.0388 467.729 25.8018 428.104 3.06055C415.104 -4.40108 400.059 -6.62222 385.564 -9.43799C359.777 -14.4411 334.789 -21.8829 310.673 -32.3741C288.972 -41.8191 268.456 -53.5233 249.09 -67.1058C237.09 -75.5176 225.538 -85.5292 212.203 -91.7956C185.096 -104.529 158.524 -85.0778 142.023 -64.2563C118.402 -34.4519 103.702 7.02353 107.127 45.2421C108.785 63.7796 115.589 81.0419 129.137 94.1107C144.252 108.698 164.463 116.978 178.492 132.798C186.957 142.35 192.702 154.604 194.163 167.326C195.134 175.746 193.689 184.246 193.918 192.693C194.613 218.862 202.507 247.311 215.661 269.961C235.608 304.305 276.996 319.619 314.677 323.775C354.572 328.18 398.087 320.944 431.448 297.644C439.259 292.194 446.353 285.865 452.646 278.721C453.326 277.942 452.201 276.774 451.513 277.558Z" fill="#6200EE"/>
<path d="M444.742 288.761C416.952 320.699 373.956 334.973 332.601 336.603C293.535 338.145 249.811 329.207 219.764 302.661C199.857 285.075 190.588 258.005 185.018 232.744C182.166 219.828 180.266 206.696 180.859 193.448C181.201 185.727 181.902 178.191 180.417 170.538C176.334 149.546 162.829 134.322 145.793 122.367C128.394 110.155 109.24 99.723 99.1268 80.0713C80.8421 44.5322 92.1219 -2.16903 109.218 -35.8935C122.541 -62.179 150.204 -100.225 184.523 -94.8481C196.577 -92.9621 206.942 -85.1049 216.52 -78.0664C231.428 -67.1165 246.234 -56.1694 262.256 -46.854C285.652 -33.2513 310.84 -22.4279 336.741 -14.5944C355.552 -8.89896 374.777 -5.91288 393.945 -1.84249C409.42 1.44904 423.1 7.27175 434.69 18.3094C453.066 35.8065 463.272 59.272 468.206 83.8282C473.061 107.972 473.393 132.738 474.034 157.265C474.835 187.76 475.733 219.421 466.552 248.882C461.968 263.579 454.68 277.006 444.742 288.761C444.073 289.55 445.198 290.717 445.869 289.922C464.563 267.8 472.528 240.523 474.96 212.059C477.48 182.512 476.149 152.214 474.43 122.628C471.931 79.6303 461.378 28.1919 420.134 5.44692C406.239 -2.21283 390.171 -4.21894 374.81 -7.12709C348.026 -12.1943 322.07 -20.0628 297.089 -31.0235C274.8 -40.8087 253.786 -52.9904 234.025 -67.1846C222.003 -75.8176 210.44 -86.1184 196.983 -92.5038C169.041 -105.77 141.395 -84.7575 124.63 -63.3653C100.291 -32.2972 85.0761 10.9738 89.1975 50.6366C91.1649 69.5795 98.4687 86.988 112.498 100.152C128.451 115.117 149.64 123.599 164.075 140.319C172.406 149.977 177.998 162.267 179.466 174.965C180.526 184.139 178.862 193.397 179.159 202.599C180.043 229.609 187.944 259.036 201.437 282.496C221.706 317.738 264.57 333.151 303.035 337.247C344.542 341.66 389.837 333.9 424.356 309.394C432.281 303.767 439.49 297.257 445.869 289.922C446.549 289.142 445.424 287.975 444.742 288.761Z" fill="#6200EE"/>
<path d="M82.6733 87.3818C62.7162 51.4923 73.1374 3.99782 89.9158 -31.0129C98.4581 -48.8334 109.813 -65.9131 124.835 -78.9281C136.277 -88.8439 151.436 -97.3687 167.108 -95.877C179.674 -94.681 190.394 -86.7242 200.196 -79.4149C215.146 -68.2646 229.853 -56.9416 245.87 -47.3282C269.534 -33.1235 295.112 -21.8786 321.424 -13.5851C341.63 -7.22004 362.248 -3.74679 382.989 0.262157C398.887 3.3403 413.435 8.4099 425.701 19.3628C444.654 36.2857 455.636 59.6951 461.093 84.1761C466.61 108.928 467.172 134.435 467.767 159.685C468.514 191.024 469.894 223.405 461.659 253.977C436.385 347.799 311.699 371.067 233.116 333.307C213.614 323.936 197.127 310.462 186.896 291.116C173.643 266.05 165.455 234.414 165.973 206C166.114 198.067 167.331 190.154 166.376 182.233C165.067 171.434 160.92 160.753 154.72 151.827C142.736 134.582 123.684 125.233 107.12 113.195C97.3624 106.1 88.8106 97.858 82.6733 87.3818C82.143 86.485 80.7311 87.2748 81.2597 88.1776C93.0379 108.275 113.266 118.565 131.568 131.694C151.553 146.022 166.103 166.797 165.076 192.283C164.641 202.966 164.057 213.294 165.372 223.978C167.264 239.326 170.835 254.604 175.845 269.23C183.589 291.838 195.278 311.208 215.178 324.862C249.856 348.648 295.737 355.11 336.792 350.362C380.044 345.37 424.514 326.217 448.595 288.295C464.71 262.92 468.912 232.575 469.71 203.087C470.5 173.98 469.961 144.249 467.355 115.228C463.577 73.2401 448.823 22.7228 406.053 4.97253C390.002 -1.68224 372.058 -3.05432 355.169 -6.52634C325.971 -12.5287 297.596 -22.4533 270.848 -35.5874C250.064 -45.7979 230.77 -58.3382 212.314 -72.2651C201.426 -80.4835 190.505 -90.1689 177.574 -95.0401C146.593 -106.702 117.13 -77.6721 101.387 -54.3734C79.0841 -21.3693 64.9427 22.9959 72.327 62.9071C73.965 71.761 76.8832 80.2959 81.2658 88.1793C81.7668 89.0874 83.1787 88.2976 82.6733 87.3818Z" fill="#6200EE"/>
</svg>
