<svg width="635" height="405" viewBox="0 0 635 405" fill="none" xmlns="http://www.w3.org/2000/svg">
<path d="M480.098 322.482C478.108 310.957 477.582 299.279 478.53 287.656L480.098 268.419C471.456 283.2 473.409 302.654 480.098 322.482Z" fill="#CACACA"/>
<path d="M485.871 326.276C484.875 319.384 484.613 312.433 485.087 305.503L485.871 294.028C481.55 302.845 482.526 314.449 485.871 326.276Z" fill="#CACACA"/>
<path d="M511.848 339.611V346.12C511.846 346.637 511.636 347.132 511.266 347.498C510.895 347.863 510.393 348.07 509.868 348.073H506.568C506.481 348.072 506.395 348.089 506.315 348.122C506.235 348.154 506.162 348.202 506.101 348.263C506.039 348.323 505.991 348.395 505.958 348.474C505.925 348.553 505.908 348.638 505.908 348.724V402.099C505.905 402.616 505.696 403.111 505.325 403.477C504.954 403.842 504.452 404.049 503.928 404.052H463.664C463.139 404.051 462.636 403.845 462.264 403.479C461.893 403.113 461.684 402.617 461.684 402.099V348.724C461.683 348.551 461.614 348.386 461.49 348.264C461.366 348.142 461.199 348.073 461.024 348.073H457.064C456.538 348.072 456.035 347.866 455.664 347.5C455.293 347.134 455.084 346.638 455.083 346.12V339.611C455.083 339.354 455.134 339.1 455.233 338.863C455.333 338.626 455.479 338.411 455.663 338.229C455.846 338.048 456.065 337.904 456.305 337.806C456.546 337.708 456.803 337.658 457.064 337.658H509.868C510.393 337.66 510.896 337.866 511.267 338.232C511.638 338.598 511.847 339.093 511.848 339.611Z" fill="#F2F2F2"/>
<path d="M506.076 349.988H461.818V351.885H506.076V349.988Z" fill="#E6E6E6"/>
<path d="M506.076 377.903C491.167 383.649 476.095 383.713 460.856 377.903V364.812C475.527 360.223 491.405 360.223 506.076 364.812V377.903Z" fill="#E6E6E6"/>
<path d="M295.371 161.241C308.655 161.241 319.424 150.837 319.424 138.004C319.424 125.17 308.655 114.766 295.371 114.766C282.087 114.766 271.318 125.17 271.318 138.004C271.318 150.837 282.087 161.241 295.371 161.241Z" fill="#2F2E41"/>
<path d="M301.644 115.41C305.807 115.41 309.899 116.46 313.519 118.456C317.14 120.452 320.165 123.327 322.299 126.798C324.433 130.27 325.602 134.22 325.694 138.262C325.785 142.304 324.795 146.3 322.82 149.859C324.906 147.325 326.425 144.397 327.281 141.261C328.136 138.125 328.31 134.851 327.791 131.646C327.272 128.441 326.071 125.377 324.264 122.648C322.458 119.919 320.087 117.585 317.3 115.796C314.514 114.006 311.375 112.8 308.082 112.254C304.789 111.708 301.416 111.834 298.176 112.624C294.936 113.414 291.901 114.851 289.265 116.843C286.629 118.835 284.449 121.339 282.864 124.195C285.112 121.453 287.969 119.239 291.22 117.718C294.472 116.197 298.035 115.408 301.644 115.41Z" fill="#2F2E41"/>
<path d="M250.633 137.529C289.157 137.529 320.386 106.742 320.386 68.7646C320.386 30.787 289.157 0 250.633 0C212.109 0 180.879 30.787 180.879 68.7646C180.879 106.742 212.109 137.529 250.633 137.529Z" fill="#2F2E41"/>
<path d="M196.164 26.308C208.139 12.9046 224.88 4.65589 242.851 3.30279C260.822 1.94969 278.619 7.59805 292.485 19.0557C291.916 18.5181 291.354 17.9761 290.764 17.4536C276.986 5.27506 258.912 -0.959741 240.516 0.120122C222.12 1.19998 204.908 9.50609 192.664 23.2122C180.421 36.9182 174.148 54.9022 175.225 73.2098C176.302 91.5174 184.641 108.65 198.409 120.84C198.999 121.363 199.606 121.855 200.209 122.354C187.151 109.992 179.429 93.0647 178.675 75.1447C177.92 57.2247 184.191 39.7139 196.164 26.308Z" fill="#2F2E41"/>
<path d="M250.152 137.529C275.126 137.529 295.371 117.571 295.371 92.9508C295.371 68.3308 275.126 48.3724 250.152 48.3724C225.177 48.3724 204.932 68.3308 204.932 92.9508C204.932 117.571 225.177 137.529 250.152 137.529Z" fill="#E7BC91"/>
<path d="M273.111 148.911L225.004 151.053C225.004 151.053 229.019 175.694 202.993 178.037C176.967 180.38 153.307 173.35 143.842 190.926C134.378 208.501 138.458 271.082 138.458 271.082C138.458 271.082 156.203 334.353 170.399 343.727C184.595 353.1 308.81 340.212 308.81 340.212L360.795 275.2L359.035 225.063C358.115 198.882 333.981 179.225 307.986 184.07C307.476 184.165 306.962 184.267 306.444 184.377C306.444 184.377 300.734 180.15 285.065 172.391C275.484 167.646 273.111 148.911 273.111 148.911Z" fill="#CACACA"/>
<path d="M168.371 177.623C168.371 177.623 179.977 198.03 175.174 227.121C170.371 256.212 190.523 317.74 190.523 317.74L204.932 314.249C204.932 314.249 195.326 253.739 197.727 239.775C200.129 225.811 200.791 184.605 188.784 177.623C176.777 170.641 168.371 177.623 168.371 177.623Z" fill="#2F2E41"/>
<path d="M305.963 187.932L310.955 317.576L320.455 323.431C320.455 323.431 334.112 181.159 326.987 181.159H312.489C311.631 181.159 310.781 181.326 309.988 181.65C309.195 181.973 308.475 182.448 307.868 183.046C307.262 183.645 306.78 184.355 306.452 185.137C306.124 185.918 305.955 186.756 305.955 187.602C305.955 187.712 305.957 187.822 305.963 187.932Z" fill="#2F2E41"/>
<path d="M197.235 314.895C200.423 314.895 203.008 312.347 203.008 309.204C203.008 306.061 200.423 303.513 197.235 303.513C194.047 303.513 191.462 306.061 191.462 309.204C191.462 312.347 194.047 314.895 197.235 314.895Z" fill="#BB86FC"/>
<path d="M315.576 320.585C318.764 320.585 321.348 318.038 321.348 314.895C321.348 311.752 318.764 309.204 315.576 309.204C312.388 309.204 309.803 311.752 309.803 314.895C309.803 318.038 312.388 320.585 315.576 320.585Z" fill="#BB86FC"/>
<path d="M211.667 36.9906V81.5691H222.058L235.283 67.4916L233.512 81.5691H279.444L276.61 67.4916L282.278 81.5691H289.598V36.9906H211.667Z" fill="#2F2E41"/>
<path d="M204.451 90.1054C206.311 90.1054 207.818 87.1328 207.818 83.466C207.818 79.7992 206.311 76.8267 204.451 76.8267C202.591 76.8267 201.083 79.7992 201.083 83.466C201.083 87.1328 202.591 90.1054 204.451 90.1054Z" fill="#E7BC91"/>
<path d="M295.852 90.1054C297.712 90.1054 299.22 87.1328 299.22 83.466C299.22 79.7992 297.712 76.8267 295.852 76.8267C293.993 76.8267 292.485 79.7992 292.485 83.466C292.485 87.1328 293.993 90.1054 295.852 90.1054Z" fill="#E7BC91"/>
<path d="M394.47 392.269V396.232C394.472 397.32 394.27 398.398 393.874 399.412C393.698 399.863 393.486 400.3 393.239 400.717C392.46 402.023 391.353 403.105 390.028 403.856C388.703 404.606 387.205 405.001 385.681 405H93.4554C91.9315 405.001 90.4337 404.606 89.1086 403.855C87.7836 403.105 86.6769 402.023 85.897 400.717C85.6503 400.3 85.438 399.863 85.2622 399.412C84.8665 398.398 84.6645 397.32 84.6667 396.232V392.269C84.6664 391.118 84.8933 389.978 85.3346 388.915C85.7759 387.851 86.4228 386.884 87.2385 386.07C88.0541 385.256 89.0226 384.61 90.0885 384.169C91.1544 383.729 92.2968 383.502 93.4507 383.501H110.3V381.654C110.3 381.606 110.309 381.558 110.327 381.514C110.346 381.47 110.373 381.429 110.407 381.395C110.44 381.361 110.481 381.335 110.525 381.316C110.569 381.298 110.617 381.288 110.665 381.288H119.455C119.552 381.288 119.645 381.326 119.714 381.395C119.783 381.463 119.821 381.556 119.821 381.652V383.501H125.312V381.654C125.312 381.606 125.321 381.558 125.34 381.514C125.358 381.47 125.385 381.429 125.419 381.395C125.453 381.361 125.493 381.335 125.537 381.316C125.582 381.298 125.629 381.288 125.677 381.288H134.467C134.564 381.288 134.657 381.326 134.726 381.395C134.795 381.463 134.833 381.556 134.834 381.652V383.501H140.331V381.654C140.33 381.606 140.34 381.558 140.358 381.514C140.377 381.47 140.403 381.429 140.437 381.395C140.471 381.361 140.512 381.335 140.556 381.316C140.6 381.298 140.648 381.288 140.696 381.288H149.486C149.583 381.288 149.676 381.326 149.745 381.395C149.813 381.463 149.852 381.556 149.852 381.653V383.501H155.343V381.654C155.343 381.606 155.352 381.558 155.37 381.514C155.389 381.47 155.415 381.429 155.449 381.395C155.483 381.361 155.524 381.335 155.568 381.316C155.612 381.298 155.66 381.288 155.708 381.288H164.498C164.595 381.288 164.688 381.326 164.757 381.395C164.825 381.463 164.864 381.556 164.864 381.653V383.501H170.355V381.654C170.355 381.606 170.364 381.558 170.382 381.514C170.401 381.47 170.428 381.429 170.461 381.395C170.495 381.362 170.536 381.335 170.58 381.316C170.624 381.298 170.672 381.288 170.72 381.288H179.51C179.607 381.288 179.7 381.326 179.769 381.395C179.838 381.463 179.876 381.556 179.876 381.653V383.501H185.373V381.654C185.373 381.606 185.383 381.558 185.401 381.514C185.419 381.47 185.446 381.429 185.48 381.395C185.514 381.362 185.554 381.335 185.599 381.316C185.643 381.298 185.691 381.288 185.739 381.288H194.529C194.626 381.288 194.719 381.326 194.787 381.395C194.856 381.463 194.895 381.556 194.895 381.653V383.501H200.386V381.654C200.385 381.606 200.395 381.558 200.413 381.514C200.431 381.47 200.458 381.429 200.492 381.395C200.526 381.362 200.566 381.335 200.611 381.316C200.655 381.298 200.703 381.288 200.751 381.288H269.596C269.644 381.288 269.691 381.297 269.736 381.316C269.78 381.334 269.821 381.361 269.855 381.395C269.889 381.428 269.916 381.469 269.934 381.513C269.953 381.557 269.962 381.605 269.962 381.653V383.501H275.459V381.654C275.459 381.606 275.468 381.558 275.487 381.514C275.505 381.47 275.532 381.429 275.566 381.396C275.6 381.362 275.64 381.335 275.684 381.316C275.729 381.298 275.776 381.288 275.824 381.288H284.614C284.711 381.289 284.804 381.328 284.872 381.396C284.941 381.465 284.98 381.557 284.981 381.654V383.501H290.471V381.654C290.471 381.606 290.481 381.558 290.499 381.514C290.517 381.47 290.544 381.429 290.578 381.396C290.612 381.362 290.652 381.335 290.697 381.316C290.741 381.298 290.788 381.288 290.837 381.288H299.626C299.674 381.288 299.722 381.297 299.766 381.316C299.811 381.334 299.851 381.361 299.885 381.395C299.919 381.429 299.946 381.469 299.965 381.513C299.983 381.557 299.993 381.605 299.993 381.653V383.501H305.483V381.654C305.483 381.606 305.493 381.558 305.511 381.514C305.529 381.47 305.556 381.429 305.59 381.396C305.624 381.362 305.664 381.335 305.709 381.316C305.753 381.298 305.801 381.288 305.849 381.288H314.638C314.687 381.288 314.734 381.297 314.779 381.316C314.823 381.334 314.863 381.361 314.897 381.395C314.931 381.429 314.958 381.469 314.977 381.513C314.995 381.557 315.005 381.605 315.005 381.653V383.501H320.502V381.654C320.502 381.606 320.511 381.558 320.53 381.514C320.548 381.47 320.575 381.429 320.609 381.396C320.643 381.362 320.683 381.335 320.727 381.316C320.772 381.298 320.819 381.288 320.867 381.288H329.657C329.753 381.289 329.845 381.329 329.913 381.397C329.98 381.465 330.018 381.558 330.017 381.654V383.501H335.514V381.654C335.514 381.606 335.523 381.558 335.542 381.514C335.56 381.47 335.587 381.429 335.621 381.396C335.655 381.362 335.695 381.335 335.739 381.316C335.784 381.298 335.831 381.288 335.879 381.288H344.669C344.717 381.288 344.765 381.297 344.809 381.316C344.854 381.334 344.894 381.361 344.928 381.395C344.962 381.429 344.989 381.469 345.008 381.513C345.026 381.557 345.036 381.605 345.036 381.653V383.501H350.526V381.654C350.526 381.606 350.535 381.558 350.554 381.514C350.572 381.47 350.599 381.43 350.633 381.396C350.667 381.362 350.707 381.335 350.752 381.316C350.796 381.298 350.843 381.288 350.891 381.288H359.681C359.729 381.288 359.777 381.298 359.821 381.316C359.866 381.334 359.906 381.361 359.94 381.395C359.974 381.429 360.001 381.469 360.02 381.513C360.038 381.557 360.048 381.605 360.048 381.653V383.501H385.681C388.011 383.501 390.246 384.424 391.895 386.067C393.543 387.711 394.469 389.94 394.47 392.265L394.47 392.269Z" fill="#3F3D56"/>
<path d="M635 404.052H0V405H635V404.052Z" fill="#3F3D56"/>
<path d="M370.759 227.635H103.566C102.601 227.635 101.644 227.822 100.752 228.186C99.8598 228.551 99.0491 229.085 98.3661 229.758C97.6832 230.431 97.1415 231.23 96.7719 232.11C96.4024 232.989 96.2121 233.932 96.2121 234.884V381.627C96.2121 383.549 96.9869 385.393 98.3661 386.753C99.7453 388.112 101.616 388.876 103.566 388.876H370.759C372.71 388.876 374.58 388.112 375.96 386.753C377.339 385.393 378.114 383.549 378.114 381.627V234.884C378.114 232.961 377.339 231.117 375.96 229.758C374.58 228.398 372.71 227.635 370.759 227.635Z" fill="#3F3D56"/>
<path d="M237.644 294.977C246.677 294.977 254 287.758 254 278.852C254 269.947 246.677 262.728 237.644 262.728C228.611 262.728 221.288 269.947 221.288 278.852C221.288 287.758 228.611 294.977 237.644 294.977Z" fill="#BB86FC"/>
</svg>
