<svg width="340" height="356" viewBox="0 0 340 356" fill="none" xmlns="http://www.w3.org/2000/svg">
<path d="M526.733 173.491C457.75 160.684 418.185 76.3522 427.857 11.738C430.727 -7.45457 438.739 -25.1019 451.05 -40.0799C461.195 -52.4181 475.785 -59.8616 484.731 -73.1999C503.248 -100.8 491.404 -137.111 511.678 -163.937C531.196 -189.767 566.323 -202.888 597.651 -205.604C624.483 -207.932 655.733 -202.131 667.951 -175.152C673.399 -163.108 675.171 -149.585 676.957 -136.61C679.477 -118.168 681.602 -99.6818 684.768 -81.3218C687.973 -62.7304 692.127 -44.3993 697.518 -26.3083C701.024 -14.5519 705.23 -2.77385 706.393 9.51233C710.323 51.0584 685.774 87.5752 656.26 114.039C621.348 145.33 576.884 181.32 526.733 173.491C525.38 173.282 524.981 175.378 526.334 175.587C571.67 182.664 612.637 154.152 645.36 126.297C674.861 101.195 699.966 74.0368 707.105 34.5913C712.471 4.96838 700.32 -21.0368 693.437 -49.317C687.86 -72.2208 684.405 -95.5846 681.392 -118.94C679.44 -134.071 678.032 -149.52 674.003 -164.287C656.98 -226.605 571.8 -212.868 530.598 -184.499C518.251 -175.999 507.356 -164.733 501.671 -150.676C494.893 -133.89 496.432 -115.571 492.742 -98.1352C490.581 -87.9468 486.421 -78.4023 479.917 -70.2197C474.407 -63.2767 467.136 -58.7883 460.539 -53.0513C446.907 -41.1844 436.239 -24.9628 430.397 -7.88854C406.791 61.1493 450.754 161.553 526.334 175.587C527.686 175.84 528.085 173.744 526.733 173.491Z" fill="#BB86FC"/>
<path d="M509.544 174.733C437.41 162.131 392.057 73.5851 403.93 5.34675C407.444 -14.8641 416.597 -33.3133 429.797 -48.9415C440.59 -61.7214 456.017 -69.3236 465.47 -83.2285C485.572 -112.796 471.589 -151.856 493.788 -180.552C514.18 -206.904 550.149 -220.343 582.404 -223.381C610.075 -225.983 643.98 -220.719 656.637 -192.486C662.047 -180.402 663.616 -166.832 665.223 -153.82C667.649 -134.197 669.704 -114.556 673.028 -95.043C676.413 -75.2108 680.878 -55.6415 686.864 -36.4229C690.802 -23.752 695.785 -11.1215 697.488 2.11085C703.051 45.167 676.975 83.6131 646.396 110.896C609.473 143.842 562.514 182.509 509.544 174.733C508.193 174.532 507.794 176.628 509.152 176.826C556.799 183.823 599.148 153.564 633.697 124.593C664.844 98.4828 691.884 69.9239 698.808 28.3041C703.971 -2.71832 689.809 -30.4578 682.436 -59.9122C676.395 -84.043 672.691 -108.693 669.764 -133.375C667.867 -149.359 666.722 -165.716 662.674 -181.344C645.774 -246.508 554.061 -229.895 512.425 -200.802C499.497 -191.771 488.194 -179.807 482.517 -164.895C476.056 -147.933 477.597 -129.658 474.511 -112.053C472.471 -100.445 468.067 -89.5956 460.689 -80.3298C455.181 -73.4052 447.989 -68.9184 441.241 -63.3817C426.176 -51.0122 414.24 -33.7069 407.391 -15.5023C382.647 50.2981 420.652 140.837 484.853 169.49C492.626 172.96 500.764 175.363 509.152 176.826C510.506 177.061 510.901 174.975 509.544 174.733Z" fill="#BB86FC"/>
<path d="M492.361 175.971C418.425 163.794 368.318 74.3964 379.171 3.62259C382.559 -18.4617 392.559 -38.711 406.828 -55.7892C418.63 -69.9109 435.88 -78.1467 446.282 -93.3711C467.515 -124.429 451.935 -165.389 474.819 -195.749C496.066 -223.947 534.391 -238.149 568.504 -241.281C596.747 -243.877 632.512 -238.804 645.413 -209.738C650.795 -197.609 652.171 -183.945 653.606 -170.897C655.772 -151.094 657.617 -131.281 660.824 -111.604C664.295 -90.3047 668.967 -69.2238 675.483 -48.6439C679.944 -34.5567 685.915 -20.6321 688.411 -6.01017C696.101 39.0022 668.047 79.8805 636.021 108.24C597.152 142.652 547.925 183.653 492.361 175.971C491.008 175.788 490.606 177.877 491.969 178.064C542.834 185.095 587.182 151.871 624.059 121.227C656.795 94.0244 685.314 63.2031 690.891 19.2087C695.001 -13.2422 677.931 -43.8242 670.4 -74.6059C664.329 -99.4094 660.621 -124.707 657.912 -150.08C656.196 -166.146 655.315 -182.597 651.429 -198.335C634.602 -266.557 535.893 -246.894 493.812 -216.792C480.11 -206.985 468.41 -194.021 462.924 -177.862C456.703 -159.567 458.991 -140.035 455.394 -121.284C453.074 -109.234 448.017 -98.0291 439.996 -88.674C434.351 -82.0857 427.022 -77.7865 420.36 -72.3769C403.678 -58.8432 390.38 -39.5885 382.947 -19.485C357.5 49.3258 400.026 142.148 466.857 170.808C474.915 174.264 483.315 176.643 491.962 178.067C493.321 178.291 493.72 176.195 492.361 175.971Z" fill="#BB86FC"/>
<path d="M475.178 177.21C399.008 165.349 344.598 74.6233 354.519 1.09027C357.775 -23.0317 369.092 -45.1616 384.682 -63.6404C391.667 -71.9245 399.493 -79.0027 408.316 -85.254C414.48 -89.6276 420.024 -94.2177 424.682 -100.234C436.205 -115.115 439.742 -132.61 440.777 -151.007C441.89 -170.851 442.376 -190.637 453.682 -207.841C473.897 -238.588 514.038 -254.252 549.184 -258.612C578.325 -262.229 618.205 -259.072 633.162 -229.304C639.264 -217.169 640.574 -203.026 641.895 -189.71C643.793 -170.485 645.25 -151.243 648.056 -132.124C651.528 -108.469 656.457 -84.9743 663.642 -62.1541C668.342 -47.2241 674.726 -32.6846 678.474 -17.476C688.286 22.3901 668.266 63.1501 640.887 91.2257C624.655 107.884 606.047 122.719 587.472 136.666C566.062 152.755 542.56 167.673 516.393 174.512C502.852 178.05 489.054 179.027 475.178 177.21C473.82 177.038 473.421 179.134 474.779 179.306C528.812 186.353 575.338 150.179 614.494 117.845C648.806 89.5103 679.266 55.9811 682.858 9.47161C683.962 -4.80664 680.982 -18.2311 676.396 -31.6606C669.693 -51.3416 662.69 -70.7317 657.949 -91.0257C651.874 -116.993 648.276 -143.407 645.837 -169.936C644.391 -185.713 643.762 -201.948 639.769 -217.35C632.264 -246.266 606.748 -259.265 578.449 -261.511C542.186 -264.4 502.286 -253.481 473.273 -231.331C459.954 -221.161 448.899 -207.99 443.727 -191.856C437.388 -172.099 440.505 -151.032 436.344 -130.915C433.829 -118.725 428.436 -107.409 420.135 -98.0766C414.006 -91.1754 406.051 -86.7403 398.974 -80.9722C381.56 -66.7915 367.453 -46.7838 359.34 -25.8856C344.6 12.0956 351.868 55.0686 369.04 90.9923C385.514 125.449 412.754 157.138 448.633 172.025C457.044 175.512 465.792 177.908 474.779 179.306C476.135 179.522 476.534 177.426 475.178 177.21Z" fill="#BB86FC"/>
<path d="M457.989 178.452C379.47 166.86 321.141 74.7481 329.866 -1.52023C332.752 -26.7538 344.762 -50.0335 360.765 -69.4395C368.438 -78.7402 377.023 -86.9565 386.904 -93.8487C393.153 -98.2084 399.005 -102.549 403.929 -108.433C416.416 -123.386 420.831 -141.44 421.872 -160.505C423.039 -181.647 422.421 -203.002 433.956 -221.724C454.24 -254.633 496.487 -271.391 533.23 -276.286C563.218 -280.275 605.523 -277.835 621.608 -247.384C628.163 -234.964 629.312 -220.264 630.481 -206.517C632.173 -186.641 633.441 -166.753 636.209 -146.981C639.728 -121.792 645.009 -96.7498 652.769 -72.5145C657.824 -56.7387 664.671 -41.4889 669.135 -25.5283C680.512 15.2152 660.685 57.2993 632.723 86.4675C615.949 103.959 596.462 119.23 577.195 133.862C554.297 151.254 529.369 167.601 501.346 175.251C487.131 179.135 472.624 180.26 457.989 178.452C456.634 178.287 456.235 180.383 457.597 180.545C514.62 187.575 563.42 148.618 604.759 114.647C640.056 85.6361 671.893 50.3711 674.473 2.37491C675.28 -12.612 671.487 -26.5698 666.424 -40.5293C658.73 -61.7313 651.211 -82.7414 646.135 -104.782C640.02 -131.278 636.435 -158.195 634.271 -185.279C632.972 -201.528 632.645 -218.265 628.712 -234.162C621.248 -264.363 593.794 -277.318 564.607 -279.475C526.393 -282.307 484.146 -270.602 453.951 -246.707C439.896 -235.583 428.691 -221.236 423.961 -203.745C418.332 -182.954 421.939 -161.055 417.206 -140.137C414.322 -127.386 408.078 -115.285 398.831 -105.956C392.385 -99.4498 384.243 -95.0708 377.214 -89.2672C358.591 -73.9101 343.352 -52.3859 334.726 -29.859C319.794 9.15434 328.216 53.2744 346.277 89.7742C363.984 125.551 392.978 158.226 430.646 173.315C439.326 176.794 448.35 179.178 457.597 180.545C458.948 180.746 459.35 178.658 457.989 178.452Z" fill="#BB86FC"/>
<path d="M440.806 179.69C398.307 173.737 362.925 145.253 339.158 110.659C316.111 77.1219 300.792 34.3433 305.532 -6.76834C308.608 -33.4802 322.221 -58.0594 339.397 -78.3044C347.512 -87.8859 356.521 -96.3148 366.87 -103.418C373.753 -108.135 380.113 -112.868 385.41 -119.402C398.27 -135.294 402.394 -154.216 403.206 -174.216C404.093 -195.845 403.445 -217.653 415.048 -236.872C436.034 -271.617 480.66 -289.172 519.166 -294.206C549.941 -298.223 594.157 -295.852 610.637 -264.42C617.324 -251.653 618.223 -236.478 619.206 -222.367C620.66 -201.688 621.761 -181.014 624.564 -160.457C628.148 -134.204 633.691 -108.109 641.868 -82.901C647.351 -66.0253 654.852 -49.8265 659.959 -32.8515C672.717 9.52745 652.116 53.1492 622.826 83.5015C605.229 101.733 584.796 117.518 564.637 132.792C540.692 150.934 514.717 168.198 485.442 176.243C470.821 180.264 455.863 181.453 440.806 179.69C439.446 179.536 439.044 181.624 440.407 181.786C499.967 188.76 550.774 147.597 594.039 112.272C630.292 82.6751 663.608 46.2776 665.98 -3.011C666.755 -19.0201 662.323 -33.8098 656.697 -48.6106C648.138 -71.1329 640.074 -93.543 634.643 -117.068C628.299 -144.551 624.664 -172.467 622.744 -200.584C621.604 -217.293 621.593 -234.546 617.723 -250.929C610.241 -282.604 580.52 -295.503 550.315 -297.471C510.744 -300.055 467.092 -287.893 435.895 -263.053C421.258 -251.397 409.64 -236.342 404.899 -218.023C399.299 -196.393 403.298 -173.714 398.627 -151.96C395.864 -139.113 389.853 -127.173 380.944 -117.483C374.035 -109.971 365.007 -105.275 357.123 -98.9473C337.093 -82.8689 320.503 -60.0739 310.979 -36.2364C294.88 3.99943 304.014 49.6961 322.919 87.3314C341.614 124.551 372.153 158.461 411.459 174.139C420.782 177.853 430.467 180.395 440.407 181.786C441.771 181.974 442.162 179.88 440.806 179.69Z" fill="#BB86FC"/>
<path d="M423.617 180.931C379.715 175.076 342.789 146.118 317.697 110.78C293.299 76.4292 276.71 32.4485 280.963 -10.1975C283.803 -38.6735 298.805 -64.7382 317.138 -86.1324C325.727 -96.1545 335.192 -105.097 346.119 -112.494C353.229 -117.31 359.89 -122.036 365.453 -128.657C379.479 -145.333 383.805 -165.527 384.478 -186.8C385.204 -209.642 384.303 -232.551 396.638 -252.837C418.581 -288.922 465.225 -307.058 505.285 -312.156C537.202 -316.212 584.196 -313.669 600.346 -280.166C606.681 -267.037 607.237 -251.669 608.012 -237.378C609.18 -216.028 610.157 -194.722 612.976 -173.505C616.631 -146.096 622.507 -118.849 631.184 -92.5846C637.026 -74.8998 645.014 -57.999 650.731 -40.2959C664.641 2.85452 644.409 47.413 614.624 78.783C596.525 97.8421 575.295 114.043 554.429 129.938C529.333 149.051 502.373 167.578 471.795 176.588C456.07 181.221 439.916 182.741 423.617 180.931C422.267 180.783 421.857 182.874 423.225 183.025C486.029 190.005 539.669 145.589 585.218 108.371C622.34 78.0427 656.94 39.4261 657.585 -11.3393C657.796 -27.5504 652.568 -42.5371 646.671 -57.4079C637.314 -81.0118 628.856 -104.648 623.14 -129.438C616.637 -157.635 612.953 -186.278 611.292 -215.143C610.299 -232.396 610.61 -250.193 606.898 -267.14C599.771 -299.661 569.213 -313.04 538.416 -315.314C496.897 -318.376 450.889 -305.697 418.136 -279.645C403.015 -267.605 390.948 -252.04 386.061 -233.1C380.161 -210.25 384.776 -186.31 379.943 -163.316C377.011 -149.375 370.321 -136.316 360.309 -126.11C353.199 -118.867 344.071 -114.206 336.178 -107.928C314.815 -90.9443 296.911 -66.6811 286.686 -41.3936C269.907 0.127369 280.217 47.4978 300.149 86.0454C320.072 124.596 352.363 159.51 393.453 175.426C403.059 179.145 413.025 181.665 423.225 183.025C424.586 183.205 424.977 181.111 423.617 180.931Z" fill="#BB86FC"/>
<path d="M406.434 182.17C360.377 176.314 321.448 146.039 294.986 109.123C269.465 73.5169 251.755 27.5977 256.726 -16.7935C260.059 -46.6368 276.97 -73.804 296.518 -95.8685C305.56 -106.07 315.48 -115.035 326.851 -122.564C334.02 -127.314 340.665 -132.157 346.249 -138.793C360.871 -156.182 365.262 -177.249 365.754 -199.42C366.272 -223.09 365.12 -246.873 377.735 -267.995C400.04 -305.349 448.004 -324.201 489.193 -329.816C522.229 -334.324 572.002 -332.361 589.186 -297.703C595.682 -284.614 596.12 -269.161 596.729 -254.846C597.667 -233.01 598.351 -211.223 601.032 -189.51C604.594 -160.596 610.744 -131.844 619.867 -104.162C626.124 -85.1891 634.765 -67.1723 641.279 -48.3171C656.713 -3.6961 636.521 42.2497 605.497 75.0342C586.418 95.197 563.933 112.152 541.873 128.876C515.692 148.728 487.712 168.153 455.88 177.575C439.733 182.351 423.169 183.947 406.434 182.17C405.076 182.024 404.677 184.12 406.042 184.264C471.42 191.192 527.333 144.431 574.822 105.776C613.059 74.6467 649.497 34.2611 649.102 -18.1913C648.975 -35.4729 642.718 -51.3536 636.236 -67.1018C625.803 -92.4676 616.912 -118.078 610.918 -144.897C604.556 -173.363 601.096 -202.261 599.773 -231.379C598.967 -248.97 599.612 -267.158 595.86 -284.459C588.49 -318.469 554.942 -331.491 523.206 -333.377C480.594 -335.917 433.625 -322.816 400.087 -295.992C384.061 -283.175 371.49 -266.545 366.755 -246.318C361.197 -222.583 366.194 -197.869 361.146 -174.08C358.199 -160.229 351.594 -147.377 341.869 -137.054C334.721 -129.473 325.537 -124.723 317.306 -118.507C294.467 -101.268 275.175 -76.0099 263.717 -49.8352C244.888 -6.79381 255.499 42.5977 276.401 82.8834C297.323 123.197 331.287 159.634 374.276 176.256C384.518 180.211 395.15 182.88 406.035 184.266C407.4 184.436 407.799 182.34 406.434 182.17Z" fill="#BB86FC"/>
<path d="M389.251 183.409C341.398 177.598 300.696 146.406 272.897 108.32C246.509 72.1746 227.88 25.6722 232.091 -19.744C235 -51.1179 252.815 -79.4576 273.251 -102.593C282.825 -113.439 293.294 -123.222 305.387 -131.184C313.009 -136.209 320.279 -141.092 326.308 -148.054C341.793 -165.943 346.592 -187.83 347.004 -210.937C347.439 -235.821 345.726 -260.858 358.855 -283.188C381.909 -322.394 432.322 -342.043 475.325 -347.78C509.325 -352.308 561.284 -350.233 578.577 -314.168C584.987 -300.803 585.202 -285.139 585.649 -270.617C586.332 -247.998 586.819 -225.44 589.493 -202.936C593.102 -172.567 599.602 -142.442 609.352 -113.442C615.975 -93.7675 625.06 -75.1208 632.106 -55.6324C648.837 -9.38978 628.012 38.0959 595.606 72.11C575.702 93.0053 552.273 110.481 529.305 127.828C502.044 148.407 473.052 168.728 439.96 178.573C423.436 183.492 406.4 185.143 389.251 183.409C387.889 183.273 387.49 185.369 388.852 185.505C456.339 192.329 513.926 143.927 563.131 104.239C602.956 72.1132 642.061 29.7245 640.607 -25.0304C640.133 -42.7926 633.316 -59.0868 626.506 -75.2167C615.445 -101.383 606.024 -127.916 599.762 -155.682C593.096 -185.267 589.556 -215.345 588.46 -245.621C587.805 -263.792 588.774 -282.595 585.179 -300.512C578.083 -335.838 543.044 -349.282 510.354 -351.292C465.524 -354.056 415.764 -340.134 380.843 -311.371C364.394 -297.824 351.843 -280.352 347.438 -259.253C342.278 -234.574 347.682 -209.015 342.245 -184.377C339.033 -169.845 331.787 -156.308 321.264 -145.744C313.698 -138.155 304.007 -133.354 295.552 -126.884C271.439 -108.454 250.683 -81.5781 238.755 -53.6764C219.987 -9.75439 232.019 40.9429 253.625 81.5555C275.799 123.218 311.469 160.657 356.275 177.533C366.799 181.493 377.7 184.152 388.86 185.502C390.215 185.666 390.617 183.578 389.251 183.409Z" fill="#BB86FC"/>
<path d="M372.062 184.651C322.053 178.839 279.35 146.311 250.184 106.655C222.51 69.0416 202.617 20.1523 207.92 -27.2832C211.457 -58.9339 230.384 -87.399 251.134 -110.637C261.352 -122.082 272.481 -132.398 285.361 -140.755C293.283 -145.896 300.832 -150.957 307.072 -158.161C323.194 -176.768 328.049 -199.552 328.283 -223.575C328.532 -249.251 326.527 -275.227 339.968 -298.351C363.647 -339.095 415.76 -359.526 460.277 -365.585C495.42 -370.372 550.235 -368.519 567.894 -330.815C574.3 -317.143 574.254 -301.131 574.505 -286.346C574.883 -263.627 575.154 -240.984 577.646 -218.38C581.148 -186.737 587.864 -155.296 597.971 -125.102C605.084 -103.859 614.985 -83.8567 622.866 -62.9404C640.942 -15.0407 619.518 33.8589 585.712 69.1787C564.996 90.8192 540.616 108.819 516.738 126.78C488.799 147.793 459.209 168.792 425.418 179.158C408.049 184.485 390.145 186.402 372.062 184.651C370.71 184.52 370.308 186.608 371.67 186.744C441.595 193.503 501.339 142.948 552.407 101.928C593.444 68.9755 634.633 24.7213 632.068 -31.8444C631.231 -50.4052 623.586 -67.3498 616.32 -84.1407C604.33 -111.806 594.453 -140.007 587.92 -169.49C581.181 -199.941 577.738 -230.878 576.993 -262.033C576.561 -280.195 577.767 -298.969 574.391 -316.912C567.493 -353.5 530.633 -367.213 497.093 -369.244C450.613 -372.067 398.978 -357.633 362.815 -327.735C345.778 -313.653 332.853 -295.487 328.428 -273.558C323.279 -248.041 329.048 -221.703 323.671 -196.21C320.471 -181.008 312.991 -166.853 302.005 -155.817C293.962 -147.75 283.607 -142.722 274.604 -135.872C249.578 -116.835 227.879 -89.2376 215.066 -60.5291C194.905 -15.3563 207.758 37.2467 230.23 79.0829C253.546 122.475 291.149 161.448 338.043 178.727C348.915 182.728 360.166 185.412 371.67 186.744C373.033 186.906 373.432 184.81 372.062 184.651Z" fill="#BB86FC"/>
<path d="M354.879 185.889C303.414 180.168 259.218 147.114 228.715 106.683C199.654 68.1539 178.403 17.84 183.36 -31.2503C186.722 -64.5464 206.916 -94.1734 228.776 -118.447C239.271 -130.096 250.666 -140.797 263.839 -149.363C272.227 -154.82 280.409 -159.923 287.129 -167.473C304.123 -186.584 309.402 -210.194 309.548 -235.15C309.702 -261.703 307.169 -288.62 320.643 -312.755C344.225 -354.997 397.707 -376.354 443.229 -383.105C479.643 -388.504 537.396 -387.524 556.593 -348.776C563.419 -334.982 563.283 -318.631 563.367 -303.603C563.502 -280.412 563.452 -257.294 565.793 -234.181C569.145 -201.145 576.091 -168.323 586.563 -136.813C593.991 -114.465 604.341 -93.476 613.083 -71.6674C620.442 -53.3154 623.309 -35.0587 620.031 -15.4139C614.903 15.3416 598.703 42.0711 577.542 64.5011C556.338 86.9557 531.21 105.415 506.61 123.905C477.058 146.116 446.052 168.646 410.404 179.868C392.353 185.543 373.711 187.627 354.879 185.889C353.52 185.762 353.121 187.858 354.488 187.983C389.7 191.238 422.706 180.346 452.996 162.995C484.754 144.805 514.144 121.749 542.643 98.8708C584.679 65.1325 627.684 18.7757 623.496 -39.3916C622.093 -58.7753 613.502 -76.407 605.754 -93.9104C592.595 -123.673 582.229 -154.248 575.489 -186.127C569.081 -216.434 565.971 -247.174 565.581 -278.123C565.339 -297.002 567.01 -316.659 563.248 -335.289C555.758 -372.383 516.293 -385.49 482.607 -387.267C434.307 -389.817 380.481 -374.574 343.352 -342.894C325.813 -327.933 312.991 -308.744 309.027 -285.77C304.476 -259.364 310.576 -232.223 304.659 -205.96C301.188 -190.608 293.344 -176.245 282.066 -165.218C273.671 -157.009 262.932 -151.904 253.646 -144.865C227.291 -124.864 204.09 -95.906 190.58 -65.6876C169.994 -19.6448 183.884 34.3661 206.94 76.7823C231.313 121.636 270.486 161.819 319.093 179.65C330.533 183.844 342.376 186.64 354.488 187.983C355.84 188.139 356.247 186.04 354.879 185.889Z" fill="#BB86FC"/>
<path d="M337.689 187.131C284.089 181.419 237.829 147.026 205.991 105.012C175.978 65.4132 153.678 13.6082 158.979 -36.9976C162.558 -71.2038 183.862 -101.428 206.396 -126.241C217.427 -138.379 229.356 -149.62 243.176 -158.532C251.784 -164.085 260.296 -169.218 267.263 -176.865C285.347 -196.725 290.85 -221.57 290.83 -247.729C290.801 -275.136 287.988 -302.96 301.778 -327.953C326.108 -372.048 382.021 -394.203 429.365 -401.078C466.639 -406.496 526.209 -405.455 545.79 -365.705C552.781 -351.523 552.387 -334.695 552.281 -319.266C552.122 -295.304 551.877 -271.434 554.208 -247.537C557.51 -213.66 564.683 -179.982 575.424 -147.692C583.281 -124.069 594.26 -101.982 603.762 -79.0519C611.493 -60.3948 614.898 -41.805 611.756 -21.6829C606.805 10.0082 590.17 37.6549 568.463 60.7619C546.288 84.3773 519.855 103.522 494.045 122.891C463.447 145.852 431.411 169.301 394.495 180.898C376.034 186.701 356.964 188.833 337.689 187.131C336.332 187.011 335.933 189.107 337.297 189.224C374.43 192.512 409.057 180.612 440.778 162.023C473.038 143.128 503.153 119.647 532.321 96.3113C575.501 61.779 620.533 13.2265 614.856 -46.634C612.994 -66.2742 603.946 -84.1284 595.957 -101.843C581.735 -133.355 570.741 -165.861 563.686 -199.747C557.343 -230.244 554.328 -261.184 554.205 -292.316C554.124 -311.603 556.103 -331.624 552.702 -350.715C545.783 -389.521 504.689 -403.29 469.775 -405.197C419.797 -407.928 364.059 -392.204 325.595 -359.478C306.936 -343.609 293.558 -323.178 289.811 -298.688C285.624 -271.36 292.086 -243.351 285.749 -216.254C281.919 -199.898 273.117 -184.413 260.557 -173.174C252.247 -165.731 242.016 -160.825 233.113 -154.159C205.522 -133.524 180.952 -103.42 166.61 -72.0726C144.866 -24.5387 159.865 31.5727 184.035 75.2204C209.622 121.437 250.467 162.695 300.857 180.836C312.65 185.087 324.841 187.9 337.3 189.232C338.655 189.37 339.054 187.274 337.689 187.131Z" fill="#BB86FC"/>
<path d="M320.507 188.369C265.067 182.78 217.054 147.427 183.873 104.229C152.528 63.4235 128.902 9.64794 134.591 -42.8136C138.36 -77.5691 160.403 -108.102 183.314 -133.285C195.025 -146.165 207.691 -158.187 222.378 -167.618C230.934 -173.117 239.565 -178.091 246.659 -185.504C266.113 -205.844 272.208 -231.926 272.107 -259.316C272.007 -287.294 268.66 -315.803 282.09 -341.605C306.382 -388.262 365.137 -411.633 414.367 -418.893C452.737 -424.553 514.643 -423.742 534.946 -382.778C542.08 -368.393 541.514 -351.285 541.231 -335.643C540.795 -311.302 540.283 -287.074 542.45 -262.777C545.614 -227.3 553.126 -192.009 564.393 -158.225C572.569 -133.683 583.971 -110.756 594.165 -87.0657C602.388 -67.9363 606.528 -48.8115 603.476 -27.9686C598.64 5.07436 581.182 33.8736 558.545 57.838C536.292 81.4028 509.932 100.582 484.064 119.911C451.905 143.947 418.566 168.973 379.932 181.498C360.656 187.742 340.69 190.115 320.507 188.369C319.15 188.249 318.751 190.345 320.115 190.463C358.093 193.738 393.455 181.566 425.89 162.547C459.554 142.801 491.099 118.345 521.584 94.0127C565.887 58.6503 613.139 8.21888 606.235 -53.3847C603.906 -74.1369 593.85 -92.9274 585.301 -111.643C570.39 -144.275 559.119 -178.145 551.912 -213.317C545.488 -244.704 542.607 -276.542 542.841 -308.564C542.981 -328.043 545.262 -348.296 541.896 -367.609C534.916 -407.715 491.327 -421.452 455.6 -423.21C403.719 -425.751 345.66 -409.216 306.173 -374.644C287.313 -358.134 274.158 -337.056 270.674 -311.976C266.718 -283.461 273.707 -254.247 266.71 -226.029C262.665 -209.737 253.709 -194.389 241.18 -183.162C232.128 -175.05 220.914 -169.802 211.253 -162.489C182.902 -141.013 157.286 -110.159 142.331 -77.8308C119.867 -29.2692 135.88 28.5037 160.712 72.9488C187.515 120.903 230.276 163.676 282.842 182.144C294.911 186.384 307.386 189.183 320.115 190.463C321.47 190.601 321.869 188.505 320.507 188.369Z" fill="#BB86FC"/>
<path d="M261.731 -353.729C285.128 -402.449 344.082 -427.346 394.454 -435.924C420.095 -440.288 447.077 -441.067 472.478 -434.816C491.828 -430.058 512.51 -420.247 522.817 -402.274C531.081 -387.863 530.679 -370.296 530.274 -354.209C529.654 -329.67 528.664 -305.262 530.507 -280.745C533.228 -244.522 540.583 -208.492 551.668 -173.916C560.185 -147.367 572.122 -122.573 583.577 -97.2392C592.352 -77.8162 597.96 -58.3312 595.512 -36.8279C591.732 -3.60119 574.924 25.9905 552.766 50.4588C530.362 75.1984 503.38 95.187 476.7 115.015C443.594 139.635 409.847 165.727 370.739 180.112C250.717 224.257 130.957 107.961 111.809 -5.17574C107.057 -33.2532 109.005 -61.2093 122.018 -86.9056C138.88 -120.196 166.651 -153.037 197.577 -174.074C206.209 -179.951 215.636 -184.657 223.422 -191.703C234.031 -201.317 242.357 -213.891 247.235 -227.336C256.659 -253.319 252.225 -280.897 252.572 -307.843C252.781 -323.72 255.138 -339.173 261.731 -353.729C262.291 -354.981 260.37 -355.897 259.801 -354.643C247.157 -326.713 251.473 -297.158 251.275 -267.514C251.067 -235.151 239.801 -203.728 211.635 -185.462C199.825 -177.812 188.284 -170.589 177.803 -161.057C162.748 -147.359 149.046 -131.911 137.137 -115.412C118.729 -89.9096 106.799 -62.6289 107.251 -30.8698C108.047 24.4705 135.971 78.682 172.274 119.189C210.508 161.87 264.885 195.1 323.935 192.156C363.448 190.188 399.249 171.64 431.541 150.088C463.417 128.816 494.955 105.641 524.158 80.7862C566.405 44.8176 609.474 -9.42858 596.043 -68.8766C590.996 -91.1812 578.833 -111.506 569.729 -132.292C553.989 -168.227 543.089 -206.26 536.873 -244.983C532.05 -275.076 530.862 -305.338 531.801 -335.754C532.357 -353.7 534.464 -372.795 529.872 -390.392C518.858 -432.544 465.273 -442.142 428.273 -441.352C375.86 -440.234 317.441 -421.713 280.167 -383.447C271.898 -374.958 264.944 -365.336 259.804 -354.636C259.209 -353.407 261.131 -352.49 261.731 -353.729Z" fill="#BB86FC"/>
</svg>
