<svg width="308" height="320" viewBox="0 0 308 320" fill="none" xmlns="http://www.w3.org/2000/svg">
<path d="M-58.1237 79.9412C-17.9458 99.7407 -15.2218 158.184 -27.7325 195.512C-31.1664 205.75 -37.2142 214.369 -45.6924 221.073C-52.5581 226.498 -60.5536 229.356 -66.6712 235.842C-73.2409 242.796 -76.6818 251.443 -80.3668 260.108C-84.6006 270.069 -90.0661 278.696 -99.2768 284.711C-127.706 303.292 -184.026 301.556 -191.468 261.173C-195.299 240.392 -191.629 218.175 -190.679 197.271C-189.924 180.594 -191.893 163.216 -185.886 147.285C-181.466 135.562 -175.117 124.251 -166.581 115.03C-158.778 106.592 -149.198 100.259 -139.368 94.4373C-115.809 80.4833 -85.0504 67.8801 -58.1237 79.9412C-57.1726 80.3634 -56.5411 78.8738 -57.4922 78.4516C-80.0696 68.3383 -106.478 75.4583 -127.564 86.0196C-147.901 96.2074 -167.276 109.179 -178.982 129.173C-183.793 137.388 -188.042 146.384 -190.132 155.718C-191.953 163.887 -191.764 172.305 -191.854 180.619C-192.122 205.038 -196.138 229.845 -194.008 254.23C-192.626 270.078 -185.98 284.043 -171.112 291.183C-154.042 299.382 -132.437 299.042 -114.644 293.532C-105.939 290.836 -97.4756 286.547 -90.9357 280.103C-83.1999 272.482 -79.8432 262.481 -75.5231 252.799C-70 240.412 -62.0535 233.105 -50.6156 226.371C-42.5276 221.612 -35.4285 214.647 -30.772 206.464C-24.7058 195.808 -22.3242 182.867 -20.8041 170.851C-19.1972 158.078 -19.3543 144.999 -21.6462 132.325C-25.6466 110.213 -36.6442 88.7285 -57.4922 78.4516C-58.4302 77.9835 -59.0609 79.4793 -58.1237 79.9412Z" fill="#BB86FC"/>
<path d="M-45.1705 81.8225C-2.29917 102.031 3.31138 163.587 -11.0858 203.317C-15.0073 214.142 -21.5958 223.278 -30.6373 230.421C-38.4676 236.607 -47.7657 239.606 -54.6731 247.083C-61.5813 254.555 -64.9606 263.933 -68.6355 273.222C-72.733 283.608 -78.1601 292.685 -87.5462 299.108C-116.087 318.644 -177.817 318.59 -185.51 276.432C-189.471 254.726 -185.155 231.239 -184.273 209.408C-183.531 191.135 -186.745 171.425 -180.764 153.81C-176.566 141.44 -169.868 129.541 -160.989 119.935C-152.265 110.501 -141.412 103.589 -130.349 97.2309C-105.421 82.9128 -73.5786 69.5901 -45.1705 81.8225C-44.2148 82.2315 -43.577 80.7411 -44.539 80.3329C-69.23 69.6992 -97.631 78.1917 -120.356 89.8719C-141.474 100.722 -161.697 113.738 -173.812 134.783C-178.856 143.546 -183.176 153.227 -184.834 163.27C-186.252 171.874 -185.683 180.699 -185.595 189.376C-185.309 215.701 -189.899 242.251 -188.086 268.521C-186.936 285.125 -179.927 299.207 -164.367 306.519C-146.079 315.106 -123.022 314.758 -104.051 308.725C-94.5048 305.688 -85.226 300.802 -78.3636 293.368C-70.7685 285.14 -67.7203 274.553 -63.451 264.473C-60.9302 258.522 -57.8062 252.841 -53.3972 248.071C-48.5214 242.798 -42.7348 239.912 -36.627 236.423C-27.8089 231.394 -20.0945 223.902 -14.8601 215.197C-1.51016 192.978 0.109469 161.866 -4.95583 137.003C-9.73469 113.544 -22.1658 90.8766 -44.5335 80.3259C-45.4808 79.8843 -46.1123 81.3739 -45.1705 81.8225Z" fill="#BB86FC"/>
<path d="M-32.2173 83.7032C12.6446 104.011 21.3821 167.147 6.446 209.043C2.08015 221.29 -5.28574 231.713 -15.506 239.771C-23.5334 246.096 -33.3884 249.039 -40.7324 256.313C-57.371 272.81 -55.9255 299.316 -75.8491 313.489C-104.614 333.945 -171.777 335.582 -179.669 291.522C-181.368 282.058 -180.828 272.265 -180.288 262.724C-179.524 249.433 -178.423 236.162 -177.889 222.856C-177.421 211.113 -177.653 199.427 -178.075 187.69C-178.377 179.476 -178.454 171.284 -176.431 163.267C-169.324 135.095 -148.847 115.702 -124.447 101.792C-97.3856 86.362 -63.3007 70.8072 -32.2173 83.7032C-31.2507 84.0981 -30.6191 82.6085 -31.5795 82.2128C-59.0861 70.807 -90.2418 81.4325 -115.054 94.731C-137.636 106.835 -158.514 120.466 -170.53 143.925C-175.033 152.719 -178.629 162.081 -179.554 171.974C-180.438 181.445 -179.466 191.052 -179.256 200.535C-178.636 228.145 -183.799 255.854 -182.202 283.397C-181.173 301.135 -173.065 315.267 -156.34 322.449C-136.559 330.947 -112.077 330.379 -91.9511 323.39C-82.0282 319.938 -72.4243 314.481 -65.6438 306.305C-58.1401 297.261 -55.4678 285.856 -51.0459 275.239C-48.0214 267.985 -43.9753 261.358 -38.1122 256.049C-33.4671 251.842 -28.0033 249.496 -22.6182 246.485C-12.4069 240.785 -3.53797 232.04 2.33125 221.921C16.0238 198.325 17.5717 166.799 11.4771 140.702C5.7769 116.261 -8.00869 92.8819 -31.5803 82.2066C-32.5322 81.7782 -33.1637 83.2678 -32.2173 83.7032Z" fill="#BB86FC"/>
<path d="M-19.2576 85.5835C27.8627 106.16 40.068 172.607 23.3741 216.774C18.6767 229.196 11.0331 239.87 0.72808 248.254C-8.21984 255.537 -19.5981 258.674 -27.9222 266.737C-45.041 283.332 -43.0901 310.482 -61.7285 325.963C-79.6919 340.891 -106.4 344.669 -128.926 341.601C-148.636 338.913 -168.997 329.528 -173.561 308.405C-175.568 299.107 -174.997 289.353 -174.397 279.938C-173.522 266.184 -172.2 252.461 -171.586 238.69C-170.988 225.439 -171.051 212.254 -171.816 199.018C-172.333 190.055 -173.147 180.996 -171.584 172.089C-166.345 142.21 -143.897 120.72 -118.64 106.354C-89.5061 89.7809 -52.9339 72.0765 -19.2576 85.5835C-18.2919 85.9722 -17.6541 84.4818 -18.6261 84.0939C-48.3333 72.1788 -81.2681 84.3644 -107.869 98.5987C-132.547 111.811 -154.819 126.599 -166.905 152.878C-171.067 161.92 -173.817 171.275 -174.085 181.267C-174.371 192.109 -173.032 202.965 -172.794 213.803C-172.417 231.131 -173.622 248.447 -174.96 265.71C-175.847 277.134 -177.1 288.718 -176.296 300.179C-173.024 346.868 -112.375 351.187 -78.0252 337.311C-67.8754 333.211 -58.3458 326.922 -52.0363 317.828C-44.9095 307.561 -42.7779 295.088 -37.734 283.848C-34.5195 276.696 -29.9939 270.312 -23.9015 265.314C-19.1126 261.393 -13.4796 259.284 -8.141 256.304C3.13241 250.014 12.8884 240.297 19.346 229.142C45.4425 184.035 32.4083 106.376 -18.6269 84.0877C-19.5834 83.6725 -20.2149 85.1621 -19.2576 85.5835Z" fill="#BB86FC"/>
<path d="M-6.30448 87.4643C42.8027 108.211 58.4211 177.243 40.7134 223.619C35.4556 237.394 26.6338 249.185 15.0563 258.294C5.51726 265.797 -6.52342 268.944 -15.3363 277.384C-33.5765 294.85 -30.704 323.727 -50.1218 340.331C-68.8157 356.319 -97.0232 360.332 -120.715 357.242C-141.007 354.597 -163.253 345.199 -167.923 323.186C-170.003 313.36 -169.114 303.035 -168.325 293.115C-167.191 279.019 -165.755 264.953 -165.112 250.812C-164.461 236.493 -164.556 222.212 -165.609 207.907C-166.295 198.611 -167.496 189.185 -166.358 179.878C-162.503 148.405 -138.334 125.306 -112.118 110.476C-81.1096 92.9439 -42.2466 73.4815 -6.30448 87.4643C-5.33406 87.8397 -4.6963 86.3493 -5.66671 85.9739C-38.1583 73.3332 -73.2075 87.8167 -102.031 103.156C-128.015 116.976 -151.072 133.04 -162.799 161.15C-171.608 182.259 -166.829 203.539 -166.33 225.648C-165.924 243.554 -167.167 261.456 -168.737 279.279C-169.755 290.827 -171.227 302.521 -170.644 314.137C-168.167 363.158 -102.714 366.845 -67.5134 352.507C-56.9652 348.211 -47.0437 341.626 -40.5339 332.12C-32.7684 320.767 -30.9254 306.922 -25.3454 294.584C-22.0813 287.375 -17.4384 280.97 -11.2784 275.957C-6.05797 271.702 0.0694211 269.556 5.9004 266.374C17.9513 259.789 28.5113 249.489 35.6299 237.77C64.3993 190.382 48.1357 108.706 -5.66671 85.9739C-6.62866 85.5657 -7.26642 87.0561 -6.30448 87.4643Z" fill="#BB86FC"/>
<path d="M6.65492 89.3442C58.1334 110.452 77.3607 183.555 57.4289 232.261C51.5275 246.687 41.7278 258.887 29.3845 268.334C19.2925 276.059 6.60492 279.187 -2.67677 287.966C-22.413 306.633 -18.4018 337.899 -39.5531 355.577C-58.9803 371.81 -87.864 375.922 -112.296 372.92C-133.256 370.341 -157.56 360.909 -162.352 337.893C-164.397 328.044 -163.35 317.718 -162.422 307.8C-161.024 292.842 -159.349 277.93 -158.635 262.908C-157.915 247.638 -158.04 232.388 -159.35 217.15C-160.207 207.105 -161.847 196.919 -160.954 186.822C-158.066 153.962 -132.449 129.68 -105.309 114.417C-72.5393 95.9837 -31.3882 74.9406 6.65492 89.3442C7.62454 89.7135 8.26231 88.2231 7.28647 87.8546C-26.9326 74.897 -63.2924 90.4512 -93.6532 106.321C-121.023 120.622 -145.744 137.409 -157.666 167.168C-166.553 189.349 -160.563 212.243 -159.892 235.303C-159.341 254.196 -160.61 273.093 -162.46 291.887C-163.657 304.058 -165.473 316.384 -165.016 328.641C-163.094 379.756 -92.3241 382.373 -56.684 367.568C-45.6179 362.972 -35.28 355.936 -28.6365 345.794C-21.0774 334.259 -19.2429 320.446 -14.0833 307.883C-10.678 299.601 -5.64162 292.268 1.34403 286.594C6.55978 282.352 12.6288 280.195 18.5388 277.186C31.7346 270.461 43.4127 259.563 51.4626 247.17C80.5492 202.37 67.0993 128.986 24.1244 97.2589C18.9208 93.4169 13.2735 90.3076 7.28647 87.8546C6.31989 87.4597 5.68755 88.9431 6.65492 89.3442Z" fill="#BB86FC"/>
<path d="M19.6084 91.2253C72.4933 112.311 95.1098 186.821 75.5212 237.575C69.4079 253.412 58.6867 266.81 45.3147 277.159C34.2545 285.716 20.1103 289.016 9.91016 298.62C-10.9091 318.208 -6.02157 351.144 -27.9522 369.946C-48.3156 387.41 -79.0717 391.704 -104.898 388.469C-126.281 385.792 -151.996 376.199 -156.834 352.526C-158.851 342.648 -157.645 332.283 -156.584 322.366C-154.964 307.317 -153.105 292.312 -152.278 277.187C-151.382 260.815 -151.414 244.409 -152.896 228.074C-153.911 216.893 -156.073 205.586 -155.543 194.328C-153.914 159.67 -126.432 133.905 -98.0434 118.078C-63.5896 98.8743 -20.3754 76.4687 19.6084 91.2253C20.5826 91.5813 21.2212 90.0971 20.2399 89.7356C-16.3619 76.2288 -54.6879 93.6576 -87.0494 110.389C-115.777 125.242 -141.964 143.468 -153.273 175.208C-161.611 198.621 -153.927 224.098 -153.355 248.169C-152.891 267.566 -154.263 286.944 -156.387 306.215C-157.732 318.418 -159.759 330.77 -159.44 343.083C-158.071 396.454 -81.612 397.948 -45.4768 382.467C-33.7097 377.422 -22.9148 369.708 -16.2099 358.61C-8.61132 346.047 -7.12616 331.179 -1.40083 317.849C2.28441 309.285 7.86307 301.794 15.3402 296.158C20.6032 292.189 26.7434 290.193 32.5688 287.264C47.154 279.939 60.1609 267.817 68.9532 254.109C99.0524 207.19 82.6197 131.373 37.6938 99.213C32.2771 95.3351 26.4307 92.2006 20.2461 89.7349C19.2741 89.3469 18.6364 90.8373 19.6084 91.2253Z" fill="#BB86FC"/>
<path d="M32.5616 93.1063C87.1564 114.322 112.749 190.519 93.4033 243.472C87.0558 260.843 75.0508 275.422 60.4696 286.595C53.9363 291.604 46.9745 295.582 39.4083 298.783C34.1208 301.024 29.2584 303.527 24.8212 307.233C13.8448 316.399 8.36832 328.806 4.60258 342.29C0.54244 356.835 -3.04252 371.44 -14.237 382.364C-34.2494 401.888 -66.5919 406.971 -93.3856 404.479C-115.6 402.414 -144.682 393.572 -150.931 369.043C-153.482 359.043 -152.149 348.334 -150.959 338.236C-149.235 323.66 -147.18 309.143 -146.147 294.497C-144.868 276.375 -144.697 258.136 -146.311 240.03C-147.366 228.184 -149.733 216.354 -150.037 204.456C-150.821 173.272 -129.321 146.286 -104.427 129.912C-89.6666 120.195 -73.4394 112.218 -57.3816 104.895C-38.8707 96.4436 -18.9985 89.2027 1.53548 88.3922C12.1608 87.9728 22.56 89.4969 32.5616 93.1063C33.5413 93.4553 34.179 91.9649 33.1994 91.6159C-5.7509 77.5807 -46.1747 96.844 -80.5026 114.458C-110.584 129.894 -138.653 149.813 -148.899 183.743C-152.044 194.16 -152.021 204.608 -150.806 215.322C-149.039 231.02 -147.002 246.551 -146.791 262.384C-146.514 282.645 -148.149 302.834 -150.662 322.919C-152.16 334.863 -154.339 347.014 -153.886 359.095C-153.029 381.777 -136.211 395.582 -115.576 401.861C-89.1351 409.915 -57.745 408.314 -32.604 396.604C-21.0624 391.228 -10.7113 383.254 -4.24437 372.124C3.67968 358.495 4.80021 342.353 11.1662 328.101C15.0192 319.465 20.8661 311.946 28.547 306.373C34.2202 302.25 40.8471 300.255 47.039 297.128C62.2732 289.442 76.0029 276.893 85.4292 262.706C102.558 236.922 104.168 203.846 97.2781 174.388C90.6682 146.132 75.6166 118.175 51.4164 101.28C45.7429 97.3214 39.6413 94.1184 33.1994 91.6159C32.2282 91.2342 31.5904 92.7246 32.5616 93.1063Z" fill="#BB86FC"/>
<path d="M45.521 94.9862C101.902 116.385 130.178 194.249 111.274 249.427C105.02 267.684 92.3134 283.003 77.2742 294.796C70.0646 300.448 62.3543 305.147 53.8978 308.651C48.5504 310.868 43.5001 313.136 38.8868 316.7C27.1832 325.762 20.9641 338.441 17.0845 352.42C12.7733 367.92 9.75138 383.868 -1.86023 395.882C-22.2762 416.999 -56.3598 422.551 -84.4251 420.195C-107.33 418.269 -138.328 409.564 -145.303 384.343C-148.143 374.058 -146.6 362.962 -145.227 352.569C-143.244 337.543 -140.943 322.577 -139.775 307.453C-138.282 288.186 -138.12 268.741 -139.929 249.491C-141.11 236.959 -143.706 224.526 -144.418 211.954C-146.221 179.863 -124.648 151.863 -99.1441 134.773C-83.8445 124.526 -66.8947 116.369 -50.2113 108.65C-30.3835 99.475 -9.22047 91.406 12.8234 90.2956C24.005 89.7295 34.9547 91.2592 45.521 94.9862C46.4999 95.329 47.1376 93.8386 46.1525 93.4966C4.98066 78.9863 -37.5841 99.9443 -73.7991 118.418C-104.721 134.195 -134.096 155.178 -143.832 190.377C-146.873 201.367 -146.333 212.344 -144.85 223.529C-142.596 240.517 -140.44 257.334 -140.265 274.518C-140.045 295.178 -141.771 315.738 -144.579 336.19C-146.263 348.461 -148.748 360.935 -148.42 373.373C-147.802 397.003 -129.539 411.091 -108.231 417.448C-80.3328 425.778 -47.0727 423.976 -20.7705 411.164C-8.52677 405.199 2.12704 396.378 8.48796 384.168C16.053 369.656 16.9456 352.817 23.8671 338.064C28.0854 329.072 34.6907 321.109 43.0741 315.693C48.9176 311.915 55.6737 309.992 61.8359 306.83C78.1594 298.468 92.976 284.978 103.049 269.666C120.489 243.147 121.428 209.032 113.973 179.001C106.663 149.565 90.4705 120.591 64.9755 103.254C59.1013 99.2579 52.7928 96.018 46.1525 93.4966C45.1829 93.1274 44.5443 94.6115 45.521 94.9862Z" fill="#BB86FC"/>
<path d="M58.4743 96.8673C89.0439 108.211 110.659 135.116 122.659 164.662C134.298 193.307 138.695 227.55 128.477 257.288C121.841 276.61 107.733 292.632 91.6873 304.857C84.1033 310.645 76.0441 315.433 67.2061 319.017C61.3297 321.397 55.8383 323.872 50.8427 327.858C38.7084 337.556 32.5649 350.927 28.7026 365.636C24.5191 381.543 21.4459 397.833 9.70303 410.205C-11.5332 432.57 -47.5118 438.326 -76.9085 435.786C-100.402 433.751 -132.83 424.786 -139.937 398.774C-142.819 388.21 -141.013 376.802 -139.443 366.169C-137.152 350.586 -134.6 335.064 -133.33 319.351C-131.711 299.285 -131.572 279.015 -133.533 258.975C-134.851 245.558 -137.778 232.314 -138.801 218.884C-141.364 185.354 -118.966 156.339 -92.2822 138.587C-76.252 127.925 -58.516 119.541 -41.0661 111.491C-20.3397 101.929 1.75043 93.3503 24.7877 92.1511C36.2934 91.55 47.5876 93.1053 58.4743 96.8673C59.4586 97.2031 60.0971 95.7189 59.112 95.3769C16.0477 80.495 -28.3657 102.763 -66.2304 121.927C-97.9576 137.984 -128.614 159.566 -138.407 195.758C-141.591 207.512 -140.712 219.21 -138.949 231.111C-136.267 249.22 -133.936 267.165 -133.739 285.509C-133.509 306.938 -135.361 328.248 -138.519 349.427C-140.396 362.013 -143.199 374.818 -142.997 387.607C-142.606 412.334 -122.652 426.75 -100.557 433.133C-71.6117 441.499 -37.2346 439.587 -10.0342 426.237C2.72738 419.972 13.803 410.693 20.307 397.871C27.9879 382.731 28.7165 365.249 35.7281 349.866C39.8716 340.782 46.2789 332.901 54.4694 327.162C60.8213 322.713 68.2863 320.699 75.1686 317.288C92.6536 308.62 108.68 294.407 119.633 278.269C138.138 251.033 138.806 215.632 130.91 184.621C123.101 153.953 105.964 123.81 79.3492 105.77C73.035 101.494 66.2619 98.0293 59.112 95.3769C58.1308 95.0155 57.4992 96.5051 58.4743 96.8673Z" fill="#BB86FC"/>
<path d="M71.4337 98.7474C103.059 110.247 125.744 137.755 138.606 168.07C151.115 197.539 156.259 232.881 146.152 263.837C139.403 284.506 124.023 301.405 106.931 314.294C98.9236 320.332 90.4423 325.426 81.1272 329.135C75.0658 331.55 69.3527 333.972 64.1449 337.978C51.018 348.069 44.5167 362.35 40.5503 378.027C36.2889 394.861 33.2241 412.009 20.7645 425.053C-1.4011 448.257 -38.9718 454.115 -69.532 451.369C-93.8798 449.178 -128.34 439.632 -134.866 412.137C-137.427 401.361 -135.335 389.866 -133.582 379.134C-130.969 363.099 -128.222 347.128 -126.856 330.923C-125.102 309.987 -125.022 288.808 -127.182 267.903C-128.635 253.826 -131.809 239.982 -133.166 225.913C-136.457 191.623 -114.181 161.852 -86.9642 143.426C-70.4269 132.231 -52.0313 123.668 -33.9555 115.273C-12.2166 105.178 10.8107 95.8222 34.9717 94.1196C47.3966 93.2434 59.6321 94.7482 71.4337 98.7474C72.411 99.0777 73.0558 97.5928 72.0652 97.2578C26.5949 81.8421 -20.4509 106.063 -60.3197 126.26C-92.8109 142.718 -124.782 165.737 -133.533 203.306C-136.333 215.302 -134.894 227.277 -132.942 239.274C-129.844 258.315 -127.42 277.235 -127.218 296.563C-126.987 318.549 -128.921 340.406 -132.392 362.098C-134.467 375.064 -137.599 388.221 -137.605 401.403C-137.616 426.698 -117.119 441.607 -94.6345 448.314C-64.3208 457.353 -28.1112 455.441 0.441169 441.444C13.6251 434.974 25.1167 425.389 31.8304 412.13C39.9329 396.134 40.4094 377.616 47.743 361.339C52.1909 351.47 59.2837 342.87 68.3772 336.927C74.8346 332.711 82.3681 330.739 89.2489 327.366C107.87 318.244 125.112 303.155 136.821 286.055C156.039 257.976 156.108 221.141 147.598 189.286C139.095 157.43 120.822 126.257 92.9215 107.748C86.3988 103.424 79.4133 99.9291 72.0652 97.2578C71.0847 96.9025 70.4532 98.3921 71.4337 98.7474Z" fill="#BB86FC"/>
<path d="M84.387 100.628C117.612 112.48 141.569 141.292 155.19 173.001C168.327 203.584 173.987 240.548 163.064 272.681C155.727 294.286 138.749 311.691 120.646 324.88C112.274 330.977 103.45 336.013 93.7846 339.748C87.6904 342.104 81.9698 344.615 76.7441 348.63C63.0592 359.152 56.3675 374.071 52.3888 390.445C48.1469 407.926 45.1258 425.764 32.3223 439.383C9.68156 463.469 -28.9861 469.643 -60.4687 467.098C-85.7195 465.059 -122.337 455.491 -129.442 426.97C-132.13 416.198 -129.936 404.658 -128.055 393.935C-125.193 377.578 -122.15 361.298 -120.601 344.747C-118.533 322.709 -118.411 300.369 -120.67 278.339C-122.222 263.239 -125.698 248.46 -127.459 233.405C-131.641 197.776 -109.169 166.969 -80.8025 147.695C-63.3571 135.841 -43.9073 126.923 -24.811 118.106C-2.1463 107.641 21.7841 97.7846 46.9431 95.98C59.7045 95.0672 72.2572 96.5821 84.387 100.628C85.3705 100.957 86.0083 99.4671 85.0185 99.1383C37.6293 83.3418 -11.4852 108.932 -53.0275 129.88C-86.4772 146.75 -120.101 170.783 -128.355 209.774C-131.078 222.619 -129.022 235.424 -126.778 248.168C-123.169 268.693 -120.745 289.147 -120.668 310.027C-120.585 332.19 -122.726 354.199 -126.49 376.024C-128.759 389.21 -132.201 402.603 -132.237 416.054C-132.31 442.495 -109.535 457.625 -86.2908 464.197C-55.0812 473.027 -18.089 470.958 11.1713 456.518C25.1535 449.617 37.193 439.324 44.003 425.085C51.9957 408.377 52.3151 389.222 59.9382 372.39C64.3823 362.591 71.3791 354.129 80.2786 348.054C86.8186 343.593 94.4079 341.564 101.529 338.293C121.288 329.221 139.722 313.621 152.491 296.063C173.479 267.19 173.653 228.806 164.706 195.502C155.75 162.175 136.483 129.6 107.288 110.258C100.332 105.653 92.8762 101.941 85.0248 99.1375C84.0389 98.7893 83.4011 100.28 84.387 100.628Z" fill="#BB86FC"/>
<path d="M97.3403 102.509C131.906 114.62 157.029 144.402 171.453 177.196C185.145 208.321 191.391 245.868 180.865 278.886C173.593 301.695 155.754 319.823 136.817 333.662C127.945 340.151 118.581 345.705 108.309 349.643C101.834 352.13 95.6425 354.569 90.034 358.753C75.6267 369.505 68.4986 384.966 64.4267 402.047C60.0487 420.443 57.2399 439.303 43.8577 453.735C20.3594 479.074 -20.2554 485.44 -53.1038 482.689C-79.0741 480.509 -117.296 470.501 -124.252 440.918C-126.831 429.955 -124.438 418.295 -122.403 407.445C-119.224 390.548 -115.908 373.728 -114.226 356.592C-111.955 333.466 -111.869 310.05 -114.379 286.94C-116.087 271.259 -119.791 255.941 -121.844 240.329C-126.724 203.285 -103.531 171.439 -73.9383 151.477C-55.7616 139.214 -35.5263 130.063 -15.6549 120.933C7.93027 110.104 32.7574 99.7477 58.9198 97.8342C71.9851 96.8763 84.8964 98.4276 97.3403 102.509C98.3293 102.832 98.967 101.341 97.9781 101.019C49.0068 84.9564 -1.6175 111.491 -44.6017 132.926C-79.3928 150.277 -115.321 175.362 -123.165 216.234C-125.709 229.493 -123.305 242.696 -120.879 255.776C-116.936 276.997 -114.267 298.224 -114.145 319.85C-114.02 342.891 -116.295 365.79 -120.415 388.438C-122.891 402.029 -126.674 415.825 -126.926 429.708C-127.417 457.081 -103.605 472.768 -79.6719 479.587C-46.8532 488.944 -7.65655 486.721 22.9466 471.067C37.3615 463.694 49.5231 452.773 56.2311 437.833C64.082 420.359 64.2372 400.511 72.2873 383.112C77.0389 372.851 84.6224 363.986 94.154 357.861C101.005 353.462 108.979 351.479 116.309 348.055C137.207 338.307 156.991 321.744 170.389 302.982C191.476 273.445 190.809 233.86 181.393 200.2C171.727 165.667 151.356 132.07 120.855 112.244C113.69 107.59 106.034 103.84 97.9719 101.02C96.993 100.677 96.3544 102.161 97.3403 102.509Z" fill="#BB86FC"/>
<path d="M110.3 104.389C146.465 116.852 172.855 147.951 188.037 182.134C202.445 214.558 209.24 254.081 197.574 288.42C189.791 311.332 171.106 329.372 151.92 343.236C142.472 350.065 132.532 355.907 121.611 360.01C114.894 362.534 108.468 365.059 102.663 369.389C87.6655 380.57 80.3493 396.687 76.2605 414.478C71.8918 433.492 69.1463 453.095 55.4031 468.066C31.1904 494.444 -10.8137 501.113 -44.8383 498.355C-71.6988 496.181 -112.076 485.872 -119.037 455.014C-121.563 443.823 -118.919 431.948 -116.696 420.935C-113.273 404.013 -109.785 387.164 -107.95 369.983C-105.393 345.93 -105.253 321.503 -107.833 297.447C-109.649 280.523 -113.738 264.066 -116.177 247.259C-121.786 208.766 -97.9176 175.967 -67.0733 155.265C-48.1731 142.581 -27.1461 133.196 -6.49877 123.759C17.6596 112.717 43.0416 101.956 69.8075 99.7696C83.5659 98.6475 97.165 100.143 110.3 104.389C111.282 104.706 111.92 103.222 110.931 102.899C60.1399 86.4877 7.56415 114.27 -37.0199 136.389C-72.8448 154.156 -110.624 180.285 -117.939 222.682C-120.342 236.593 -117.43 250.414 -114.775 264.059C-110.385 286.544 -107.651 309.082 -107.608 332.027C-107.569 355.724 -110.055 379.243 -114.58 402.486C-117.219 416.035 -121.174 429.771 -121.593 443.637C-122.436 471.914 -97.3158 488.098 -72.7566 495.071C-38.7228 504.741 1.94933 502.443 33.6588 486.149C48.5977 478.475 61.1501 467.1 68.0074 451.547C75.9874 433.45 75.998 412.963 84.1429 394.921C88.9952 384.16 96.8537 374.875 106.805 368.475C114.089 363.799 122.592 361.755 130.39 358.139C152.065 348.09 172.665 331.145 186.853 311.928C209.177 281.69 208.211 240.557 198.352 205.848C188.12 169.846 166.565 134.794 134.58 114.329C127.164 109.588 119.252 105.763 110.931 102.899C109.946 102.557 109.308 104.048 110.3 104.389Z" fill="#BB86FC"/>
<path d="M123.253 106.27C160.514 118.903 187.927 150.636 203.974 185.612C219.262 218.941 226.833 259.743 215.154 295.366C207.233 319.528 187.419 338.224 167.24 352.676C157.552 359.611 147.352 365.694 136.18 369.905C129.066 372.588 122.163 375.041 115.945 379.549C100.219 390.963 92.4537 407.623 88.2781 426.12C83.8363 445.801 81.3298 466.189 67.3972 481.905C43.0124 509.41 -0.15831 516.544 -35.042 514.135C-62.9453 512.207 -105.645 502.069 -113.577 470.184C-116.395 458.835 -113.63 446.723 -111.243 435.556C-107.563 418.323 -103.759 401.176 -101.729 383.641C-98.8329 358.578 -98.6386 333.088 -101.275 307.998C-103.145 290.202 -107.406 272.939 -110.34 255.329C-112.81 240.511 -111.962 226.495 -106.328 212.45C-97.5107 190.461 -81.1319 173.265 -61.7727 160.068C-42.3769 146.859 -20.7208 137.255 0.548674 127.543C26.0995 115.875 52.7816 104.208 81.0658 101.69C95.3867 100.42 109.56 101.911 123.253 106.27C124.241 106.586 124.879 105.096 123.884 104.78C98.2836 96.6258 72.0135 99.3303 46.7077 107.27C20.1746 115.594 -5.39412 127.915 -30.2724 140.249C-66.9662 158.436 -106.436 185.83 -112.807 229.68C-114.925 244.294 -111.423 258.779 -108.525 273.031C-103.61 297.263 -100.9 321.643 -101.093 346.399C-101.277 369.935 -103.979 393.255 -108.733 416.286C-111.63 430.336 -116.074 444.652 -116.318 459.09C-116.805 487.84 -89.6526 503.998 -64.9437 510.807C-29.5141 520.571 12.9153 518.03 45.6326 500.571C61.0864 492.326 73.7293 480.175 80.4151 463.772C88.0962 444.917 87.9925 423.781 96.6634 405.254C101.741 394.427 109.903 385.046 120.07 378.701C127.638 373.977 136.439 371.938 144.478 368.228C167.296 357.68 189.234 339.971 204.184 319.747C226.965 288.932 225.459 246.586 215.261 211.35C204.483 174.091 181.96 137.887 148.794 116.732C140.988 111.756 132.654 107.751 123.884 104.78C122.906 104.444 122.262 105.935 123.253 106.27Z" fill="#BB86FC"/>
<path d="M136.212 108.15C175.059 121.124 203.785 154.187 220.566 190.555C236.385 224.833 244.492 266.913 232.311 303.605C224.08 328.407 203.345 347.366 182.577 362.107C172.413 369.318 161.729 375.716 150.02 380.077C142.727 382.795 135.573 385.217 129.157 389.757C112.5 401.548 104.367 419.09 100.119 438.506C95.6733 458.85 93.2269 479.958 78.9202 496.258C53.6777 525.017 8.57318 532.346 -27.6825 529.733C-56.2274 527.679 -100.266 517.199 -108.32 484.508C-111.197 472.844 -108.162 460.42 -105.569 448.987C-101.545 431.23 -97.4732 413.555 -95.3087 395.441C-92.2383 369.762 -92.0729 343.6 -94.7822 317.887C-96.7633 299.075 -101.312 280.894 -104.626 262.329C-107.323 247.223 -106.821 232.872 -101.209 218.451C-92.3704 195.739 -75.5196 177.933 -55.6444 164.323C-35.3399 150.411 -12.603 140.511 9.70787 130.343C36.1573 118.289 63.7532 106.108 93.0394 103.518C107.685 102.22 122.186 103.746 136.212 108.15C137.2 108.46 137.838 106.97 136.844 106.66C109.823 98.1688 82.1861 101.357 55.6156 109.983C28.5953 118.748 2.41985 131.266 -23.0293 143.831C-60.7018 162.421 -102.034 191.114 -107.576 236.463C-109.395 251.342 -105.59 266.066 -102.548 280.515C-97.1291 306.218 -94.2677 332.133 -94.5548 358.431C-94.8173 382.097 -97.6218 405.549 -102.604 428.673C-105.687 442.999 -110.419 457.536 -111.006 472.258C-112.196 502.183 -83.9424 519.099 -58.3426 526.205C-21.6984 536.376 22.229 533.79 56.1073 515.772C72.541 507.036 85.7984 494.054 92.57 476.49C100.131 456.892 99.8997 435.052 109.019 415.976C114.527 404.462 123.582 394.404 134.735 388.111C142.115 383.941 150.507 381.968 158.2 378.472C182.04 367.654 205.18 349.318 220.931 328.391C244.815 296.659 242.828 252.573 232.004 216.242C220.548 177.774 196.959 140.499 162.52 118.824C154.461 113.747 145.872 109.674 136.843 106.654C135.86 106.331 135.223 107.821 136.212 108.15Z" fill="#BB86FC"/>
<path d="M149.166 110.031C189.398 123.214 219.268 157.275 236.852 194.741C253.465 230.132 262.234 273.89 249.462 311.896C241.001 337.074 219.667 356.141 198.56 371.097C187.77 378.747 176.411 385.604 163.975 390.21C156.728 392.896 149.513 395.181 143.04 399.526C125.288 411.45 116.514 429.813 112.125 450.157C107.64 470.936 105.478 492.639 91.3061 509.598C65.6749 540.264 18.2631 548.033 -19.455 545.398C-48.8528 543.345 -94.6623 532.655 -103.054 498.946C-106.004 487.108 -102.796 474.503 -100.036 462.942C-95.7458 444.949 -91.4178 427.052 -89.0666 408.668C-85.6329 381.823 -85.4565 354.409 -88.3118 327.501C-90.3802 307.955 -95.1051 289.083 -98.8093 269.84C-101.795 254.304 -101.75 239.436 -96.0886 224.465C-87.1148 200.732 -69.465 182.204 -48.7606 168.109C-28.4055 154.247 -5.7177 144.31 16.6299 134.181C44.4129 121.585 73.2325 108.445 103.945 105.446C119.268 103.954 134.471 105.447 149.166 110.031C150.153 110.341 150.791 108.851 149.797 108.542C122.147 99.9219 93.9204 103.192 66.7502 112.02C38.549 121.188 11.1534 134.197 -15.4357 147.286C-54.0766 166.309 -97.3624 196.035 -102.278 242.878C-103.931 258.658 -99.5309 274.242 -96.2368 289.524C-90.4892 316.171 -87.6446 343.143 -88.0281 370.42C-88.3752 394.76 -91.4262 418.857 -96.8183 442.583C-100.097 457.016 -105.09 471.674 -105.739 486.556C-107.095 517.457 -76.9862 534.755 -50.7581 541.882C-12.6705 552.223 33.1114 549.413 68.0495 530.192C84.7364 521.013 97.9343 507.515 104.607 489.47C112.19 468.953 111.764 446.133 121.555 426.333C127.213 414.901 136.36 404.971 147.488 398.681C155.528 394.136 164.705 392.069 173.066 388.216C197.606 376.899 221.645 358.176 238.011 336.621C262.597 304.244 260.128 258.76 248.943 221.729C236.867 181.773 212.104 143.061 176.103 120.789C167.837 115.676 159.036 111.566 149.797 108.542C148.815 108.218 148.177 109.709 149.166 110.031Z" fill="#BB86FC"/>
<path d="M104.439 521.914C79.1359 554.256 31.3272 563.125 -7.4526 561.283C-27.1924 560.343 -47.3435 556.523 -65.1759 547.745C-78.7605 541.06 -92.5096 530.409 -97.2297 515.391C-101.014 503.349 -97.8529 490.378 -94.9307 478.505C-90.4719 460.396 -85.7592 442.443 -83.1315 423.948C-79.2472 396.623 -78.8342 368.685 -81.4257 341.219C-83.4194 320.129 -88.2373 299.783 -92.6097 279.116C-95.9565 263.271 -96.9434 247.897 -91.6223 232.338C-83.4019 208.296 -66.106 189.074 -45.674 174.527C-25.0162 159.818 -1.73483 149.381 21.2963 139.014C49.8779 126.139 79.1738 112.275 110.542 107.973C206.807 94.7718 276.731 200.595 272.503 287.677C271.454 309.288 265.452 329.717 251.607 346.666C233.668 368.624 207.707 388.47 181.327 399.043C173.964 401.997 166.201 403.953 159.275 407.914C149.835 413.319 141.607 421.294 135.795 430.476C124.567 448.223 123.363 469.412 118.714 489.353C115.972 501.101 111.704 512.185 104.439 521.914C103.82 522.751 105.096 523.744 105.722 522.906C119.658 504.24 121.271 481.602 126.249 459.635C131.678 435.652 145.159 414.168 169.039 405.203C179.05 401.45 188.792 397.971 198.124 392.605C211.528 384.893 224.215 375.661 235.741 365.358C253.559 349.432 266.858 331.13 271.699 307.488C280.127 266.289 268.238 221.506 247.899 185.529C226.479 147.623 191.541 114.101 147.239 106.662C117.594 101.684 88.0032 109.614 60.5259 120.346C33.4035 130.937 6.22168 142.996 -19.5015 156.682C-56.7154 176.49 -97.5187 209.729 -97.2392 256.035C-97.1283 273.411 -91.4142 290.476 -88.0453 307.386C-82.2207 336.619 -80.3296 366.62 -82.028 396.371C-83.3523 419.49 -87.4027 442.141 -93.0561 464.561C-96.3933 477.788 -101.069 491.616 -100.529 505.423C-99.225 538.5 -61.022 554.356 -33.4352 559.799C5.64423 567.511 52.0167 563.287 85.9147 540.963C93.4347 536.011 100.163 530.003 105.722 522.9C106.363 522.085 105.087 521.092 104.439 521.914Z" fill="#BB86FC"/>
</svg>
