<svg width="308" height="270" viewBox="0 0 308 270" fill="none" xmlns="http://www.w3.org/2000/svg">
<path d="M-45.1705 -238.177C-2.29917 -217.969 3.31138 -156.413 -11.0858 -116.683C-15.0073 -105.858 -21.5958 -96.7218 -30.6373 -89.5789C-38.4676 -83.3929 -47.7657 -80.3941 -54.6731 -72.9167C-61.5813 -65.4454 -64.9606 -56.0672 -68.6355 -46.7776C-72.733 -36.3916 -78.1601 -27.3146 -87.5462 -20.8924C-116.087 -1.35572 -177.817 -1.41012 -185.51 -43.568C-189.471 -65.2737 -185.155 -88.7613 -184.273 -110.592C-183.531 -128.865 -186.745 -148.575 -180.764 -166.19C-176.566 -178.56 -169.868 -190.459 -160.989 -200.065C-152.265 -209.499 -141.412 -216.411 -130.349 -222.769C-105.421 -237.087 -73.5786 -250.41 -45.1705 -238.177C-44.2148 -237.769 -43.577 -239.259 -44.539 -239.667C-69.23 -250.301 -97.631 -241.808 -120.356 -230.128C-141.474 -219.278 -161.697 -206.262 -173.812 -185.217C-178.856 -176.454 -183.176 -166.773 -184.834 -156.73C-186.252 -148.126 -185.683 -139.301 -185.595 -130.624C-185.309 -104.299 -189.899 -77.7494 -188.086 -51.4794C-186.936 -34.8748 -179.927 -20.7926 -164.367 -13.4813C-146.079 -4.89375 -123.022 -5.24242 -104.051 -11.2753C-94.5048 -14.312 -85.226 -19.1977 -78.3636 -26.6315C-70.7685 -34.8601 -67.7203 -45.4473 -63.451 -55.5267C-60.9302 -61.4781 -57.8062 -67.1589 -53.3972 -71.9293C-48.5214 -77.2015 -42.7348 -80.0876 -36.627 -83.577C-27.8089 -88.6062 -20.0945 -96.0981 -14.8601 -104.803C-1.51016 -127.022 0.109469 -158.134 -4.95583 -182.997C-9.73469 -206.456 -22.1658 -229.123 -44.5335 -239.674C-45.4808 -240.116 -46.1123 -238.626 -45.1705 -238.177Z" fill="#BB86FC"/>
<path d="M-32.2173 -236.297C12.6446 -215.989 21.3821 -152.853 6.446 -110.957C2.08015 -98.7104 -5.28574 -88.2868 -15.506 -80.229C-23.5334 -73.9042 -33.3884 -70.9607 -40.7324 -63.6867C-57.371 -47.1902 -55.9255 -20.6838 -75.8491 -6.51095C-104.614 13.9452 -171.777 15.5819 -179.669 -28.4779C-181.368 -37.9417 -180.828 -47.7352 -180.288 -57.276C-179.524 -70.5671 -178.423 -83.838 -177.889 -97.144C-177.421 -108.887 -177.653 -120.573 -178.075 -132.31C-178.377 -140.524 -178.454 -148.716 -176.431 -156.733C-169.324 -184.905 -148.847 -204.298 -124.447 -218.208C-97.3856 -233.638 -63.3007 -249.193 -32.2173 -236.297C-31.2507 -235.902 -30.6191 -237.392 -31.5795 -237.787C-59.0861 -249.193 -90.2418 -238.567 -115.054 -225.269C-137.636 -213.165 -158.514 -199.534 -170.53 -176.075C-175.033 -167.281 -178.629 -157.919 -179.554 -148.026C-180.438 -138.555 -179.466 -128.948 -179.256 -119.465C-178.636 -91.8547 -183.799 -64.1457 -182.202 -36.6033C-181.173 -18.8648 -173.065 -4.73323 -156.34 2.44853C-136.559 10.9469 -112.077 10.3786 -91.9511 3.38976C-82.0282 -0.061548 -72.4243 -5.5195 -65.6438 -13.6948C-58.1401 -22.7395 -55.4678 -34.1444 -51.0459 -44.7614C-48.0214 -52.0155 -43.9753 -58.6416 -38.1122 -63.9512C-33.4671 -68.1578 -28.0033 -70.5035 -22.6182 -73.5154C-12.4069 -79.215 -3.53797 -87.9598 2.33125 -98.0789C16.0238 -121.675 17.5717 -153.201 11.4771 -179.298C5.7769 -203.739 -8.00869 -227.118 -31.5803 -237.793C-32.5322 -238.222 -33.1637 -236.732 -32.2173 -236.297Z" fill="#BB86FC"/>
<path d="M-19.2576 -234.416C27.8627 -213.84 40.068 -147.393 23.3741 -103.226C18.6767 -90.8042 11.0331 -80.1304 0.728082 -71.7459C-8.21984 -64.4633 -19.5981 -61.3257 -27.9222 -53.2632C-45.041 -36.6676 -43.0901 -9.51792 -61.7285 5.96341C-79.6919 20.8911 -106.4 24.6687 -128.926 21.6007C-148.636 18.913 -168.997 9.5282 -173.561 -11.5952C-175.568 -20.8935 -174.997 -30.6466 -174.397 -40.0624C-173.522 -53.8163 -172.2 -67.5387 -171.586 -81.3098C-170.988 -94.5609 -171.051 -107.746 -171.816 -120.982C-172.333 -129.945 -173.147 -139.004 -171.584 -147.911C-166.345 -177.79 -143.897 -199.28 -118.64 -213.646C-89.506 -230.219 -52.9339 -247.923 -19.2576 -234.416C-18.2919 -234.028 -17.6541 -235.518 -18.6261 -235.906C-48.3333 -247.821 -81.2681 -235.636 -107.869 -221.401C-132.547 -208.189 -154.819 -193.401 -166.905 -167.122C-171.067 -158.08 -173.817 -148.725 -174.085 -138.733C-174.371 -127.891 -173.032 -117.035 -172.794 -106.197C-172.417 -88.8687 -173.622 -71.5531 -174.959 -54.2902C-175.847 -42.8663 -177.1 -31.2821 -176.296 -19.8211C-173.024 26.8685 -112.375 31.1868 -78.0252 17.3107C-67.8754 13.2112 -58.3458 6.92231 -52.0363 -2.17235C-44.9095 -12.4391 -42.7779 -24.9125 -37.734 -36.1522C-34.5195 -43.3041 -29.9939 -49.6881 -23.9015 -54.6857C-19.1126 -58.6073 -13.4796 -60.7155 -8.141 -63.6962C3.13241 -69.9862 12.8884 -79.7035 19.346 -90.858C45.4425 -135.965 32.4083 -213.624 -18.6269 -235.912C-19.5834 -236.327 -20.2149 -234.838 -19.2576 -234.416Z" fill="#BB86FC"/>
<path d="M-6.30448 -232.536C42.8027 -211.789 58.4211 -142.757 40.7134 -96.3814C35.4556 -82.6059 26.6338 -70.815 15.0563 -61.706C5.51726 -54.2027 -6.52342 -51.0564 -15.3363 -42.6157C-33.5765 -25.1505 -30.704 3.72685 -50.1218 20.3312C-68.8157 36.3187 -97.0232 40.3318 -120.715 37.2417C-141.007 34.5966 -163.253 25.1993 -167.923 3.18595C-170.003 -6.63999 -169.114 -16.9646 -168.325 -26.8846C-167.191 -40.9813 -165.755 -55.0468 -165.112 -69.1881C-164.461 -83.5075 -164.556 -97.7885 -165.609 -112.093C-166.295 -121.389 -167.496 -130.815 -166.358 -140.122C-162.503 -171.595 -138.334 -194.694 -112.118 -209.524C-81.1096 -227.056 -42.2466 -246.518 -6.30448 -232.536C-5.33406 -232.16 -4.6963 -233.651 -5.66671 -234.026C-38.1583 -246.667 -73.2075 -232.183 -102.031 -216.844C-128.015 -203.024 -151.072 -186.96 -162.799 -158.85C-171.608 -137.741 -166.829 -116.461 -166.33 -94.3524C-165.924 -76.446 -167.167 -58.5442 -168.737 -40.7209C-169.755 -29.1731 -171.227 -17.4787 -170.644 -5.8633C-168.167 43.1583 -102.714 46.8453 -67.5134 32.5068C-56.9652 28.2112 -47.0437 21.6259 -40.5339 12.1203C-32.7684 0.767423 -30.9254 -13.0783 -25.3454 -25.4163C-22.0813 -32.6251 -17.4384 -39.0304 -11.2784 -44.0429C-6.05797 -48.2975 0.069422 -50.4435 5.9004 -53.626C17.9513 -60.211 28.5113 -70.511 35.6299 -82.23C64.3993 -129.618 48.1357 -211.294 -5.66671 -234.026C-6.62866 -234.434 -7.26642 -232.944 -6.30448 -232.536Z" fill="#BB86FC"/>
<path d="M6.65492 -230.656C58.1334 -209.548 77.3607 -136.445 57.4289 -87.7389C51.5275 -73.3126 41.7278 -61.1128 29.3845 -51.666C19.2925 -43.9405 6.60492 -40.8129 -2.67677 -32.0344C-22.413 -13.3674 -18.4018 17.8986 -39.5531 35.5769C-58.9803 51.8097 -87.864 55.9215 -112.296 52.9195C-133.256 50.3406 -157.56 40.9087 -162.352 17.8935C-164.397 8.04413 -163.35 -2.2816 -162.422 -12.2004C-161.024 -27.1584 -159.349 -42.0696 -158.635 -57.0919C-157.915 -72.3615 -158.04 -87.612 -159.35 -102.85C-160.207 -112.895 -161.847 -123.081 -160.954 -133.178C-158.066 -166.038 -132.449 -190.32 -105.309 -205.583C-72.5393 -224.016 -31.3882 -245.059 6.65492 -230.656C7.62454 -230.287 8.26231 -231.777 7.28647 -232.145C-26.9326 -245.103 -63.2924 -229.549 -93.6532 -213.679C-121.023 -199.378 -145.744 -182.591 -157.666 -152.832C-166.553 -130.651 -160.563 -107.757 -159.892 -84.6966C-159.341 -65.804 -160.61 -46.907 -162.46 -28.1127C-163.657 -15.9417 -165.473 -3.61599 -165.016 8.64117C-163.094 59.7555 -92.3241 62.3729 -56.684 47.5676C-45.6179 42.9722 -35.28 35.9358 -28.6365 25.7939C-21.0774 14.2588 -19.2429 0.445783 -14.0833 -12.1167C-10.678 -20.3987 -5.64162 -27.7324 1.34403 -33.4063C6.55978 -37.6477 12.6288 -39.8052 18.5388 -42.8145C31.7346 -49.5391 43.4127 -60.4366 51.4626 -72.8304C80.5492 -117.63 67.0993 -191.014 24.1244 -222.741C18.9208 -226.583 13.2735 -229.692 7.28647 -232.145C6.31989 -232.54 5.68755 -231.057 6.65492 -230.656Z" fill="#BB86FC"/>
<path d="M19.6084 -228.775C72.4933 -207.689 95.1098 -133.179 75.5212 -82.4247C69.4079 -66.5876 58.6867 -53.1897 45.3148 -42.8409C34.2545 -34.2843 20.1103 -30.9836 9.91015 -21.3803C-10.9091 -1.79177 -6.02157 31.1444 -27.9522 49.9458C-48.3156 67.41 -79.0717 71.7036 -104.898 68.4688C-126.281 65.7921 -151.996 56.1989 -156.834 32.526C-158.851 22.6478 -157.645 12.2828 -156.584 2.366C-154.964 -12.6835 -153.105 -27.6876 -152.278 -42.8129C-151.382 -59.1853 -151.414 -75.5913 -152.896 -91.9261C-153.911 -103.107 -156.073 -114.414 -155.543 -125.672C-153.914 -160.33 -126.432 -186.095 -98.0434 -201.922C-63.5896 -221.126 -20.3754 -243.531 19.6084 -228.775C20.5826 -228.419 21.2212 -229.903 20.2399 -230.264C-16.3619 -243.771 -54.688 -226.342 -87.0494 -209.611C-115.777 -194.758 -141.964 -176.532 -153.273 -144.792C-161.611 -121.379 -153.927 -95.9019 -153.355 -71.8307C-152.891 -52.434 -154.263 -33.0563 -156.387 -13.7848C-157.732 -1.58228 -159.759 10.7704 -159.44 23.0831C-158.071 76.4542 -81.612 77.9482 -45.4768 62.4669C-33.7097 57.422 -22.9148 49.708 -16.2099 38.6104C-8.61132 26.0467 -7.12616 11.1787 -1.40083 -2.15088C2.28441 -10.7151 7.86307 -18.2064 15.3402 -23.8418C20.6032 -27.8112 26.7434 -29.8072 32.5688 -32.7361C47.154 -40.0613 60.1609 -52.1834 68.9532 -65.8914C99.0524 -112.81 82.6197 -188.627 37.6938 -220.787C32.2771 -224.665 26.4307 -227.799 20.2461 -230.265C19.2741 -230.653 18.6364 -229.163 19.6084 -228.775Z" fill="#BB86FC"/>
<path d="M32.5616 -226.894C87.1564 -205.678 112.749 -129.481 93.4033 -76.5276C87.0558 -59.1568 75.0508 -44.5779 60.4696 -33.4051C53.9363 -28.3955 46.9745 -24.4181 39.4083 -21.2167C34.1208 -18.9755 29.2584 -16.4727 24.8212 -12.7665C13.8448 -3.6014 8.36832 8.80554 4.60258 22.2897C0.542443 36.8351 -3.04252 51.44 -14.237 62.3643C-34.2494 81.8879 -66.5919 86.9715 -93.3856 84.4791C-115.6 82.414 -144.682 73.5722 -150.931 49.043C-153.482 39.0432 -152.149 28.3335 -150.959 18.236C-149.235 3.65978 -147.18 -10.8574 -146.147 -25.5035C-144.868 -43.6246 -144.697 -61.8636 -146.311 -79.9699C-147.366 -91.8159 -149.733 -103.646 -150.037 -115.544C-150.821 -146.728 -129.321 -173.714 -104.427 -190.088C-89.6666 -199.805 -73.4394 -207.782 -57.3816 -215.105C-38.8707 -223.556 -18.9985 -230.797 1.53548 -231.608C12.1608 -232.027 22.56 -230.503 32.5616 -226.894C33.5413 -226.545 34.179 -228.035 33.1994 -228.384C-5.7509 -242.419 -46.1747 -223.156 -80.5026 -205.542C-110.584 -190.106 -138.653 -170.187 -148.899 -136.257C-152.044 -125.84 -152.021 -115.392 -150.806 -104.678C-149.039 -88.9802 -147.002 -73.4492 -146.791 -57.6158C-146.514 -37.355 -148.149 -17.1665 -150.662 2.91923C-152.16 14.8632 -154.339 27.014 -153.886 39.0947C-153.029 61.7775 -136.211 75.5823 -115.576 81.8612C-89.1351 89.9148 -57.745 88.3143 -32.604 76.6041C-21.0624 71.2278 -10.7113 63.2544 -4.24436 52.124C3.67968 38.4951 4.80021 22.353 11.1663 8.10131C15.0192 -0.534848 20.8661 -8.054 28.547 -13.627C34.2202 -17.7497 40.8471 -19.7446 47.039 -22.8719C62.2732 -30.5578 76.0029 -43.107 85.4292 -57.2939C102.558 -83.0783 104.168 -116.154 97.2781 -145.612C90.6682 -173.868 75.6166 -201.825 51.4164 -218.72C45.7429 -222.679 39.6413 -225.882 33.1994 -228.384C32.2282 -228.766 31.5904 -227.275 32.5616 -226.894Z" fill="#BB86FC"/>
<path d="M45.521 -225.014C101.902 -203.615 130.178 -125.751 111.274 -70.5726C105.02 -52.3164 92.3134 -36.9973 77.2742 -25.2037C70.0646 -19.5518 62.3543 -14.8534 53.8978 -11.3489C48.5504 -9.13177 43.5001 -6.864 38.8868 -3.29972C27.1832 5.76224 20.9641 18.4408 17.0846 32.4197C12.7733 47.9197 9.75139 63.8682 -1.86022 75.882C-22.2762 96.9988 -56.3598 102.551 -84.4251 100.195C-107.33 98.2687 -138.328 89.5637 -145.303 64.3435C-148.143 54.0584 -146.6 42.9617 -145.227 32.5691C-143.244 17.5429 -140.943 2.57728 -139.775 -12.5473C-138.282 -31.8141 -138.12 -51.2589 -139.929 -70.5092C-141.11 -83.0406 -143.706 -95.4737 -144.418 -108.046C-146.221 -140.137 -124.648 -168.137 -99.1441 -185.227C-83.8445 -195.474 -66.8947 -203.631 -50.2113 -211.35C-30.3835 -220.525 -9.22047 -228.594 12.8234 -229.704C24.005 -230.271 34.9547 -228.741 45.521 -225.014C46.4999 -224.671 47.1376 -226.161 46.1525 -226.503C4.98066 -241.014 -37.5841 -220.056 -73.7991 -201.582C-104.721 -185.805 -134.096 -164.822 -143.832 -129.623C-146.873 -118.633 -146.333 -107.656 -144.85 -96.4714C-142.596 -79.4831 -140.44 -62.6656 -140.265 -45.4818C-140.045 -24.822 -141.771 -4.26159 -144.579 16.1902C-146.263 28.4612 -148.748 40.9355 -148.42 53.3733C-147.802 77.0028 -129.539 91.091 -108.231 97.4483C-80.3328 105.778 -47.0727 103.977 -20.7705 91.1641C-8.52678 85.1991 2.12704 76.3784 8.48796 64.1683C16.053 49.6563 16.9456 32.8166 23.8671 18.0644C28.0854 9.07203 34.6907 1.10865 43.0741 -4.30744C48.9176 -8.08542 55.6737 -10.0083 61.8359 -13.1697C78.1594 -21.5316 92.976 -35.0218 103.049 -50.3337C120.489 -76.8529 121.428 -110.968 113.973 -140.999C106.663 -170.435 90.4705 -199.409 64.9755 -216.746C59.1013 -220.742 52.7928 -223.982 46.1525 -226.503C45.1829 -226.873 44.5444 -225.388 45.521 -225.014Z" fill="#BB86FC"/>
<path d="M58.4743 -223.133C89.0439 -211.789 110.659 -184.884 122.659 -155.338C134.298 -126.693 138.695 -92.4496 128.477 -62.7123C121.841 -43.3901 107.733 -27.3678 91.6873 -15.1426C84.1033 -9.35454 76.0441 -4.56743 67.2061 -0.982728C61.3297 1.39668 55.8383 3.87233 50.8427 7.85816C38.7084 17.5564 32.5649 30.9267 28.7026 45.6364C24.5191 61.5434 21.4459 77.8333 9.70303 90.2051C-11.5332 112.57 -47.5118 118.326 -76.9085 115.786C-100.402 113.751 -132.83 104.786 -139.937 78.7743C-142.819 68.2101 -141.013 56.8019 -139.443 46.1693C-137.152 30.5857 -134.6 15.0636 -133.33 -0.648955C-131.711 -20.7154 -131.572 -40.985 -133.533 -61.0248C-134.851 -74.4422 -137.778 -87.6861 -138.801 -101.116C-141.363 -134.646 -118.966 -163.661 -92.2822 -181.413C-76.252 -192.075 -58.516 -200.459 -41.0661 -208.509C-20.3397 -218.071 1.75043 -226.65 24.7877 -227.849C36.2934 -228.45 47.5876 -226.895 58.4743 -223.133C59.4586 -222.797 60.0971 -224.281 59.112 -224.623C16.0477 -239.505 -28.3657 -217.237 -66.2304 -198.073C-97.9576 -182.016 -128.614 -160.434 -138.407 -124.242C-141.591 -112.488 -140.712 -100.79 -138.949 -88.8891C-136.267 -70.7799 -133.936 -52.8348 -133.739 -34.491C-133.509 -13.0615 -135.361 8.24786 -138.519 29.4267C-140.396 42.013 -143.199 54.8185 -142.997 67.6072C-142.606 92.3336 -122.653 106.75 -100.557 113.133C-71.6117 121.499 -37.2346 119.587 -10.0342 106.237C2.72738 99.9723 13.803 90.6934 20.307 77.8711C27.9879 62.7315 28.7165 45.2492 35.7281 29.8662C39.8716 20.7823 46.2789 12.9011 54.4694 7.16202C60.8213 2.71262 68.2863 0.699408 75.1686 -2.71182C92.6536 -11.3797 108.68 -25.5928 119.633 -41.731C138.138 -68.9673 138.806 -104.368 130.91 -135.379C123.101 -166.047 105.964 -196.19 79.3492 -214.23C73.035 -218.506 66.2619 -221.971 59.112 -224.623C58.1308 -224.985 57.4992 -223.495 58.4743 -223.133Z" fill="#BB86FC"/>
<path d="M71.4337 -221.253C103.059 -209.753 125.744 -182.245 138.606 -151.93C151.115 -122.461 156.259 -87.1188 146.152 -56.1634C139.403 -35.4936 124.023 -18.5951 106.931 -5.70577C98.9236 0.332139 90.4422 5.42583 81.1272 9.13454C75.0658 11.5502 69.3527 13.9719 64.1449 17.9785C51.018 28.0686 44.5167 42.3502 40.5503 58.0274C36.289 74.8605 33.2241 92.0088 20.7645 105.053C-1.4011 128.257 -38.9718 134.115 -69.532 131.369C-93.8798 129.178 -128.34 119.632 -134.866 92.1365C-137.427 81.3609 -135.335 69.8657 -133.582 59.1339C-130.969 43.0986 -128.222 27.1282 -126.856 10.9233C-125.102 -10.0135 -125.022 -31.1918 -127.182 -52.0972C-128.635 -66.1735 -131.809 -80.0179 -133.166 -94.0874C-136.457 -128.377 -114.181 -158.148 -86.9642 -176.574C-70.4269 -187.769 -52.0313 -196.332 -33.9555 -204.727C-12.2167 -214.822 10.8107 -224.178 34.9717 -225.88C47.3966 -226.757 59.6321 -225.252 71.4337 -221.253C72.411 -220.922 73.0558 -222.407 72.0652 -222.742C26.5949 -238.158 -20.4509 -213.937 -60.3197 -193.74C-92.8109 -177.282 -124.782 -154.263 -133.533 -116.694C-136.333 -104.698 -134.894 -92.7234 -132.942 -80.7265C-129.844 -61.6846 -127.42 -42.7655 -127.218 -23.4367C-126.987 -1.45132 -128.921 20.4056 -132.392 42.0983C-134.467 55.0637 -137.599 68.2206 -137.605 81.4026C-137.616 106.698 -117.119 121.607 -94.6345 128.314C-64.3208 137.353 -28.1112 135.441 0.441168 121.444C13.6251 114.974 25.1167 105.389 31.8304 92.1296C39.9329 76.1337 40.4094 57.6156 47.743 41.3386C52.1909 31.4703 59.2837 22.8697 68.3772 16.9271C74.8346 12.7107 82.3681 10.7393 89.2489 7.36618C107.87 -1.75621 125.112 -16.8446 136.821 -33.9448C156.039 -62.024 156.108 -98.8589 147.598 -130.714C139.095 -162.57 120.822 -193.743 92.9215 -212.252C86.3988 -216.576 79.4133 -220.071 72.0652 -222.742C71.0847 -223.097 70.4532 -221.608 71.4337 -221.253Z" fill="#BB86FC"/>
<path d="M84.387 -219.372C117.612 -207.52 141.569 -178.708 155.19 -146.999C168.327 -116.416 173.987 -79.4523 163.064 -47.3187C155.727 -25.7145 138.749 -8.30908 120.646 4.87975C112.274 10.9769 103.45 16.0131 93.7846 19.7475C87.6904 22.1041 81.9698 24.6153 76.7441 28.6305C63.0593 39.1519 56.3675 54.0707 52.3888 70.4445C48.1469 87.926 45.1258 105.764 32.3223 119.383C9.68156 143.469 -28.9861 149.643 -60.4687 147.098C-85.7195 145.059 -122.337 135.491 -129.442 106.97C-132.13 96.198 -129.936 84.6582 -128.055 73.9354C-125.193 57.5776 -122.15 41.2978 -120.601 24.7473C-118.533 2.70887 -118.411 -19.6311 -120.67 -41.6612C-122.222 -56.7612 -125.698 -71.5401 -127.459 -86.5945C-131.641 -122.224 -109.169 -153.031 -80.8025 -172.305C-63.3571 -184.159 -43.9073 -193.077 -24.811 -201.894C-2.1463 -212.359 21.7841 -222.215 46.9431 -224.02C59.7045 -224.933 72.2572 -223.418 84.387 -219.372C85.3705 -219.043 86.0083 -220.533 85.0185 -220.862C37.6293 -236.658 -11.4852 -211.068 -53.0276 -190.12C-86.4772 -173.25 -120.1 -149.217 -128.355 -110.226C-131.078 -97.3808 -129.022 -84.5755 -126.778 -71.8321C-123.169 -51.3073 -120.745 -30.8527 -120.668 -9.97257C-120.585 12.1896 -122.726 34.1994 -126.49 56.0243C-128.759 69.2102 -132.201 82.6026 -132.237 96.0536C-132.31 122.495 -109.535 137.625 -86.2908 144.197C-55.0812 153.027 -18.0891 150.958 11.1713 136.518C25.1535 129.617 37.193 119.324 44.003 105.085C51.9957 88.3769 52.3151 69.2217 59.9382 52.3897C64.3823 42.5913 71.3791 34.1294 80.2786 28.0535C86.8186 23.5928 94.4079 21.5637 101.529 18.2926C121.288 9.22109 139.722 -6.37945 152.491 -23.937C173.479 -52.8105 173.653 -91.1943 164.706 -124.498C155.75 -157.825 136.483 -190.4 107.288 -209.742C100.332 -214.347 92.8762 -218.059 85.0248 -220.862C84.0389 -221.211 83.4011 -219.72 84.387 -219.372Z" fill="#BB86FC"/>
<path d="M97.3403 -217.491C131.906 -205.38 157.029 -175.598 171.453 -142.804C185.145 -111.679 191.391 -74.1323 180.865 -41.1141C173.593 -18.3049 155.754 -0.176727 136.817 13.6618C127.945 20.1512 118.581 25.7049 108.309 29.643C101.834 32.1304 95.6425 34.5689 90.034 38.7529C75.6267 49.5055 68.4986 64.9664 64.4267 82.0471C60.0487 100.443 57.2399 119.303 43.8577 133.735C20.3593 159.074 -20.2554 165.44 -53.1038 162.689C-79.0741 160.509 -117.296 150.501 -124.252 120.918C-126.831 109.955 -124.438 98.2951 -122.403 87.4452C-119.224 70.5479 -115.908 53.7279 -114.226 36.5915C-111.955 13.4658 -111.869 -9.95014 -114.379 -33.0603C-116.087 -48.7407 -119.791 -64.0594 -121.844 -79.6705C-126.724 -116.715 -103.531 -148.561 -73.9383 -168.523C-55.7616 -180.786 -35.5263 -189.937 -15.6549 -199.067C7.93027 -209.896 32.7574 -220.252 58.9198 -222.166C71.9851 -223.124 84.8964 -221.572 97.3403 -217.491C98.3293 -217.168 98.967 -218.659 97.9781 -218.981C49.0068 -235.044 -1.61751 -208.509 -44.6017 -187.074C-79.3928 -169.723 -115.321 -144.638 -123.165 -103.766C-125.709 -90.5075 -123.305 -77.3042 -120.879 -64.2239C-116.936 -43.0025 -114.267 -21.7765 -114.145 -0.150066C-114.02 22.8913 -116.295 45.7901 -120.415 68.4376C-122.891 82.0291 -126.674 95.8251 -126.926 109.708C-127.417 137.081 -103.605 152.768 -79.6718 159.587C-46.8532 168.944 -7.65655 166.721 22.9466 151.067C37.3615 143.694 49.5231 132.773 56.2311 117.833C64.082 100.359 64.2372 80.5106 72.2873 63.1122C77.0389 52.8513 84.6224 43.986 94.154 37.8612C101.005 33.4619 108.979 31.4785 116.309 28.0545C137.207 18.3069 156.991 1.74447 170.389 -17.0182C191.476 -46.555 190.809 -86.1396 181.393 -119.8C171.727 -154.333 151.356 -187.93 120.855 -207.756C113.69 -212.41 106.034 -216.16 97.9719 -218.98C96.993 -219.323 96.3544 -217.839 97.3403 -217.491Z" fill="#BB86FC"/>
<path d="M110.3 -215.611C146.465 -203.148 172.855 -172.049 188.037 -137.866C202.445 -105.442 209.24 -65.9187 197.574 -31.5799C189.791 -8.66768 171.106 9.37239 151.92 23.2364C142.472 30.0646 132.532 35.9066 121.611 40.0096C114.894 42.5341 108.468 45.0594 102.663 49.3886C87.6655 60.5701 80.3493 76.687 76.2606 94.4776C71.8918 113.492 69.1463 133.095 55.4031 148.066C31.1904 174.444 -10.8136 181.113 -44.8383 178.355C-71.6988 176.181 -112.076 165.872 -119.037 135.014C-121.563 123.823 -118.919 111.948 -116.696 100.935C-113.273 84.0127 -109.785 67.1643 -107.95 49.9833C-105.393 25.9301 -105.253 1.50259 -107.833 -22.5529C-109.649 -39.4769 -113.738 -55.9344 -116.177 -72.7411C-121.786 -111.234 -97.9176 -144.033 -67.0733 -164.735C-48.1731 -177.419 -27.1462 -186.804 -6.49876 -196.241C17.6596 -207.283 43.0416 -218.044 69.8075 -220.23C83.5659 -221.352 97.165 -219.857 110.3 -215.611C111.282 -215.294 111.92 -216.778 110.931 -217.101C60.1399 -233.512 7.56416 -205.73 -37.0199 -183.611C-72.8448 -165.844 -110.624 -139.715 -117.939 -97.3179C-120.342 -83.4071 -117.43 -69.5862 -114.775 -55.9412C-110.385 -33.456 -107.651 -10.9178 -107.608 12.0266C-107.569 35.7237 -110.055 59.2434 -114.58 82.4858C-117.219 96.0349 -121.174 109.771 -121.593 123.637C-122.436 151.914 -97.3158 168.098 -72.7566 175.071C-38.7227 184.741 1.94933 182.443 33.6588 166.149C48.5977 158.475 61.1501 147.1 68.0074 131.547C75.9874 113.45 75.9979 92.963 84.1429 74.9206C88.9952 64.1603 96.8537 54.8746 106.805 48.475C114.089 43.7994 122.592 41.7549 130.39 38.1385C152.065 28.0897 172.665 11.1451 186.853 -8.07197C209.177 -38.31 208.211 -79.4425 198.352 -114.152C188.12 -150.154 166.565 -185.206 134.58 -205.671C127.164 -210.412 119.252 -214.237 110.931 -217.101C109.946 -217.443 109.308 -215.952 110.3 -215.611Z" fill="#BB86FC"/>
<path d="M123.253 -213.73C160.514 -201.097 187.927 -169.364 203.974 -134.388C219.262 -101.059 226.833 -60.2567 215.154 -24.6336C207.233 -0.471612 187.419 18.2243 167.24 32.6761C157.552 39.6107 147.352 45.6944 136.18 49.9052C129.066 52.5877 122.163 55.0412 115.945 59.5493C100.219 70.9628 92.4537 87.6235 88.2781 106.12C83.8363 125.801 81.3298 146.189 67.3972 161.905C43.0124 189.41 -0.158302 196.544 -35.042 194.135C-62.9453 192.207 -105.645 182.069 -113.577 150.184C-116.395 138.835 -113.63 126.723 -111.243 115.556C-107.563 98.3234 -103.759 81.1757 -101.729 63.6413C-98.8329 38.5781 -98.6386 13.0884 -101.275 -12.0024C-103.145 -29.7979 -107.406 -47.0612 -110.34 -64.6706C-112.81 -79.4893 -111.962 -93.5051 -106.328 -107.55C-97.5108 -129.539 -81.1319 -146.735 -61.7727 -159.932C-42.3769 -173.141 -20.7208 -182.745 0.548668 -192.457C26.0995 -204.125 52.7816 -215.792 81.0658 -218.31C95.3867 -219.58 109.56 -218.089 123.253 -213.73C124.241 -213.414 124.879 -214.904 123.884 -215.22C98.2836 -223.374 72.0135 -220.67 46.7077 -212.73C20.1746 -204.406 -5.39412 -192.085 -30.2724 -179.751C-66.9662 -161.564 -106.436 -134.17 -112.807 -90.3201C-114.925 -75.7064 -111.423 -61.2215 -108.525 -46.9691C-103.61 -22.7374 -100.9 1.6427 -101.093 26.3992C-101.277 49.935 -103.979 73.2547 -108.733 96.2862C-111.63 110.336 -116.074 124.652 -116.318 139.09C-116.805 167.84 -89.6526 183.998 -64.9437 190.807C-29.5141 200.571 12.9153 198.03 45.6326 180.571C61.0863 172.326 73.7293 160.175 80.4151 143.772C88.0962 124.917 87.9925 103.781 96.6634 85.2543C101.741 74.4274 109.903 65.046 120.07 58.7012C127.638 53.9767 136.439 51.9384 144.478 48.2282C167.296 37.6797 189.234 19.9707 204.184 -0.253464C226.965 -31.0679 225.459 -73.4143 215.261 -108.65C204.483 -145.909 181.96 -182.113 148.794 -203.268C140.988 -208.244 132.654 -212.249 123.884 -215.22C122.906 -215.556 122.262 -214.065 123.253 -213.73Z" fill="#BB86FC"/>
<path d="M136.212 -211.85C175.059 -198.876 203.785 -165.813 220.566 -129.445C236.385 -95.1665 244.492 -53.0866 232.311 -16.3947C224.08 8.40704 203.345 27.3656 182.577 42.1073C172.413 49.3175 161.729 55.7157 150.02 60.0771C142.727 62.7951 135.573 65.2173 129.157 69.757C112.5 81.5483 104.367 99.0899 100.119 118.506C95.6733 138.85 93.2269 159.958 78.9202 176.258C53.6778 205.017 8.57319 212.346 -27.6825 209.733C-56.2274 207.679 -100.266 197.199 -108.32 164.508C-111.197 152.844 -108.162 140.42 -105.569 128.987C-101.545 111.23 -97.4732 93.5554 -95.3087 75.4414C-92.2383 49.7621 -92.0729 23.6 -94.7822 -2.11347C-96.7632 -20.9248 -101.312 -39.1056 -104.626 -57.6711C-107.323 -72.7769 -106.821 -87.1278 -101.209 -101.549C-92.3704 -124.261 -75.5196 -142.067 -55.6444 -155.677C-35.3399 -169.589 -12.6031 -179.489 9.70787 -189.657C36.1573 -201.711 63.7532 -213.892 93.0394 -216.482C107.685 -217.78 122.186 -216.254 136.212 -211.85C137.2 -211.54 137.838 -213.03 136.844 -213.34C109.823 -221.831 82.1861 -218.643 55.6156 -210.017C28.5953 -201.252 2.41985 -188.734 -23.0293 -176.169C-60.7018 -157.579 -102.034 -128.886 -107.576 -83.5371C-109.395 -68.6583 -105.59 -53.9338 -102.548 -39.4851C-97.1291 -13.7821 -94.2677 12.1331 -94.5548 38.4307C-94.8173 62.0966 -97.6218 85.5495 -102.604 108.673C-105.687 122.999 -110.419 137.536 -111.006 152.258C-112.196 182.183 -83.9425 199.099 -58.3426 206.205C-21.6984 216.376 22.229 213.79 56.1073 195.772C72.541 187.036 85.7984 174.054 92.57 156.49C100.131 136.892 99.8997 115.052 109.019 95.9757C114.527 84.462 123.582 74.4043 134.735 68.1107C142.115 63.941 150.507 61.9675 158.2 58.4719C182.04 47.6543 205.18 29.318 220.931 8.39141C244.815 -23.3409 242.828 -67.4268 232.004 -103.758C220.548 -142.226 196.959 -179.501 162.52 -201.176C154.461 -206.253 145.872 -210.326 136.843 -213.346C135.86 -213.669 135.223 -212.179 136.212 -211.85Z" fill="#BB86FC"/>
<path d="M149.166 -209.969C189.398 -196.786 219.268 -162.725 236.852 -125.259C253.465 -89.8682 262.234 -46.1099 249.462 -8.1042C241.001 17.0745 219.667 36.141 198.56 51.0966C187.77 58.7468 176.411 65.6038 163.975 70.2096C156.728 72.8963 149.513 75.181 143.04 79.5257C125.288 91.4503 116.514 109.813 112.125 130.157C107.64 150.936 105.478 172.639 91.3061 189.598C65.6749 220.264 18.2631 228.033 -19.455 225.398C-48.8528 223.345 -94.6623 212.655 -103.054 178.946C-106.004 167.108 -102.796 154.503 -100.036 142.942C-95.7458 124.949 -91.4179 107.052 -89.0666 88.6676C-85.6328 61.8234 -85.4565 34.4089 -88.3118 7.50081C-90.3802 -12.045 -95.1051 -30.9173 -98.8093 -50.1598C-101.795 -65.6964 -101.75 -80.564 -96.0886 -95.5346C-87.1149 -119.268 -69.465 -137.796 -48.7606 -151.891C-28.4055 -165.753 -5.7177 -175.69 16.6299 -185.819C44.4129 -198.415 73.2325 -211.555 103.945 -214.554C119.268 -216.046 134.471 -214.553 149.166 -209.969C150.153 -209.659 150.791 -211.149 149.797 -211.458C122.147 -220.078 93.9204 -216.808 66.7501 -207.98C38.5491 -198.812 11.1534 -185.803 -15.4357 -172.714C-54.0767 -153.691 -97.3624 -123.965 -102.278 -77.1224C-103.931 -61.342 -99.5309 -45.7584 -96.2368 -30.4761C-90.4892 -3.82932 -87.6446 23.1433 -88.0281 50.42C-88.3752 74.7602 -91.4262 98.8573 -96.8183 122.583C-100.097 137.016 -105.09 151.674 -105.74 166.556C-107.095 197.457 -76.9861 214.755 -50.7581 221.882C-12.6705 232.223 33.1114 229.414 68.0495 210.192C84.7364 201.013 97.9343 187.515 104.607 169.47C112.19 148.953 111.764 126.133 121.555 106.333C127.213 94.9015 136.36 84.9711 147.488 78.6807C155.528 74.1362 164.705 72.069 173.066 68.2165C197.606 56.8988 221.645 38.1762 238.011 16.6215C262.597 -15.7562 260.128 -61.2404 248.943 -98.2709C236.867 -138.227 212.104 -176.939 176.103 -199.211C167.837 -204.324 159.036 -208.434 149.797 -211.458C148.815 -211.782 148.177 -210.291 149.166 -209.969Z" fill="#BB86FC"/>
<path d="M104.439 201.914C79.1359 234.256 31.3272 243.125 -7.45261 241.283C-27.1924 240.343 -47.3435 236.523 -65.1759 227.745C-78.7605 221.06 -92.5096 210.409 -97.2297 195.391C-101.014 183.349 -97.8529 170.378 -94.9307 158.505C-90.4719 140.396 -85.7592 122.443 -83.1315 103.948C-79.2472 76.6231 -78.8342 48.6855 -81.4257 21.2194C-83.4194 0.128508 -88.2373 -20.2168 -92.6097 -40.8844C-95.9565 -56.7287 -96.9434 -72.103 -91.6224 -87.6622C-83.4019 -111.704 -66.106 -130.926 -45.674 -145.473C-25.0162 -160.182 -1.73484 -170.619 21.2963 -180.986C49.8779 -193.861 79.1738 -207.725 110.542 -212.027C206.807 -225.228 276.731 -119.405 272.503 -32.3234C271.454 -10.712 265.452 9.71735 251.607 26.6665C233.668 48.6239 207.707 68.4699 181.327 79.0426C173.964 81.9971 166.201 83.9535 159.275 87.9137C149.835 93.3192 141.607 101.293 135.795 110.476C124.567 128.223 123.363 149.412 118.714 169.353C115.972 181.101 111.704 192.185 104.439 201.914C103.82 202.751 105.096 203.744 105.722 202.906C119.658 184.24 121.271 161.602 126.249 139.635C131.678 115.652 145.159 94.1679 169.039 85.2029C179.05 81.4498 188.792 77.9709 198.124 72.6046C211.528 64.8928 224.215 55.6613 235.741 45.3582C253.559 29.4318 266.858 11.1305 271.699 -12.5124C280.127 -53.7114 268.238 -98.4938 247.899 -134.471C226.479 -172.377 191.541 -205.899 147.239 -213.338C117.594 -218.316 88.0032 -210.386 60.5259 -199.654C33.4035 -189.063 6.22169 -177.004 -19.5015 -163.318C-56.7154 -143.51 -97.5187 -110.271 -97.2391 -63.9645C-97.1283 -46.5892 -91.4142 -29.5239 -88.0453 -12.6145C-82.2207 16.6195 -80.3296 46.6203 -82.028 76.371C-83.3523 99.4898 -87.4027 122.141 -93.0561 144.561C-96.3933 157.788 -101.069 171.616 -100.529 185.423C-99.225 218.5 -61.022 234.356 -33.4352 239.799C5.64424 247.511 52.0167 243.287 85.9147 220.963C93.4347 216.011 100.163 210.003 105.722 202.9C106.363 202.085 105.087 201.092 104.439 201.914Z" fill="#BB86FC"/>
</svg>
