<svg width="389" height="413" viewBox="0 0 389 413" fill="none" xmlns="http://www.w3.org/2000/svg">
<path d="M487.588 308.654C454.636 312.132 421.029 300.8 396.991 277.915C383.894 265.446 375.318 249.768 366.576 234.147C357.473 217.907 347.659 200.505 331.103 190.812C313.659 180.599 293.23 182.705 273.957 184.182C257.094 185.479 240.702 185.431 224.448 180.256C194.642 170.781 170.259 148.537 153.577 122.572C134.529 92.9351 125.9 56.7346 119.44 22.4818C116.193 5.26602 114.334 -12.1888 114.275 -29.7134C114.224 -46.6534 113.875 -65.5692 121.26 -81.1235C128.417 -96.1871 140.46 -108.837 154.644 -117.511C171.644 -127.912 191.504 -130.774 210.844 -133.787C232.665 -137.185 253.659 -141.666 272.404 -154.002C290.951 -166.207 305.666 -183.454 317.625 -201.98C358.629 -265.562 367.947 -351.82 434.925 -396.545C490.532 -433.682 565.874 -432.063 625.181 -404.786C695.159 -372.609 741.341 -304.11 766.273 -233.382C778.811 -197.805 787.778 -159.895 790.029 -122.153C792.017 -88.8192 787.745 -53.0145 767.177 -25.5536C744.758 4.37904 708.067 16.9839 675.353 31.9928C657.293 40.2731 639.209 49.6062 624.851 63.6041C611.696 76.4186 603.221 92.5583 598.472 110.202C589.868 142.216 592.09 175.908 586.534 208.423C580.814 241.945 564.731 271.448 535.966 290.604C521.423 300.29 504.913 306.43 487.588 308.654C486.382 308.808 485.964 306.943 487.19 306.789C525.998 301.804 560.952 275.991 575.977 239.644C588.197 210.094 587.656 177.315 590.642 145.997C593.416 116.939 599.713 87.594 620.235 65.5871C644.904 39.1407 681.22 28.3307 712.864 12.944C730.104 4.55903 747.067 -5.41999 760 -19.8176C771.576 -32.7059 779.285 -48.4288 783.615 -65.138C792.509 -99.4526 788.356 -136.032 781.514 -170.302C765.905 -248.361 730.628 -326.936 666.688 -377.072C613.78 -418.548 539.918 -434.876 475.299 -413.878C441.294 -402.834 413.117 -381.048 393.023 -351.555C371.087 -319.349 358.774 -281.975 343.216 -246.559C328.205 -212.359 308.564 -177.584 277.658 -155.324C263.227 -144.931 247.09 -138.621 229.738 -135.087C209.196 -130.909 187.54 -130.013 167.919 -122.091C150.979 -115.246 136.089 -102.671 126.605 -87.0387C116.208 -69.9114 116.12 -49.1492 116.178 -29.621C116.298 6.5469 124.728 41.6824 134.841 76.2002C144.309 108.529 162.505 138.549 189.334 159.376C202.179 169.354 217.007 176.909 232.884 180.601C250.013 184.586 267.124 182.651 284.445 181.48C299.994 180.433 316.06 180.571 330.154 188.094C344.493 195.746 354.238 209.306 362.37 222.975C371.503 238.326 379.094 254.868 390.763 268.559C402.669 282.539 418.223 293.291 435.337 299.896C451.858 306.268 469.575 308.642 487.186 306.781C488.396 306.654 488.806 308.522 487.588 308.654Z" fill="#BB86FC"/>
<path d="M486.595 291.014C454.899 294.341 422.49 283.291 399.63 260.974C374.946 236.863 367.816 195.093 336.238 178.133C319.561 169.171 300.192 171.562 282.091 172.912C266.863 174.048 252.012 173.829 237.314 169.27C208.777 160.423 185.408 139.243 169.434 114.472C151.202 86.1997 142.935 51.549 136.805 18.8427C133.862 3.1777 132.132 -12.7043 131.968 -28.6525C131.805 -45.0529 131.345 -63.7838 138.409 -78.8967C145.351 -93.7505 157.342 -106.236 171.415 -114.519C187.327 -123.894 205.764 -126.527 223.716 -129.321C244.708 -132.594 264.982 -137.005 282.917 -149.01C300.388 -160.716 314.239 -177.111 325.506 -194.7C364.028 -254.853 373.034 -336.148 436.066 -378.58C489.049 -414.247 561.056 -412.716 617.645 -386.571C683.587 -356.1 727.226 -291.632 750.951 -224.971C763.092 -190.858 771.736 -154.478 773.903 -118.263C775.831 -85.9891 771.548 -51.2679 751.097 -25.0171C729.327 2.92954 694.388 14.5961 663.395 28.9478C646.276 36.8671 629.206 45.9005 615.8 59.4243C603.995 71.3415 596.359 86.2018 592.008 102.303C583.648 133.219 585.955 165.787 580.371 197.168C574.786 228.568 559.341 256.12 532.369 274.002C518.582 283.138 502.986 288.902 486.595 291.014C485.389 291.169 484.983 289.308 486.197 289.149C522.356 284.489 555.108 260.81 569.737 227.201C581.922 199.23 581.547 167.888 584.278 138.047C586.799 110.563 592.345 82.6483 611.281 61.4447C634.05 35.9544 668.379 25.4197 698.312 11.1267C714.413 3.44085 730.226 -5.5192 742.784 -18.3871C754.851 -30.7448 762.911 -46.2468 767.395 -62.8492C776.337 -95.9522 772.264 -131.433 765.602 -164.561C750.768 -238.249 717.434 -312.472 657.159 -359.934C606.706 -399.669 536.131 -415.395 474.417 -395.1C442.249 -384.527 415.608 -363.813 396.645 -335.85C375.919 -305.284 364.244 -269.898 349.492 -236.334C335.68 -204.897 317.823 -173.06 290.086 -151.826C276.062 -141.084 260.161 -134.337 242.932 -130.72C224.295 -126.804 204.929 -125.809 186.838 -119.556C168.798 -113.318 152.834 -100.392 143.187 -83.8991C133.913 -68.032 133.853 -48.8256 133.864 -30.8832C133.884 3.61784 141.92 37.1221 151.541 70.0491C160.587 100.977 178.056 129.842 203.891 149.585C216.28 159.044 230.501 166.187 245.773 169.545C261.655 173.038 277.481 171.219 293.506 170.141C308.031 169.164 322.98 169.214 336.253 176.005C349.66 182.864 358.905 195.102 366.57 207.699C375.653 222.613 382.888 238.83 394.183 252.292C405.367 265.616 420.014 275.907 436.169 282.292C452.077 288.579 469.193 290.931 486.197 289.149C487.407 289.022 487.825 290.887 486.595 291.014Z" fill="#BB86FC"/>
<path d="M485.611 273.371C456.452 276.422 426.885 266.706 405.255 246.853C393.177 235.78 385.244 221.702 377.334 207.553C369.036 192.713 360.268 176.741 345.289 167.664C329.484 158.093 310.748 160.076 293.181 161.415C278.58 162.529 264.313 162.548 250.182 158.284C223.254 150.173 201.114 130.437 185.87 107.261C168.419 80.7227 160.56 48.2762 154.587 17.4424C151.639 2.20237 149.86 -13.2423 149.659 -28.769C149.455 -44.5295 148.958 -62.6323 155.797 -77.1571C161.698 -89.6839 171.338 -100.36 182.753 -108.109C197.66 -118.228 215.117 -121.502 232.605 -124.243C251.704 -127.23 270.544 -130.298 287.472 -140.249C304.876 -150.477 318.814 -165.7 330.034 -182.302C368.511 -239.211 376.106 -317.889 435.665 -359.54C485.113 -394.11 553.027 -393.655 606.844 -369.824C670.225 -341.754 712.416 -280.757 735.373 -217.282C747.197 -184.594 755.565 -149.692 757.745 -114.927C759.627 -84.9364 755.894 -52.7688 737.629 -27.9072C717.561 -0.597975 684.233 10.8613 654.616 24.4401C638.12 32.0071 621.583 40.5375 608.573 53.4433C597.146 64.7819 589.742 78.9722 585.536 94.4088C577.607 123.56 579.761 154.283 574.571 183.888C569.359 213.583 555.03 239.711 529.637 256.813C516.419 265.722 501.41 271.33 485.611 273.371C484.401 273.537 483.991 271.668 485.213 271.506C520.165 266.98 551.602 243.777 565.099 210.992C576.003 184.471 575.532 155.083 578.212 126.996C580.66 101.229 586.162 75.2134 604.027 55.4486C625.934 31.2108 658.842 21.3443 687.415 7.55107C718.043 -7.23959 742.41 -28.08 751.536 -61.9264C760.049 -93.5106 756.085 -127.38 749.661 -158.951C735.395 -229.066 703.45 -299.552 645.715 -344.316C597.609 -381.606 530.312 -395.823 472.094 -375.848C440.642 -365.049 415.356 -343.898 397.534 -315.987C378.954 -286.907 368.292 -253.845 354.189 -222.571C340.591 -192.403 322.679 -161.903 294.888 -142.742C281.735 -133.67 267.133 -128.45 251.536 -125.434C233.248 -121.906 213.948 -120.974 196.634 -113.563C181.222 -106.971 167.621 -95.0347 159.531 -80.2923C151.259 -65.2198 151.419 -46.6677 151.554 -29.8303C151.806 2.99896 159.572 35.1507 168.993 66.424C177.602 94.977 194.474 121.707 218.46 139.778C230.09 148.551 243.399 155.146 257.665 158.25C273.332 161.668 288.909 159.596 304.697 158.65C318.258 157.84 332.169 158.29 344.375 164.937C356.853 171.728 365.421 183.493 372.589 195.435C381.111 209.629 388.061 225.012 398.97 237.634C409.465 249.783 423.054 259.189 437.974 265.067C453.011 270.981 469.158 273.188 485.213 271.506C486.415 271.382 486.833 273.247 485.611 273.371Z" fill="#BB86FC"/>
<path d="M484.622 255.739C456.744 258.627 428.331 249.225 407.898 229.939C385.488 208.792 379.267 172.539 352.374 156.094C337.067 146.726 319.008 148.82 301.977 150.096C288.08 151.13 274.501 150.939 261.106 146.695C235.954 138.733 215.347 120.077 201.152 98.2619C184.75 73.0452 177.339 42.1823 171.788 12.956C169.059 -1.40637 167.45 -15.957 167.325 -30.5805C167.197 -45.1727 166.798 -61.7061 173.071 -75.1622C179.084 -88.0609 189.325 -98.9608 201.407 -106.388C215.544 -115.097 231.967 -117.677 248.11 -120.191C266.567 -123.07 284.519 -126.582 300.524 -136.78C316.923 -147.242 329.845 -162.341 340.279 -178.584C375.086 -232.745 383.064 -306.123 440.314 -343.956C487.791 -375.323 551.934 -373.697 602.299 -350.255C661.701 -322.605 700.779 -264.165 721.808 -203.951C732.384 -173.669 739.964 -141.421 741.722 -109.324C743.277 -80.9111 739.37 -50.4599 721.513 -27.2922C701.999 -1.97923 670.442 8.52191 642.507 21.4636C627.073 28.6172 611.669 36.8149 599.688 49.1284C589.05 60.0771 582.343 73.7385 578.571 88.4202C571.587 115.647 573.479 144.179 568.57 171.734C563.596 199.656 549.937 224.179 526.033 240.214C513.582 248.559 499.476 253.806 484.622 255.739C483.408 255.898 483.003 254.037 484.224 253.874C516.9 249.616 546.344 228.135 559.262 197.604C569.864 172.545 569.436 144.637 571.938 118.008C574.189 94.13 579.05 69.8702 595.19 51.2265C615.058 28.2627 645.447 18.6132 672.086 6.08837C701.407 -7.70047 725.747 -26.6616 735.092 -58.9131C743.592 -88.2324 740.266 -119.889 734.508 -149.381C721.57 -215.688 692.05 -282.523 638.214 -325.579C593.381 -361.445 530.563 -375.923 475.227 -358.397C445.637 -349.025 421.175 -330.128 403.873 -304.431C385.535 -277.175 375.153 -245.711 362.015 -215.851C349.484 -187.356 333.205 -158.458 307.8 -139.505C295.703 -130.479 282.072 -124.733 267.353 -121.593C250.482 -117.985 232.922 -117.122 216.514 -111.467C200.882 -106.076 187.123 -95.0494 178.391 -81.0146C169.457 -66.6495 169.244 -49.3079 169.221 -32.8502C169.172 -1.45482 176.5 29.039 185.328 58.9803C193.404 86.3757 209.254 111.987 232.208 129.356C243.271 137.735 255.952 144.028 269.557 146.975C284.222 150.147 298.85 148.213 313.633 147.318C326.583 146.54 339.846 146.953 351.476 153.359C362.847 159.625 370.782 170.285 377.404 181.174C385.393 194.32 391.792 208.604 401.669 220.525C411.537 232.43 424.5 241.669 438.814 247.458C453.218 253.289 468.777 255.477 484.224 253.874C485.434 253.747 485.844 255.616 484.622 255.739Z" fill="#BB86FC"/>
<path d="M483.63 238.1C457.934 240.749 431.919 232.371 412.707 215.023C401.881 205.245 394.749 192.863 387.705 180.268C380.007 166.51 371.912 151.437 357.67 143.46C343.79 135.688 327.601 137.489 312.404 138.648C299.337 139.634 286.602 139.575 273.973 135.71C250.442 128.507 231.045 111.256 217.591 91.0391C201.78 67.2831 194.71 38.138 189.366 10.4445C186.746 -3.12045 185.18 -16.8687 185.013 -30.6847C184.85 -44.4345 184.435 -60.223 190.224 -72.9469C195.697 -84.9566 205.119 -95.088 216.181 -102.172C229.27 -110.554 244.586 -113.168 259.69 -115.526C277.081 -118.246 294.07 -121.287 309.3 -130.671C324.429 -140.002 336.488 -153.642 346.236 -168.332C380.195 -219.49 387.125 -289.703 441.455 -325.991C485.635 -355.5 545.545 -354.388 592.789 -332.949C649.222 -307.333 686.395 -252.412 706.493 -195.544C716.623 -166.916 723.819 -136.373 725.571 -105.991C727.069 -79.8851 723.745 -51.9062 708.017 -30.1775C690.457 -5.90722 661.217 4.44236 634.997 16.3762C620.723 22.8692 606.419 30.0837 594.836 40.8555C583.686 51.2349 576.474 64.4323 572.498 79.043C565.414 105.075 567.379 132.518 562.684 158.951C558.052 184.977 545.464 207.875 523.324 223.014C511.42 231.144 497.9 236.234 483.63 238.1C482.428 238.262 482.018 236.394 483.231 236.235C514.319 232.153 542.311 211.563 554.223 182.309C563.939 158.437 563.397 132.071 565.885 106.833C568.139 83.9455 573.291 60.9092 589.411 43.5717C608.72 22.803 637.083 14.0569 661.985 2.13884C689.55 -11.0429 711.655 -29.6199 719.822 -60.0919C727.11 -87.2998 723.95 -116.402 718.6 -143.651C706.337 -206.027 678.451 -268.859 627.68 -309.244C585.446 -342.826 526.283 -356.295 474.334 -339.622C446.593 -330.718 423.658 -312.889 407.488 -288.721C390.109 -262.738 380.355 -232.788 367.752 -204.413C355.926 -177.797 340.528 -150.927 316.647 -133.353C305.226 -124.954 292.382 -119.733 278.568 -116.818C262.889 -113.504 246.596 -112.68 231.36 -107.416C216.336 -102.233 203.13 -91.5228 194.965 -77.8903C186.777 -64.2067 186.807 -47.3054 186.899 -31.7615C187.095 -2.48638 193.975 26.2171 202.402 54.0985C210.12 79.6282 225.222 103.496 246.769 119.554C257.069 127.239 268.841 132.992 281.453 135.688C295.163 138.609 308.83 136.83 322.648 135.984C334.615 135.244 346.841 135.588 357.665 141.312C368.773 147.184 376.433 157.427 382.823 167.945C390.356 180.345 396.393 193.816 405.729 205.036C415.013 216.174 427.187 224.821 440.622 230.241C454.156 235.699 468.73 237.73 483.231 236.235C484.442 236.108 484.852 237.977 483.63 238.1Z" fill="#BB86FC"/>
<path d="M482.641 220.468C458.561 222.917 434.202 215.123 416.169 198.873C395.216 179.984 389.839 146.23 364.771 131.881C351.478 124.276 335.794 126.237 321.216 127.321C308.842 128.242 296.785 127.978 284.893 124.113C263.138 117.04 245.282 100.924 232.865 82.0439C218.255 59.8252 211.682 32.6217 206.727 6.79734C204.268 -5.98648 202.819 -18.9413 202.691 -31.9627C202.56 -44.8748 202.192 -59.6077 207.756 -71.5175C212.779 -82.2731 221.102 -91.3824 230.952 -97.9262C243.392 -106.197 257.994 -108.785 272.503 -111.06C289.249 -113.68 305.69 -116.584 320.211 -125.915C334.551 -135.122 345.882 -148.236 355.055 -162.461C386.09 -210.57 393.042 -275.934 444.353 -309.183C485.828 -336.052 541.429 -334.766 585.372 -314.678C637.67 -290.765 672.358 -239.896 691.183 -187.129C700.878 -159.965 707.786 -130.961 709.449 -102.094C710.884 -77.0358 707.542 -50.2065 691.977 -29.6419C675.055 -7.28338 647.421 2.09496 622.892 13.3876C609.35 19.628 595.782 26.6874 585.1 37.3054C575.405 46.9302 569.255 58.9968 565.779 72.111C559.322 96.4726 561.17 122.102 556.678 146.789C552.258 171.065 540.363 192.327 519.708 206.412C508.591 213.996 495.954 218.706 482.641 220.468C481.435 220.623 481.029 218.762 482.251 218.599C511.518 214.736 537.502 195.442 548.786 167.987C557.737 146.2 557.344 121.956 559.517 98.8748C561.529 77.5265 565.918 55.8386 580.569 39.3221C597.858 19.827 623.719 11.3483 646.667 0.660071C673.188 -11.6953 695.28 -28.518 703.586 -57.7953C710.84 -83.3656 707.944 -110.955 702.941 -136.646C691.635 -194.698 665.972 -253.264 619.146 -291.307C579.77 -323.298 524.492 -336.583 475.455 -321.49C449.101 -313.374 427.266 -296.813 411.8 -274.051C395.651 -250.258 386.489 -222.707 375.054 -196.548C364.021 -171.315 349.821 -145.695 327.51 -128.709C317.25 -120.893 305.657 -115.664 293.106 -112.775C277.68 -109.219 261.583 -108.605 246.528 -103.445C232.698 -98.7046 220.469 -89.1588 212.726 -76.6981C204.66 -63.7064 204.53 -47.9291 204.581 -33.0317C204.676 -5.80547 211.079 20.6911 218.74 46.6621C225.926 71.0538 240.025 93.7245 260.506 109.127C269.948 116.237 280.79 121.579 292.347 124.174C305.399 127.113 318.413 125.456 331.588 124.64C342.519 123.966 353.776 124.183 363.779 129.195C374.273 134.452 381.587 143.893 387.631 153.669C394.837 165.325 400.457 178.07 409.169 188.749C417.96 199.524 429.599 207.86 442.493 213.031C455.136 218.096 468.702 219.983 482.251 218.599C483.453 218.476 483.871 220.341 482.641 220.468Z" fill="#BB86FC"/>
<path d="M481.656 202.825C459.428 205.079 436.948 198.028 420.156 183.186C400.472 165.779 395.493 134.911 372.827 120.897C360.198 113.095 345.237 114.858 331.153 115.911C319.799 116.755 308.711 116.577 297.76 113.128C276.933 106.574 259.874 91.1242 248.144 73.0568C234.538 52.0938 228.4 26.3144 223.87 2.02733C221.696 -9.59916 220.444 -21.3992 220.361 -33.2363C220.273 -45.3656 219.984 -58.9614 225.291 -70.0994C236.583 -93.8278 259.752 -102.539 284.111 -106.4C299.663 -108.862 314.957 -111.289 328.651 -119.601C342.164 -127.81 352.874 -139.944 361.535 -153.019C390.921 -197.397 397.045 -258.208 443.735 -290.05C482.407 -316.417 535.072 -315.7 576.733 -296.961C625.576 -274.977 658.113 -227.783 675.865 -178.711C685.103 -153.184 691.63 -125.918 693.291 -98.7577C694.696 -75.6674 691.804 -50.8679 677.824 -31.6757C662.45 -10.5526 637.002 -1.5421 614.132 8.87991C601.205 14.772 588.167 21.3206 577.881 31.3207C568.329 40.6159 562.33 52.3489 559.057 65.1717C553.267 87.8316 554.936 111.6 550.695 134.518C546.522 157.075 535.317 176.772 516.096 189.817C505.758 196.84 494.02 201.182 481.656 202.825C480.446 202.991 480.037 201.122 481.258 200.96C508.159 197.381 532.345 179.806 542.949 154.599C551.656 133.891 551.253 110.84 553.349 88.8594C555.168 69.7515 559.055 50.1994 571.755 35.1075C587.857 15.9732 612.69 7.8412 634.651 -2.38401C659.379 -13.8979 680.003 -29.5955 687.723 -56.88C694.639 -81.3226 691.677 -107.66 686.781 -132.179C675.97 -186.267 651.655 -240.721 607.618 -275.773C570.465 -305.353 518.179 -317.186 472.549 -302.074C448.461 -294.093 428.699 -278.42 414.72 -257.294C399.499 -234.287 391.019 -207.806 379.773 -182.815C369.556 -160.116 356.27 -137.259 335.902 -122.204C326.414 -115.19 315.759 -110.576 304.283 -107.98C290.803 -104.933 276.843 -104.19 263.584 -100.148C249.937 -95.9841 237.886 -87.0218 230.172 -74.9786C222.619 -63.1756 222.33 -49.1033 222.265 -35.4905C222.132 -9.95259 227.944 14.8572 235.071 39.2302C241.849 62.4196 254.728 84.0249 274.242 98.7016C283.156 105.398 293.323 110.461 304.231 112.902C316.688 115.679 329.101 113.942 341.673 113.232C352.033 112.648 362.564 113.114 371.886 118.155C381.121 123.143 387.629 131.637 393.046 140.413C399.965 151.649 405.356 163.952 413.932 174.103C422.039 183.711 432.636 191.154 444.298 195.806C456.062 200.502 468.663 202.232 481.258 200.96C482.461 200.837 482.878 202.702 481.656 202.825Z" fill="#BB86FC"/>
<path d="M480.668 185.194C460.028 187.252 439.248 180.772 423.634 167.027C405.199 150.799 400.549 121.341 378.968 108.737C367.529 102.056 354.204 103.51 341.581 104.462C331.076 105.259 320.796 105.221 310.627 102.142C291.409 96.3246 275.588 82.3138 264.591 65.8297C251.76 46.6054 246.025 23.0613 241.655 0.635083C239.545 -10.1893 238.262 -21.1587 238.062 -32.1793C237.864 -43.3286 237.404 -56.3839 241.95 -66.7738C251.667 -88.9974 272.998 -98.0516 295.525 -101.698C310.045 -104.047 324.489 -105.974 337.419 -113.526C350.021 -120.879 360.085 -131.894 368.197 -143.888C396.091 -185.105 401.528 -242.035 444.877 -272.066C480.479 -296.723 529.245 -296.349 567.919 -279.319C613.941 -259.043 644.528 -214.755 661.12 -168.695C669.555 -145.284 675.533 -120.306 677.133 -95.4212C678.494 -74.2714 676.05 -51.5407 663.652 -33.6896C649.633 -13.495 625.75 -4.85482 604.261 4.87998C579.978 15.8883 559.536 30.2149 552.589 57.2657C547.148 78.4587 548.778 100.696 544.733 122.117C540.781 143.019 530.287 161.267 512.399 173.267C502.832 179.694 492.066 183.659 480.668 185.194C479.462 185.348 479.048 183.491 480.27 183.328C505.692 179.908 528.153 163.228 537.899 139.34C545.683 120.26 545.218 99.0184 547.181 78.8441C548.904 61.0824 552.642 43.0801 564.47 29.1082C579.382 11.5042 602.389 4.01531 622.639 -5.42032C645.559 -16.1043 664.742 -30.6615 671.875 -55.9727C678.216 -78.4771 675.578 -102.695 671.105 -125.283C661 -176.193 638.041 -227.6 596.185 -260.15C560.907 -287.572 510.939 -298.005 468.48 -282.172C446.489 -273.973 429.067 -258.748 416.655 -238.956C403.417 -217.841 395.795 -193.946 385.502 -171.394C375.998 -150.596 363.598 -129.701 344.757 -116.057C336.149 -109.824 326.54 -105.712 316.21 -103.348C302.252 -100.161 287.437 -99.8577 273.993 -94.6011C262.836 -90.2362 253.006 -82.1023 246.746 -71.8739C239.783 -60.4851 239.805 -46.2499 239.952 -33.2483C240.208 -10.1603 245.646 12.3202 252.146 34.3482C258.436 55.6699 270.755 75.5918 288.815 88.9026C297.238 95.1071 306.849 99.723 317.121 101.826C328.276 104.119 339.443 102.538 350.668 101.898C359.984 101.365 369.539 101.71 378.02 106.038C386.638 110.443 392.783 118.124 397.842 126.172C404.254 136.355 409.153 147.52 416.666 156.985C424.123 166.381 434.116 173.568 445.146 178.193C456.243 182.853 468.317 184.513 480.266 183.321C481.48 183.201 481.89 185.07 480.668 185.194Z" fill="#BB86FC"/>
<path d="M479.675 167.554C460.681 169.417 441.505 163.548 427.099 150.884C410.083 135.933 405.771 108.98 386.061 97.1632C374.844 90.4352 361.631 92.3712 349.252 93.2266C339.454 93.8914 329.944 93.4255 320.592 90.2168C303.238 84.2666 289.084 71.1975 279.287 55.9468C267.861 38.1632 262.668 16.4198 258.802 -4.12738C256.913 -14.1833 255.805 -24.3796 255.719 -34.6145C255.638 -44.7442 255.36 -56.2938 259.617 -65.6697C268.956 -86.2739 288.918 -94.1265 309.862 -97.4721C323.248 -99.6056 336.522 -101.574 348.331 -108.731C360.164 -115.901 369.493 -126.495 377.009 -137.974C402.047 -176.237 407.453 -228.458 447.983 -255.425C481.454 -277.7 526.756 -276.677 562.384 -260.199C604.171 -240.877 631.765 -199.974 646.721 -157.709C654.401 -136.019 659.877 -112.861 661.114 -89.83C662.163 -70.2465 659.526 -49.2513 647.575 -33.0558C634.168 -14.8778 612.037 -7.21497 592.284 1.83513C570.054 12.0332 552.006 25.5795 545.886 50.3259C541.133 69.5518 542.513 89.6605 538.885 109.068C535.243 128.543 525.491 145.532 508.802 156.664C499.999 162.538 490.14 166.131 479.675 167.554C478.473 167.716 478.06 165.859 479.277 165.689C502.77 162.504 523.476 147.117 532.45 125.014C539.519 107.621 539.159 88.2489 540.907 69.8553C542.492 53.2845 545.892 36.4099 556.974 23.3847C570.152 7.88812 590.165 0.872805 608.129 -7.3086C628.99 -16.8157 647.573 -29.2163 655.065 -51.964C661.806 -72.4279 659.802 -94.8934 655.921 -115.717C647.144 -162.818 626.621 -210.551 588.669 -241.405C556.837 -267.296 511.863 -277.905 472.362 -265.04C451.441 -258.221 434.352 -244.662 422.27 -226.336C409.455 -206.904 402.261 -184.586 392.808 -163.481C384.268 -144.401 373.321 -125.231 356.591 -112.153C348.677 -105.965 339.722 -101.614 329.986 -99.1644C318.312 -96.2302 306.138 -95.7364 294.553 -92.4059C282.664 -88.9773 272.175 -81.925 265.164 -71.6114C258.108 -61.2346 257.694 -49.0121 257.619 -36.8374C257.489 -15.0417 262.424 6.12874 268.489 26.9393C274.269 46.7679 285.124 65.1914 301.728 77.8535C309.495 83.7794 318.442 88.2493 328.015 90.332C338.144 92.5389 348.268 91.2728 358.479 90.6291C367.179 90.082 376.075 90.1595 384.104 93.9766C392.128 97.7859 397.91 104.615 402.646 111.946C408.735 121.355 413.21 131.797 420.106 140.679C426.664 149.137 435.331 155.755 445.067 160.139C455.84 164.987 467.534 166.843 479.277 165.689C480.492 165.57 480.902 167.438 479.675 167.554Z" fill="#BB86FC"/>
<path d="M478.694 149.919C461.514 151.587 444.266 146.426 431.086 135.178C415.225 121.64 411.321 97.9904 394.06 86.1996C384.037 79.3524 371.731 80.9162 360.334 81.7336C351.537 82.36 342.901 82.2162 334.418 79.5676C318.264 74.5272 304.946 62.654 295.718 48.7279C285.082 32.675 280.296 13.1356 276.594 -5.54298C274.764 -14.7851 273.611 -24.1621 273.423 -33.5886C273.226 -43.1475 272.851 -54.411 276.74 -63.3216C284.629 -81.3859 301.878 -89.4709 320.288 -92.611C332.547 -94.7003 344.865 -95.9758 355.977 -102.055C367.414 -108.303 376.46 -118.101 383.67 -128.823C407.073 -163.616 411.732 -211.542 448.248 -236.859C478.523 -257.838 520.018 -257.511 552.859 -242.885C591.614 -225.623 617.364 -188.291 631.366 -149.419C643.331 -116.176 655.472 -68.0219 633.993 -35.9555C610.132 -0.306325 552.962 -5.90326 540.055 39.9782C534.984 58.0044 536.447 77.0789 533.162 95.4058C529.945 113.334 521.307 129.028 506.066 139.468C497.824 145.119 488.563 148.559 478.694 149.919C477.485 150.085 477.075 148.216 478.292 148.046C500.563 144.985 520.048 130.064 527.748 108.74C533.635 92.4011 533.117 74.6924 534.967 57.6499C536.632 42.2552 540.481 26.9837 551.445 15.4532C564.344 1.87861 582.926 -4.10965 599.442 -11.8835C618.502 -20.8687 634.218 -33.1757 640.165 -54.1501C645.645 -73.5077 643.212 -94.3959 639.277 -113.808C630.717 -156.063 611.613 -198.562 577.137 -225.879C547.772 -249.152 506.34 -258.289 470.464 -245.93C450.938 -239.207 435.462 -225.984 424.566 -208.549C413.29 -190.504 406.863 -170.095 397.994 -150.874C390.102 -133.761 379.853 -116.632 364.463 -105.23C347.38 -92.587 327.501 -93.8297 308.036 -87.9725C297.682 -84.8592 288.509 -78.4307 282.343 -69.4784C275.495 -59.5336 275.235 -47.4692 275.3 -35.78C275.394 -16.4668 279.811 2.34141 285.201 20.792C291.236 41.4705 303.376 60.8571 322.257 72.0429C331.055 77.2479 340.909 80.1372 351.151 80.2336C361.837 80.3351 372.65 77.7295 383.28 79.8042C402.283 83.504 409.67 101.999 418.588 116.861C431.228 137.913 453.486 150.459 478.292 148.046C479.499 147.93 479.917 149.795 478.694 149.919Z" fill="#BB86FC"/>
<path d="M477.702 132.279C461.766 133.792 445.809 128.944 433.734 118.311C419.736 105.996 416.169 84.0566 400.228 74.0157C391.26 68.369 380.792 69.5584 370.769 70.2811C362.074 70.9139 353.684 70.7898 345.355 67.9635C331.309 63.2034 319.729 52.805 311.583 40.6246C301.563 25.6461 297.062 7.20559 293.737 -10.2936C292.337 -17.6477 291.415 -25.1025 291.155 -32.5867C290.841 -41.5942 290.333 -52.3764 293.792 -60.8478C300.11 -76.3004 314.655 -84.5827 330.341 -87.6354C341.551 -89.8181 353.076 -90.4464 363.537 -95.4519C375.005 -100.94 383.993 -110.356 391.049 -120.752C412.599 -152.511 416.705 -196.449 450.27 -219.489C477.264 -238.01 513.89 -237.984 543.334 -225.533C579.063 -210.432 602.973 -176.534 616 -141.112C627.145 -110.793 638.448 -66.8086 619.267 -37.2401C607.859 -19.6572 587.18 -13.1309 569.174 -4.61364C557.945 0.691739 546.855 7.17225 539.915 17.8123C534.093 26.7439 531.888 37.3132 530.711 47.7423C528.708 65.4927 529.645 84.4074 521.659 100.883C513.336 118.053 496.444 129.664 477.702 132.279C476.492 132.446 476.086 130.585 477.304 130.414C497.263 127.629 514.826 114.453 521.935 95.3786C527.489 80.4792 527.04 64.2663 528.69 48.673C530.129 35.1527 533.33 21.6216 542.592 11.2002C554.054 -1.69808 571.121 -7.33237 586.323 -14.4044C604.231 -22.7526 619.147 -34.0654 624.498 -53.9355C629.255 -71.5633 626.981 -90.4425 623.362 -108.054C615.412 -146.787 597.632 -185.731 565.593 -210.317C538.507 -231.11 500.208 -238.789 467.854 -226.511C429.9 -212.102 419.738 -174.045 404.236 -140.603C396.986 -124.961 387.517 -109.317 373.302 -99.0748C357.336 -87.571 338.576 -89.3449 320.76 -83.2044C311.682 -80.075 303.676 -73.9876 298.532 -65.8301C292.934 -56.9759 292.887 -46.0725 292.988 -35.904C293.16 -17.8783 297.317 -0.0056406 302.633 17.1286C308.121 34.8215 319.056 51.3572 335.125 61.0765C343.983 66.4365 353.821 69.0298 364.163 68.77C372.961 68.545 381.884 66.7238 390.647 68.343C407.873 71.512 414.738 87.9409 422.763 101.46C434.319 120.914 454.385 132.585 477.304 130.414C478.511 130.299 478.928 132.164 477.702 132.279Z" fill="#BB86FC"/>
<path d="M476.709 114.64C462.614 115.954 448.555 111.829 437.705 102.593C424.786 91.5836 421.627 71.6223 407.289 62.4384C392.912 53.2356 374.003 62.1133 358.206 56.9857C345.44 52.8379 334.881 43.5002 327.443 32.5136C318.455 19.2388 314.455 3.01264 311.366 -12.5177C308.583 -26.5479 305.641 -46.0915 311.387 -59.6177C317.785 -74.6505 332.151 -81.2891 347.354 -83.8941C356.529 -85.4734 365.785 -86.4264 374.291 -90.5061C384.594 -95.439 392.705 -104.144 398.977 -113.515C417.957 -141.88 421.855 -180.75 451.419 -201.509C476.038 -218.798 509.922 -218.645 536.803 -206.877C568.769 -192.897 590.051 -162.21 601.556 -130.251C611.276 -103.266 621.008 -64.712 604.414 -38.3707C594.316 -22.351 575.742 -16.3473 559.473 -8.70187C549.796 -4.15251 540.12 1.28947 533.751 10.1513C527.939 18.233 525.7 28.0348 524.547 37.7542C522.691 53.4052 523.558 69.951 517.074 84.685C509.873 101.047 494.244 112.141 476.709 114.64C475.504 114.814 475.098 112.953 476.311 112.775C494.815 110.136 510.554 97.8368 516.83 80.1084C521.629 66.534 520.967 51.7665 522.639 37.6541C524.038 25.8924 527.136 14.3002 535.238 5.29553C545.449 -6.04046 560.572 -11.0688 574.036 -17.3275C589.873 -24.6702 603.275 -34.5103 608.343 -51.9751C612.839 -67.4745 611.03 -84.2089 607.963 -99.7902C601.028 -135.034 585.125 -170.74 556.077 -193.195C531.441 -212.235 496.421 -219.309 466.997 -207.705C433.36 -194.437 424.472 -160.321 410.561 -130.512C404.185 -116.855 395.957 -103.249 383.714 -94.0694C370.534 -84.1976 355.465 -84.4401 340.185 -80.5282C330.889 -78.1401 322.727 -73.3756 316.978 -65.5132C311.004 -57.3472 310.644 -47.4994 310.658 -37.7272C310.675 -21.1921 314.432 -4.75187 319.337 10.9657C324.414 27.2225 334.631 42.658 349.75 51.152C357.596 55.5642 366.132 57.5962 375.116 57.3138C382.683 57.0799 390.336 55.5934 397.886 56.8605C413.431 59.4777 419.773 73.8212 426.949 86.0628C437.393 103.865 455.303 114.73 476.311 112.775C477.522 112.667 477.936 114.524 476.709 114.64Z" fill="#BB86FC"/>
<path d="M475.729 97.0047C463.599 98.0942 451.602 94.8042 442.039 87.1394C429.552 77.1326 426.719 57.5914 412.64 49.8147C399.618 42.6186 383.149 50.4074 369.153 45.3659C357.823 41.2786 348.569 32.658 342.136 22.6427C334.545 10.8126 331.09 -3.64418 328.516 -17.2917C326.188 -29.6136 323.751 -46.631 329.009 -58.3919C334.715 -71.1808 346.961 -77.0627 360.047 -79.3943C369.474 -81.0749 378.883 -81.9211 387.366 -86.8034C395.904 -91.7138 402.525 -99.371 407.758 -107.584C424.246 -133.487 428.069 -168.451 456.047 -185.853C478.072 -199.548 507.156 -198.732 530.268 -188.229C558.491 -175.39 577.09 -147.867 587.116 -119.401C595.579 -95.368 604.112 -60.6979 588.392 -37.6869C579.062 -24.0292 562.707 -18.9707 548.479 -12.1783C539.554 -7.92081 530.78 -2.71058 525.329 5.82176C520.751 12.9885 519.08 21.4643 518.16 29.7964C516.675 43.3408 517.255 57.6301 511.641 70.3514C505.212 84.9285 491.334 94.7406 475.729 97.0047C474.515 97.1826 474.105 95.3138 475.331 95.1396C491.846 92.7372 505.937 81.7447 511.37 65.7986C515.313 54.2094 514.932 41.7219 516.253 29.6963C517.382 19.4588 519.751 9.20673 526.439 1.07298C534.663 -8.92747 547.221 -13.7148 558.694 -18.8523C573.501 -25.4936 587.044 -33.6986 592.187 -50.0341C596.385 -63.3851 595.063 -78.0063 592.538 -91.5415C586.885 -121.854 573.978 -152.428 550.251 -173.01C529.146 -191.319 498.857 -199.286 471.801 -190.914C439.569 -180.937 430.442 -150.271 417.868 -122.56C412.457 -110.621 405.629 -98.7431 395.466 -90.2105C384.279 -80.8128 371.578 -79.8395 357.821 -77.0418C349.124 -75.2785 341.476 -71.8704 335.599 -65.0312C329.426 -57.8524 328.493 -49.3174 328.361 -40.1863C328.133 -25.6745 331.291 -11.5835 335.31 2.27621C339.753 17.5953 348.505 32.0236 362.617 40.2051C369.388 44.1345 376.87 46.0458 384.687 45.8978C391.456 45.7733 398.311 44.3767 405.078 45.3826C418.728 47.4122 424.652 59.3802 430.887 70.2249C440.296 86.6002 455.929 96.8796 475.331 95.1396C476.534 95.0359 476.947 96.8929 475.729 97.0047Z" fill="#BB86FC"/>
<path d="M474.736 79.3651C463.887 80.2913 453.267 77.3471 444.786 70.3873C434.194 61.7048 431.708 45.0468 419.741 38.2365C408.269 31.6994 393.479 38.6757 381.06 34.0433C371.425 30.4413 363.515 23.0869 357.997 14.5314C351.221 4.04565 348.133 -8.79505 345.878 -20.9388C343.86 -31.7919 341.788 -46.5539 346.487 -56.8759C350.763 -66.2521 359.671 -71.9633 369.432 -74.2297C377.586 -76.1329 386.113 -76.2564 393.885 -79.6898C402.172 -83.3608 408.668 -90.0299 413.738 -97.4027C429.113 -119.734 431.823 -150.713 455.652 -166.895C474.772 -179.889 500.784 -179.638 521.458 -170.58C546.11 -159.777 562.588 -136.21 571.587 -111.58C579.191 -90.7537 586.671 -61.3107 574.678 -40.6163C567.131 -27.6088 552.571 -22.6864 539.677 -16.6934C531.663 -12.968 523.653 -8.51766 518.593 -1.01242C514.234 5.46105 512.72 13.1783 511.894 20.8035C510.616 32.5517 511.11 44.9907 506.207 56.0174C500.516 68.8178 488.439 77.3127 474.736 79.3651C473.527 79.5508 473.117 77.682 474.338 77.5C488.985 75.301 501.143 65.6354 505.894 51.4965C509.424 40.9854 508.841 29.5846 510.214 18.7198C511.292 10.2372 513.51 1.8701 519.07 -4.82401C526.142 -13.3338 536.831 -17.5046 546.643 -21.8884C559.305 -27.5348 571.174 -34.331 575.988 -48.1395C580.198 -60.181 578.929 -73.5829 576.617 -85.8739C571.456 -113.289 559.393 -141.081 537.127 -158.847C518.12 -174.023 490.816 -179.906 467.748 -171.04C441.315 -160.881 434.377 -134.228 423.48 -110.93C418.486 -100.249 412.037 -89.6476 402.418 -82.5264C392.938 -75.5164 382.215 -74.9508 371.074 -72.617C364.048 -71.1516 357.714 -68.3167 352.816 -62.9383C346.956 -56.5009 346.111 -48.6104 346.022 -40.2673C345.88 -27.8422 348.587 -15.7364 352.019 -3.85976C355.858 9.42578 363.293 22.0144 375.481 29.2502C381.309 32.7064 387.741 34.5048 394.523 34.4814C400.728 34.4627 406.926 33.1227 413.114 34.0555C424.127 35.7152 429.479 44.8579 434.501 53.7795C443.038 68.9282 456.127 79.0546 474.342 77.5078C475.541 77.3963 475.959 79.2611 474.736 79.3651Z" fill="#BB86FC"/>
<path d="M473.748 61.7338C464.797 62.46 456.025 60.2367 448.84 54.6958C439.643 47.5869 437.572 34.7193 428.455 27.9326C418.612 20.5994 405.089 27.0656 393.92 23.0811C385.87 20.2077 379.233 14.265 374.447 7.29276C368.446 -1.45437 365.761 -12.0792 363.674 -22.3466C361.727 -31.891 359.951 -44.3225 363.264 -53.7C366.125 -61.8116 373.908 -67.4202 381.928 -69.5982C387.923 -71.2158 394.224 -71.3529 400.189 -73.122C409.068 -75.7456 415.864 -81.8734 421.105 -89.3346C434.433 -108.287 436.624 -134.912 456.789 -148.919C473.34 -160.412 495.931 -160.301 513.926 -152.357C534.911 -143.097 548.951 -123.037 556.659 -102.048C563.169 -84.3162 569.507 -59.5143 559.759 -41.7223C553.688 -30.6392 541.815 -26.1584 530.916 -21.201C523.831 -17.9767 516.527 -14.3048 511.841 -7.81861C507.758 -2.15616 506.366 4.84988 505.638 11.6589C504.538 22.0675 504.936 33.0734 500.27 42.7205C495.204 53.2039 485.108 59.9736 473.748 61.7338C472.538 61.9195 472.132 60.0584 473.35 59.8687C486.028 57.9056 496.618 49.4758 500.458 37.0461C503.206 28.1488 502.803 18.667 503.965 9.51271C504.903 2.16262 506.876 -5.08599 511.792 -10.8272C517.738 -17.7609 526.46 -21.2747 534.587 -24.9122C545.813 -29.9213 556.385 -35.8483 560.484 -48.2546C563.713 -58.0401 562.744 -68.9166 560.942 -78.8803C556.805 -101.673 547.16 -124.729 529.36 -140.227C513.104 -154.376 489.351 -160.304 468.748 -152.894C445.706 -144.602 439.569 -121.968 430.273 -101.828C426.018 -92.6005 420.504 -83.3383 412.271 -77.1032C404.004 -70.8402 394.665 -70.5019 384.906 -68.3252C378.356 -66.8708 372.228 -63.9961 368.124 -58.4697C364.158 -53.1325 363.746 -46.7921 363.701 -40.3675C363.644 -29.6159 365.989 -19.0016 369.097 -8.75338C372.471 2.36791 378.919 12.8469 389.229 18.7893C400.034 25.0245 410.077 20.7464 421.415 22.7287C430.564 24.3344 435.055 31.9503 439.287 39.4258C446.698 52.4787 457.652 61.1401 473.35 59.8687C474.553 59.7649 474.97 61.6298 473.748 61.7338Z" fill="#BB86FC"/>
<path d="M472.51 44.1138C464.839 44.6767 457.337 42.6488 451.303 37.7183C443.201 31.0919 440.999 16.4761 430.266 13.5025C421.839 11.1688 413.35 14.9247 404.893 11.3986C398.284 8.6323 392.936 3.41481 389.151 -2.57446C384.36 -10.143 382.151 -19.473 380.61 -28.1971C379.298 -35.6266 378.078 -45.2833 380.844 -52.4619C383.444 -59.2014 389.852 -63.6941 396.607 -65.4907C401.422 -66.771 406.475 -66.9089 411.261 -68.2824C419.408 -70.6143 425.394 -76.4884 429.929 -83.4166C440.195 -99.1114 442.366 -120.267 458.819 -131.533C472.648 -141.005 491.463 -140.811 506.398 -134.146C523.743 -126.395 535.381 -109.792 541.788 -92.4086C547.285 -77.4989 552.743 -56.0596 543.96 -41.2523C538.72 -32.4074 528.939 -28.8154 520.054 -24.7456C507.007 -18.7816 500.608 -10.621 499.278 3.69683C498.471 12.304 498.617 21.5167 494.375 29.3333C489.925 37.5232 481.82 42.6416 472.763 44.0906C471.558 44.284 471.152 42.4229 472.365 42.2255C482.853 40.5446 491.282 33.8934 494.658 23.7081C497.227 15.9439 496.681 7.5479 497.828 -0.460178C499.985 -15.5115 509.282 -22.0042 522.443 -27.8997C531.415 -31.9162 540.27 -36.2155 544.12 -45.9401C547.662 -54.8961 546.592 -65.1904 544.801 -74.4136C541.021 -93.9446 532.211 -113.783 516.067 -126.163C502.235 -136.777 482.318 -140.553 466.061 -133.395C447.589 -125.265 443.634 -105.598 435.396 -89.2284C431.925 -82.3316 427.486 -75.5217 421.126 -70.9557C414.427 -66.1351 407.211 -65.9064 399.434 -64.1686C386.978 -61.3786 381.355 -52.9334 381.381 -40.4679C381.396 -31.3935 383.411 -22.2867 386.167 -13.6821C389.365 -3.67689 396.201 6.1687 406.4 9.96888C414.526 12.9893 422.775 9.41625 430.843 11.6813C437.955 13.676 441.221 20.1603 444.651 26.0886C450.824 36.7393 459.897 43.1368 472.61 42.2062C473.833 42.1217 473.729 44.0216 472.51 44.1138Z" fill="#BB86FC"/>
<path d="M471.529 26.4782C465.357 26.8823 459.499 25.3366 454.63 21.4022C447.985 16.0325 446.554 5.59164 438.25 2.60512C431.223 0.0750604 423.955 3.34495 416.82 0.0564045C411.886 -2.20478 407.902 -6.15631 405.004 -10.6815C398.718 -20.508 393.738 -39.9665 398.45 -51.2282C400.335 -55.7507 404.541 -59.1308 409.074 -60.746C413.238 -62.2388 417.772 -62.1858 422.011 -63.3639C429.018 -65.3007 433.972 -70.0406 437.779 -76.1005C445.688 -88.6767 447.637 -105.378 460.821 -114.162C471.624 -121.367 486.21 -121.355 497.889 -116.369C511.722 -110.467 521.152 -97.6277 526.463 -83.947C530.991 -72.2856 535.181 -56.4326 529.963 -44.2903C526.649 -36.5616 519.658 -33.023 512.379 -29.7179C506.877 -27.2267 500.921 -24.8924 497.239 -19.8012C494.191 -15.5887 493.463 -10.3505 493.004 -5.31134C491.669 9.43141 488.808 23.5031 471.775 26.459C470.565 26.6641 470.159 24.8031 471.376 24.5939C480.221 23.0584 487.092 17.2257 489.452 8.45106C491.195 1.98938 490.571 -4.83451 491.865 -11.3674C493.957 -21.8883 501.08 -26.7425 510.388 -30.9238C517.629 -34.1699 524.936 -37.4599 528.211 -45.2464C531.313 -52.6093 530.427 -61.0158 528.894 -68.6642C525.688 -84.6839 518.23 -100.893 504.521 -110.531C493.184 -118.512 476.822 -120.716 464.358 -114.043C451.036 -106.906 448.192 -91.7039 441.785 -79.3177C435.898 -67.9372 428.363 -62.4765 415.906 -60.3141C404.693 -58.3652 398.919 -52.198 399.065 -40.5997C399.161 -33.6003 400.702 -26.486 402.864 -19.841C405.596 -11.4699 411.421 -3.34775 420.211 -0.692022C426.637 1.24673 433.711 -1.92282 439.906 0.76389C444.293 2.67074 446.604 6.80319 448.885 10.7451C454.038 19.6179 460.905 25.2649 471.618 24.5669C472.844 24.4901 472.744 26.3977 471.529 26.4782Z" fill="#BB86FC"/>
</svg>
