<svg width="340" height="525" viewBox="0 0 340 525" fill="none" xmlns="http://www.w3.org/2000/svg">
<path d="M526.733 698.491C457.75 685.684 418.185 601.352 427.857 536.738C430.727 517.545 438.739 499.898 451.05 484.92C461.195 472.582 475.785 465.138 484.731 451.8C503.248 424.2 491.404 387.889 511.678 361.063C531.196 335.233 566.323 322.112 597.651 319.396C624.483 317.068 655.733 322.869 667.951 349.848C673.399 361.892 675.171 375.415 676.957 388.39C679.477 406.832 681.602 425.318 684.768 443.678C687.973 462.27 692.127 480.601 697.518 498.692C701.024 510.448 705.23 522.226 706.393 534.512C710.323 576.058 685.774 612.575 656.26 639.039C621.348 670.33 576.884 706.32 526.733 698.491C525.38 698.282 524.981 700.378 526.334 700.587C571.67 707.664 612.637 679.152 645.36 651.297C674.861 626.195 699.966 599.037 707.105 559.591C712.471 529.968 700.32 503.963 693.437 475.683C687.86 452.779 684.405 429.415 681.392 406.06C679.44 390.929 678.032 375.48 674.003 360.713C656.98 298.395 571.8 312.132 530.598 340.501C518.251 349.001 507.356 360.267 501.671 374.324C494.893 391.11 496.432 409.429 492.742 426.865C490.581 437.053 486.421 446.598 479.917 454.78C474.407 461.723 467.136 466.212 460.539 471.949C446.907 483.816 436.239 500.037 430.397 517.111C406.791 586.149 450.754 686.553 526.334 700.587C527.686 700.84 528.085 698.744 526.733 698.491Z" fill="#BB86FC"/>
<path d="M509.544 699.733C437.41 687.131 392.057 598.585 403.93 530.347C407.444 510.136 416.597 491.687 429.797 476.058C440.59 463.279 456.017 455.676 465.47 441.772C485.572 412.204 471.589 373.144 493.788 344.448C514.18 318.096 550.149 304.657 582.404 301.619C610.075 299.017 643.98 304.281 656.637 332.514C662.047 344.598 663.616 358.168 665.223 371.18C667.649 390.803 669.704 410.444 673.028 429.957C676.413 449.789 680.878 469.358 686.864 488.577C690.802 501.248 695.785 513.878 697.488 527.111C703.051 570.167 676.975 608.613 646.396 635.896C609.473 668.842 562.514 707.509 509.544 699.733C508.193 699.532 507.794 701.628 509.152 701.826C556.799 708.823 599.148 678.564 633.697 649.593C664.844 623.483 691.884 594.924 698.808 553.304C703.971 522.282 689.809 494.542 682.436 465.088C676.395 440.957 672.691 416.307 669.764 391.625C667.867 375.641 666.722 359.284 662.674 343.656C645.774 278.492 554.061 295.105 512.425 324.198C499.497 333.229 488.194 345.193 482.517 360.105C476.056 377.067 477.597 395.342 474.511 412.947C472.471 424.555 468.067 435.404 460.689 444.67C455.181 451.595 447.989 456.082 441.241 461.618C426.176 473.988 414.24 491.293 407.391 509.498C382.647 575.298 420.652 665.837 484.853 694.49C492.626 697.96 500.764 700.363 509.152 701.826C510.506 702.061 510.901 699.975 509.544 699.733Z" fill="#BB86FC"/>
<path d="M492.361 700.971C418.425 688.794 368.318 599.396 379.171 528.623C382.559 506.538 392.559 486.289 406.828 469.211C418.63 455.089 435.88 446.853 446.282 431.629C467.515 400.571 451.935 359.611 474.819 329.251C496.066 301.053 534.391 286.851 568.504 283.719C596.747 281.123 632.512 286.196 645.413 315.262C650.795 327.391 652.171 341.055 653.606 354.103C655.772 373.906 657.617 393.719 660.824 413.396C664.295 434.695 668.967 455.776 675.483 476.356C679.944 490.443 685.915 504.368 688.411 518.99C696.101 564.002 668.047 604.88 636.021 633.24C597.152 667.652 547.925 708.653 492.361 700.971C491.008 700.788 490.606 702.877 491.969 703.064C542.834 710.095 587.182 676.871 624.059 646.227C656.795 619.024 685.314 588.203 690.891 544.209C695.001 511.758 677.931 481.176 670.4 450.394C664.329 425.591 660.621 400.293 657.912 374.92C656.196 358.854 655.315 342.403 651.429 326.665C634.602 258.443 535.893 278.106 493.812 308.208C480.11 318.015 468.41 330.979 462.924 347.138C456.703 365.433 458.991 384.965 455.394 403.716C453.074 415.766 448.017 426.971 439.996 436.326C434.351 442.914 427.022 447.213 420.36 452.623C403.678 466.157 390.38 485.412 382.947 505.515C357.5 574.326 400.026 667.148 466.857 695.808C474.915 699.264 483.315 701.643 491.962 703.067C493.321 703.291 493.72 701.195 492.361 700.971Z" fill="#BB86FC"/>
<path d="M475.178 702.21C399.008 690.349 344.598 599.623 354.519 526.09C357.775 501.968 369.092 479.838 384.682 461.36C391.667 453.075 399.493 445.997 408.316 439.746C414.48 435.372 420.024 430.782 424.682 424.766C436.205 409.885 439.742 392.39 440.777 373.993C441.89 354.149 442.376 334.363 453.682 317.159C473.897 286.412 514.038 270.748 549.184 266.388C578.325 262.771 618.205 265.928 633.162 295.696C639.264 307.831 640.574 321.974 641.895 335.29C643.793 354.515 645.25 373.757 648.056 392.876C651.528 416.531 656.457 440.026 663.642 462.846C668.342 477.776 674.726 492.315 678.474 507.524C688.286 547.39 668.266 588.15 640.887 616.226C624.655 632.884 606.047 647.719 587.472 661.666C566.062 677.755 542.56 692.673 516.393 699.512C502.852 703.05 489.054 704.027 475.178 702.21C473.82 702.038 473.421 704.134 474.779 704.306C528.812 711.353 575.338 675.179 614.494 642.845C648.806 614.51 679.266 580.981 682.858 534.472C683.962 520.193 680.982 506.769 676.396 493.339C669.693 473.658 662.69 454.268 657.949 433.974C651.874 408.007 648.276 381.593 645.837 355.064C644.391 339.287 643.762 323.052 639.769 307.65C632.264 278.734 606.748 265.735 578.449 263.489C542.186 260.6 502.286 271.519 473.273 293.669C459.954 303.839 448.899 317.01 443.727 333.144C437.388 352.901 440.505 373.968 436.344 394.085C433.829 406.275 428.436 417.591 420.135 426.923C414.006 433.825 406.051 438.26 398.974 444.028C381.56 458.209 367.453 478.216 359.34 499.114C344.6 537.096 351.868 580.069 369.04 615.992C385.514 650.449 412.754 682.138 448.633 697.025C457.044 700.512 465.792 702.908 474.779 704.306C476.135 704.522 476.534 702.426 475.178 702.21Z" fill="#BB86FC"/>
<path d="M457.989 703.452C379.47 691.86 321.141 599.748 329.866 523.48C332.752 498.246 344.762 474.967 360.765 455.561C368.438 446.26 377.023 438.043 386.904 431.151C393.153 426.792 399.005 422.451 403.929 416.567C416.416 401.614 420.831 383.56 421.872 364.495C423.039 343.353 422.421 321.998 433.956 303.276C454.24 270.367 496.487 253.609 533.23 248.714C563.218 244.725 605.523 247.165 621.608 277.616C628.163 290.036 629.312 304.736 630.481 318.483C632.173 338.359 633.441 358.247 636.209 378.019C639.728 403.208 645.009 428.25 652.769 452.485C657.824 468.261 664.671 483.511 669.135 499.472C680.512 540.215 660.685 582.299 632.723 611.467C615.949 628.959 596.462 644.23 577.195 658.862C554.297 676.254 529.369 692.601 501.346 700.251C487.131 704.135 472.624 705.26 457.989 703.452C456.634 703.287 456.235 705.383 457.597 705.545C514.62 712.575 563.42 673.618 604.759 639.647C640.056 610.636 671.893 575.371 674.473 527.375C675.28 512.388 671.487 498.43 666.424 484.471C658.73 463.269 651.211 442.259 646.135 420.218C640.02 393.722 636.435 366.805 634.271 339.721C632.972 323.472 632.645 306.735 628.712 290.838C621.248 260.637 593.794 247.682 564.607 245.525C526.393 242.693 484.146 254.398 453.951 278.293C439.896 289.417 428.691 303.764 423.961 321.255C418.332 342.046 421.939 363.945 417.206 384.863C414.322 397.614 408.078 409.715 398.831 419.044C392.385 425.55 384.243 429.929 377.214 435.733C358.591 451.09 343.352 472.614 334.726 495.141C319.794 534.154 328.216 578.274 346.277 614.774C363.984 650.551 392.978 683.226 430.646 698.315C439.326 701.794 448.35 704.178 457.597 705.545C458.948 705.746 459.35 703.658 457.989 703.452Z" fill="#BB86FC"/>
<path d="M440.806 704.69C398.307 698.737 362.925 670.253 339.158 635.659C316.111 602.122 300.792 559.343 305.532 518.232C308.608 491.52 322.221 466.941 339.397 446.696C347.512 437.114 356.521 428.685 366.87 421.582C373.753 416.865 380.113 412.132 385.41 405.598C398.27 389.706 402.394 370.784 403.206 350.784C404.093 329.155 403.445 307.347 415.048 288.128C436.034 253.383 480.66 235.828 519.166 230.794C549.941 226.777 594.157 229.148 610.637 260.58C617.324 273.347 618.223 288.522 619.206 302.633C620.66 323.313 621.761 343.986 624.564 364.543C628.148 390.796 633.691 416.891 641.868 442.099C647.351 458.975 654.852 475.173 659.959 492.148C672.717 534.527 652.116 578.149 622.826 608.502C605.229 626.733 584.796 642.518 564.637 657.792C540.692 675.934 514.717 693.198 485.442 701.243C470.821 705.264 455.863 706.453 440.806 704.69C439.446 704.536 439.044 706.624 440.407 706.786C499.967 713.76 550.774 672.597 594.039 637.272C630.292 607.675 663.608 571.278 665.98 521.989C666.755 505.98 662.323 491.19 656.697 476.389C648.138 453.867 640.074 431.457 634.643 407.932C628.299 380.449 624.664 352.533 622.744 324.416C621.605 307.707 621.593 290.454 617.723 274.071C610.241 242.396 580.52 229.497 550.315 227.529C510.744 224.945 467.092 237.107 435.895 261.947C421.258 273.603 409.64 288.658 404.899 306.977C399.299 328.607 403.298 351.286 398.627 373.04C395.864 385.887 389.853 397.827 380.944 407.517C374.035 415.029 365.007 419.725 357.123 426.053C337.093 442.131 320.503 464.926 310.979 488.764C294.88 528.999 304.014 574.696 322.919 612.331C341.614 649.551 372.153 683.461 411.459 699.139C420.782 702.853 430.467 705.395 440.407 706.786C441.771 706.974 442.162 704.88 440.806 704.69Z" fill="#BB86FC"/>
<path d="M423.617 705.931C379.715 700.076 342.789 671.118 317.697 635.78C293.299 601.429 276.71 557.448 280.963 514.802C283.803 486.326 298.805 460.262 317.138 438.868C325.727 428.846 335.192 419.903 346.119 412.506C353.229 407.69 359.89 402.964 365.453 396.343C379.479 379.667 383.805 359.473 384.478 338.2C385.204 315.358 384.303 292.449 396.638 272.163C418.581 236.078 465.225 217.942 505.285 212.844C537.202 208.788 584.196 211.331 600.346 244.834C606.681 257.963 607.237 273.331 608.012 287.622C609.18 308.972 610.157 330.278 612.976 351.495C616.631 378.904 622.507 406.151 631.184 432.415C637.026 450.1 645.014 467.001 650.731 484.704C664.641 527.855 644.409 572.413 614.624 603.783C596.525 622.842 575.295 639.043 554.429 654.938C529.333 674.051 502.373 692.578 471.795 701.588C456.07 706.221 439.916 707.741 423.617 705.931C422.267 705.783 421.857 707.874 423.225 708.025C486.029 715.005 539.669 670.589 585.218 633.371C622.34 603.043 656.94 564.426 657.585 513.661C657.796 497.45 652.568 482.463 646.671 467.592C637.314 443.988 628.856 420.352 623.14 395.562C616.637 367.365 612.953 338.722 611.291 309.857C610.299 292.604 610.61 274.807 606.898 257.86C599.771 225.339 569.213 211.96 538.416 209.686C496.897 206.624 450.889 219.303 418.136 245.355C403.015 257.395 390.948 272.96 386.061 291.9C380.161 314.75 384.776 338.69 379.943 361.684C377.011 375.625 370.321 388.683 360.309 398.89C353.199 406.133 344.071 410.794 336.178 417.072C314.815 434.056 296.911 458.319 286.686 483.606C269.907 525.127 280.217 572.498 300.149 611.045C320.072 649.596 352.363 684.51 393.453 700.426C403.059 704.145 413.025 706.665 423.225 708.025C424.586 708.205 424.977 706.111 423.617 705.931Z" fill="#BB86FC"/>
<path d="M406.434 707.17C360.377 701.314 321.448 671.039 294.986 634.123C269.465 598.517 251.755 552.598 256.726 508.207C260.059 478.363 276.97 451.196 296.518 429.132C305.56 418.93 315.48 409.965 326.851 402.436C334.02 397.686 340.665 392.843 346.249 386.207C360.871 368.818 365.262 347.751 365.754 325.58C366.272 301.91 365.12 278.127 377.735 257.005C400.04 219.651 448.004 200.799 489.193 195.184C522.229 190.676 572.002 192.639 589.186 227.297C595.682 240.386 596.12 255.839 596.729 270.154C597.667 291.99 598.351 313.777 601.032 335.49C604.594 364.404 610.744 393.156 619.867 420.838C626.124 439.811 634.765 457.828 641.279 476.683C656.713 521.304 636.521 567.25 605.497 600.034C586.418 620.197 563.933 637.152 541.873 653.876C515.692 673.728 487.712 693.153 455.88 702.575C439.733 707.351 423.169 708.947 406.434 707.17C405.076 707.024 404.677 709.12 406.042 709.264C471.42 716.192 527.333 669.431 574.822 630.776C613.059 599.647 649.497 559.261 649.102 506.809C648.975 489.527 642.718 473.646 636.236 457.898C625.803 432.532 616.912 406.922 610.918 380.103C604.556 351.637 601.096 322.739 599.773 293.621C598.967 276.03 599.612 257.842 595.86 240.541C588.49 206.531 554.942 193.509 523.206 191.623C480.594 189.083 433.625 202.184 400.087 229.008C384.061 241.825 371.49 258.455 366.755 278.682C361.197 302.417 366.194 327.131 361.146 350.92C358.199 364.771 351.594 377.623 341.869 387.946C334.721 395.527 325.537 400.277 317.306 406.493C294.467 423.732 275.175 448.99 263.717 475.165C244.888 518.206 255.499 567.598 276.401 607.883C297.323 648.197 331.287 684.634 374.276 701.256C384.518 705.211 395.15 707.88 406.035 709.266C407.4 709.436 407.799 707.34 406.434 707.17Z" fill="#BB86FC"/>
<path d="M389.251 708.409C341.398 702.598 300.696 671.406 272.897 633.32C246.509 597.175 227.88 550.672 232.091 505.256C235 473.882 252.815 445.542 273.251 422.407C282.825 411.561 293.294 401.778 305.387 393.816C313.009 388.791 320.279 383.908 326.308 376.946C341.793 359.057 346.592 337.17 347.004 314.063C347.439 289.179 345.726 264.142 358.855 241.812C381.909 202.606 432.322 182.957 475.325 177.22C509.325 172.692 561.284 174.767 578.577 210.832C584.987 224.197 585.202 239.861 585.649 254.383C586.332 277.002 586.819 299.56 589.493 322.064C593.102 352.433 599.602 382.558 609.352 411.558C615.975 431.233 625.059 449.879 632.106 469.368C648.837 515.61 628.012 563.096 595.606 597.11C575.702 618.005 552.273 635.481 529.305 652.828C502.044 673.407 473.052 693.728 439.96 703.573C423.436 708.492 406.4 710.143 389.251 708.409C387.889 708.273 387.49 710.369 388.852 710.505C456.339 717.329 513.926 668.927 563.131 629.239C602.956 597.113 642.061 554.725 640.607 499.97C640.133 482.207 633.316 465.913 626.506 449.783C615.445 423.617 606.024 397.084 599.762 369.318C593.096 339.733 589.556 309.655 588.46 279.379C587.805 261.208 588.774 242.405 585.179 224.488C578.083 189.162 543.044 175.718 510.354 173.708C465.524 170.944 415.764 184.866 380.843 213.629C364.394 227.176 351.843 244.648 347.438 265.747C342.278 290.426 347.682 315.985 342.245 340.623C339.033 355.155 331.787 368.692 321.264 379.256C313.698 386.845 304.007 391.646 295.552 398.116C271.439 416.546 250.683 443.422 238.755 471.324C219.987 515.246 232.019 565.943 253.625 606.556C275.799 648.218 311.469 685.657 356.275 702.533C366.799 706.493 377.7 709.152 388.86 710.502C390.215 710.666 390.617 708.578 389.251 708.409Z" fill="#BB86FC"/>
<path d="M372.062 709.651C322.053 703.839 279.35 671.311 250.184 631.655C222.51 594.042 202.617 545.152 207.92 497.717C211.457 466.066 230.384 437.601 251.134 414.363C261.352 402.918 272.481 392.602 285.361 384.245C293.283 379.104 300.832 374.043 307.072 366.839C323.194 348.232 328.049 325.448 328.283 301.425C328.532 275.749 326.527 249.773 339.968 226.649C363.647 185.905 415.76 165.474 460.277 159.415C495.42 154.628 550.235 156.481 567.894 194.185C574.3 207.857 574.254 223.869 574.505 238.654C574.883 261.373 575.154 284.016 577.646 306.62C581.148 338.263 587.864 369.704 597.971 399.898C605.084 421.141 614.985 441.143 622.866 462.06C640.942 509.959 619.518 558.859 585.712 594.179C564.996 615.819 540.616 633.819 516.738 651.78C488.799 672.793 459.209 693.792 425.418 704.158C408.049 709.485 390.145 711.402 372.062 709.651C370.71 709.52 370.308 711.608 371.67 711.744C441.595 718.503 501.339 667.948 552.407 626.928C593.444 593.976 634.633 549.721 632.068 493.156C631.231 474.595 623.586 457.65 616.32 440.859C604.33 413.194 594.453 384.993 587.92 355.51C581.181 325.059 577.738 294.122 576.993 262.967C576.561 244.805 577.767 226.031 574.391 208.088C567.493 171.5 530.633 157.787 497.093 155.756C450.613 152.933 398.978 167.367 362.815 197.265C345.778 211.347 332.853 229.513 328.428 251.442C323.279 276.959 329.048 303.297 323.671 328.79C320.471 343.992 312.991 358.147 302.005 369.183C293.962 377.25 283.607 382.278 274.604 389.128C249.578 408.165 227.879 435.762 215.066 464.471C194.905 509.644 207.758 562.247 230.23 604.083C253.546 647.475 291.149 686.448 338.043 703.727C348.915 707.728 360.166 710.412 371.67 711.744C373.033 711.906 373.432 709.81 372.062 709.651Z" fill="#BB86FC"/>
<path d="M354.879 710.889C303.414 705.168 259.218 672.114 228.715 631.683C199.654 593.154 178.403 542.84 183.36 493.75C186.722 460.454 206.916 430.827 228.776 406.553C239.271 394.904 250.666 384.203 263.839 375.637C272.227 370.18 280.409 365.077 287.129 357.527C304.123 338.416 309.402 314.806 309.548 289.85C309.702 263.297 307.169 236.38 320.643 212.245C344.225 170.003 397.707 148.646 443.23 141.895C479.643 136.496 537.396 137.476 556.593 176.224C563.419 190.018 563.283 206.369 563.367 221.397C563.502 244.588 563.452 267.706 565.793 290.819C569.145 323.855 576.091 356.677 586.563 388.187C593.991 410.535 604.341 431.524 613.083 453.333C620.442 471.685 623.309 489.941 620.031 509.586C614.903 540.342 598.703 567.071 577.542 589.501C556.338 611.956 531.21 630.415 506.61 648.905C477.058 671.116 446.052 693.646 410.404 704.868C392.353 710.543 373.711 712.627 354.879 710.889C353.52 710.762 353.121 712.858 354.488 712.983C389.7 716.238 422.706 705.346 452.996 687.995C484.754 669.805 514.144 646.749 542.644 623.871C584.679 590.133 627.684 543.776 623.496 485.608C622.093 466.225 613.502 448.593 605.754 431.09C592.595 401.327 582.229 370.752 575.489 338.873C569.081 308.566 565.971 277.826 565.581 246.877C565.339 227.998 567.01 208.341 563.248 189.711C555.758 152.617 516.293 139.51 482.607 137.733C434.307 135.183 380.481 150.426 343.352 182.106C325.813 197.067 312.991 216.256 309.027 239.23C304.476 265.636 310.576 292.777 304.659 319.04C301.188 334.392 293.344 348.755 282.066 359.782C273.671 367.992 262.932 373.096 253.646 380.135C227.291 400.136 204.09 429.094 190.58 459.312C169.994 505.355 183.884 559.366 206.94 601.782C231.313 646.636 270.486 686.819 319.093 704.65C330.533 708.844 342.376 711.64 354.488 712.983C355.84 713.139 356.247 711.04 354.879 710.889Z" fill="#BB86FC"/>
<path d="M337.689 712.131C284.089 706.419 237.829 672.026 205.991 630.012C175.978 590.413 153.678 538.608 158.979 488.002C162.558 453.796 183.862 423.572 206.396 398.759C217.427 386.621 229.356 375.38 243.176 366.468C251.784 360.915 260.296 355.782 267.263 348.135C285.347 328.275 290.85 303.43 290.83 277.271C290.801 249.864 287.988 222.04 301.778 197.047C326.108 152.952 382.021 130.797 429.365 123.922C466.639 118.504 526.209 119.545 545.79 159.295C552.781 173.477 552.387 190.305 552.281 205.734C552.122 229.696 551.877 253.566 554.208 277.463C557.51 311.34 564.683 345.018 575.424 377.308C583.281 400.931 594.26 423.018 603.762 445.948C611.493 464.605 614.898 483.195 611.756 503.317C606.805 535.008 590.17 562.655 568.463 585.762C546.288 609.377 519.855 628.522 494.045 647.891C463.447 670.852 431.411 694.301 394.495 705.898C376.034 711.701 356.964 713.833 337.689 712.131C336.332 712.011 335.933 714.107 337.297 714.224C374.43 717.512 409.057 705.612 440.778 687.023C473.038 668.128 503.153 644.647 532.321 621.311C575.501 586.779 620.533 538.226 614.856 478.366C612.994 458.726 603.946 440.872 595.956 423.157C581.735 391.645 570.741 359.139 563.686 325.253C557.343 294.756 554.328 263.816 554.205 232.684C554.124 213.397 556.103 193.376 552.702 174.285C545.783 135.479 504.689 121.71 469.775 119.803C419.797 117.072 364.059 132.796 325.595 165.522C306.936 181.391 293.558 201.822 289.811 226.312C285.624 253.64 292.086 281.649 285.749 308.746C281.919 325.102 273.117 340.587 260.557 351.826C252.247 359.269 242.016 364.175 233.113 370.841C205.522 391.476 180.952 421.58 166.61 452.927C144.866 500.461 159.865 556.573 184.035 600.22C209.622 646.437 250.467 687.695 300.857 705.836C312.65 710.087 324.841 712.9 337.3 714.232C338.655 714.37 339.054 712.274 337.689 712.131Z" fill="#BB86FC"/>
<path d="M320.507 713.369C265.067 707.78 217.054 672.427 183.873 629.229C152.528 588.424 128.902 534.648 134.591 482.186C138.36 447.431 160.403 416.898 183.314 391.715C195.025 378.835 207.691 366.813 222.378 357.382C230.934 351.883 239.565 346.909 246.659 339.496C266.113 319.156 272.208 293.074 272.107 265.684C272.007 237.706 268.66 209.197 282.09 183.395C306.382 136.738 365.137 113.367 414.367 106.107C452.737 100.447 514.643 101.258 534.946 142.222C542.08 156.607 541.514 173.715 541.231 189.357C540.795 213.698 540.283 237.926 542.45 262.223C545.614 297.7 553.126 332.991 564.393 366.775C572.569 391.317 583.971 414.244 594.165 437.934C602.388 457.064 606.528 476.188 603.476 497.031C598.64 530.074 581.182 558.874 558.545 582.838C536.292 606.403 509.932 625.582 484.064 644.911C451.905 668.947 418.566 693.973 379.932 706.498C360.656 712.742 340.69 715.115 320.507 713.369C319.15 713.249 318.751 715.345 320.115 715.463C358.093 718.738 393.455 706.566 425.89 687.547C459.554 667.801 491.099 643.345 521.584 619.013C565.887 583.65 613.139 533.219 606.235 471.615C603.906 450.863 593.85 432.073 585.301 413.357C570.39 380.725 559.119 346.855 551.912 311.683C545.488 280.296 542.607 248.458 542.841 216.436C542.981 196.957 545.262 176.704 541.896 157.391C534.916 117.285 491.327 103.548 455.6 101.79C403.719 99.2487 345.66 115.784 306.173 150.356C287.313 166.866 274.158 187.944 270.674 213.024C266.718 241.539 273.707 270.753 266.71 298.971C262.665 315.263 253.709 330.611 241.18 341.838C232.128 349.95 220.914 355.198 211.253 362.511C182.902 383.987 157.286 414.841 142.331 447.169C119.867 495.731 135.88 553.504 160.712 597.949C187.515 645.903 230.276 688.676 282.842 707.144C294.911 711.384 307.386 714.183 320.115 715.463C321.47 715.601 321.869 713.505 320.507 713.369Z" fill="#BB86FC"/>
<path d="M261.731 171.271C285.128 122.551 344.082 97.6542 394.454 89.0758C420.095 84.7116 447.077 83.933 472.478 90.1835C491.828 94.942 512.51 104.753 522.817 122.726C531.081 137.137 530.679 154.704 530.274 170.791C529.654 195.33 528.664 219.738 530.507 244.255C533.228 280.478 540.583 316.508 551.668 351.084C560.185 377.633 572.122 402.427 583.577 427.761C592.352 447.184 597.96 466.669 595.512 488.172C591.732 521.399 574.924 550.991 552.766 575.459C530.362 600.198 503.38 620.187 476.7 640.015C443.594 664.635 409.847 690.727 370.739 705.112C250.717 749.257 130.957 632.961 111.809 519.824C107.057 491.747 109.005 463.791 122.018 438.094C138.88 404.804 166.651 371.963 197.577 350.926C206.209 345.049 215.636 340.343 223.422 333.297C234.031 323.683 242.357 311.109 247.235 297.664C256.659 271.681 252.226 244.103 252.572 217.157C252.781 201.28 255.138 185.827 261.731 171.271C262.291 170.019 260.37 169.103 259.801 170.357C247.157 198.287 251.473 227.842 251.275 257.486C251.067 289.849 239.801 321.272 211.635 339.538C199.825 347.188 188.284 354.411 177.803 363.943C162.748 377.641 149.046 393.089 137.137 409.588C118.729 435.09 106.799 462.371 107.251 494.13C108.047 549.471 135.971 603.682 172.274 644.189C210.508 686.87 264.885 720.1 323.935 717.156C363.448 715.188 399.249 696.64 431.541 675.088C463.417 653.816 494.955 630.641 524.158 605.786C566.405 569.818 609.474 515.571 596.043 456.123C590.996 433.819 578.833 413.494 569.729 392.708C553.989 356.773 543.089 318.741 536.873 280.017C532.05 249.924 530.862 219.662 531.801 189.246C532.357 171.3 534.464 152.205 529.872 134.608C518.858 92.4559 465.273 82.858 428.273 83.6483C375.86 84.7657 317.441 103.287 280.167 141.553C271.898 150.042 264.944 159.664 259.804 170.364C259.209 171.593 261.131 172.51 261.731 171.271Z" fill="#BB86FC"/>
</svg>
