<svg width="56" height="44" viewBox="0 0 56 44" fill="none" xmlns="http://www.w3.org/2000/svg">
<path d="M53.1875 0.6875H2.8125C1.74082 0.6875 0.875 1.55332 0.875 2.625V41.375C0.875 42.4467 1.74082 43.3125 2.8125 43.3125H53.1875C54.2592 43.3125 55.125 42.4467 55.125 41.375V2.625C55.125 1.55332 54.2592 0.6875 53.1875 0.6875ZM50.7656 7.39609V38.9531H5.23438V7.39609L3.56328 6.09434L5.94277 3.03672L8.53418 5.05293H47.4719L50.0633 3.03672L52.4428 6.09434L50.7656 7.39609V7.39609ZM47.4719 5.04688L28 20.1836L8.52812 5.04688L5.93672 3.03066L3.55723 6.08828L5.22832 7.39004L25.9111 23.4713C26.5059 23.9334 27.2377 24.1842 27.9909 24.1842C28.7441 24.1842 29.4759 23.9334 30.0707 23.4713L50.7656 7.39609L52.4367 6.09434L50.0572 3.03672L47.4719 5.04688Z" fill="#E3E3E3"/>
</svg>
