<svg width="15" height="15" viewBox="0 0 15 15" fill="none" xmlns="http://www.w3.org/2000/svg">
<path fill-rule="evenodd" clip-rule="evenodd" d="M6.80763 1.4986C3.85629 1.70521 1.5262 4.16487 1.5262 7.16875C1.5262 10.3081 4.0711 12.853 7.2104 12.853C9.72546 12.853 11.8594 11.2192 12.6083 8.95529C12.032 9.19339 11.4003 9.32483 10.7385 9.32483C8.03224 9.32483 5.83835 7.13095 5.83835 4.42466C5.83835 3.32769 6.1991 2.31491 6.80763 1.4986ZM0.350159 7.16875C0.350159 3.37995 3.42159 0.30851 7.2104 0.30851C7.56291 0.30851 7.90958 0.335148 8.24842 0.386614C8.48281 0.422216 8.6729 0.595099 8.73051 0.825076C8.78812 1.05505 8.70199 1.29713 8.51206 1.43903C7.60181 2.1191 7.0144 3.20321 7.0144 4.42466C7.0144 6.48144 8.68175 8.14879 10.7385 8.14879C11.6278 8.14879 12.4429 7.83784 13.0832 7.31822C13.2672 7.16891 13.5229 7.14463 13.7317 7.25664C13.9405 7.36865 14.0617 7.59506 14.0391 7.83094C13.7055 11.3094 10.7759 14.029 7.2104 14.029C3.42159 14.029 0.350159 10.9576 0.350159 7.16875Z" fill="#24272C"/>
</svg>
