<svg width="341" height="859" viewBox="0 0 341 859" fill="none" xmlns="http://www.w3.org/2000/svg">
<path d="M-319.031 529.651C-248.95 555.255 -165.903 538.779 -102.459 583.659C-87.8739 593.973 -75.822 607.162 -60.6804 616.88C-46.4307 626.021 -30.962 633.278 -14.739 638.138C18.0311 647.955 54.1796 648.139 88.0001 644.981C123.769 641.64 159.032 633.233 192.752 620.926C223.019 609.887 253.683 596.346 277.514 574.106C298.175 554.826 312.303 528.268 307.4 499.37C302.196 468.742 278.867 443.87 252.783 428.766C190.308 392.575 99.3731 396.55 61.929 324.751C32.3975 268.142 46.187 199.892 22.9358 141.196C-0.499188 82.0266 -65.3709 42.6544 -128.229 62.7503C-157.452 72.0874 -181.303 92.7987 -193.708 120.926C-206.022 148.865 -207.989 179.879 -214.029 209.466C-217.212 225.048 -221.526 240.552 -229.029 254.66C-238.611 272.679 -253.331 287.097 -269.572 299.184C-298.657 320.819 -332.427 335.569 -359.577 359.888C-380.954 379.041 -398.69 404.395 -398.532 434.172C-398.386 463.667 -380.536 489.687 -358.156 507.52C-346.36 516.92 -333.116 524.286 -319.031 529.651C-317.961 530.064 -317.264 528.42 -318.341 528.012C-347.863 516.76 -375.895 495.642 -389.363 466.378C-403.322 436.027 -395.567 403.555 -374.985 378.39C-332.289 326.162 -252.855 312.887 -223.899 248.19C-199.757 194.249 -213.636 123.477 -162.662 82.9984C-137.299 62.8615 -103.017 54.7265 -71.3136 61.2509C-37.7723 68.1558 -8.37884 90.4113 9.78791 119.121C43.1567 171.85 32.8898 237.999 48.9356 295.974C56.9146 324.789 72.4296 349.857 97.0854 367.261C125.62 387.402 159.886 396.201 192.784 406.364C226.895 416.903 261.997 430.001 285.533 458.237C306.724 483.655 313.485 517.36 297.003 547.06C281.773 574.492 253.101 592.951 225.28 605.681C193.454 620.242 159.864 631.208 125.493 637.815C90.749 644.501 55.0333 646.719 19.8016 643.013C-15.2551 639.325 -47.9228 626.023 -75.5324 604.048C-88.3139 593.881 -99.317 582.564 -113.71 574.493C-128.81 566.037 -145.261 560.135 -162.001 555.873C-196.488 547.058 -232.309 545.997 -267.359 540.561C-284.71 537.868 -301.83 534.049 -318.336 528.018C-319.409 527.617 -320.11 529.254 -319.031 529.651Z" fill="#BB86FC"/>
<path d="M-307.552 524.902C-241.003 549.186 -162.375 533.706 -101.947 575.878C-88.0168 585.599 -76.5646 598.213 -62.2173 607.512C-48.7619 616.234 -34.152 623.201 -18.8169 627.892C12.2658 637.396 46.5155 637.736 78.6604 634.858C111.914 631.893 144.717 624.301 176.159 613.156C205.273 602.828 234.82 590.141 258.178 569.427C278.155 551.702 292.778 527.08 289.581 499.553C286.109 469.767 264.031 444.932 239.151 429.99C180.669 394.876 95.0062 399.212 57.4517 333.651C26.8146 280.164 40.4098 213.733 19.0374 157.162C-2.47416 100.205 -63.8631 61.3073 -124.365 79.7129C-152.08 88.1436 -175.164 107.319 -187.356 133.693C-199.479 159.916 -201.573 189.27 -207.052 217.274C-209.983 232.267 -213.896 247.221 -220.811 260.921C-229.501 278.162 -243.046 292.073 -258.279 303.697C-285.899 324.799 -318.333 338.801 -344.605 361.773C-365.267 379.83 -382.767 403.795 -383.279 432.248C-383.791 460.781 -366.833 486.103 -345.288 503.437C-333.935 512.578 -321.15 519.705 -307.552 524.902C-306.487 525.309 -305.785 523.672 -306.856 523.259C-335.408 512.365 -362.666 491.732 -375.136 463.105C-387.877 433.849 -379.562 403.093 -359.611 379.403C-318.537 330.653 -243.773 317.689 -216.618 256.203C-193.727 204.37 -206.986 136.844 -157.325 98.5389C-132.398 79.32 -98.7539 72.2231 -68.1911 79.6095C-36.5254 87.2645 -9.14045 109.086 7.40087 136.896C37.6714 187.799 27.4122 250.484 43.7666 305.531C51.9486 333.061 67.7685 356.378 91.8614 372.398C119.625 390.849 152.34 398.823 183.737 408.694C215.458 418.663 247.74 431.542 269.228 458.151C289.952 483.817 294.663 517.541 276.402 545.894C260.708 570.264 234.566 586.541 208.65 598.199C177.586 612.169 144.847 622.61 111.315 628.65C78.9855 634.474 45.8308 636.203 13.1383 632.553C-20.3892 628.806 -51.6883 615.323 -77.7714 593.942C-89.481 584.337 -99.8405 574.163 -113.264 566.811C-127.72 558.897 -143.417 553.414 -159.37 549.426C-191.965 541.292 -225.775 540.292 -258.855 535.118C-275.193 532.56 -291.307 528.933 -306.856 523.259C-307.929 522.868 -308.631 524.505 -307.552 524.902Z" fill="#BB86FC"/>
<path d="M-296.072 520.142C-232.502 543.324 -156.775 528.228 -99.4983 569.456C-86.4248 578.875 -75.5414 590.662 -61.8387 599.379C-49.3825 607.314 -35.915 613.651 -21.7952 617.977C7.27285 626.891 39.2611 627.278 69.3384 624.731C101.645 622.002 133.547 614.653 164.061 603.77C191.4 594.017 219.104 582.096 241.085 562.692C259.791 546.177 273.722 523.406 271.389 497.639C268.838 469.501 248.485 445.632 225.308 431.132C169.801 396.431 87.5482 401.547 51.1285 339.128C21.2008 287.838 34.8772 223.662 13.6999 169.392C-6.801 116.832 -63.3443 80.7695 -119.687 96.4776C-146.213 103.87 -168.855 121.612 -180.976 146.469C-193.224 171.572 -195.246 200.031 -200.476 227.067C-203.197 241.121 -206.772 255.131 -213.071 268.059C-221.063 284.437 -233.584 297.745 -247.866 308.858C-274.38 329.494 -305.835 342.875 -331.224 365.056C-350.918 382.249 -367.669 405.164 -368.035 432.295C-368.41 459.362 -352.358 483.337 -331.896 499.785C-321.112 508.448 -308.979 515.212 -296.072 520.142C-295.006 520.549 -294.304 518.912 -295.381 518.504C-322.593 508.102 -348.501 488.445 -360.328 461.122C-372.463 433.077 -364.106 403.694 -344.869 381.208C-305.154 334.797 -233.346 322.359 -208.566 262.376C-188.137 212.924 -199.695 149.15 -151.596 113.837C-127.698 96.2887 -96.0771 90.1326 -67.3548 97.4709C-38.0097 104.985 -12.6427 125.327 2.8453 151.137C32.0837 199.855 21.8818 260 37.9239 312.685C45.8148 338.618 60.9177 360.464 83.684 375.502C110.493 393.212 142.092 400.697 172.318 410.29C202.447 419.845 232.875 432.445 252.883 458.065C272.034 482.591 275.534 514.321 258.135 540.768C242.685 564.243 217.197 579.571 192.024 590.693C163.185 603.442 132.89 613.009 101.842 618.617C70.8297 624.218 38.989 625.827 7.64554 622.212C-23.6288 618.595 -52.9248 605.901 -77.3064 586.006C-88.6953 576.722 -98.7164 566.827 -111.763 559.725C-125.135 552.443 -139.622 547.33 -154.355 543.593C-185.105 535.795 -217.017 534.76 -248.268 529.994C-264.301 527.549 -280.12 524.062 -295.375 518.499C-296.449 518.108 -297.15 519.745 -296.072 520.142Z" fill="#BB86FC"/>
<path d="M-284.591 515.382C-224.538 537.252 -153.3 523.205 -98.9822 561.682C-86.3511 570.629 -75.9248 582.046 -62.7627 590.415C-50.4462 598.244 -37.1246 604.439 -23.1248 608.564C4.4365 616.67 34.7355 616.875 63.1536 614.335C94.1066 611.565 124.638 604.328 153.813 593.704C179.351 584.414 205.133 573.047 225.498 554.62C243.079 538.705 255.73 516.77 252.844 492.369C249.66 465.476 229.712 443.17 207.241 429.695C153.69 397.583 74.5397 401.834 42.1283 339.788C16.6243 290.957 28.7497 232.07 8.31598 181.545C-11.8667 131.624 -66.5245 98.3539 -119.853 114.647C-144.253 122.094 -164.796 138.849 -175.874 161.935C-187.392 185.951 -189.199 213.086 -194.285 238.852C-196.931 252.268 -200.459 265.631 -206.659 277.874C-214.551 293.446 -226.843 305.96 -240.621 316.447C-265.92 335.703 -295.65 348.427 -319.442 369.755C-337.484 385.925 -352.496 407.249 -352.797 432.335C-353.1 457.916 -337.83 480.59 -318.492 496.124C-308.283 504.325 -296.802 510.713 -284.591 515.382C-283.525 515.789 -282.83 514.156 -283.901 513.743C-309.182 504.074 -333.181 486.059 -344.705 460.966C-357.07 434.076 -349.423 405.593 -330.797 383.805C-293.431 340.101 -225.901 328.283 -202.072 272.22C-182.269 225.632 -193.547 165.197 -148.755 131.283C-126.5 114.432 -96.7058 108.126 -69.5512 114.601C-41.3258 121.328 -16.8354 140.551 -1.84 165.165C26.0303 210.924 16.7578 267.699 31.3595 317.449C38.5318 341.884 52.3402 362.804 73.519 377.273C98.3426 394.232 127.852 401.563 156.157 410.396C185.132 419.441 214.767 430.979 234.395 455.299C253.016 478.366 257.204 508.52 240.914 534.037C226.834 556.098 203.084 570.788 179.696 581.279C152.176 593.634 123.208 602.91 93.5307 608.366C64.2307 613.751 34.155 615.414 4.5118 612.142C-25.7416 608.805 -53.9321 596.799 -77.5054 577.543C-88.3169 568.709 -97.8474 559.35 -110.256 552.633C-122.915 545.782 -136.61 540.978 -150.537 537.461C-179.847 530.06 -210.263 529.121 -240.04 524.516C-254.968 522.208 -269.686 518.92 -283.901 513.743C-284.97 513.359 -285.671 514.996 -284.591 515.382Z" fill="#BB86FC"/>
<path d="M-273.112 510.634C-216.586 531.19 -149.772 518.133 -98.4704 553.901C-86.4872 562.25 -76.6606 573.092 -64.2992 581.048C-52.7947 588.46 -40.3077 594.357 -27.2023 598.318C-1.34939 606.137 27.0943 606.475 53.8272 604.202C83.0515 601.721 111.886 595.031 139.471 585.124C163.679 576.427 188.206 565.797 207.654 548.557C224.599 533.548 237.087 512.777 234.561 489.421C231.887 464.633 213.899 443.648 193.403 430.844C142.853 399.286 67.2235 404.144 35.8695 345.458C11.108 299.11 23.0075 242.738 3.29864 194.659C-16.1303 147.262 -68.5836 116.244 -119.02 132.571C-142.339 140.123 -161.456 156.625 -171.514 179.038C-181.588 201.484 -183.26 226.493 -188.046 250.34C-190.563 262.908 -193.943 275.45 -199.855 286.884C-207.654 301.976 -219.845 313.984 -233.373 324.013C-256.984 341.517 -284.35 353.486 -306.318 373.271C-323.279 388.553 -337.385 408.728 -337.558 432.376C-337.725 456.502 -323.35 477.83 -305.095 492.479C-295.465 500.2 -284.631 506.219 -273.112 510.634C-272.046 511.04 -271.344 509.403 -272.415 508.99C-296.633 499.71 -319.646 482.33 -330.304 458.074C-341.338 432.966 -333.965 406.584 -316.713 386.393C-281.707 345.406 -218.646 334.261 -195.664 282.229C-176.494 238.82 -187.439 182.077 -146.729 149.408C-125.691 132.524 -96.9724 125.96 -70.7004 131.992C-43.6787 138.195 -20.2211 156.585 -5.96112 180.135C20.2591 223.458 11.4256 277.118 25.3671 324.133C32.1837 347.14 45.3326 366.828 65.3405 380.388C88.5248 396.105 115.963 403.04 142.368 411.248C170.188 419.902 198.694 430.88 217.385 454.377C234.871 476.367 238.387 504.978 222.648 528.911C208.737 550.073 185.749 563.783 163.075 573.78C137.061 585.24 109.717 593.805 81.7139 598.751C54.1044 603.634 25.7284 605.009 -2.14309 601.667C-30.0949 598.324 -56.2208 586.76 -77.9349 568.891C-88.3999 560.281 -97.6903 551.363 -109.82 544.979C-121.816 538.665 -134.763 534.245 -147.902 531.031C-174.938 524.407 -202.935 523.445 -230.369 519.254C-244.683 517.069 -258.794 513.949 -272.426 508.988C-273.489 508.6 -274.19 510.237 -273.112 510.634Z" fill="#BB86FC"/>
<path d="M-261.631 505.874C-208.04 525.335 -144.288 512.741 -96.0283 547.484C-84.9952 555.42 -75.8303 565.363 -64.2517 572.701C-53.4881 579.525 -41.8435 584.938 -29.6209 588.576C-4.5913 596.017 23.0176 596.138 48.8288 593.691C76.2978 591.089 103.358 584.571 129.234 575.049C152.213 566.599 175.478 556.21 193.48 539.169C209.056 524.421 219.521 504.189 215.691 482.309C211.692 459.463 194.513 440.822 175.129 429.292C126.612 400.455 55.069 404.354 27.3831 346.727C6.22507 302.678 17.0748 250.55 -2.51634 205.901C-21.6067 162.392 -70.6191 134.758 -117.183 150.176C-139.196 157.463 -157.059 173.228 -166.379 194.509C-175.601 215.546 -177.166 238.861 -181.655 261.133C-184.129 273.398 -187.497 285.62 -193.475 296.683C-200.966 310.552 -212.494 321.553 -225.104 330.786C-247.43 347.139 -273.16 358.467 -293.717 377.268C-309.394 391.6 -322.217 410.446 -322.313 432.413C-322.404 455.057 -308.833 475.082 -291.696 488.811C-282.637 496.077 -272.454 501.721 -261.631 505.874C-260.566 506.28 -259.871 504.648 -260.941 504.235C-283.473 495.589 -304.972 479.484 -315.106 457.002C-325.798 433.263 -319.057 408.195 -302.647 388.984C-269.976 350.735 -211.134 340.196 -189.19 292.048C-170.572 251.187 -181.263 197.331 -143.05 166.258C-123.445 150.314 -96.6188 143.981 -71.9566 149.361C-46.7196 154.853 -24.7195 171.776 -11.0859 193.468C14.1313 233.571 6.31864 283.901 18.5387 327.943C24.5083 349.427 36.0173 368.235 54.2173 381.442C75.5165 396.904 101.381 403.771 126.182 411.363C152.279 419.36 179.158 428.968 197.616 450.112C215.173 470.225 220.425 497.619 206.14 521.056C193.735 541.414 171.998 554.841 150.746 564.367C126.052 575.432 100.036 583.695 73.4001 588.512C47.1191 593.255 20.1051 594.615 -6.44651 591.469C-33.3032 588.29 -58.3358 577.022 -79.0294 559.674C-88.2303 551.963 -96.5509 544.156 -107.254 538.46C-118.834 532.286 -131.353 527.997 -144.078 524.895C-169.665 518.652 -196.176 517.802 -222.13 513.779C-235.34 511.73 -248.354 508.804 -260.941 504.235C-262.015 503.845 -262.717 505.482 -261.631 505.874Z" fill="#BB86FC"/>
<path d="M-250.157 501.118C-199.832 519.361 -139.721 507.463 -94.5609 540.392C-84.29 547.885 -75.694 557.121 -64.8453 563.951C-54.4843 570.464 -43.281 575.596 -31.5092 578.979C-8.4521 585.619 16.9276 585.68 40.6633 583.462C65.9862 581.1 90.9828 575.162 114.873 566.482C136.54 558.611 158.509 548.971 175.635 533.145C190.33 519.567 200.597 500.907 197.59 480.396C194.438 458.832 178.508 440.922 160.432 429.908C115.242 402.385 48.3968 406.413 21.5335 353.294C0.930209 312.549 11.0595 263.696 -6.33606 221.838C-23.5205 180.504 -69.1288 153.373 -113.329 167.125C-134.207 173.624 -151.396 188.225 -160.462 208.182C-169.414 227.904 -170.908 249.944 -175.081 270.937C-177.326 282.259 -180.354 293.555 -185.714 303.836C-192.711 317.265 -203.652 327.898 -215.757 336.773C-236.76 352.188 -261.035 362.82 -280.349 380.561C-295.322 394.317 -307.438 412.394 -307.052 433.449C-306.674 454.239 -294.075 472.534 -278.304 485.159C-269.813 491.947 -260.288 497.22 -250.157 501.118C-249.087 501.531 -248.385 499.894 -249.461 499.475C-270.654 491.332 -290.824 476.2 -300.292 455.024C-310.383 432.48 -303.576 408.816 -287.906 390.8C-256.83 355.086 -201.493 345.101 -181.52 299.158C-164.772 260.637 -174.335 210.319 -137.729 181.79C-96.4085 149.588 -38.4615 168.05 -13.5211 211.217C8.43128 249.219 0.957859 295.656 13.1015 336.537C18.9634 356.267 30.0497 373.316 47.0057 385.246C67.226 399.48 91.4755 405.769 114.781 412.955C139.233 420.497 164.419 429.796 181.33 450.011C197.526 469.377 201.37 495.086 187.354 516.778C175.318 535.417 155.053 547.593 135.204 556.381C112.046 566.63 87.7014 574.286 62.7557 578.682C13.7672 587.3 -38.8384 584.868 -78.5516 551.767C-87.4398 544.354 -95.4076 536.845 -105.748 531.379C-116.247 525.821 -127.554 521.92 -139.068 519.055C-163.191 513.042 -188.213 512.252 -212.717 508.478C-225.229 506.56 -237.544 503.803 -249.456 499.481C-250.53 499.091 -251.231 500.728 -250.157 501.118Z" fill="#BB86FC"/>
<path d="M-238.672 496.365C-191.602 513.391 -135.157 502.208 -93.0805 533.292C-83.2524 540.554 -74.9849 549.323 -64.4729 555.783C-55.1369 561.528 -45.0487 566.04 -34.5146 569.055C-13.0707 575.186 10.4506 575.283 32.5093 573.235C56.1085 571.048 79.3729 565.542 101.651 557.496C121.926 550.164 142.487 541.175 158.54 526.421C172.039 514.018 181.66 497.084 179.421 478.245C176.901 457.071 161.125 439.636 143.409 429.116C100.984 403.937 38.8406 407.349 14.3925 357.207C-4.33245 318.788 5.27739 273.09 -11.7536 234.027C-28.3079 196.072 -70.9335 171.645 -111.647 184.776C-130.441 190.831 -146.078 203.94 -154.511 221.861C-163.189 240.286 -164.643 261.012 -168.5 280.736C-170.663 291.766 -173.57 302.781 -178.87 312.767C-185.557 325.363 -196.054 335.263 -207.494 343.551C-227.208 357.832 -249.852 367.817 -267.751 384.581C-281.415 397.379 -292.278 414.128 -291.8 433.481C-291.323 452.793 -279.573 469.777 -264.906 481.503C-256.991 487.829 -248.117 492.727 -238.672 496.365C-237.606 496.772 -236.911 495.14 -237.981 494.727C-257.818 487.084 -276.694 472.919 -285.49 453.046C-294.765 432.077 -288.374 410.108 -273.828 393.393C-244.879 360.13 -193.365 350.787 -174.634 308.078C-158.84 272.064 -167.91 225.047 -133.66 198.329C-95.3763 168.477 -41.5928 185.378 -18.1901 225.253C2.5702 260.627 -4.35352 304.057 6.82788 342.268C12.1815 360.553 22.2708 376.443 37.8419 387.674C56.5619 401.173 79.2347 407.138 100.973 413.81C123.832 420.828 147.486 429.327 163.457 448.069C179.144 466.472 182.85 491.071 169.068 511.667C157.445 529.034 138.401 540.188 119.669 548.391C98.0718 557.845 75.362 564.87 52.1179 568.847C6.93417 576.587 -41.4137 574.191 -78.0897 543.854C-86.3188 537.041 -93.6851 529.974 -103.192 524.858C-112.896 519.628 -123.388 515.93 -134.064 513.221C-156.339 507.561 -179.45 506.726 -202.114 503.362C-214.326 501.55 -226.352 498.939 -237.981 494.727C-239.055 494.336 -239.757 495.973 -238.672 496.365Z" fill="#BB86FC"/>
<path d="M-227.197 491.61C-183.657 507.333 -131.64 497.133 -92.5559 525.501C-83.8024 531.862 -76.4922 539.752 -67.3058 545.619C-58.2252 551.425 -48.3588 556.002 -37.9997 558.997C-18.187 564.743 3.56752 564.877 23.9828 563.045C46.2357 561.042 68.1858 555.857 89.1684 548.237C108.097 541.37 127.3 532.924 142.193 519.008C154.314 507.685 162.942 492.334 161.144 475.291C159.137 456.24 145.322 440.127 129.593 430.267C90.8251 405.985 32.5502 409.864 8.89223 364.415C-9.64481 328.783 -0.539106 285.778 -15.9648 249.064C-30.9827 213.339 -70.615 190.073 -108.805 202.061C-126.019 207.466 -140.559 219.294 -148.548 235.54C-156.96 252.644 -158.377 272.079 -161.923 290.528C-163.86 300.627 -166.436 310.703 -171.113 319.912C-177.111 331.713 -186.619 341.044 -197.179 348.835C-215.499 362.365 -236.765 371.591 -253.607 387.154C-266.423 399.007 -276.816 414.533 -276.573 432.607C-276.34 450.559 -265.588 466.423 -252.037 477.42C-244.564 483.475 -236.152 488.146 -227.197 491.61C-226.126 492.023 -225.43 490.379 -226.5 489.966C-245.106 482.777 -262.818 469.446 -270.843 450.671C-279.417 430.612 -272.531 409.897 -258.364 394.418C-231.092 364.614 -184.277 355.555 -167.364 316.088C-153.007 282.592 -161.233 239.065 -129.163 214.528C-92.1447 186.202 -40.4869 204.511 -20.3149 243.914C-3.2771 277.177 -9.68284 316.43 1.57015 351.33C7.10879 368.494 17.4754 382.863 32.6183 392.81C50.0088 404.236 70.3524 409.444 89.9894 415.532C110.752 421.971 132.104 430.005 146.487 447.146C160.802 464.209 163.982 486.815 151.331 505.733C140.494 521.952 122.653 532.327 105.159 539.947C85.154 548.66 64.1348 555.145 42.6162 558.814C-0.262006 566.125 -45.8324 563.447 -80.0588 533.866C-87.6379 527.319 -94.7745 521.204 -103.803 516.662C-112.553 512.264 -121.91 509.12 -131.407 506.794C-152.193 501.706 -173.722 501.002 -194.806 497.74C-205.599 496.081 -216.218 493.691 -226.496 489.973C-227.569 489.582 -228.271 491.219 -227.197 491.61Z" fill="#BB86FC"/>
<path d="M-215.716 486.85C-175.158 501.454 -126.081 491.707 -90.1614 519.1C-82.2553 525.132 -75.4544 532.18 -66.9303 537.469C-58.8538 542.482 -50.1315 546.44 -40.9941 549.075C-22.4608 554.423 -2.08093 554.502 16.998 552.706C37.5082 550.772 57.7279 545.928 77.0601 538.85C94.5151 532.452 112.212 524.581 125.835 511.593C136.881 501.073 144.517 486.916 142.737 471.293C140.748 453.862 128.026 439.158 113.635 430.123C77.5479 407.456 23.1921 411.253 1.72855 368.325C-14.9237 335.014 -6.27636 295.138 -21.405 261.25C-35.8314 228.933 -72.2337 208.446 -106.968 219.666C-122.875 224.807 -136.188 235.888 -143.447 251.007C-151.139 267.021 -152.341 285.133 -155.734 302.325C-157.596 311.747 -160.089 321.249 -164.746 329.721C-170.733 340.652 -179.851 349.15 -189.903 356.331C-206.787 368.376 -226.052 376.939 -241.209 391.363C-252.373 401.992 -261.274 415.731 -261.329 431.622C-261.378 448.501 -251.368 463.437 -238.639 473.764C-231.736 479.352 -223.981 483.653 -215.716 486.85C-214.646 487.263 -213.951 485.631 -215.021 485.218C-232.542 478.421 -249.317 465.713 -256.418 447.772C-263.811 429.106 -256.771 410.301 -243.615 396.299C-218.22 369.242 -175.241 360.712 -160.092 324.088C-147.152 292.774 -154.52 252.274 -123.815 230.11C-89.2979 205.198 -42.4442 222.727 -24.4142 259.008C-9.10353 289.812 -15.0332 325.893 -4.4146 357.998C0.656657 373.317 9.96579 386.23 23.4399 395.259C39.7182 406.162 58.9045 411.002 77.3744 416.749C96.2393 422.621 115.612 429.938 128.794 445.391C142.51 461.478 145.394 482.871 133.046 500.61C122.898 515.202 106.676 524.537 90.7152 531.472C71.9384 539.629 52.1969 545.65 31.9911 548.97C10.839 552.446 -11.6918 553.514 -32.8112 549.266C-44.4964 546.91 -55.712 542.339 -65.8373 536.061C-75.0209 530.372 -82.2123 522.533 -90.9356 516.32C-127.231 490.49 -174.823 499.69 -215.021 485.218C-216.095 484.828 -216.797 486.465 -215.716 486.85Z" fill="#BB86FC"/>
<path d="M-204.238 482.102C-166.694 495.57 -120.486 486.262 -87.8105 512.722C-73.881 523.997 -61.4304 534.192 -43.7799 539.217C-26.2289 544.217 -6.86072 544.149 11.1599 542.251C29.1404 540.354 46.8537 536.059 63.8314 529.868C79.8882 524.014 96.1995 516.797 108.749 504.883C119.057 495.105 126.19 481.844 124.323 467.299C122.296 451.48 110.789 438.215 97.6878 429.98C64.7952 409.307 15.4141 412.745 -4.54216 373.994C-20.4245 343.135 -11.9133 305.787 -26.4311 274.38C-39.8545 245.363 -72.687 227.051 -104.125 236.94C-119.097 241.643 -131.564 252.072 -138.265 266.313C-145.115 280.865 -146.21 297.243 -149.288 312.817C-151.056 321.747 -153.452 330.695 -157.931 338.694C-164.435 350.301 -174.947 358.758 -185.897 365.959C-202.954 377.182 -222.031 386.104 -234.998 402.451C-245.446 415.623 -249.385 432.501 -242.493 448.283C-235.457 464.419 -220.283 475.857 -204.238 482.102C-203.172 482.509 -202.47 480.872 -203.541 480.459C-219.696 474.175 -235.187 462.433 -241.594 445.797C-248.17 428.706 -241.549 411.608 -229.536 398.881C-206.072 374.028 -166.651 366.223 -152.92 332.292C-141.385 303.793 -147.876 267.149 -120.137 246.931C-87.9164 223.454 -43.9339 240.642 -28.0914 275.029C-14.961 303.533 -20.4112 336.338 -10.0687 365.592C1.59558 398.56 33.1342 408.165 63.6003 417.608C81.6401 423.195 100.248 430.132 112.484 445.299C124.301 459.958 126.285 478.966 115.309 494.677C105.474 508.764 89.5829 517.401 74.1192 523.914C57.5867 530.876 40.2526 536.04 22.537 538.922C3.10395 542.096 -17.6391 543.061 -37.0211 539.059C-47.7734 536.838 -58.1142 532.565 -67.3874 526.703C-75.1059 521.834 -81.2991 515.345 -88.538 509.897C-121.631 485.012 -166.352 493.801 -203.541 480.459C-204.61 480.074 -205.316 481.705 -204.238 482.102Z" fill="#BB86FC"/>
<path d="M-192.757 477.342C-158.733 489.52 -116.987 481.191 -87.2667 504.917C-74.2271 515.323 -62.8706 524.831 -46.3886 529.407C-30.69 533.766 -13.4338 533.703 2.66871 532.055C19.6853 530.316 36.4474 526.171 52.4707 520.192C66.7904 514.844 81.2874 508.272 92.3867 497.461C101.562 488.529 107.824 476.411 105.908 463.316C103.935 449.823 94.5223 438.421 83.4932 430.973C53.486 410.7 7.23064 414.941 -11.2412 378.779C-25.5545 350.758 -17.8733 316.928 -31.0471 288.446C-43.3568 261.845 -73.5533 245.182 -102.292 254.538C-115.959 258.987 -127.176 268.662 -133.139 281.771C-138.99 294.614 -140.073 308.928 -142.713 322.62C-144.601 332.342 -147.267 342.043 -152.848 350.364C-159.11 359.706 -168.253 366.588 -177.605 372.614C-193.048 382.561 -210.205 390.861 -221.562 405.874C-243.14 434.391 -221.915 465.958 -192.757 477.342C-191.692 477.76 -190.991 476.123 -192.066 475.703C-206.582 470.029 -220.439 459.602 -226.391 444.742C-232.859 428.602 -226.31 412.52 -214.716 400.708C-193.565 379.147 -159.019 371.808 -146.411 342.115C-135.409 316.189 -141.776 282.34 -116.461 263.763C-86.8047 241.992 -46.4293 258.176 -32.2978 290.032C-20.8987 315.71 -25.5719 345.047 -16.3582 371.315C-5.77962 401.475 23.1779 410.201 50.9905 418.831C67.1024 423.823 83.8015 430.071 94.7977 443.538C105.76 456.96 107.632 474.249 97.5718 488.744C89.0478 501.029 75.1784 508.777 61.7558 514.547C45.8 521.408 29.0155 526.422 11.8432 529.079C-5.55249 531.773 -24.1751 532.556 -41.4809 528.797C-51.7289 526.581 -61.4898 522.306 -70.2154 516.506C-77.2549 511.821 -82.9248 505.522 -89.8888 500.791C-120.098 480.288 -158.948 487.556 -192.066 475.703C-193.135 475.319 -193.837 476.956 -192.757 477.342Z" fill="#BB86FC"/>
<path d="M-181.271 472.589C-150.519 483.543 -112.474 475.975 -85.846 497.83C-74.6817 507.001 -64.4247 515.146 -50.2659 519.242C-35.9803 523.374 -20.1954 523.327 -5.50969 521.836C9.78321 520.273 24.8293 516.568 39.2293 511.22C52.4593 506.306 65.9083 500.196 75.9994 490.048C83.6514 482.365 88.8277 472.241 87.7275 461.163C86.3966 447.832 76.7473 436.596 65.7831 429.692C38.2234 412.332 -3.27433 415.453 -18.8082 381.828C-30.6234 356.251 -23.7642 325.922 -36.5965 300.594C-48.1675 277.771 -74.5302 263.878 -99.5946 271.871C-111.607 275.705 -121.714 284.06 -127.196 295.466C-132.745 307.01 -133.798 320.008 -136.139 332.424C-137.859 341.499 -140.255 350.648 -145.522 358.384C-151.059 366.522 -158.98 372.571 -167.15 377.885C-181.317 387.098 -197.136 394.599 -207.484 408.508C-226.627 434.232 -207.334 462.37 -181.271 472.589C-180.207 473.007 -179.517 471.368 -180.581 470.95C-193.742 465.788 -206.31 456.322 -211.567 442.767C-217.638 427.103 -210.058 411.945 -198.489 401.254C-179.228 383.442 -149.767 376.273 -139.147 350.131C-129.705 326.854 -135.021 296.881 -112.42 280.333C-86.1055 261.079 -50.3441 275.167 -37.3253 303.173C-26.6811 326.056 -30.8626 352.47 -22.9597 376.098C-13.9336 403.108 11.086 411.689 36.0687 419.336C50.6284 423.794 65.8453 429.024 76.2358 440.768C87.2418 453.215 89.3939 469.953 79.2565 483.594C71.101 494.561 58.5888 501.335 46.2369 506.525C32.2037 512.43 17.4778 516.738 2.41813 519.03C-13.2649 521.426 -30.0997 522.107 -45.6681 518.593C-54.6139 516.576 -63.1423 512.824 -70.7706 507.768C-77.409 503.365 -82.7229 497.381 -89.3647 493.041C-116.607 475.274 -150.963 481.499 -180.581 470.95C-181.661 470.564 -182.363 472.201 -181.271 472.589Z" fill="#BB86FC"/>
<path d="M-169.797 467.833C-142.223 477.593 -108.111 470.839 -84.4237 490.732C-74.2894 499.249 -64.6073 506.41 -51.5426 509.779C-38.3671 513.177 -23.8812 512.908 -10.4737 511.25C13.3501 508.303 42.6817 500.439 59.7698 482.456C76.7903 464.544 68.4877 440.743 48.7948 428.933C23.65 413.839 -13.5036 416.24 -26.2483 384.831C-35.6073 361.789 -29.7159 334.82 -42.2551 312.742C-53.571 292.837 -77.6866 281.615 -99.694 290.171C-124.273 299.726 -125.62 323.801 -130.347 346.171C-132.028 354.144 -134.605 361.804 -139.618 368.337C-145.253 375.687 -153.11 380.976 -160.894 385.8C-172.792 393.168 -185.694 400.023 -193.898 411.798C-209.844 434.662 -192.388 458.92 -169.797 467.833C-168.733 468.251 -168.031 466.614 -169.1 466.19C-180.515 461.687 -191.739 453.483 -196.399 441.707C-201.476 428.849 -196.546 416.223 -187.346 406.721C-170.765 389.588 -143.588 383.845 -133.061 360.851C-123.743 340.494 -129.039 314.156 -110.354 298.418C-87.3253 279.033 -53.8393 291.914 -41.9353 317.234C-32.5868 337.136 -36.027 360.208 -29.5516 380.893C-22.2585 404.215 -1.73144 412.916 19.9846 419.505C32.5057 423.301 45.7302 427.153 55.634 436.153C66.7949 446.299 71.6955 461.845 63.1711 475.283C56.51 485.795 45.0037 492.358 33.873 497.157C21.5112 502.495 8.51892 506.44 -4.78668 508.624C-19.2089 510.99 -34.6835 511.747 -49.0414 508.552C-57.1411 506.755 -64.8221 503.372 -71.7252 498.776C-77.4861 494.931 -82.1236 489.745 -87.8862 485.951C-112.072 470.02 -142.733 475.528 -169.1 466.19C-170.176 465.81 -170.877 467.448 -169.797 467.833Z" fill="#BB86FC"/>
<path d="M-158.316 463.073C-133.915 471.646 -103.803 465.725 -83.0458 483.667C-74.5028 491.048 -65.7053 497.065 -54.5766 499.856C-43.4029 502.654 -31.2251 502.476 -19.8483 501.172C1.01766 498.762 26.557 491.968 41.8175 476.624C56.0178 462.343 52.1908 442.666 36.4949 431.187C15.3163 415.685 -18.6404 419.547 -31.493 392.931C-41.2056 372.81 -35.4894 348.679 -45.864 328.692C-55.0027 311.07 -75.517 300.535 -94.9104 306.767C-116.878 313.82 -119.622 334.296 -123.372 354.002C-124.747 361.204 -126.68 368.424 -130.952 374.513C-135.758 381.363 -142.754 386.261 -149.752 390.648C-160.295 397.253 -171.872 403.198 -179.243 413.618C-193.486 433.746 -178.306 455.104 -158.316 463.073C-157.253 463.502 -156.552 461.865 -157.626 461.435C-168.138 457.24 -178.411 449.518 -182.074 438.351C-186.242 425.636 -179.032 414.022 -169.64 405.971C-154.497 392.991 -132.806 387.137 -125.028 367.039C-118.038 348.972 -121.872 325.973 -104.229 313.36C-82.351 297.722 -53.6257 311.625 -44.9901 335.107C-38.404 353.042 -41.4984 373.089 -34.337 390.856C-26.5647 410.15 -7.45918 416.144 10.8392 421.768C22.2975 425.296 34.3039 429.476 42.278 438.926C50.7248 448.955 51.5725 462.136 43.1884 472.462C29.7969 488.965 3.52148 496.049 -16.5583 498.934C-28.8819 500.715 -42.162 501.175 -54.3214 498.092C-61.4333 496.288 -68.1975 493.032 -74.1504 488.769C-78.7462 485.477 -82.5646 481.252 -87.36 478.229C-108.453 464.909 -134.802 469.452 -157.626 461.435C-158.701 461.055 -159.403 462.692 -158.316 463.073Z" fill="#BB86FC"/>
<path d="M-146.837 458.325C-125.949 465.603 -100.32 460.646 -82.5055 475.845C-75.2887 482.001 -68.107 487.09 -58.7975 489.607C-49.3226 492.171 -38.9053 492.105 -29.1978 491.076C-11.1915 489.159 10.5796 483.426 24.0258 470.591C36.0658 459.107 34.6372 442.882 22.1133 432.32C4.29708 417.293 -26.1336 421.728 -37.7651 398.61C-46.506 381.253 -41.309 360.156 -50.4419 342.85C-58.1116 328.321 -74.8076 319.314 -91.0628 323.762C-110.466 329.068 -113.634 346.574 -116.806 363.781C-118.015 370.36 -119.667 376.977 -123.622 382.51C-127.915 388.504 -134.152 392.714 -140.33 396.549C-149.565 402.287 -159.682 407.652 -165.716 417.084C-176.708 434.29 -163.237 451.713 -146.837 458.325C-145.779 458.747 -145.078 457.11 -146.14 456.681C-155.292 452.994 -164.289 446.253 -167.209 436.376C-170.638 424.772 -163.28 414.762 -154.628 407.935C-141.09 397.248 -123.457 391.88 -117.468 374.071C-112.195 358.441 -114.778 338.927 -98.8165 329.015C-78.8423 316.624 -55.3931 330.55 -49.0027 351.108C-44.1376 366.741 -46.9162 384.366 -39.4254 399.26C-31.8225 414.37 -15.5392 418.653 -0.616863 423.341C9.16224 426.42 19.5728 430.249 25.9198 438.809C32.8709 448.191 32.1399 459.435 24.1668 467.949C11.4004 481.56 -11.5868 487.41 -29.4003 489.303C-40.2628 490.463 -51.9954 490.418 -62.3803 486.61C-72.4988 482.903 -78.717 475.079 -87.7987 469.956C-105.681 459.87 -127.203 463.281 -146.145 456.675C-147.222 456.307 -147.924 457.944 -146.837 458.325Z" fill="#BB86FC"/>
<path d="M-135.356 453.564C-116.855 459.929 -96.0186 455.897 -80.2878 469.515C-67.1984 480.847 -50.8901 482.815 -34.1728 480.448C-19.5054 478.369 -0.931659 473.361 9.10279 461.622C18.0428 451.182 14.1968 437.865 3.63699 430.228C-12.25 418.721 -37.3768 421.949 -45.6372 400.713C-51.3808 385.958 -47.464 368.675 -56.2769 354.869C-63.8581 342.981 -78.8324 336.827 -92.2209 342.361C-106.8 348.394 -107.972 362.724 -110.736 376.278C-113.271 388.688 -120.241 395.862 -130.857 402.422C-138.765 407.309 -147.544 412.115 -152.093 420.637C-159.698 434.903 -148.331 448.263 -135.356 453.564C-134.3 453.998 -133.599 452.361 -134.666 451.926C-142.461 448.739 -150.031 443.037 -152.192 434.496C-154.842 424.015 -147.433 415.631 -139.503 409.956C-128.848 402.334 -115.825 397.465 -111.005 384.208C-106.434 371.65 -108.824 355.882 -96.8738 347.001C-80.0265 334.492 -58.8671 347.151 -53.6977 365.163C-50.144 377.565 -51.944 391.241 -46.5489 403.169C-40.8097 415.853 -27.9135 420.07 -15.5402 423.857C-8.02918 426.153 -0.123408 428.657 5.67626 434.217C13.3552 441.582 14.787 452.231 7.69452 460.529C-2.16293 472.076 -21.146 476.979 -35.5416 478.844C-45.1484 480.088 -55.7168 480.247 -64.9156 476.845C-73.1079 473.824 -78.2608 467.6 -85.5114 463.304C-100.399 454.489 -118.717 457.411 -134.666 451.926C-135.743 451.558 -136.445 453.195 -135.356 453.564Z" fill="#BB86FC"/>
</svg>
