<svg width="269" height="676" viewBox="0 0 269 676" fill="none" xmlns="http://www.w3.org/2000/svg">
<path d="M564.829 35.4191C543.002 17.9696 513.978 10.7435 486.5 16.0732C471.529 18.9775 458.311 26.2163 444.999 33.3389C431.152 40.7369 416.27 48.6376 400.104 47.9974C383.07 47.3232 369.515 36.5409 356.496 26.7311C345.106 18.1449 333.435 10.7313 319.542 7.01561C294.063 0.19808 266.631 4.91584 242.979 15.7774C215.976 28.1714 193.391 49.9641 173.233 71.3592C163.101 82.1126 153.846 93.6666 145.838 106.088C138.102 118.099 129.256 131.377 127.431 145.783C125.669 159.737 128.467 174.2 134.606 186.806C141.954 201.922 154.761 212.982 167.13 223.914C181.086 236.246 193.962 248.972 201.67 266.256C209.297 283.356 211.91 302.296 211.978 320.896C212.21 384.696 179.62 450.205 206.868 512.421C229.489 564.078 283.744 597.175 338.265 604.761C402.607 613.709 466.549 586.042 516.409 547.134C541.487 527.56 565.089 504.706 583.844 478.92C600.408 456.144 613.649 428.769 611.52 399.912C609.201 368.459 588.867 342.827 572.445 317.299C563.386 303.204 554.782 288.354 550.94 271.888C547.426 256.802 548.742 241.485 553.388 226.793C561.829 200.14 578.722 177.217 589.555 151.595C600.73 125.182 602.716 96.9139 590.989 70.2309C585.061 56.7401 576.124 44.8735 564.829 35.4191C564.042 34.7612 562.898 35.896 563.692 36.5666C589 57.7443 602.096 91.9687 596.248 124.618C591.495 151.164 576.212 174.202 564.097 197.806C552.859 219.709 543.993 243.416 548.568 268.377C554.07 298.377 574.954 322.563 590.438 347.877C598.873 361.67 606.387 376.47 609.03 392.576C611.394 406.993 609.723 421.666 605.204 435.504C595.924 463.922 576.347 488.018 555.902 509.256C509.339 557.606 448.563 597.387 380.354 603.937C323.917 609.35 264.027 587.375 227.669 543.086C208.534 519.783 198.415 491.503 197.553 461.416C196.61 428.567 204.853 396.421 209.9 364.191C214.776 333.078 216.637 299.444 204.801 269.583C199.274 255.64 190.68 243.823 179.96 233.425C167.26 221.124 152.291 210.639 141.954 196.093C133.032 183.531 128.171 167.83 128.54 152.414C128.939 135.522 138.315 120.734 147.232 106.888C163.757 81.2504 185.717 60.1237 208.591 40.2006C230.012 21.5393 256.583 8.48596 285.108 5.88635C298.762 4.64084 312.736 6.01054 325.692 10.605C339.671 15.5602 350.946 24.7129 362.718 33.418C373.287 41.2297 384.762 48.4344 398.194 49.4971C411.858 50.579 424.944 45.3764 436.934 39.3629C450.399 32.6099 463.311 24.3092 477.823 19.8878C492.636 15.3696 508.572 14.8019 523.731 17.8892C538.363 20.8727 552.028 27.2394 563.692 36.5666C564.494 37.2072 565.634 36.066 564.829 35.4191Z" fill="#BB86FC"/>
<path d="M556.105 47.4981C535.102 30.7274 507.057 23.8449 480.674 29.3072C452.18 35.2141 428.128 61.6445 397.988 59.3383C382.067 58.1238 369.395 47.6216 357.151 38.4343C346.849 30.7055 336.201 24.1102 323.688 20.6682C299.395 13.9811 273.167 18.4034 250.561 28.7386C224.758 40.5346 203.134 61.391 183.914 81.838C174.703 91.6279 166.248 102.127 158.888 113.377C151.317 124.953 142.477 138.05 140.619 152C138.805 165.704 141.647 180.023 147.879 192.304C154.921 206.196 166.814 216.451 178.302 226.592C191.727 238.459 204.123 250.808 211.407 267.488C218.497 283.745 220.883 301.687 220.891 319.303C220.913 379.543 190.357 441.385 215.845 500.179C237.268 549.599 289.109 581.246 341.197 588.393C401.89 596.721 462.194 570.762 509.348 534.194C533.472 515.484 556.155 493.567 574.156 468.827C590.196 446.777 602.936 420.166 600.342 392.223C597.58 362.475 578.064 338.306 562.566 314.027C554.011 300.616 545.991 286.44 542.616 270.739C539.647 256.908 540.978 242.881 545.206 229.465C553.32 203.705 569.763 181.618 580.06 156.788C590.366 131.945 591.919 105.352 580.887 80.3898C575.246 67.6327 566.788 56.449 556.105 47.4981C555.318 46.8402 554.178 47.9814 554.974 48.642C578.541 68.3887 591.043 100.096 586.159 130.621C582.1 156.029 567.587 178.122 555.962 200.561C545.26 221.23 536.511 243.581 540.324 267.25C544.912 295.707 564.502 318.798 579.275 342.554C587.219 355.333 594.379 368.885 597.45 383.734C600.405 397.998 599.083 412.673 594.722 426.505C586.027 454.084 567.005 477.437 547.215 497.941C503.182 543.543 445.765 581.116 381.375 587.432C327.467 592.728 270.192 571.816 235.572 529.35C217.533 507.214 208.024 480.389 207.265 451.906C206.437 420.773 214.227 390.329 219.005 359.781C223.483 331.171 225.264 300.443 215.219 272.748C210.14 258.742 201.905 246.725 191.317 236.32C179.858 225.068 166.554 215.558 156.545 202.892C146.559 190.265 141.101 173.822 141.745 157.722C142.37 142.235 151.058 128.564 159.215 115.828C174.918 91.3253 195.856 71.178 217.657 52.1616C238.141 34.3034 263.672 21.7399 290.998 19.4585C304.098 18.371 317.447 19.7613 329.822 24.3178C342.691 29.0558 353.107 37.5417 364 45.591C373.873 52.8876 384.516 59.6478 397.024 60.8608C409.665 62.0825 421.802 57.5882 432.973 52.1239C446.205 45.658 458.716 37.4273 472.859 32.9982C486.859 28.6171 501.941 27.9651 516.319 30.7728C530.478 33.5375 543.706 39.647 554.974 48.642C555.776 49.2826 556.921 48.1478 556.105 47.4981Z" fill="#BB86FC"/>
<path d="M547.386 59.5833C528.06 44.1618 502.64 37.6239 478.251 41.8943C464.638 44.2701 452.604 50.6648 440.554 57.1198C427.913 63.8897 414.425 71.2499 399.659 70.8888C384.074 70.5071 371.674 60.5783 359.802 51.642C349.937 44.2133 339.811 37.7154 327.835 34.3206C305.02 27.8421 280.322 31.7982 258.958 41.3318C234.493 52.2548 214.167 71.7269 195.909 90.9149C186.887 100.4 178.603 110.563 171.403 121.501C164.094 132.604 155.506 145.241 153.768 158.664C152.266 170.245 154.254 182.215 158.847 192.904C164.836 206.868 175.749 217.129 186.926 227.025C199.135 237.828 211.117 248.575 218.625 263.335C226.339 278.511 229.32 295.661 229.744 312.554C231.208 370.469 200.839 429.811 224.215 486.471C243.626 533.505 292.076 564.052 341.138 571.586C398.92 580.457 456.617 556.305 501.777 521.65C525.035 503.805 546.844 482.816 564.195 459.112C579.159 438.667 591.135 414.116 589.461 388.153C587.619 359.632 569.147 336.346 554.287 313.234C546.002 300.364 538.139 286.784 534.764 271.703C531.801 258.454 532.991 245.008 537.021 232.131C544.639 207.819 560.134 186.974 569.905 163.585C579.7 140.122 581.398 115.049 571.134 91.3576C565.788 79.0242 557.681 68.2147 547.386 59.5833C546.602 58.9154 545.461 60.0566 546.255 60.7272C569.027 79.8296 580.812 110.602 575.496 140.026C571.186 163.822 557.494 184.484 546.63 205.653C536.657 225.07 528.74 246.051 532.446 268.212C536.984 295.391 555.882 317.354 569.909 340.14C584.943 364.569 592.779 390.449 583.876 418.64C575.567 444.946 557.356 467.203 538.442 486.71C496.437 530.032 441.705 565.581 380.345 571.135C329.216 575.762 274.956 555.266 242.679 514.614C225.246 492.646 216.898 466.128 216.926 438.2C216.946 409.098 224.401 380.765 228.598 352.139C232.651 324.528 233.792 294.72 222.76 268.477C217.541 256.054 209.541 245.709 199.832 236.476C188.445 225.657 175.158 216.222 166.228 203.088C158.277 191.4 154.041 176.738 154.995 162.588C155.97 148.121 164.517 135.016 172.266 123.116C187.362 99.9146 207.5 80.6018 228.401 62.6727C247.501 46.2994 271.637 34.9811 296.889 33.0467C309.138 32.102 321.59 33.4666 333.136 37.7464C345.818 42.4395 355.941 50.9922 366.727 58.8404C375.991 65.5804 386.071 71.5871 397.764 72.4139C409.721 73.258 421.155 68.7956 431.674 63.5708C444.18 57.3621 456.103 49.5976 469.59 45.5895C482.574 41.7265 496.502 41.222 509.772 43.8287C523.136 46.4661 535.616 52.2348 546.255 60.7272C547.054 61.3614 548.198 60.2266 547.386 59.5833Z" fill="#BB86FC"/>
<path d="M538.669 71.6588C520.178 56.9351 495.721 50.699 472.44 55.111C446.909 59.9463 426.011 82.8704 399.432 82.3283C384.301 82.0251 372.424 72.3285 360.899 63.6845C351.498 56.6333 341.771 50.5924 330.327 47.5183C308.841 41.7412 285.723 45.6266 265.723 54.6709C242.61 65.1283 223.316 83.683 206.088 101.921C197.622 110.883 189.858 120.491 183.129 130.819C176.398 141.13 168.606 152.689 166.946 165.099C165.354 176.995 167.674 189.393 172.874 200.164C178.964 212.773 189.457 222.071 199.781 231.194C211.583 241.63 222.74 252.284 229.473 266.804C236.367 281.69 238.683 298.289 238.711 314.57C238.817 368.865 211.13 424.616 234.601 477.514C254.069 521.376 300.365 549.381 346.805 555.619C401.57 562.979 455.893 539.229 498.201 506.015C519.478 489.311 539.521 469.849 555.36 447.848C569.38 428.372 580.446 404.965 578.292 380.39C575.937 353.539 558.287 331.739 544.333 309.844C536.62 297.747 529.405 284.922 526.491 270.729C523.904 258.12 525.35 245.367 529.35 233.219C536.759 210.708 551.079 191.296 560.117 169.491C569.276 147.396 570.72 123.767 561.022 101.514C555.977 89.9232 548.342 79.7838 538.669 71.6588C537.879 70.9945 536.738 72.1357 537.539 72.8027C558.815 90.68 569.966 119.323 565.264 146.883C561.405 169.503 548.415 189.133 538.088 209.186C528.833 227.171 521.259 246.614 524.243 267.198C527.924 292.537 545.125 313.205 558.355 334.211C572.916 357.334 581.587 381.868 573.565 409.025C566.27 433.72 549.523 454.692 532.021 473.028C492.697 514.244 441.347 548.302 383.534 554.416C335.383 559.515 284.179 541.245 252.838 503.642C236.078 483.534 227.285 458.995 226.682 432.873C226.044 405.176 232.972 378.106 237.212 350.923C241.263 324.985 242.834 297.058 233.397 272.05C228.906 260.14 221.842 249.858 212.813 240.938C202.463 230.709 190.388 222.111 181.303 210.635C172.649 199.7 167.887 185.613 168.064 171.674C168.241 157.413 175.979 144.994 183.443 133.292C197.679 110.968 216.746 92.6378 236.627 75.3817C254.81 59.5963 277.711 48.6082 301.918 46.6997C313.586 45.7763 325.454 47.0702 336.458 51.1616C348.317 55.5742 357.829 63.5969 367.923 70.9527C376.768 77.3917 386.378 83.1266 397.551 83.8625C408.476 84.5802 418.959 80.6155 428.613 75.8899C440.263 70.1832 451.301 62.9453 463.736 58.9668C476.157 54.9956 489.565 54.3244 502.365 56.7187C515.247 59.1246 527.288 64.6461 537.539 72.8027C538.341 73.4432 539.481 72.302 538.669 71.6588Z" fill="#BB86FC"/>
<path d="M529.946 83.7376C512.898 70.1762 490.609 64.3019 469.077 67.8922C456.941 69.9169 446.247 75.4714 435.518 81.2157C423.796 87.4898 411.194 94.5175 397.451 93.7103C384.052 92.9255 373.378 84.2838 363.103 76.5567C354.276 69.9125 345.202 64.1655 334.474 61.1707C314.485 55.5912 292.858 59.0323 274.118 67.2741C252.082 76.9662 233.818 94.4522 217.433 111.695C209.406 120.14 202.045 129.194 195.646 138.933C189.28 148.626 181.808 159.653 180.137 171.323C178.559 182.345 180.654 193.821 185.291 203.882C190.779 215.785 200.47 224.604 210.128 233.145C221.246 242.982 231.932 252.864 238.478 266.457C244.99 279.959 247.356 295.13 247.603 309.995C248.472 361.772 221.479 414.798 243.578 465.271C261.548 506.315 304.61 532.757 347.916 539.004C399.647 546.458 451.018 524.342 491.144 493.082C511.353 477.35 530.348 458.925 545.403 438.14C558.333 420.276 568.689 398.89 567.394 376.306C565.952 351.083 549.886 330.44 536.686 310.045C529.497 298.944 522.616 287.317 519.284 274.4C516.082 261.959 516.957 249.306 520.774 237.12C527.575 215.408 541.446 196.807 550.119 175.9C558.665 155.303 560.132 133.315 551.279 112.501C546.525 101.311 539.235 91.5496 529.946 83.7376C529.166 83.076 528.025 84.2171 528.816 84.8814C549.044 101.912 559.568 129.263 554.733 155.457C550.783 176.831 538.413 195.314 528.709 214.373C519.906 231.656 513.095 250.362 516.665 270.005C520.934 293.538 537.107 312.644 549.385 332.426C562.974 354.319 570.232 377.563 562.182 402.921C554.992 425.561 539.519 444.798 523.332 461.723C486.268 500.457 437.898 532.415 383.476 538.024C338.21 542.682 290.061 525.357 260.737 489.9C245.079 470.964 236.891 447.874 236.39 423.356C235.855 397 242.541 371.291 246.486 345.406C250.184 321.123 251.46 295.038 242.484 271.698C238.189 260.54 231.439 250.994 222.951 242.644C213.313 233.166 202.121 225.171 193.684 214.51C185.374 203.995 180.861 190.384 181.258 176.989C181.661 163.547 189.365 151.555 196.496 140.555C209.942 119.848 227.877 102.586 246.537 86.6108C263.623 71.9837 285.201 61.8941 307.806 60.2816C318.616 59.5046 329.593 60.7691 339.771 64.5901C350.844 68.7432 359.744 76.2194 369.175 83.101C377.34 89.0667 386.18 94.3797 396.472 95.2338C407.025 96.1152 417.128 92.3178 426.449 87.7504C437.437 82.3661 447.848 75.5409 459.58 71.8149C471.237 68.1228 483.816 67.5141 495.824 69.7711C507.918 72.0459 519.194 77.2275 528.816 84.8814C529.618 85.522 530.758 84.3808 529.946 83.7376Z" fill="#BB86FC"/>
<path d="M521.23 95.813C505.237 83.1274 484.391 77.5922 464.195 80.9385C440.724 84.8316 421.562 106.365 397.232 105.163C384.333 104.523 374.083 96.0005 364.22 88.6046C355.843 82.3289 347.165 77.0325 336.96 74.3721C318.291 69.5077 298.281 72.8397 280.879 80.6069C260.401 89.7488 243.366 106.085 228.108 122.177C220.55 130.14 213.626 138.688 207.622 147.876C201.66 156.989 194.702 167.287 193.241 178.276C191.92 188.2 193.691 198.454 197.714 207.579C202.791 219.109 211.987 227.585 221.26 235.796C231.965 245.269 242.324 254.806 248.398 268.034C254.399 281.093 256.48 295.563 256.537 309.834C256.714 358.115 231.941 407.707 253.277 454.649C270.525 492.588 310.606 516.948 350.952 522.653C398.972 529.439 446.736 509.071 484.087 480.149C503.328 465.255 521.418 447.793 535.721 428.043C548.131 410.895 557.953 390.318 556.244 368.634C554.386 345.06 539.02 325.837 526.728 306.665C519.945 296.077 513.516 284.894 510.754 272.496C508.242 261.253 509.352 249.889 512.844 238.993C519.337 218.749 532.3 201.384 540.331 181.805C548.226 162.551 549.441 142.041 541.171 122.647C536.721 112.206 529.885 103.116 521.23 95.813C520.443 95.1551 519.302 96.2963 520.103 96.9633C539.13 113.015 548.824 138.528 544.36 163.16C540.816 182.705 529.516 199.748 520.568 217.132C512.293 233.211 505.553 250.612 508.453 269.005C511.872 290.712 526.389 308.49 537.831 326.513C551.048 347.349 559.094 369.341 551.693 393.91C545.223 415.371 530.625 433.653 515.393 449.629C480.974 485.727 436.123 515.665 385.567 521.404C343.054 526.23 297.749 510.54 269.776 477.529C254.744 459.784 246.755 438.098 246.122 414.896C245.466 390.654 251.481 366.918 255.248 343.137C258.881 320.198 260.44 295.545 252.311 273.337C248.577 263.121 242.712 254.141 235.116 246.38C225.774 236.842 214.619 229.088 206.27 218.58C198.601 208.926 194.252 196.586 194.417 184.216C194.592 171.32 201.671 160.054 208.473 149.498C220.922 130.197 237.515 114.286 254.763 99.3199C270.955 85.2596 291.275 75.564 312.824 73.9319C322.763 73.1737 332.893 74.3074 342.283 77.7176C352.89 81.5625 361.381 88.6546 370.369 95.2234C377.828 100.671 385.923 105.633 395.307 106.62C405.151 107.656 414.638 104.274 423.375 100.077C433.792 95.0722 443.578 88.574 454.62 84.9481C465.763 81.2899 477.82 80.6595 489.33 82.8472C500.613 84.9957 511.107 89.822 520.096 96.9669C520.901 97.5975 522.045 96.4626 521.23 95.813Z" fill="#BB86FC"/>
<path d="M512.51 107.898C497.745 96.1934 478.565 90.9872 459.896 93.8938C438.002 97.3114 420.427 116.979 397.963 116.627C385.445 116.429 375.618 108.376 366.093 101.226C358.411 95.4658 350.447 90.555 341.107 88.0244C323.333 83.2123 304.192 86.4333 287.641 93.9393C268.454 102.642 252.375 118.164 238.117 133.358C231.289 140.629 225.035 148.442 219.596 156.812C214.02 165.389 207.635 174.915 206.341 185.239C203.577 207.228 216.075 223.947 231.624 237.762C241.552 246.58 251.313 255.256 257.263 267.386C263.13 279.359 265.222 292.847 265.431 306.072C266.134 350.953 242.842 396.934 261.534 440.777C277.02 477.085 314.757 500.514 352.869 506.14C397.558 512.726 442.123 493.991 477.032 467.205C495.204 453.268 512.235 436.866 525.76 418.328C537.254 402.564 546.473 383.633 545.266 363.645C543.946 341.652 529.965 323.684 518.457 305.885C511.946 295.827 505.667 285.245 502.906 273.466C500.346 262.522 501.418 251.46 504.915 240.867C511.109 222.135 523.098 206.01 530.502 187.802C537.792 169.881 538.786 150.797 531.062 132.793C526.904 123.109 520.546 114.685 512.51 107.898C511.726 107.23 510.586 108.371 511.38 109.042C528.862 123.812 538.054 147.291 534.129 170.017C530.901 188.684 520.137 204.875 511.634 221.442C504.241 235.843 498.114 251.498 500.276 267.992C503.016 288.903 516.96 305.968 527.912 323.213C540.244 342.633 547.759 363.158 540.84 386.049C534.643 406.556 520.567 423.918 505.944 439.11C473.679 472.617 431.654 500.247 384.439 505.128C344.601 509.253 302.075 493.895 276.537 462.415C263.054 445.797 256.14 425.68 255.813 404.32C255.459 381.057 261.472 358.392 264.843 335.527C267.897 314.763 268.855 292.483 261.23 272.531C257.678 263.235 252.207 255.114 245.235 248.054C237.044 239.762 227.466 232.889 219.884 223.991C212.083 214.829 207.596 202.985 207.591 190.924C207.584 179.11 213.782 168.979 219.923 159.279C231.437 141.078 246.843 126.096 262.985 112.022C278.341 98.6306 297.31 89.1371 317.843 87.5818C327.219 86.8768 336.743 87.9016 345.595 91.1297C355.712 94.816 363.74 101.692 372.347 107.911C379.441 113.035 387.135 117.491 396.048 118.147C404.875 118.802 413.359 115.726 421.196 111.955C431.212 107.122 440.641 100.829 451.346 97.5166C461.473 94.3764 472.383 93.9063 482.782 95.9032C493.274 97.9143 503.011 102.413 511.38 109.042C512.178 109.676 513.322 108.541 512.51 107.898Z" fill="#BB86FC"/>
<path d="M503.793 119.974C490.067 109.129 472.361 104.287 455.021 106.953C434.549 110.102 417.856 128.914 396.797 128.057C385.634 127.604 376.83 120.514 368.296 114.099C361.196 108.758 353.876 104.112 345.253 101.677C328.957 97.0737 311.343 99.8386 296.045 106.546C278.192 114.369 263.416 128.487 250.118 142.431C243.698 149.161 237.801 156.37 232.65 164.108C227.441 171.938 221.18 181.003 219.687 190.45C216.487 210.653 227.524 226.781 241.869 239.61C251.115 247.879 260.5 255.814 266.252 267.056C271.861 278.008 273.997 290.41 274.314 302.614C275.393 344.572 253.377 387.484 270.52 428.521C284.602 462.219 319.414 484.12 354.626 489.602C396.535 496.119 438.394 478.562 471.111 453.388C487.75 440.589 503.351 425.563 515.799 408.613C526.379 394.208 534.975 376.95 534.283 358.634C533.503 337.916 520.466 320.923 509.626 304.24C497.38 285.382 489.372 265.913 496.732 243.54C502.501 226.012 513.767 210.957 520.63 193.901C527.324 177.257 528.164 159.525 520.912 142.869C517.037 133.955 511.193 126.245 503.793 119.974C503.007 119.316 501.869 120.447 502.663 121.118C519.161 135.107 527.534 157.165 523.599 178.565C520.461 195.653 510.475 210.53 502.7 225.753C495.85 239.153 490.322 253.641 492.373 268.942C494.964 288.225 507.903 304.003 517.999 319.91C529.424 337.918 536.433 356.979 529.995 378.201C524.27 397.07 511.388 413.074 497.942 427.086C467.624 458.657 427.947 484.737 383.419 488.834C345.888 492.281 305.657 476.975 282.693 446.429C270.799 430.609 265.343 411.874 265.523 392.172C265.717 371.156 271.164 350.717 274.104 330.019C276.806 310.925 277.496 290.446 270.314 272.189C267.033 263.849 262.076 256.56 255.813 250.185C247.346 241.577 236.96 234.627 229.799 224.782C223.858 216.61 220.572 206.364 220.775 196.253C221.006 184.997 227.492 174.895 233.507 165.727C244.183 149.442 258.264 135.945 272.895 123.252C287.055 110.965 304.861 102.413 323.734 101.171C332.544 100.588 341.463 101.682 349.722 104.853C358.689 108.295 365.902 114.495 373.585 120.051C379.961 124.664 386.905 128.763 394.897 129.543C403.021 130.331 410.877 127.668 418.129 124.251C427.313 119.932 435.868 114.228 445.507 110.919C455.075 107.635 465.44 107.072 475.378 108.8C485.379 110.534 494.71 114.843 502.656 121.121C503.465 121.758 504.605 120.617 503.793 119.974Z" fill="#BB86FC"/>
<path d="M495.071 132.053C482.425 122.096 466.135 117.548 450.146 119.995C431.262 122.882 415.947 140.067 396.575 139.502C385.548 139.183 377.043 131.802 368.638 125.567C361.981 120.641 355.013 116.649 346.911 114.677C331.879 111.016 315.884 113.866 301.992 120.246C285.793 127.685 272.22 140.77 260.134 153.608C254.221 159.893 248.8 166.633 244.086 173.864C239.424 181.022 233.976 189.1 232.738 197.696C230.007 216.577 240.617 231.229 253.975 243.126C262.513 250.726 271.048 258.158 276.183 268.61C281.33 279.082 283.141 290.848 283.262 302.418C283.656 340.979 263.759 380.532 280.284 418.115C293.942 449.149 326.588 469.015 359.387 473.504C397.853 478.773 436.047 462.26 465.883 439.036C481.198 427.119 495.614 413.157 506.961 397.36C516.608 383.925 524.278 367.813 523.15 350.876C521.89 331.869 509.646 316.369 499.735 300.958C488.573 283.613 481.916 265.783 488.817 245.422C494.173 229.608 504.301 215.948 510.546 200.512C516.811 185.023 517.606 168.522 510.811 153.028C507.227 144.854 501.857 137.82 495.071 132.053C494.291 131.391 493.146 132.526 493.94 133.196C509.174 146.141 516.895 166.48 513.223 186.26C510.338 201.829 501.277 215.426 494.158 229.286C487.751 241.778 482.496 255.31 484.448 269.6C486.764 286.598 497.792 300.679 506.834 314.656C517.331 330.892 524.895 348.148 519.876 367.712C515.363 385.313 503.728 400.361 491.505 413.388C463.861 442.857 427.585 467.435 386.601 472.102C352.22 476.024 315.45 463.117 293.238 436.023C281.477 421.67 275.501 404.27 275.248 385.76C274.978 366.131 280.013 347.008 282.891 327.719C285.497 310.284 286.428 291.693 280.495 274.795C277.686 266.802 273.303 259.64 267.5 253.475C260.542 246.085 252.112 240.204 245.402 232.568C238.516 224.729 234.27 214.951 233.979 204.438C233.683 193.859 238.945 184.989 244.425 176.306C254.24 160.764 267.369 147.969 281.136 135.943C294.256 124.485 310.341 116.332 327.891 114.885C336.103 114.206 344.489 115.098 352.237 117.97C360.429 121.01 367.051 126.507 374.012 131.606C379.937 135.953 386.298 139.938 393.736 140.876C401.168 141.818 408.379 139.595 415.076 136.54C423.678 132.624 431.603 127.241 440.539 124.066C449.036 121.043 458.207 120.277 467.116 121.589C476.972 123.042 486.123 127.039 493.94 133.196C494.748 133.833 495.883 132.696 495.071 132.053Z" fill="#BB86FC"/>
<path d="M486.351 144.138C474.911 135.14 460.313 130.966 445.832 132.968C428.417 135.372 414.894 150.397 397.273 150.926C387.041 151.234 379.004 144.533 371.279 138.772C365.322 134.325 359.121 130.502 351.892 128.527C338.125 124.765 323.268 127.145 310.383 132.843C295.53 139.412 283.249 151.116 272.129 162.702C266.628 168.435 261.546 174.572 257.128 181.183C252.643 187.883 247.257 195.714 245.969 203.811C243.362 220.229 251.939 233.813 263.59 244.412C271.342 251.472 279.519 257.974 284.649 267.343C289.927 276.984 291.905 288.052 292.153 298.946C292.962 334.299 274.487 370.461 288.918 405.044C300.888 433.708 330.513 452.337 360.49 456.876C395.866 462.23 431.127 447.416 458.743 426.167C482.347 407.995 512.866 379.304 512.184 346.762C511.439 310.593 468.284 288.582 479.971 250.123C484.563 235.013 494.272 222.128 500.263 207.62C506.127 193.422 507.131 178.344 501.051 164C497.764 156.239 492.75 149.586 486.351 144.138C485.573 143.466 484.433 144.607 485.22 145.282C499.648 157.58 506.708 177.036 502.478 195.687C499.24 209.966 490.816 222.313 484.39 235.257C478.568 246.953 474.367 259.547 476.914 272.721C479.906 288.227 490.384 300.928 498.577 313.961C508.038 329.004 513.608 344.89 508.298 362.492C503.392 378.734 492.169 392.466 480.55 404.467C455.256 430.596 422.373 452.098 385.466 455.831C354.028 459.015 320.443 446.673 300.576 421.586C289.762 407.934 284.779 391.506 284.964 374.169C285.156 356.225 289.868 338.806 292.305 321.121C294.478 305.377 294.983 288.551 289.233 273.456C282.845 256.709 268.159 248.556 256.995 235.548C251.055 228.63 247.455 219.897 247.151 210.732C246.807 200.554 252.106 191.866 257.459 183.596C266.311 169.916 277.998 158.563 290.213 147.907C303.9 135.961 321.336 127.708 339.833 128.345C348.448 128.646 356.762 131.073 364.081 135.66C371.717 140.445 378.214 147.211 386.708 150.569C401.889 156.579 415.543 146.799 428.634 140.295C447.182 131.087 468.696 132.292 485.22 145.282C486.025 145.912 487.169 144.778 486.351 144.138Z" fill="#BB86FC"/>
<path d="M477.634 156.213C467.002 147.895 453.463 144.086 440.052 146.15C424.51 148.535 412.004 162.498 396.116 162.385C387.179 162.32 380.284 156.717 373.493 151.647C367.597 147.249 361.587 143.52 354.386 141.741C342.245 138.738 329.292 140.861 317.969 145.811C304.043 151.896 292.463 162.95 282.147 173.869C277.803 178.46 273.766 183.333 270.179 188.531C265.862 194.787 260.6 202.215 259.207 209.805C256.671 223.654 263.237 236.148 272.993 245.447C279.963 252.093 287.865 257.778 293.021 266.089C298.672 275.2 300.771 285.978 301.064 296.567C301.935 328.923 284.88 362 298.25 393.624C309.007 419.051 335.036 435.681 361.611 440.221C393.856 445.734 426.249 432.523 451.603 413.282C473.302 396.81 501.324 370.704 501.14 340.981C501.028 323.306 489.306 309.27 480.386 295.035C474.821 286.162 469.889 276.517 469.796 265.805C469.713 256.817 472.958 248.304 476.863 240.36C483.508 226.84 492.772 213.83 494.588 198.497C496.48 182.516 489.759 166.59 477.634 156.213C476.85 155.546 475.716 156.683 476.504 157.357C489.416 168.408 495.902 185.751 492.282 202.532C489.455 215.641 481.766 226.954 475.85 238.78C470.727 249.039 466.843 260.109 468.686 271.722C470.971 286.091 480.534 297.851 488.112 309.789C497.044 323.855 502.497 338.671 497.267 355.219C492.627 369.907 482.436 382.28 471.86 393.146C448.606 417.046 418.274 436.628 384.34 439.529C355.648 441.987 324.95 430.033 307.55 406.605C287.138 379.117 297.218 347.464 301.408 316.662C303.368 302.255 303.753 286.838 298.31 273.101C292.198 257.672 278.065 250.405 268.201 237.945C263.175 231.595 260.255 223.632 260.309 215.499C260.357 206.665 265.279 198.898 269.974 191.721C278.289 178.994 289.367 168.188 300.931 158.433C312.872 148.359 328.156 141.584 343.988 141.984C352.717 142.203 360.885 144.833 368.106 149.722C374.26 153.877 379.771 159.227 386.732 162.06C400.409 167.639 412.747 159.092 424.599 153.133C441.651 144.567 461.21 145.398 476.504 157.357C477.308 157.988 478.453 156.853 477.634 156.213Z" fill="#BB86FC"/>
<path d="M468.912 168.292C459.496 160.952 447.634 157.491 435.729 159.12C421.547 161.069 410.23 173.812 395.87 173.819C381.474 173.821 372.077 158.92 358.525 155.381C347.572 152.525 335.826 154.359 325.549 158.782C313.13 164.126 302.913 173.834 293.653 183.465C285.305 192.164 274.331 204.709 272.264 216.929C269.976 230.516 277.164 241.762 286.779 250.523C292.579 255.816 298.72 260.699 302.909 267.464C307.979 275.655 309.789 285.522 309.985 295.029C310.568 323.81 295.675 353.19 307.234 381.378C316.863 404.85 341.008 420.14 365.452 423.999C394.514 428.599 423.581 416.474 446.281 399.001C465.451 384.25 489.889 361.287 490.075 335.033C490.184 319.063 479.719 306.355 471.637 293.529C466.825 285.903 462.432 277.635 461.935 268.445C461.48 260.062 464.345 252.082 467.944 244.653C473.74 232.692 481.877 221.333 483.968 207.919C486.291 193.023 480.231 178.039 468.912 168.292C468.134 167.621 466.993 168.762 467.781 169.436C479.725 179.722 485.315 195.613 481.715 211.059C478.953 222.883 471.771 233.073 466.544 243.857C462.191 252.848 459.122 262.491 460.784 272.57C462.885 285.264 471.336 295.714 478.061 306.276C485.967 318.694 491.021 331.773 486.676 346.486C482.831 359.537 473.939 370.602 464.678 380.276C443.732 402.159 416.204 420.294 385.363 423.041C359.208 425.368 331.116 414.474 315.489 392.857C297.626 368.142 306.82 339.867 310.488 312.369C312.167 299.77 312.507 286.365 307.976 274.282C303.107 261.275 292.292 254.598 283.216 244.873C277.692 238.955 274.066 231.857 273.556 223.659C273.024 215.142 277.239 207.987 281.697 201.048C289.219 189.313 299.367 179.339 309.996 170.404C320.992 161.163 335.266 154.843 349.866 155.681C357.446 156.114 364.433 158.55 370.687 162.835C375.955 166.44 380.716 170.975 386.655 173.507C398.887 178.714 409.912 171.408 420.574 165.974C436.085 158.075 453.746 158.498 467.781 169.436C468.592 170.063 469.73 168.932 468.912 168.292Z" fill="#BB86FC"/>
<path d="M460.199 180.374C452.077 174.086 442.06 170.97 431.783 172.068C418.364 173.5 407.469 186.093 393.933 185.218C381.412 184.411 373.253 171.392 361.013 168.615C351.113 166.365 340.621 168.282 331.499 172.472C320.729 177.425 311.703 186.124 303.665 194.652C296.417 202.343 286.95 213.324 285.339 224.068C283.58 235.747 289.605 245.491 297.841 253.096C303.774 258.575 310.073 263.453 313.879 270.777C317.712 278.146 318.935 286.595 318.919 294.808C318.856 320.703 305.68 347.278 317.643 372.356C327.064 392.097 348.095 404.736 369.287 407.782C395.171 411.49 420.894 400.393 440.955 384.73C457.891 371.505 479.712 350.755 479.005 327.264C478.585 313.321 469.267 302.293 462.248 291.001C457.843 283.92 453.978 276.23 453.985 267.692C453.99 260.52 456.656 253.74 459.79 247.403C464.892 237.106 471.799 227.219 473.593 215.631C475.653 202.354 470.255 189.075 460.199 180.374C459.417 179.696 458.277 180.837 459.068 181.518C469.708 190.731 474.72 204.945 471.325 218.745C468.865 228.767 462.917 237.464 458.39 246.607C454.538 254.392 451.561 262.752 452.615 271.57C453.904 282.415 460.655 291.521 466.47 300.385C473.969 311.833 479.86 323.818 476.088 337.76C473.001 349.152 465.41 358.941 457.47 367.404C439.676 386.367 416.603 402.222 390.4 406.054C367.085 409.467 341.947 401.358 326.534 383.112C308.173 361.374 315.629 335.442 319.293 310.041C320.876 299.101 321.425 287.56 318.084 276.879C314.409 265.118 305.83 258.654 297.323 250.416C291.946 245.21 288.069 239.31 286.996 231.783C285.881 223.875 289.098 217.388 293.148 210.845C299.589 200.429 308.237 191.855 317.392 183.837C327.505 174.978 340.287 168.703 354.031 169.306C360.627 169.593 366.81 171.636 372.296 175.294C377.048 178.46 381.283 182.568 386.546 184.929C397.165 189.692 406.814 183.883 416.172 179.014C430.3 171.659 446.077 171.462 459.068 181.518C459.869 182.142 461.013 181.007 460.199 180.374Z" fill="#BB86FC"/>
<path d="M451.476 192.453C444.189 186.863 435.308 184.128 426.12 185.217C414.649 186.569 405.311 197.272 393.714 196.67C382.593 196.099 375.258 184.421 364.331 182.067C355.85 180.246 346.888 181.874 339.079 185.443C329.499 189.812 321.469 197.53 314.347 205.131C307.98 211.923 299.798 221.468 298.444 230.936C297.22 239.54 300.951 247.646 306.855 253.693C311.782 258.751 317.783 262.715 321.737 268.691C325.961 275.061 327.544 282.752 327.795 290.294C328.566 313.146 316.409 336.384 325.98 358.71C333.656 376.631 352.247 388.277 371.051 391.24C393.473 394.771 415.891 385.521 433.479 372.115C448.347 360.778 467.044 343.263 467.925 323.115C468.483 310.441 460.378 300.326 453.942 290.207C449.943 283.918 446.276 277.116 446.093 269.484C445.939 262.905 448.372 256.734 451.251 250.943C455.683 242.016 461.688 233.405 463.218 223.343C464.994 211.664 460.276 200.139 451.476 192.453C450.701 191.771 449.56 192.912 450.345 193.597C459.75 201.817 463.993 214.209 460.934 226.416C458.664 235.487 453.074 243.317 449.104 251.663C446.021 258.175 443.793 265.126 444.699 272.409C445.855 281.669 451.552 289.49 456.529 297.064C462.957 306.831 468.293 317.057 465.442 329.051C462.953 339.521 455.966 348.461 448.737 356.141C432.609 373.27 411.407 387.529 387.515 390.028C367.115 392.168 345.045 383.936 332.688 367.153C318.523 347.924 325.717 325.834 328.566 304.331C329.874 294.474 330.112 284.012 326.509 274.584C322.968 265.292 315.608 260.016 308.755 253.294C304.43 249.059 301.219 244.166 300.185 238.119C298.948 230.883 301.935 224.894 305.663 218.927C311.21 210.036 318.636 202.667 326.473 195.79C335.239 188.098 346.242 182.535 358.189 182.935C363.9 183.13 369.286 184.775 374.093 187.875C378.493 190.709 382.286 194.478 387.106 196.628C395.684 200.455 403.642 196.394 411.258 192.342C424.214 185.458 438.115 184.214 450.345 193.597C451.152 194.217 452.297 193.083 451.476 192.453Z" fill="#BB86FC"/>
</svg>
