<svg width="36" height="36" viewBox="0 0 36 36" fill="none" xmlns="http://www.w3.org/2000/svg">
<g clip-path="url(#clip0_356_439)">
<path d="M12.0001 36C15.3121 36 18.0002 33.3119 18.0002 29.9999V23.9999H12.0001C8.68807 23.9999 6 26.6879 6 29.9999C6 33.3119 8.68807 36 12.0001 36Z" fill="#0ACF83"/>
<path d="M6 17.9999C6 14.6879 8.68807 11.9999 12.0001 11.9999H18.0002V23.9998H12.0001C8.68807 24 6 21.3119 6 17.9999Z" fill="#A259FF"/>
<path d="M6 6.00005C6 2.68805 8.68807 0 12.0001 0H18.0002V12H12.0001C8.68807 12 6 9.31205 6 6.00005Z" fill="#F24E1E"/>
<path d="M17.9998 0H23.9998C27.3119 0 29.9999 2.68805 29.9999 6.00005C29.9999 9.31205 27.3119 12 23.9998 12H17.9998V0Z" fill="#FF7262"/>
<path d="M29.9999 17.9999C29.9999 21.3119 27.3119 24 23.9998 24C20.6878 24 17.9998 21.3119 17.9998 17.9999C17.9998 14.6879 20.6878 11.9999 23.9998 11.9999C27.3119 11.9999 29.9999 14.6879 29.9999 17.9999Z" fill="#1ABCFE"/>
</g>
<defs>
<clipPath id="clip0_356_439">
<rect width="36" height="36" fill="white"/>
</clipPath>
</defs>
</svg>
