<svg width="331" height="764" viewBox="0 0 331 764" fill="none" xmlns="http://www.w3.org/2000/svg">
<path d="M-50.5838 679.196C-78.4305 681.533 -106.561 671.371 -126.414 651.641C-137.231 640.891 -144.179 627.517 -151.268 614.188C-158.649 600.331 -166.609 585.481 -180.392 577.009C-194.916 568.082 -212.178 569.489 -228.455 570.385C-242.697 571.174 -256.52 570.831 -270.127 566.18C-295.086 557.652 -315.243 538.456 -328.838 516.262C-344.363 490.93 -350.984 460.251 -355.811 431.254C-358.238 416.68 -359.489 401.93 -359.222 387.153C-358.959 372.869 -358.911 356.914 -352.403 343.933C-346.096 331.361 -335.716 320.907 -323.597 313.856C-309.076 305.395 -292.279 303.341 -275.918 301.15C-257.458 298.68 -239.676 295.281 -223.649 285.219C-207.79 275.263 -195.072 260.988 -184.657 245.577C-148.931 192.717 -139.515 120.158 -82.2342 83.6592C-34.6772 53.3528 28.8175 56.0798 78.325 80.1442C136.748 108.546 174.448 167.137 194.19 227.221C204.118 257.444 210.993 289.57 212.209 321.433C213.281 349.574 209.033 379.685 191.194 402.467C171.75 427.299 140.587 437.263 112.729 449.32C97.3553 455.981 81.9392 463.523 69.5772 475.06C58.2569 485.633 50.8195 499.088 46.4962 513.877C38.6628 540.715 39.9274 569.162 34.6549 596.476C29.2256 624.637 15.1319 649.222 -9.46812 664.853C-21.9051 672.756 -35.9364 677.635 -50.5838 679.196C-51.6035 679.305 -51.9219 677.725 -50.8891 677.61C-18.0747 674.115 11.8631 652.984 25.1891 622.609C36.0261 597.915 36.1631 570.269 39.2468 543.917C42.1111 519.466 47.9513 494.838 65.652 476.655C86.9298 454.803 117.745 446.345 144.704 433.944C159.392 427.186 173.875 419.079 185.039 407.173C195.032 396.516 201.816 383.399 205.77 369.389C213.889 340.617 211.049 309.701 205.896 280.675C194.151 214.585 165.828 147.697 112.824 104.269C68.9647 68.3419 6.98362 53.2392 -47.8796 69.7745C-76.7505 78.4717 -100.905 96.3244 -118.377 120.834C-137.455 147.592 -148.512 178.881 -162.27 208.461C-175.548 237.018 -192.734 265.99 -219.195 284.199C-231.55 292.701 -245.27 297.73 -259.964 300.395C-277.363 303.54 -295.635 303.911 -312.322 310.235C-326.729 315.7 -339.51 326.033 -347.789 339.042C-356.866 353.295 -357.315 370.799 -357.619 387.265C-358.172 417.762 -351.7 447.539 -343.798 476.825C-336.399 504.254 -321.6 529.894 -299.356 547.94C-288.709 556.579 -276.34 563.224 -263.02 566.624C-248.65 570.293 -234.188 568.971 -219.563 568.297C-206.434 567.695 -192.891 568.102 -181.143 574.7C-169.192 581.411 -161.221 593.02 -154.611 604.693C-147.189 617.8 -141.088 631.886 -131.497 643.64C-121.71 655.642 -108.791 664.989 -94.4808 670.867C-80.6661 676.539 -65.7711 678.861 -50.8891 677.61C-49.8662 677.525 -49.5544 679.108 -50.5838 679.196Z" fill="#3700B3"/>
<path d="M-51.1022 664.305C-77.8864 666.537 -105.013 656.635 -123.883 637.404C-144.259 616.629 -149.516 581.282 -175.834 566.411C-189.733 558.554 -206.107 560.219 -221.393 561.03C-234.254 561.712 -246.771 561.259 -259.081 557.149C-282.981 549.174 -302.302 530.894 -315.323 509.72C-330.184 485.552 -336.528 456.187 -341.104 428.5C-343.302 415.239 -344.477 401.81 -344.324 388.367C-344.165 374.536 -344.213 358.735 -337.988 346.114C-331.862 333.722 -321.527 323.412 -309.511 316.682C-295.926 309.066 -280.336 307.172 -265.147 305.147C-247.388 302.768 -230.214 299.415 -214.875 289.618C-199.933 280.064 -187.958 266.491 -178.14 251.865C-144.573 201.844 -135.51 133.463 -81.597 98.8261C-36.2797 69.7116 24.4022 72.2987 71.6449 95.372C126.693 122.257 162.321 177.402 181.119 234.035C190.736 263.01 197.369 293.847 198.541 324.421C199.583 351.667 195.344 380.865 177.626 402.628C158.766 425.798 129.096 435.002 102.702 446.536C88.1283 452.91 73.5717 460.218 62.024 471.378C51.8557 481.212 45.1484 493.604 41.1885 507.101C33.5813 533.016 34.9375 560.518 29.6613 586.875C24.385 613.249 10.864 636.2 -12.2008 650.789C-23.9906 658.243 -37.2442 662.821 -51.1022 664.305C-52.1219 664.414 -52.4337 662.831 -51.4042 662.726C-20.833 659.45 7.20993 640.078 20.1528 612.005C30.9318 588.642 31.1826 562.209 34.0248 537.098C36.6471 513.971 41.8287 490.535 58.1775 473C77.8364 451.919 106.967 443.651 132.468 432.148C146.182 425.959 159.677 418.69 170.498 408.068C180.895 397.867 187.971 384.942 192.052 371.025C200.19 343.276 197.397 313.286 192.38 285.235C181.205 222.837 154.442 159.653 104.48 118.546C62.6556 84.1244 3.43853 69.5951 -48.9657 85.5844C-76.2762 93.9236 -99.1133 110.907 -115.608 134.141C-133.635 159.538 -144.119 189.162 -157.164 217.195C-169.378 243.451 -185.013 269.965 -208.78 287.373C-220.799 296.176 -234.33 301.571 -248.92 304.316C-264.704 307.28 -281.05 307.769 -296.416 312.715C-311.743 317.641 -325.434 328.258 -333.865 341.989C-341.972 355.199 -342.37 371.392 -342.688 386.514C-343.291 415.61 -337.122 444.004 -329.606 471.941C-322.538 498.181 -308.331 522.834 -286.905 539.948C-276.631 548.147 -264.769 554.427 -251.953 557.534C-238.626 560.767 -225.249 559.519 -211.719 558.9C-199.455 558.339 -186.851 558.651 -175.786 564.61C-164.606 570.636 -157.029 581.128 -150.794 591.888C-143.406 604.627 -137.598 618.431 -128.319 629.986C-119.13 641.422 -106.967 650.363 -93.4613 656.039C-80.162 661.628 -65.7731 663.921 -51.4042 662.726C-50.3813 662.64 -50.0629 664.22 -51.1022 664.305Z" fill="#3700B3"/>
<path d="M-51.6131 649.412C-76.253 651.457 -101.007 642.73 -118.886 625.6C-128.869 616.046 -135.302 604.032 -141.716 591.96C-148.444 579.297 -155.547 565.672 -168.013 557.748C-181.169 549.386 -196.999 550.726 -211.835 551.537C-224.166 552.213 -236.195 551.97 -248.033 548.12C-270.59 540.794 -288.9 523.753 -301.334 503.937C-315.571 481.239 -321.608 453.746 -326.086 427.641C-328.297 414.738 -329.517 401.684 -329.405 388.589C-329.292 375.297 -329.387 360.018 -323.355 347.902C-318.153 337.447 -309.835 328.613 -300.068 322.293C-287.316 314.03 -272.538 311.585 -257.743 309.591C-241.586 307.418 -225.649 305.165 -211.193 297.087C-196.334 288.779 -184.307 276.195 -174.547 262.4C-141.076 215.114 -133.25 148.914 -82.2795 114.873C-39.9623 86.6195 17.2909 88.231 62.2359 109.298C115.167 134.111 149.637 186.303 167.845 240.237C177.224 268.011 183.648 297.59 184.857 326.942C185.899 352.256 182.173 379.317 166.324 399.948C148.909 422.611 120.598 431.664 95.3846 442.584C81.3356 448.659 67.2419 455.559 56.0394 466.205C46.1996 475.558 39.6998 487.389 35.875 500.328C28.662 524.763 29.9232 550.706 25.0117 575.574C20.08 600.517 7.52646 622.287 -14.1931 636.247C-25.5018 643.514 -38.255 647.977 -51.6131 649.412C-52.6361 649.53 -52.948 647.947 -51.9151 647.832C-22.3635 644.649 4.56268 625.654 16.5348 598.255C26.2081 576.091 26.343 551.304 29.1099 527.672C31.6406 505.99 36.7493 484.155 52.17 467.813C71.076 447.767 99.0036 440.05 123.344 428.937C149.435 417.02 170.357 399.889 178.664 371.517C186.413 345.041 183.683 316.412 178.838 289.677C168.078 230.302 142.418 170.294 94.5478 131.508C54.6592 99.1899 -1.82186 85.9932 -51.2698 101.781C-77.9833 110.318 -99.6856 127.694 -115.217 150.905C-131.408 175.088 -140.996 202.771 -153.453 228.885C-165.463 254.074 -181.117 279.467 -204.895 295.12C-216.149 302.531 -228.555 306.668 -241.76 308.929C-257.243 311.573 -273.533 312.009 -288.265 317.945C-301.379 323.224 -313.062 333.042 -320.15 345.326C-327.398 357.885 -327.598 373.53 -327.789 387.729C-328.173 415.406 -322.203 442.662 -314.829 469.194C-308.083 493.43 -294.341 516.273 -274.444 531.943C-264.797 539.55 -253.695 545.351 -241.722 548.226C-228.575 551.392 -215.404 549.926 -202.075 549.414C-190.627 548.976 -178.909 549.601 -168.738 555.426C-158.337 561.384 -151.325 571.459 -145.498 581.657C-138.569 593.779 -132.99 606.868 -124.021 617.708C-115.388 628.148 -104.101 636.324 -91.6278 641.549C-79.0594 646.801 -65.4815 648.96 -51.9151 647.832C-50.8989 647.75 -50.5804 649.33 -51.6131 649.412Z" fill="#3700B3"/>
<path d="M-52.1277 634.528C-75.6854 636.459 -99.4715 628.017 -116.351 611.387C-134.863 593.152 -139.453 562.473 -161.83 548.121C-174.567 539.946 -189.831 541.385 -204.217 542.146C-215.953 542.766 -227.396 542.366 -238.612 538.546C-259.675 531.378 -276.713 515.276 -288.287 496.626C-301.659 475.068 -307.35 448.912 -311.502 424.169C-313.543 412.01 -314.64 399.706 -314.477 387.381C-314.325 375.069 -314.359 361.128 -308.826 349.896C-303.523 339.129 -294.692 330.124 -284.374 324.074C-272.294 316.994 -258.4 315.115 -244.744 313.287C-229.13 311.193 -213.93 308.557 -200.251 300.248C-186.235 291.724 -175.067 279.227 -165.976 265.72C-135.649 220.684 -127.596 158.96 -78.6413 128.097C-38.0442 102.508 16.0049 105.033 58.0498 125.715C107.634 150.102 139.526 200.082 156.167 251.232C164.536 276.955 170.344 304.282 171.246 331.376C172.044 355.36 168.199 380.964 152.724 400.175C135.813 421.165 109.013 429.442 85.2288 439.855C72.0859 445.607 58.9505 452.24 48.6255 462.406C39.455 471.438 33.5529 482.836 30.1102 495.153C23.7262 517.976 24.8087 542.074 20.1714 565.217C15.4729 588.669 3.51322 609.1 -16.9351 622.181C-27.5802 628.998 -39.5689 633.167 -52.1277 634.528C-53.154 634.64 -53.4658 633.057 -52.4297 632.948C-24.8023 629.949 0.411989 612.37 11.8558 586.861C21.2482 565.924 21.3915 542.387 23.9827 519.979C26.3124 499.888 30.8495 479.521 44.7917 464.087C61.9619 445.091 87.7587 437.505 110.446 427.426C135.417 416.33 156.283 400.783 164.745 373.76C172.439 349.187 170.21 322.442 165.886 297.465C156.179 241.331 132.498 184.446 87.8849 147.17C50.7328 116.119 -1.97051 102.776 -48.9433 116.552C-74.0616 123.919 -95.0318 139.403 -110.081 160.763C-126.035 183.412 -135.358 209.753 -146.975 234.692C-158.056 258.491 -172.305 282.561 -194.07 298.076C-204.433 305.467 -216.027 310.072 -228.494 312.453C-242.787 315.184 -257.605 315.6 -271.541 320.072C-284.819 324.334 -296.619 333.382 -304.236 345.058C-312.031 357.002 -312.521 371.626 -312.838 385.502C-313.447 411.972 -307.82 437.815 -300.918 463.219C-294.607 486.457 -281.706 508.337 -262.664 523.404C-253.488 530.669 -242.91 536.204 -231.492 538.934C-219.185 541.874 -206.816 540.508 -194.336 540.021C-183.403 539.599 -172.228 540.188 -162.538 545.799C-153.064 551.288 -146.566 560.419 -141.18 569.72C-134.682 580.948 -129.545 593.107 -121.433 603.337C-113.328 613.553 -102.566 621.578 -90.6012 626.718C-78.5615 631.894 -65.4862 634.014 -52.4297 632.948C-51.4069 632.863 -51.0951 634.446 -52.1277 634.528Z" fill="#3700B3"/>
<path d="M-52.6456 619.638C-74.3582 621.407 -96.1418 613.872 -112.026 598.898C-120.978 590.458 -126.767 579.889 -132.479 569.143C-138.72 557.403 -145.273 544.548 -157.136 537.565C-168.702 530.754 -182.381 531.987 -195.218 532.682C-206.25 533.284 -216.987 533.004 -227.565 529.517C-247.275 523.018 -263.321 508.116 -274.295 490.833C-287.2 470.511 -292.63 445.816 -296.636 422.37C-298.599 410.885 -299.671 399.265 -299.562 387.613C-299.451 376.017 -299.515 362.698 -294.404 352.074C-289.576 342.041 -281.445 333.675 -271.99 327.902C-260.803 321.072 -247.842 319.145 -235.064 317.43C-220.352 315.452 -205.973 313.195 -192.965 305.552C-180.037 297.964 -169.623 286.681 -161.138 274.472C-131.581 231.953 -124.468 172.878 -78.0037 143.265C-40.2202 119.183 10.2722 121.204 49.7187 140.134C96.8361 162.753 127.186 209.732 143.103 258.043C151.126 282.364 156.641 308.246 157.569 333.894C158.359 355.932 155.051 379.463 141.397 397.499C126.152 417.644 101.311 425.842 78.9892 435.43C66.8359 440.646 54.6458 446.47 44.6842 455.343C35.0961 463.893 28.7759 474.89 25.1594 487.137C18.7162 508.957 19.8771 532.132 15.4365 554.327C11.0639 576.193 0.0366865 595.272 -18.9081 607.63C-29.0886 614.276 -40.5801 618.323 -52.6456 619.638C-53.662 619.753 -53.9739 618.17 -52.9476 618.058C-26.662 615.179 -2.68841 598.324 7.88397 573.875C16.5075 553.923 16.5272 531.683 19.0813 510.448C21.3957 491.191 26.1561 471.862 40.0615 457.535C56.7136 440.367 80.7865 433.505 102.001 423.914C125.481 413.298 144.454 398.035 151.891 372.49C158.528 349.682 156.39 325.087 152.372 302.015C143.16 249.202 120.785 195.72 78.7079 160.752C43.7058 131.674 -5.93337 119.248 -50.0356 132.366C-73.5869 139.372 -93.2465 153.99 -107.317 174.074C-122.44 195.667 -131.206 220.743 -142.345 244.439C-152.798 266.667 -166.266 289.043 -186.719 303.429C-196.5 310.305 -207.424 314.474 -219.124 316.682C-232.407 319.186 -246.156 319.593 -259.101 323.749C-271.858 327.854 -283.187 336.645 -290.318 347.992C-297.469 359.381 -297.749 373.632 -297.953 386.739C-298.317 411.426 -293.035 435.752 -286.434 459.412C-280.389 481.077 -268.086 501.474 -250.21 515.403C-241.664 522.069 -231.842 527.132 -221.261 529.627C-209.751 532.344 -198.196 531.092 -186.53 530.628C-176.426 530.221 -166.125 530.731 -157.102 535.754C-147.846 540.899 -141.569 549.68 -136.371 558.664C-130.244 569.256 -125.398 580.723 -117.729 590.351C-110.103 599.91 -99.995 607.421 -88.7649 612.234C-77.4528 617.08 -65.2016 619.057 -52.9476 618.058C-51.9248 617.973 -51.6129 619.556 -52.6456 619.638Z" fill="#3700B3"/>
<path d="M-53.1601 604.754C-73.5077 606.383 -93.9043 599.371 -108.815 585.344C-126.14 569.039 -130.064 540.482 -150.94 527.931C-162.01 521.278 -175.269 522.648 -187.58 523.298C-198.033 523.844 -208.191 523.41 -218.148 519.937C-236.363 513.579 -251.126 499.668 -261.254 483.525C-273.171 464.527 -278.221 441.472 -281.931 419.609C-283.774 408.786 -284.765 397.83 -284.634 386.855C-284.511 375.966 -284.555 363.538 -279.648 353.597C-275.218 344.619 -268.036 337.089 -259.613 331.75C-248.975 325.001 -236.616 323.083 -224.341 321.428C-210.175 319.521 -196.26 317.37 -183.848 309.765C-171.591 302.262 -161.804 291.403 -153.809 279.582C-126.772 239.58 -119.729 184.594 -75.8642 157.488C-40.409 135.584 6.44751 137.673 43.134 155.406C86.7967 176.513 115.124 220.03 130.039 264.854C137.725 287.94 143.025 312.519 143.905 336.888C144.662 358.042 141.359 380.603 127.863 397.66C113.191 416.206 89.7227 423.613 68.8369 432.691C57.3061 437.708 45.738 443.414 36.5398 452.174C28.1916 460.114 22.7848 470.17 19.6169 481.164C13.735 501.594 14.8302 523.237 10.5964 543.97C6.43057 564.359 -3.98295 582.071 -21.6533 593.572C-31.1636 599.766 -41.9037 603.509 -53.1601 604.754C-54.1798 604.862 -54.4917 603.279 -53.4555 603.171C-28.7125 600.436 -6.45183 584.645 3.55854 561.701C11.5001 543.493 11.6068 523.045 13.8565 503.623C15.939 485.66 20.0315 467.453 32.6834 453.792C47.6129 437.668 69.5711 430.987 89.1127 422.39C111.694 412.445 130.625 398.661 138.16 374.133C144.739 352.704 142.797 329.39 139.043 307.638C130.56 258.487 109.982 208.644 71.1884 175.721C38.5669 148.036 -7.79977 135.835 -49.4185 147.674C-71.7856 154.04 -90.4982 167.603 -103.947 186.521C-117.993 206.29 -126.216 229.354 -136.331 251.203C-146.089 272.279 -158.525 293.623 -177.644 307.541C-186.436 313.946 -196.308 318.139 -206.939 320.354C-220.01 323.073 -233.594 323.3 -246.38 327.378C-258.126 331.125 -268.61 338.952 -275.364 349.318C-282.399 360.126 -282.795 373.427 -283.024 385.982C-283.433 408.946 -278.514 431.402 -272.524 453.438C-266.906 474.133 -255.429 493.503 -238.439 506.86C-230.607 513.025 -221.562 517.725 -211.864 520.122C-200.913 522.836 -189.91 521.675 -178.787 521.225C-169.558 520.854 -160.071 521.241 -151.727 525.648C-142.974 530.27 -136.979 538.363 -132.06 546.714C-126.195 556.673 -121.686 567.52 -114.534 576.681C-107.317 585.925 -97.6539 593.164 -86.876 597.757C-76.3078 602.256 -64.9038 604.092 -53.4588 603.164C-52.4393 603.089 -52.1209 604.669 -53.1601 604.754Z" fill="#3700B3"/>
<path d="M-53.6715 589.86C-72.4536 591.359 -91.2832 585.001 -105.17 572.19C-121.451 557.157 -125.095 531.034 -143.949 518.815C-154.456 512.009 -167.102 513.225 -178.996 513.857C-188.584 514.364 -197.933 514.007 -207.101 510.907C-224.543 505.005 -238.646 491.67 -248.213 476.218C-259.302 458.303 -264.012 436.456 -267.392 415.897C-269.014 406.055 -269.856 396.083 -269.713 386.101C-269.567 375.873 -269.565 364.404 -264.889 355.109C-254.939 335.307 -235.247 328.381 -214.639 325.567C-201.482 323.772 -188.543 322.002 -176.846 315.241C-165.305 308.565 -156.055 298.527 -148.516 287.66C-122.937 250.775 -116.674 199.613 -76.7317 173.609C-43.6488 152.077 0.742548 153.635 35.5303 170.188C76.3146 189.606 102.894 229.986 116.971 271.676C124.301 293.372 129.312 316.48 130.221 339.409C130.988 358.903 128.101 379.761 115.967 395.69C102.623 413.221 81.0035 420.358 61.5324 428.732C50.5229 433.46 39.4145 438.752 30.5614 446.997C22.3399 454.662 17.0696 464.446 14.0742 475.192C8.78667 494.199 9.76389 514.27 5.77315 533.516C1.84684 552.46 -7.95665 568.864 -24.3987 579.516C-33.2453 585.243 -43.2177 588.699 -53.6715 589.86C-54.6945 589.979 -55.0063 588.396 -53.9735 588.281C-31.227 585.75 -10.5171 571.369 -1.12052 550.307C6.59495 533.005 6.67208 513.563 8.83691 495.067C10.7165 478.989 14.347 462.574 25.3281 450.079C39.2499 434.238 60.3353 427.83 79.0362 419.606C100.094 410.345 117.767 397.483 124.769 374.618C131.042 354.134 129.021 331.874 125.336 311.112C117.2 265.313 97.6835 218.961 61.1875 188.611C30.3966 162.998 -13.4769 152.069 -52.2201 163.993C-72.6736 170.286 -89.6198 183.143 -101.788 200.702C-115.037 219.826 -122.666 242 -132.6 262.867C-141.628 281.814 -153.24 300.853 -170.686 313.178C-178.813 318.92 -187.879 322.618 -197.602 324.599C-209.023 326.925 -220.807 327.298 -232.059 330.466C-243.641 333.731 -253.964 341.069 -260.685 351.084C-267.271 360.892 -267.765 372.759 -268.067 384.235C-268.641 405.765 -264.189 426.788 -258.62 447.467C-253.324 467.142 -242.857 485.591 -226.669 498.318C-219.274 504.125 -210.793 508.579 -201.644 510.827C-191.188 513.4 -180.691 512.16 -170.078 511.789C-161.332 511.484 -152.461 512.068 -144.693 516.487C-136.997 520.859 -131.663 528.138 -127.255 535.635C-121.627 545.227 -117.3 555.705 -110.254 564.419C-103.592 572.667 -94.7918 579.134 -85.0429 583.266C-75.2089 587.439 -64.6159 589.125 -53.9735 588.281C-52.9572 588.199 -52.6388 589.778 -53.6715 589.86Z" fill="#3700B3"/>
<path d="M-54.1861 574.976C-71.6262 576.339 -89.0294 570.5 -101.946 558.628C-117.195 544.612 -120.583 519.69 -138.551 508.674C-148.075 502.833 -159.336 503.818 -169.997 504.393C-178.868 504.874 -187.535 504.657 -196.053 501.877C-212.152 496.624 -225.241 484.519 -234.212 470.428C-244.683 453.987 -249.092 434.032 -252.371 415.044C-253.955 405.88 -254.838 396.608 -254.807 387.312C-254.772 377.908 -254.924 366.892 -250.904 358.214C-242.309 339.652 -224.16 332.404 -205.101 329.737C-192.816 328.019 -180.602 326.656 -169.564 320.521C-158.806 314.55 -150.125 305.439 -143.065 295.479C-118.801 261.231 -113.187 213.329 -76.0943 188.793C-45.6303 168.647 -4.52038 169.845 27.7789 184.902C66.2161 202.83 91.2044 240.725 104.358 279.854C111.049 299.751 115.638 320.92 116.537 341.93C117.302 359.787 114.83 378.908 104.054 393.735C91.8687 410.509 71.5759 417.362 53.2819 425.181C32.608 434.023 15.1138 445.733 8.7669 468.415C3.79636 486.186 4.76883 504.964 0.970348 522.953C-2.73983 540.504 -11.9175 555.7 -27.2167 565.494C-35.3994 570.74 -44.548 573.889 -54.1861 574.976C-55.2058 575.085 -55.521 573.512 -54.4881 573.397C-32.9947 570.966 -13.7555 557.308 -5.10567 537.343C1.80547 521.403 1.79709 503.485 3.81725 486.511C5.59084 471.567 9.06819 456.456 19.2938 444.889C32.1851 430.316 51.719 424.418 68.9629 416.828C88.4814 408.235 104.919 396.308 111.391 375.096C117.144 356.236 115.358 335.769 111.994 316.643C104.396 273.536 85.967 229.778 51.2649 201.576C22.0135 177.811 -19.9254 168.117 -56.0103 180.699C-74.7001 187.214 -89.6653 199.736 -100.488 216.199C-112.032 233.762 -118.89 253.772 -127.976 272.6C-136.366 289.964 -147.198 307.358 -163.332 318.521C-170.701 323.62 -178.878 326.913 -187.63 328.72C-199.456 331.155 -211.953 331.142 -223.384 335.331C-232.87 338.81 -241.305 345.49 -246.767 354.001C-252.844 363.477 -253.083 375.48 -253.194 386.445C-253.396 405.916 -249.218 424.969 -244.136 443.659C-239.218 461.75 -229.191 478.77 -214.208 490.313C-207.215 495.703 -199.198 499.762 -190.573 501.728C-181.209 503.863 -171.764 502.731 -162.289 502.395C-154.424 502.115 -146.374 502.578 -139.302 506.381C-132.115 510.25 -127.073 516.838 -122.953 523.715C-117.731 532.417 -113.802 541.919 -107.639 550.035C-101.522 558.092 -93.2263 564.332 -84.0097 568.432C-74.7375 572.561 -64.5878 574.179 -54.4914 573.39C-53.4653 573.311 -53.1535 574.894 -54.1861 574.976Z" fill="#3700B3"/>
<path d="M-54.7037 560.086C-70.7525 561.313 -86.8148 556.018 -98.7315 545.081C-112.808 532.166 -115.957 509.363 -132.361 499.044C-141.698 493.168 -152.873 494.561 -163.326 495.059C-171.598 495.442 -179.608 494.877 -187.436 492.003C-201.96 486.672 -213.657 475.397 -221.642 462.361C-230.954 447.161 -234.94 428.734 -237.828 411.34C-239.238 402.827 -239.988 394.21 -239.876 385.579C-239.761 377.036 -239.786 367.293 -236.028 359.465C-227.78 342.262 -210.808 336.002 -193.088 333.56C-181.764 332.003 -170.536 330.584 -160.45 324.762C-150.343 318.931 -142.286 310.167 -135.742 300.625C-113.939 268.817 -108.437 224.885 -73.7794 202.873C-45.1527 184.705 -6.97463 186.386 22.7674 200.924C57.6505 217.971 80.176 252.957 92.0224 288.863C98.1052 307.29 102.303 326.915 102.93 346.355C103.46 362.886 100.857 380.54 90.4874 393.979C78.8551 409.063 60.0532 415.117 43.2386 422.397C24.3078 430.587 8.84894 441.689 3.24103 462.443C-1.11724 478.561 -0.313901 495.547 -3.72338 511.845C-7.14636 528.199 -15.6762 542.347 -29.9485 551.431C-37.4775 556.224 -45.855 559.075 -54.7037 560.086C-55.7202 560.201 -56.0386 558.621 -55.0057 558.506C-35.1438 556.239 -17.4038 543.647 -9.43748 525.173C-3.16329 510.636 -3.11619 494.296 -1.30957 478.819C0.32602 464.876 3.49812 450.71 13.0777 439.928C24.4686 427.101 41.4691 421.548 56.7638 414.974C74.5241 407.336 90.4171 397.216 97.1446 378.172C103.199 361.04 101.916 342.062 99.0193 324.435C92.4711 284.563 76.0304 243.946 44.5892 217.245C18.2182 194.84 -19.5095 185.082 -53.0475 195.214C-70.8095 200.585 -85.4632 211.708 -95.9822 226.941C-107.138 243.094 -113.607 261.781 -121.959 279.405C-129.505 295.337 -139.085 311.296 -153.424 322.027C-160.208 327.101 -167.837 330.608 -176.09 332.497C-185.986 334.76 -196.263 334.949 -206.088 337.554C-216.174 340.23 -225.145 345.987 -231.243 354.556C-237.38 363.177 -237.95 373.475 -238.233 383.739C-238.737 402.113 -234.959 420.052 -230.222 437.708C-225.707 454.531 -216.888 470.261 -203.117 481.238C-196.675 486.374 -189.213 490.305 -181.179 492.234C-172.682 494.272 -164.12 493.394 -155.499 493.036C-148.157 492.725 -140.654 492.958 -133.954 496.321C-127.257 499.678 -122.506 505.54 -118.645 511.808C-113.681 519.85 -110.097 528.736 -104.444 536.349C-99.0703 543.593 -91.8794 549.336 -83.7494 553.208C-74.7543 557.491 -64.9277 559.267 -55.0057 558.506C-53.9797 558.428 -53.6711 560.004 -54.7037 560.086Z" fill="#3700B3"/>
<path d="M-55.2154 545.192C-69.7284 546.294 -84.1775 541.631 -95.0897 531.903C-108.214 520.208 -111.079 500.197 -125.419 489.944C-133.746 483.989 -144.153 485.079 -153.778 485.562C-161.202 485.937 -168.481 485.66 -175.586 483.273C-189.115 478.731 -200.129 468.48 -207.658 456.571C-216.335 442.844 -220.018 426.283 -222.801 410.467C-224.176 402.642 -224.98 394.715 -224.967 386.763C-224.961 378.7 -225.073 369.197 -221.633 361.754C-214.655 346.666 -199.965 340.161 -184.386 337.846C-174.015 336.3 -163.603 335.454 -154.124 330.529C-144.371 325.461 -136.564 317.37 -130.291 308.46C-109.93 279.548 -105.135 239.224 -73.8883 218.538C-47.9834 201.397 -13.0026 202.423 14.4226 215.349C46.7864 230.604 67.8229 262.546 78.9254 295.575C88.409 323.813 97.7778 364.64 79.0886 391.288C58.3255 420.914 10.2241 415.161 -1.48795 453.613C-6.08945 468.719 -5.20152 484.829 -8.30595 500.215C-11.3425 515.273 -18.9056 528.355 -31.9449 536.883C-38.9961 541.498 -46.8666 544.231 -55.2154 545.192C-56.2352 545.317 -56.5471 543.734 -55.5174 543.612C-36.6849 541.434 -19.986 529.206 -13.1118 511.359C-7.84911 497.697 -7.96885 482.75 -6.09737 468.42C-4.41889 455.464 -0.894114 442.664 8.55893 433.14C19.6796 421.928 35.4553 417.215 49.5185 410.953C65.7543 403.728 79.2278 393.636 84.6211 376.059C89.5914 359.837 87.9181 342.181 84.9516 325.743C78.4952 289.954 63.1596 253.782 34.5846 230.127C10.2469 209.974 -24.5212 201.52 -54.9932 211.291C-71.5781 216.607 -84.8661 227.477 -94.3679 241.98C-104.202 256.99 -109.99 274.081 -117.815 290.127C-124.778 304.413 -133.729 318.67 -146.912 328.005C-161.544 338.356 -178.283 336.949 -194.8 341.536C-203.586 343.973 -211.44 349.221 -216.797 356.664C-222.751 364.925 -223.189 375.093 -223.348 384.943C-223.615 401.235 -220.231 417.173 -216.02 432.827C-211.306 450.371 -201.421 466.936 -185.703 476.709C-178.38 481.257 -170.123 483.871 -161.49 484.138C-152.482 484.416 -143.318 482.415 -134.393 484.357C-118.437 487.82 -112.544 503.547 -105.293 516.24C-95.016 534.218 -76.4761 545.198 -55.5174 543.612C-54.4979 543.537 -54.1795 545.117 -55.2154 545.192Z" fill="#3700B3"/>
<path d="M-55.7298 530.308C-69.1934 531.296 -82.5597 526.919 -92.5485 517.736C-104.129 507.099 -106.739 488.537 -119.998 479.782C-127.458 474.859 -136.305 475.673 -144.769 476.101C-152.114 476.471 -159.183 476.221 -166.155 473.687C-177.911 469.42 -187.487 460.443 -194.135 450.026C-202.312 437.216 -205.774 421.586 -208.261 406.772C-209.312 400.539 -209.951 394.244 -210.035 387.929C-210.137 380.328 -210.37 371.228 -207.3 364.148C-201.694 351.234 -189.281 344.513 -175.999 342.223C-166.509 340.586 -156.78 340.264 -147.869 336.233C-138.101 331.813 -130.355 324.03 -124.215 315.399C-105.471 289.011 -101.214 252.04 -72.4978 233.221C-49.4032 218.093 -18.5225 218.777 6.07837 229.807C35.9298 243.185 55.4766 272.199 65.8192 302.3C74.668 328.066 83.4024 365.355 66.6955 389.939C56.759 404.557 39.2057 409.686 23.8697 416.542C14.3062 420.812 4.83816 426.075 -1.20508 434.921C-6.27923 442.34 -8.32563 451.218 -9.50685 459.99C-11.517 474.92 -11.0686 490.884 -18.1003 504.631C-25.4282 518.958 -39.8806 528.442 -55.7298 530.308C-56.7528 530.426 -57.0614 528.85 -56.0318 528.728C-39.153 526.741 -24.107 515.949 -17.7677 499.995C-12.8152 487.533 -12.9005 473.856 -11.2276 460.738C-9.76975 449.364 -6.82958 438.007 1.16799 429.388C11.0689 418.726 25.5608 414.285 38.5028 408.59C53.7556 401.882 66.5368 392.613 71.4081 375.957C75.7346 361.173 74.162 345.221 71.4288 330.306C65.4263 297.505 51.1395 264.348 24.5707 243.039C2.10917 225.018 -30.0442 217.85 -57.5447 227.618C-89.8061 239.081 -99.0628 270.984 -112.738 298.9C-119.134 311.958 -127.4 324.977 -139.57 333.355C-153.24 342.766 -169.026 340.931 -184.158 345.786C-191.869 348.26 -198.729 353.248 -203.214 360.033C-208.094 367.397 -208.331 376.59 -208.429 385.165C-208.61 400.366 -205.428 415.511 -201.256 430.053C-196.949 445.07 -188.028 459.21 -174.656 467.696C-167.284 472.375 -159.035 474.739 -150.315 474.701C-142.889 474.677 -135.333 473.303 -127.973 474.826C-113.507 477.81 -108.019 491.779 -101.494 503.33C-92.1026 519.941 -75.3952 530.144 -56.0318 528.728C-55.0123 528.653 -54.6939 530.233 -55.7298 530.308Z" fill="#3700B3"/>
<path d="M-56.2474 515.418C-68.1553 516.271 -79.9349 512.539 -88.9158 504.555C-99.6091 495.039 -101.912 478.152 -113.835 470.149C-125.79 462.13 -141.894 469.273 -155.121 464.664C-165.809 460.936 -174.543 452.872 -180.615 443.474C-187.954 432.119 -191.033 418.366 -193.36 405.209C-195.449 393.336 -197.577 376.804 -192.487 365.504C-186.821 352.944 -174.588 347.607 -161.723 345.686C-153.958 344.52 -146.137 343.884 -138.891 340.598C-130.118 336.618 -123.119 329.432 -117.661 321.645C-101.148 298.065 -97.1557 265.369 -71.8567 248.395C-50.7868 234.263 -22.2173 235.01 0.234619 245.419C26.9338 257.784 44.3225 284.042 53.445 311.197C61.1519 334.125 68.6607 366.807 54.1932 388.717C45.3893 402.041 29.6202 406.767 15.7647 412.919C7.51999 416.574 -0.732964 420.994 -6.26361 428.35C-11.3101 435.059 -13.3753 443.283 -14.523 451.457C-16.3705 464.62 -15.9387 478.586 -21.6724 490.891C-28.0396 504.557 -41.4177 513.628 -56.2474 515.418C-57.2672 515.543 -57.579 513.96 -56.5494 513.838C-40.9006 511.948 -27.4074 501.862 -21.7952 487.028C-17.5041 475.67 -17.7945 463.207 -16.1296 451.338C-14.7373 441.447 -11.9163 431.729 -4.92234 424.283C3.89204 414.91 16.7308 410.937 28.1992 405.91C41.6816 399.999 53.1631 391.951 57.7484 377.311C61.8233 364.331 60.6004 350.188 58.2965 336.995C53.0867 307.155 40.3235 276.762 16.2376 257.303C-4.18933 240.804 -33.5886 234.207 -58.6073 243.458C-87.2077 254.037 -95.3188 282.641 -107.587 307.523C-113.21 318.922 -120.393 330.245 -130.885 337.757C-142.173 345.849 -154.874 345.372 -167.828 348.394C-175.713 350.233 -182.677 354.109 -187.666 360.634C-192.851 367.411 -193.336 375.701 -193.498 383.947C-193.786 397.882 -190.911 411.819 -187.06 425.159C-183.074 438.958 -174.739 452.157 -162.145 459.592C-155.609 463.454 -148.449 465.322 -140.868 465.246C-134.485 465.186 -128.005 464.071 -121.662 465.276C-108.603 467.764 -103.515 479.972 -97.6858 490.423C-89.2021 505.622 -74.2978 515.107 -56.5494 513.838C-55.5266 513.769 -55.2115 515.343 -56.2474 515.418Z" fill="#3700B3"/>
<path d="M-56.7556 500.531C-67.0026 501.231 -77.0579 498.24 -84.9826 491.604C-95.3298 482.941 -97.3655 466.414 -109.095 459.602C-119.944 453.3 -133.972 459.569 -145.684 455.058C-155.159 451.414 -162.806 443.978 -168.049 435.418C-174.235 425.306 -176.887 413.054 -178.814 401.494C-180.551 391.069 -182.298 376.677 -177.652 366.856C-172.609 356.176 -162.178 351.439 -151.103 349.709C-143.123 348.463 -135.175 347.92 -127.934 343.956C-120.647 339.971 -114.926 333.634 -110.365 326.804C-95.9953 305.262 -92.139 275.851 -68.2355 261.685C-49.4169 250.536 -24.91 251.751 -5.61283 261.024C17.9506 272.36 33.1349 295.902 41.0737 320.084C47.7747 340.501 54.3418 369.887 40.6715 389.004C32.5576 400.351 18.6768 404.32 6.55807 409.79C-1.04416 413.218 -8.53659 417.452 -13.2865 424.548C-17.2763 430.508 -18.8379 437.624 -19.7644 444.632C-21.2618 456.025 -21.0312 468.084 -25.9948 478.708C-31.6784 490.883 -43.5573 498.905 -56.7556 500.531C-57.782 500.659 -58.0938 499.076 -57.0576 498.952C-43.0895 497.225 -31.0101 488.211 -26.1439 474.858C-22.6065 465.164 -22.7023 454.629 -21.371 444.513C-20.2336 435.902 -18.0509 427.301 -12.2646 420.564C-5.15342 412.274 5.52465 408.472 15.291 404.347C27.8954 399.016 39.4632 392.342 44.0948 378.662C47.8753 367.481 47.0222 355.123 45.1409 343.672C40.9228 318.012 30.5899 291.994 10.9602 274.218C-6.50298 258.399 -31.8975 251.133 -54.8609 257.703C-82.2173 265.532 -90.4673 291.223 -101.57 314.36C-106.349 324.329 -112.32 334.22 -121.043 341.23C-130.646 348.952 -141.372 349.543 -153.025 351.646C-160.39 352.975 -166.896 355.717 -171.979 361.371C-177.31 367.319 -178.25 374.498 -178.531 382.188C-178.982 394.426 -176.574 406.364 -173.436 418.122C-169.97 431.112 -162.849 443.442 -151.098 450.596C-145.46 454.031 -139.186 455.778 -132.593 455.794C-126.883 455.812 -121.078 454.758 -115.391 455.729C-103.919 457.687 -99.1402 467.885 -94.0791 477.141C-86.4422 491.118 -73.4475 500.068 -57.0576 498.952C-56.0447 498.879 -55.7263 500.459 -56.7556 500.531Z" fill="#3700B3"/>
<path d="M-57.2733 485.641C-66.4381 486.225 -75.3385 483.551 -82.3632 477.529C-91.1368 470.017 -92.9319 455.927 -102.899 449.969C-112.453 444.249 -125.05 449.864 -135.436 445.734C-143.495 442.522 -150.031 436.179 -154.53 428.865C-160.053 419.902 -162.424 409.019 -164.106 398.74C-165.611 389.552 -167.091 377.068 -162.943 368.45C-159.168 360.622 -151.554 355.968 -143.282 354.233C-136.373 352.776 -129.182 352.826 -122.57 350.065C-115.513 347.127 -109.916 341.621 -105.507 335.496C-92.1399 316.946 -89.2947 290.875 -68.9112 277.662C-52.5549 267.053 -30.6281 267.734 -13.3607 275.745C7.22973 285.3 20.6971 305.468 27.8385 326.397C33.8735 344.095 39.6476 369.055 29.1584 386.279C22.5631 397.117 10.1982 401.004 -0.78228 405.824C-7.60596 408.82 -14.4402 412.427 -18.8427 418.664C-22.6348 424.043 -24.0509 430.522 -24.8848 436.937C-26.1751 446.819 -25.9837 457.316 -30.3167 466.524C-35.3464 477.214 -45.6833 484.158 -57.2733 485.641C-58.2964 485.775 -58.6082 484.192 -57.5753 484.061C-45.1859 482.472 -34.7604 474.542 -30.5022 462.7C-27.3355 453.901 -27.6181 444.285 -26.2668 435.143C-25.2015 428.017 -23.1804 421.002 -18.3715 415.459C-12.2545 408.411 -3.16718 405.088 5.18509 401.569C15.9632 397.038 26.0904 391.516 30.4025 379.967C34.166 369.883 33.3422 358.567 31.6152 348.162C27.7592 324.954 18.0913 301.303 -0.360828 285.921C-16.1124 272.782 -39.0271 267.328 -58.6376 274.386C-81.1111 282.467 -87.4394 304.821 -97.049 324.267C-101.452 333.182 -107.081 342.004 -115.324 347.828C-123.441 353.574 -132.492 353.857 -141.927 355.623C-147.877 356.731 -153.27 359.007 -157.496 363.453C-162.554 368.775 -163.409 375.413 -163.635 382.445C-163.979 392.919 -161.916 403.175 -159.237 413.251C-156.24 424.522 -150.199 435.27 -140.054 441.591C-135.202 444.611 -129.812 446.244 -124.093 446.346C-118.861 446.443 -113.611 445.425 -108.411 446.324C-99.1548 447.922 -94.8075 455.727 -90.7383 463.334C-83.8111 476.267 -72.9585 485.042 -57.5753 484.061C-56.5591 483.995 -56.2407 485.575 -57.2733 485.641Z" fill="#3700B3"/>
<path d="M-57.788 470.757C-65.3511 471.2 -72.7042 469.174 -78.6652 464.366C-86.2873 458.212 -87.8009 447.325 -95.3655 441.438C-103.532 435.077 -115.051 440.285 -124.396 436.723C-131.131 434.155 -136.619 429.024 -140.528 423.059C-145.43 415.576 -147.502 406.569 -149.079 397.867C-150.548 389.785 -151.817 379.278 -148.857 371.425C-146.299 364.637 -139.632 360.056 -132.83 358.364C-127.75 357.102 -122.432 357.107 -117.37 355.723C-109.836 353.672 -103.999 348.621 -99.4419 342.432C-87.8644 326.687 -85.5328 304.284 -68.277 292.839C-54.1144 283.448 -35.0725 283.943 -20.0405 290.974C-2.51457 299.16 8.96065 316.328 15.077 334.157C20.2448 349.226 25.1406 370.252 16.603 385.083C11.2836 394.318 1.1922 397.882 -8.08675 401.864C-14.1189 404.455 -20.3441 407.419 -24.4124 412.803C-27.96 417.497 -29.2573 423.385 -29.9947 429.113C-31.11 437.869 -30.9732 447.156 -35.0818 455.205C-39.5433 463.953 -48.1782 469.478 -57.788 470.757C-58.8111 470.891 -59.1229 469.308 -58.09 469.177C-47.3649 467.751 -38.2871 460.828 -34.8206 450.424C-32.343 442.972 -32.5112 434.97 -31.3665 427.273C-30.4421 421.093 -28.6473 415.017 -24.3991 410.265C-19.2603 404.527 -11.8462 401.715 -4.92441 398.802C4.6309 394.781 13.6522 389.975 17.3323 379.589C20.2321 371.397 19.6115 362.209 18.2726 353.775C15.1965 334.483 7.48111 314.869 -7.24657 301.48C-20.6966 289.257 -40.617 283.828 -58.1226 289.704C-77.7003 296.279 -83.2835 315.251 -91.4855 332.064C-95.2434 339.761 -100.057 347.477 -107.111 352.585C-114.195 357.716 -122.075 357.833 -130.343 359.491C-135.892 360.599 -141.11 362.912 -144.67 367.498C-148.114 371.919 -148.573 377.264 -148.727 382.68C-148.97 391.744 -147.184 400.736 -144.752 409.427C-142.105 418.871 -136.858 427.823 -128.273 433.02C-119.276 438.472 -110.73 435.047 -101.207 436.923C-93.5217 438.443 -89.8727 444.945 -86.4397 451.325C-80.4311 462.457 -71.3485 469.965 -58.09 469.177C-57.0738 469.111 -56.7554 470.691 -57.788 470.757Z" fill="#3700B3"/>
<path d="M-58.5131 455.878C-64.9908 456.214 -71.2801 454.368 -76.2782 450.102C-82.9893 444.369 -84.582 432.006 -93.5775 429.304C-100.641 427.184 -107.866 430.197 -114.935 427.065C-120.455 424.62 -124.87 420.124 -127.953 415.006C-131.855 408.538 -133.549 400.631 -134.691 393.247C-135.662 386.96 -136.517 378.796 -134.055 372.793C-131.74 367.158 -126.257 363.485 -120.528 362.093C-116.446 361.1 -112.182 361.076 -108.122 360.004C-101.211 358.185 -96.0615 353.334 -92.1093 347.581C-83.1691 334.534 -80.9562 316.736 -66.8804 307.535C-55.0493 299.798 -39.1892 300.303 -26.717 306.192C-12.2328 313.041 -2.72042 327.25 2.3672 342.023C6.73218 354.693 10.9463 372.868 3.27307 385.194C-1.30762 392.55 -9.61614 395.409 -17.1812 398.679C-28.2897 403.472 -33.833 410.237 -35.2162 422.278C-36.049 429.527 -36.0962 437.291 -39.8135 443.805C-43.7103 450.636 -50.637 454.805 -58.2994 455.863C-59.3193 456.004 -59.6311 454.421 -58.6014 454.283C-49.7282 453.056 -42.5007 447.6 -39.4704 439.074C-37.1634 432.574 -37.4755 425.478 -36.3602 418.753C-34.2695 406.102 -26.3165 400.789 -15.1098 396.063C-7.47271 392.839 0.0705929 389.374 3.49269 381.244C6.64107 373.757 5.92519 365.058 4.58226 357.249C1.74788 340.714 -5.32123 323.828 -18.7086 313.097C-30.1798 303.898 -46.9043 300.354 -60.7407 306.096C-76.4623 312.617 -80.1526 329.127 -87.394 342.78C-90.4456 348.532 -94.3151 354.187 -99.7565 357.928C-105.492 361.872 -111.58 361.934 -118.169 363.259C-128.721 365.386 -133.615 372.405 -133.818 382.915C-133.973 390.56 -132.439 398.275 -130.268 405.586C-127.753 414.08 -122.167 422.505 -113.636 425.893C-106.839 428.587 -99.8194 425.724 -93.0581 427.779C-87.0973 429.59 -84.4609 435.116 -81.6768 440.176C-76.664 449.268 -69.13 454.826 -58.3942 454.271C-57.3618 454.222 -57.4839 455.822 -58.5131 455.878Z" fill="#3700B3"/>
<path d="M-59.0241 440.985C-64.2324 441.22 -69.1439 439.811 -73.178 436.406C-78.6832 431.758 -79.7006 422.929 -86.6485 420.261C-92.5275 418.001 -98.7144 420.626 -104.671 417.724C-108.79 415.729 -112.078 412.325 -114.439 408.457C-119.562 400.058 -123.409 383.562 -119.232 374.152C-117.561 370.373 -113.953 367.599 -110.103 366.319C-106.565 365.136 -102.743 365.262 -99.1471 364.346C-93.2042 362.839 -88.9418 358.933 -85.622 353.892C-78.7267 343.431 -76.7815 329.385 -65.5063 322.217C-56.2676 316.338 -43.9692 316.612 -34.2124 321.027C-22.6562 326.253 -14.9374 337.249 -10.7103 348.873C-7.09987 358.794 -3.85421 372.236 -8.47275 382.38C-11.4073 388.836 -17.3689 391.687 -23.5658 394.342C-28.2465 396.349 -33.3108 398.21 -36.5102 402.429C-39.1528 405.932 -39.8618 410.336 -40.3397 414.576C-41.7319 426.982 -44.4022 438.789 -58.8137 440.979C-59.837 441.13 -60.1456 439.554 -59.119 439.393C-51.6303 438.265 -45.7318 433.471 -43.5835 426.116C-41.9968 420.699 -42.3998 414.934 -41.1906 409.449C-39.2365 400.617 -33.1429 396.653 -25.219 393.296C-19.0585 390.683 -12.8354 388.048 -9.93332 381.542C-7.18479 375.39 -7.77956 368.286 -8.93393 361.81C-11.3472 348.245 -17.3417 334.443 -28.7262 326.069C-38.1413 319.135 -51.8967 316.981 -62.526 322.381C-73.8907 328.152 -76.5607 340.924 -82.1863 351.252C-87.3561 360.741 -93.808 365.209 -104.35 366.807C-113.839 368.247 -118.819 373.343 -118.906 383.124C-118.951 389.028 -117.781 395.054 -116.078 400.696C-113.926 407.803 -109.162 414.757 -101.798 417.155C-96.4154 418.905 -90.3934 416.361 -85.2186 418.738C-81.5547 420.425 -79.681 423.951 -77.8292 427.316C-73.648 434.884 -67.9571 439.776 -58.9118 439.381C-57.8761 439.339 -57.995 440.945 -59.0241 440.985Z" fill="#3700B3"/>
</svg>
