<svg width="17" height="17" viewBox="0 0 17 17" fill="none" xmlns="http://www.w3.org/2000/svg">
<path d="M8.4375 0.101562C8.7611 0.101562 9.02344 0.363896 9.02344 0.6875V1.46875C9.02344 1.79235 8.7611 2.05469 8.4375 2.05469C8.1139 2.05469 7.85156 1.79235 7.85156 1.46875V0.6875C7.85156 0.363896 8.1139 0.101562 8.4375 0.101562Z" fill="#E9EAF0"/>
<path fill-rule="evenodd" clip-rule="evenodd" d="M3.94531 8.5C3.94531 6.01903 5.95653 4.00781 8.4375 4.00781C10.9185 4.00781 12.9297 6.01903 12.9297 8.5C12.9297 10.981 10.9185 12.9922 8.4375 12.9922C5.95653 12.9922 3.94531 10.981 3.94531 8.5ZM8.4375 5.17969C6.60374 5.17969 5.11719 6.66624 5.11719 8.5C5.11719 10.3338 6.60374 11.8203 8.4375 11.8203C10.2713 11.8203 11.7578 10.3338 11.7578 8.5C11.7578 6.66624 10.2713 5.17969 8.4375 5.17969Z" fill="#E9EAF0"/>
<path d="M3.32756 2.56143C3.09874 2.3326 2.72774 2.3326 2.49892 2.56143C2.2701 2.79025 2.2701 3.16124 2.49892 3.39007L3.05135 3.94249C3.28017 4.17132 3.65116 4.17132 3.87999 3.94249C4.10881 3.71367 4.10881 3.34268 3.87999 3.11385L3.32756 2.56143Z" fill="#E9EAF0"/>
<path d="M16.8359 8.5C16.8359 8.8236 16.5736 9.08594 16.25 9.08594H15.4687C15.1451 9.08594 14.8828 8.8236 14.8828 8.5C14.8828 8.17639 15.1451 7.91406 15.4687 7.91406H16.25C16.5736 7.91406 16.8359 8.1764 16.8359 8.5Z" fill="#E9EAF0"/>
<path d="M14.3761 3.39006C14.6049 3.16124 14.6049 2.79024 14.3761 2.56142C14.1472 2.3326 13.7763 2.3326 13.5474 2.56142L12.995 3.11385C12.7662 3.34267 12.7662 3.71366 12.995 3.94249C13.2238 4.17131 13.5948 4.17131 13.8236 3.94249L14.3761 3.39006Z" fill="#E9EAF0"/>
<path d="M8.4375 14.9453C8.7611 14.9453 9.02344 15.2076 9.02344 15.5312V16.3125C9.02344 16.6361 8.7611 16.8984 8.4375 16.8984C8.1139 16.8984 7.85156 16.6361 7.85156 16.3125V15.5312C7.85156 15.2076 8.1139 14.9453 8.4375 14.9453Z" fill="#E9EAF0"/>
<path d="M13.8237 13.0575C13.5949 12.8287 13.2239 12.8287 12.9951 13.0575C12.7662 13.2863 12.7662 13.6573 12.9951 13.8862L13.5475 14.4386C13.7763 14.6674 14.1473 14.6674 14.3761 14.4386C14.6049 14.2098 14.6049 13.8388 14.3761 13.6099L13.8237 13.0575Z" fill="#E9EAF0"/>
<path d="M1.99219 8.5C1.99219 8.8236 1.72985 9.08594 1.40625 9.08594H0.625C0.301396 9.08594 0.0390625 8.8236 0.0390625 8.5C0.0390625 8.17639 0.301396 7.91406 0.625 7.91406H1.40625C1.72985 7.91406 1.99219 8.1764 1.99219 8.5Z" fill="#E9EAF0"/>
<path d="M3.87993 13.8862C4.10876 13.6573 4.10876 13.2863 3.87993 13.0575C3.65111 12.8287 3.28012 12.8287 3.05129 13.0575L2.49887 13.6099C2.27004 13.8388 2.27004 14.2098 2.49887 14.4386C2.72769 14.6674 3.09868 14.6674 3.32751 14.4386L3.87993 13.8862Z" fill="#E9EAF0"/>
</svg>
