<svg width="34" height="48" viewBox="0 0 34 48" fill="none" xmlns="http://www.w3.org/2000/svg">
<path fill-rule="evenodd" clip-rule="evenodd" d="M9.32017 0H24.6799C29.4495 0 33.3201 3.8705 33.3201 8.64006C33.3201 11.9825 31.4193 14.8832 28.6404 16.3199C31.4193 17.7567 33.3201 20.6576 33.3201 23.9999C33.3201 28.7695 29.4495 32.64 24.6799 32.64C21.9668 32.64 19.5447 31.3876 17.9603 29.4298V39.3599C17.9603 44.1295 14.0898 48 9.32017 48C4.55059 48 0.680054 44.1295 0.680054 39.3599C0.680054 36.0175 2.58083 33.1167 5.35976 31.6799C2.58083 30.2432 0.680054 27.3423 0.680054 23.9999C0.680054 20.6576 2.58081 17.7567 5.35972 16.3199C2.58082 14.8832 0.680054 11.9825 0.680054 8.64006C0.680054 3.8705 4.55059 0 9.32017 0ZM2.60005 8.64006C2.60005 4.9309 5.61097 1.92 9.32017 1.92H16.0398V15.3599H9.32017L9.29934 15.3599C5.59967 15.3487 2.60005 12.3422 2.60005 8.64006ZM16.0403 23.9086C16.04 23.939 16.0398 23.9694 16.0398 23.9999C16.0398 24.0304 16.04 24.0609 16.0403 24.0913V30.7198H9.32013C5.61097 30.72 2.60005 27.7091 2.60005 23.9999C2.60005 20.2977 5.59979 17.2911 9.29952 17.2799L9.32017 17.2799H16.0398L16.0403 23.9086ZM17.9603 24.0804V23.9195C18.0034 20.2565 20.9827 17.2947 24.6524 17.2799H24.6799C24.6868 17.2799 24.6937 17.2799 24.7006 17.2799C28.4003 17.2911 31.4001 20.2977 31.4001 23.9999C31.4001 27.7091 28.3891 30.72 24.6799 30.72C20.9976 30.72 18.0035 27.7526 17.9603 24.0804ZM19.2506 17.2799C18.7765 17.6635 18.3439 18.0961 17.9603 18.5701V17.2799H19.2506ZM24.7008 15.3599C24.6938 15.3599 24.6869 15.3599 24.6799 15.3599C24.6694 15.3599 24.6589 15.3599 24.6484 15.3599H17.9603V1.92H24.6799C28.3891 1.92 31.4001 4.9309 31.4001 8.64006C31.4001 12.3422 28.4004 15.3487 24.7008 15.3599ZM9.32017 32.6399C5.61097 32.6399 2.60005 35.6508 2.60005 39.3599C2.60005 43.0691 5.61097 46.08 9.32017 46.08C13.0294 46.08 16.0403 43.0691 16.0403 39.3599V32.6399H9.32017Z" fill="#F8F8FF"/>
</svg>
