<svg width="306" height="830" viewBox="0 0 306 830" fill="none" xmlns="http://www.w3.org/2000/svg">
<path d="M641.009 340.322C575.357 308.699 493.059 316.728 435.712 267.009C422.528 255.583 412.083 241.605 398.301 230.705C385.33 220.45 370.994 211.909 355.694 205.627C324.788 192.935 289.673 189.28 256.498 189.098C221.413 188.907 186.333 193.687 152.376 202.406C121.897 210.225 90.7936 220.438 65.4933 239.762C43.5593 256.514 27.2744 280.968 29.2615 309.525C31.3744 339.793 51.6569 366.21 75.5565 383.398C132.797 424.579 221.56 429.458 251.049 502.84C274.309 560.698 254.345 625.706 271.3 684.988C288.388 744.749 347.652 789.252 410.677 775.764C439.977 769.498 465.149 751.662 479.91 725.518C494.564 699.547 499.457 669.593 508.173 641.418C512.765 626.58 518.448 611.926 527.096 598.935C538.142 582.344 553.834 569.746 570.781 559.56C601.129 541.329 635.369 530.24 664.095 509.214C686.712 492.655 706.387 469.718 709.097 440.762C711.791 412.081 696.943 385.077 676.907 365.593C666.346 355.323 654.182 346.89 641.009 340.322C640.008 339.818 639.173 341.348 640.18 341.848C667.791 355.623 693.005 378.842 703.281 408.579C713.93 439.42 703.272 470.234 680.848 492.714C634.33 539.37 555.851 544.635 521.488 604.731C492.838 654.836 499.524 724.954 446.089 759.395C419.502 776.528 385.401 781.138 355.216 771.749C323.281 761.813 296.852 737.357 281.956 707.707C254.594 653.251 270.932 589.947 260.911 532.058C255.927 503.285 243.257 477.43 220.968 458.144C195.171 435.826 162.714 423.979 131.717 410.938C99.5765 397.416 66.7203 381.311 46.5593 351.606C28.4079 324.864 25.0771 291.456 43.9516 264.174C61.3913 238.977 91.0328 223.793 119.296 214.096C151.628 203.004 185.329 195.575 219.37 192.458C253.78 189.301 288.706 190.578 322.592 197.568C356.309 204.522 386.781 220.592 411.502 244.603C422.947 255.715 432.553 267.771 445.766 277C459.629 286.669 475.05 293.987 490.91 299.739C523.581 311.622 558.294 316.097 591.837 324.751C608.442 329.036 624.713 334.393 640.176 341.842C641.18 342.335 642.019 340.812 641.009 340.322Z" fill="#BB86FC"/>
<path d="M629.396 343.833C567.051 313.833 489.143 321.319 434.467 274.522C421.862 263.735 411.944 250.373 398.894 239.957C386.655 230.186 373.125 222.01 358.672 215.977C329.376 203.751 296.121 200.128 264.602 199.835C231.998 199.52 199.386 203.744 167.756 211.553C138.467 218.792 108.53 228.282 83.8364 246.168C62.7163 261.475 46.1368 284 46.5972 311.06C47.1081 340.344 66.1783 366.604 88.923 383.518C142.386 423.269 226.06 427.291 256.257 494.62C280.891 549.55 261.291 612.808 276.624 669.845C292.055 727.271 347.98 770.978 408.552 758.906C436.3 753.377 460.579 736.959 474.963 712.498C489.267 688.178 494.124 659.849 502.142 633.158C506.432 618.868 511.673 604.71 519.711 592.06C529.815 576.139 544.316 563.921 560.239 554.088C589.112 536.234 621.981 525.744 649.724 505.943C671.542 490.38 690.854 468.771 694.087 441.166C697.328 413.483 683.28 387.242 664.007 368.324C653.853 358.348 642.112 350.192 629.396 343.833C628.399 343.336 627.56 344.859 628.56 345.364C655.263 358.697 679.773 381.371 689.14 410.392C698.71 440.052 687.671 469.144 666.004 490.251C621.396 533.683 547.485 539.094 515.182 596.243C487.951 644.419 494.345 711.323 442.396 743.778C416.322 760.06 382.94 763.723 353.946 753.606C323.906 743.121 299.388 719.28 285.985 690.661C261.459 638.277 277.457 578.339 266.854 523.266C261.548 495.722 248.415 471.54 226.539 453.653C201.329 433.051 170.299 422.156 140.733 409.544C110.861 396.805 80.725 381.184 62.3982 353.256C44.7238 326.319 43.3882 293.089 63.8621 267.288C81.458 245.112 108.431 231.805 134.739 222.967C166.274 212.375 199.097 205.375 232.268 202.728C264.25 200.176 296.639 201.684 328.063 208.374C360.288 215.239 389.412 231.353 412.707 254.641C423.164 265.102 432.254 275.986 444.594 284.422C457.883 293.504 472.612 300.342 487.733 305.752C518.63 316.791 551.395 321.013 583.048 329.223C598.681 333.28 613.994 338.354 628.56 345.364C629.567 345.847 630.406 344.323 629.396 343.833Z" fill="#BB86FC"/>
<path d="M617.78 347.356C558.224 318.713 483.173 326.105 431.469 280.528C419.668 270.117 410.224 257.615 397.744 247.825C386.401 238.915 373.921 231.461 360.613 225.9C333.219 214.441 302.166 210.99 272.689 210.573C241.027 210.12 209.315 214.195 178.611 221.839C151.103 228.69 123.031 237.612 99.8022 254.357C80.0337 268.61 64.3049 289.403 64.0946 314.67C63.8692 342.263 81.3558 367.418 102.487 383.739C153.099 422.802 233.533 425.738 262.929 489.905C287.085 542.632 267.622 603.69 282.987 658.472C297.859 711.527 349.347 752.012 405.617 742.162C432.109 737.528 455.821 722.462 469.991 699.467C484.309 676.247 489.01 648.782 496.692 623.008C500.688 609.611 505.51 596.338 512.875 584.379C522.216 569.229 535.666 557.499 550.615 548.071C578.368 530.563 610.226 520.583 637.035 501.465C657.828 486.649 676.312 465.989 679.276 439.654C682.243 413.384 668.947 388.539 650.641 370.585C640.992 361.129 629.851 353.389 617.78 347.356C616.783 346.858 615.944 348.382 616.951 348.882C642.399 361.608 665.689 383.204 674.557 410.896C683.655 439.32 672.707 467.075 651.849 487.079C608.788 528.368 537.801 533.553 507.949 589.469C483.34 635.568 488.442 698.662 438.3 728.358C413.385 743.116 382.061 746.059 354.851 736.166C327.052 726.041 304.353 703.831 291.782 677.258C268.049 627.097 283.746 569.622 273.22 516.875C268.044 490.912 255.466 468.227 234.785 451.423C210.431 431.632 180.44 421.32 151.985 409.091C123.621 396.907 95.2589 381.736 78.2761 354.912C62.0215 329.233 61.6695 298.058 81.1233 274.027C98.396 252.696 124.642 240.249 150.177 231.86C179.432 222.241 209.795 215.856 240.51 213.391C271.19 210.929 302.291 212.426 332.407 218.953C362.455 225.475 389.708 240.629 411.492 262.31C421.668 272.428 430.456 283.008 442.454 291.165C454.75 299.528 468.339 305.89 482.299 310.939C511.435 321.474 542.351 325.548 572.266 333.185C587.614 337.103 602.653 342.013 616.945 348.886C617.951 349.369 618.79 347.845 617.78 347.356Z" fill="#BB86FC"/>
<path d="M606.164 350.879C549.9 323.849 479.313 330.653 430.22 288.034C418.804 278.124 409.768 266.026 397.78 256.626C386.562 247.833 374.211 240.531 361.001 235.176C334.993 224.648 305.565 221.536 277.701 221.272C247.351 220.988 216.981 225.087 187.604 232.607C161.89 239.181 135.739 247.75 114.174 263.702C95.5574 277.479 81.153 297.582 81.6117 321.574C82.1216 348.019 99.3645 371.617 119.908 386.872C168.868 423.231 246.204 426.71 271.74 490.129C291.832 540.041 274.386 596.107 289.388 647.178C304.205 697.637 354.128 735.228 407.526 724.519C431.956 719.627 453.532 705.318 466.52 683.946C480.022 661.712 484.388 635.513 491.808 610.959C495.67 598.174 500.383 585.526 507.586 574.223C516.754 559.847 529.904 548.866 544.303 539.999C570.743 523.715 600.861 514.208 626.035 495.766C645.125 481.785 661.766 462.503 664.47 438.15C667.223 413.318 654.562 389.812 637.261 372.855C628.127 363.903 617.583 356.591 606.164 350.879C605.167 350.381 604.335 351.901 605.336 352.405C628.977 364.233 650.57 384.05 659.358 409.546C668.791 436.87 658.619 463.817 638.422 483.203C597.904 522.086 531.134 527.079 502.584 579.277C478.859 622.653 484.01 682.474 437.215 711.13C413.966 725.368 384.401 728.632 358.632 719.728C331.846 710.476 309.892 689.439 297.684 664.075C274.996 616.921 289.467 562.632 280.058 512.875C275.437 488.437 264.027 466.778 244.834 450.679C222.339 431.81 194.363 421.847 167.702 410.541C140.411 398.965 112.717 384.902 95.9789 359.378C80.0982 335.168 78.9271 305.458 97.2128 282.224C113.019 262.136 137.513 250.142 161.254 242.195C189.188 232.833 218.234 226.602 247.603 224.153C276.598 221.737 305.988 223.012 334.484 229.041C363.567 235.193 389.812 249.573 410.871 270.554C420.53 280.179 428.893 290.192 440.307 297.913C451.951 305.789 464.8 311.774 477.998 316.532C505.773 326.542 535.245 330.379 563.743 337.718C578.03 341.396 592.018 346.007 605.336 352.405C606.338 352.881 607.177 351.357 606.164 350.879Z" fill="#BB86FC"/>
<path d="M594.55 354.39C541.589 328.976 475.396 335.243 428.974 295.547C418.13 286.281 409.622 274.799 398.373 265.878C387.904 257.567 376.335 250.636 363.978 245.526C339.603 235.442 311.991 232.378 285.791 232.017C257.149 231.618 228.481 235.349 200.718 242.326C176.354 248.451 151.494 256.424 130.935 271.31C113.023 284.268 98.8883 303.255 99.098 326.198C99.3142 350.547 114.779 372.672 133.468 387.087C179.565 422.618 253.537 425.168 278.368 485.22C297.978 532.647 280.993 586.291 295.525 634.915C309.852 682.848 357.85 718.038 408.439 707.018C431.829 701.921 451.996 687.721 463.926 666.904C475.875 646.057 479.904 621.911 486.849 599.194C490.504 587.221 494.995 575.357 501.839 564.811C510.871 550.893 523.873 540.395 537.985 531.948C562.616 517.206 590.365 508.204 613.617 491.087C631.571 477.865 647.221 459.612 649.662 436.645C652.144 413.214 640.224 391.102 623.89 375.11C615.273 366.68 605.322 359.788 594.55 354.39C593.554 353.892 592.714 355.416 593.715 355.92C616.361 367.268 637.057 386.372 645.083 410.972C653.393 436.436 643.691 461.368 624.982 479.333C587.019 515.803 524.658 520.572 497.319 568.933C474.514 609.279 479.696 665.482 436.988 693.318C414.919 707.705 386.375 711.324 361.421 702.936C335.755 694.309 314.724 674.18 303.129 649.921C281.81 605.294 295.555 553.991 286.525 506.955C282.112 483.94 271.225 463.54 253.083 448.438C232.061 430.933 206.06 421.555 181.186 411.039C154.979 399.954 128.33 386.542 112.422 361.909C97.5415 338.855 96.875 310.71 114.473 288.963C130.028 269.732 153.688 258.617 176.687 251.081C203.071 242.444 230.471 236.749 258.163 234.634C285.467 232.543 313.178 233.934 339.945 239.862C366.79 245.798 391.071 259.549 410.457 279.004C419.8 288.379 427.972 297.939 439.147 305.31C450.2 312.6 462.358 318.14 474.819 322.527C500.458 331.564 527.577 335.191 553.837 341.903C567.539 345.402 580.954 349.791 593.726 355.923C594.721 356.403 595.56 354.88 594.55 354.39Z" fill="#BB86FC"/>
<path d="M582.935 357.913C532.72 333.846 469.548 339.957 425.984 301.549C416.024 292.776 408.072 282.231 397.524 273.986C387.719 266.319 376.922 259.938 365.393 255.227C341.781 245.588 314.96 242.817 289.638 242.713C262.69 242.602 235.764 246.334 209.699 253.102C186.553 259.105 162.943 266.965 143.808 281.797C127.252 294.633 115.136 313.291 116.754 334.924C118.445 357.513 133.349 377.283 151.079 390.352C195.461 423.044 265.37 426.132 286.738 484.802C303.066 529.648 287.51 579.27 302.258 624.547C316.629 668.67 361.608 700.24 408.346 689.732C430.442 684.766 449.319 671.161 460.423 651.374C471.409 631.814 475.171 609.305 481.675 588.09C485.259 576.407 489.707 564.853 496.581 554.674C505.195 541.915 517.457 532.332 530.6 524.571C553.871 510.823 579.968 502.287 601.755 485.991C618.369 473.569 632.645 456.485 634.85 435.144C637.115 413.145 625.851 392.378 610.514 377.386C602.409 369.454 593.055 362.989 582.935 357.913C581.938 357.415 581.106 358.934 582.107 359.439C603.174 370.008 622.521 387.728 630.209 410.553C638.319 434.653 629.357 458.369 611.56 475.463C576.13 509.496 517.927 514.082 491.97 558.768C469.947 596.691 475.16 650.062 435.033 676.588C414.446 690.199 387.764 693.775 364.312 686.175C340.312 678.412 320.557 659.849 309.391 637.455C288.738 596.054 301.17 547.889 293.528 503.91C289.791 482.455 280.414 463.069 263.995 448.483C244.78 431.408 220.303 422.246 196.928 412.484C172.333 402.202 147.133 390.28 131.226 367.955C116.096 346.719 113.625 319.59 129.762 298.184C143.777 279.59 166.193 268.631 187.765 261.416C212.829 253.035 238.908 247.505 265.259 245.384C291.258 243.302 317.644 244.577 343.147 250.188C368.944 255.859 392.19 269.217 410.635 288.068C418.836 296.447 426.172 304.835 436.027 311.4C446.688 318.513 458.443 323.885 470.512 328.124C494.781 336.651 520.465 340.026 545.303 346.432C557.945 349.693 570.312 353.788 582.107 359.439C583.113 359.922 583.952 358.398 582.935 357.913Z" fill="#BB86FC"/>
<path d="M571.326 361.431C524.169 338.862 464.601 344.647 423.876 308.301C414.614 300.031 407.147 290.229 397.26 282.547C387.816 275.221 377.421 269.156 366.305 264.736C344.534 256.066 319.873 253.566 296.591 253.44C271.752 253.302 246.887 256.669 222.833 262.809C201.018 268.375 178.739 275.633 160.573 289.367C144.985 301.152 133.212 318.3 134.162 338.523C135.153 359.785 148.914 378.724 165.423 391.166C206.698 422.261 272.053 424.773 293.054 478.983C309.162 520.563 294.62 567.07 307.503 609.425C320.23 651.251 361.949 682.004 406.23 672.888C427.146 668.579 445.257 656.041 455.987 637.515C466.583 619.208 470.155 597.931 476.228 577.929C479.499 567.141 483.528 556.454 489.725 546.977C497.817 534.597 509.474 525.315 522.091 517.853C543.986 504.891 568.602 496.891 589.079 481.505C604.954 469.575 618.468 453.171 620.117 432.67C621.748 412.427 611.262 393.435 597.148 379.648C589.548 372.234 580.798 366.194 571.326 361.431C570.325 360.927 569.486 362.45 570.491 362.961C590.306 372.913 608.455 389.56 615.621 411.05C623.261 433.932 614.37 456.277 597.408 472.28C563.771 504.004 509.029 508.387 485.2 551.12C465.219 586.949 469.675 636.773 431.354 660.981C388.099 688.305 333.554 664.791 313.465 620.439C295.783 581.394 307.511 536.979 299.638 496.079C295.838 476.34 286.702 458.704 271.37 445.478C253.086 429.701 230.122 421.257 208.162 412.032C185.121 402.351 161.538 390.892 147.045 369.619C133.166 349.24 131.902 323.883 147.609 304.148C161.099 287.19 181.965 277.304 202.102 270.671C225.595 262.937 249.992 257.836 274.659 255.962C323.1 252.295 373.995 259.718 409.41 295.706C417.336 303.766 424.358 311.83 433.882 318.137C443.552 324.548 454.166 329.427 465.081 333.318C487.949 341.481 512.192 344.655 535.645 350.678C547.621 353.746 559.325 357.609 570.487 362.955C571.493 363.438 572.332 361.914 571.326 361.431Z" fill="#BB86FC"/>
<path d="M559.706 364.947C515.595 343.873 459.66 349.316 421.754 315.06C412.901 307.057 405.708 297.739 396.113 290.45C387.591 283.968 378.22 278.614 368.272 274.67C348.02 266.65 325.169 264.294 303.533 264.164C280.386 264.021 257.246 267.135 234.82 272.814C214.409 277.991 193.561 284.75 176.541 297.546C162.229 308.303 151.25 323.836 151.615 342.361C152.028 363.183 165.685 381.645 181.892 393.573C220.705 422.123 281.43 424.782 300.371 475.866C314.876 515.006 301.143 558.496 313.94 598.099C326.38 636.58 365.46 664.42 406.292 655.571C425.141 651.493 441.599 640.256 451.518 623.649C461.723 606.576 465.129 586.572 470.774 567.772C473.937 557.26 477.821 546.834 483.932 537.639C491.642 526.039 502.796 517.427 514.712 510.471C535.246 498.486 558.214 490.959 577.221 476.387C591.732 465.262 603.9 450.028 605.297 431.173C606.69 412.357 596.903 394.72 583.774 381.913C576.69 375.004 568.537 369.391 559.706 364.947C558.709 364.449 557.877 365.968 558.878 366.473C577.422 375.808 594.406 391.39 601.045 411.55C608.042 432.822 599.72 453.56 583.975 468.407C552.641 497.952 501.675 502.08 479.365 541.789C460.552 575.272 464.847 621.841 428.99 644.515C388.912 669.848 338.264 648.251 319.352 607.246C302.576 570.87 313.481 529.325 306.287 491.112C302.842 472.826 294.563 456.413 280.509 444C263.613 429.08 242.151 421.104 221.664 412.529C200.122 403.51 177.949 392.976 164.229 373.224C150.752 353.83 149.515 329.566 164.89 310.874C177.856 295.112 197.438 286.102 216.432 279.93C238.332 272.819 261.079 268.174 284.053 266.543C328.712 263.365 375.471 270.342 408.2 303.353C415.543 310.766 422.023 318.343 430.772 324.229C439.699 330.245 449.542 334.848 459.657 338.507C480.763 346.149 503.144 349.183 524.848 354.631C536.542 357.567 547.98 361.261 558.878 366.473C559.884 366.956 560.723 365.432 559.706 364.947Z" fill="#BB86FC"/>
<path d="M548.096 368.465C507.291 348.997 455.754 353.91 420.496 322.582C412.599 315.558 406.253 307.186 397.889 300.6C389.622 294.085 380.472 288.688 370.692 284.78C351.988 277.291 330.858 275.069 310.84 274.888C289.019 274.695 267.187 277.624 246.062 283.012C227.004 287.867 207.529 294.229 191.716 306.323C178.847 316.162 168.985 330.252 169.094 346.989C169.213 365.699 181.091 382.687 195.43 393.782C230.775 421.11 287.786 422.942 306.41 469.389C321 505.802 308.016 546.724 319.479 583.89C330.64 620.055 366.922 646.478 405.192 638.499C422.442 634.9 437.711 624.802 447.038 609.78C456.858 593.966 460.103 575.214 465.324 557.623C468.177 547.994 471.649 538.449 477.08 529.948C484.045 519.055 494.183 510.9 505.195 504.344C524.301 492.955 545.857 486.033 563.722 472.526C577.318 462.238 588.911 448.147 590.413 430.558C591.913 413.088 582.987 396.635 570.874 384.645C564.194 378.041 556.466 372.693 548.096 368.465C547.096 367.961 546.261 369.491 547.261 369.996C564.653 378.772 580.586 393.431 586.58 412.45C592.985 432.77 584.301 452.241 569.044 465.923C539.672 492.268 493.302 496.572 473.069 533.304C455.895 564.479 459.705 607.575 426.177 628.339C387.475 652.31 339.028 629.549 323.211 589.314C309.85 555.347 319.85 517.812 312.268 482.811C308.535 465.596 299.841 450.634 286.08 439.51C270.277 426.734 251.005 419.716 232.505 411.911C212.945 403.656 192.965 393.795 180.633 375.753C168.361 357.793 167.445 335.516 181.558 318.346C193.651 303.625 211.988 295.256 229.723 289.533C250.004 282.987 271.056 278.705 292.323 277.208C334.7 274.225 378.733 281.209 409.154 313.25C415.891 320.341 422.239 326.971 430.577 332.253C438.659 337.369 447.45 341.324 456.457 344.498C476.17 351.442 497.026 354.196 517.205 359.393C527.535 362.043 537.626 365.387 547.257 369.989C548.263 370.472 549.103 368.948 548.096 368.465Z" fill="#BB86FC"/>
<path d="M536.481 371.987C498.466 353.894 449.83 358.649 417.553 328.572C410.449 321.949 404.517 314.445 396.74 308.485C389.373 302.837 381.276 298.152 372.649 294.712C355.15 287.732 335.35 285.696 316.634 285.608C296.514 285.515 276.397 288.279 256.927 293.3C239.347 297.84 221.391 303.789 206.902 315.102C195.155 324.264 186.372 337.29 186.6 352.645C186.857 369.778 197.808 385.291 210.926 395.456C243.821 420.956 297.015 422.491 313.748 466.278C326.73 500.254 314.492 538.178 325.938 572.569C336.852 605.365 370.262 628.776 405.099 621.211C421.054 617.744 435.059 608.254 443.567 594.258C452.582 579.433 455.492 561.946 460.443 545.562C463.158 536.585 466.495 527.589 471.835 519.802C478.705 509.755 488.384 502.372 498.844 496.359C516.411 486.275 535.959 479.805 552.076 467.243C563.95 457.986 573.921 445.488 575.502 430.049C577.172 413.65 568.88 398.17 557.501 386.91C551.329 380.814 544.205 375.89 536.481 371.987C535.48 371.483 534.647 373.002 535.648 373.507C552.023 381.797 567.105 395.761 572.282 413.881C577.673 432.734 569.022 450.333 554.89 462.677C527.607 486.533 485.015 490.691 466.771 524.829C451.184 554.02 454.451 594.091 422.477 612.68C386.534 633.574 342.682 612.033 328.647 575.038C316.728 543.626 325.96 509.129 318.726 476.905C315.27 461.529 307.464 448.084 295.236 438.013C280.463 425.851 262.281 419.302 244.883 411.941C227.112 404.42 208.987 395.446 197.661 379.16C185.877 362.206 185.13 341.136 198.837 325.083C210.104 311.877 226.767 304.363 242.946 299.157C261.98 293.035 281.746 289.081 301.703 287.797C322.595 286.452 344.596 287.581 364.714 293.74C375.844 297.153 386.305 302.674 395.543 309.749C403.921 316.161 410.157 324.471 418.038 331.348C450.83 359.942 497.97 355.577 535.648 373.507C536.654 373.99 537.494 372.466 536.481 371.987Z" fill="#BB86FC"/>
<path d="M524.868 375.499C489.674 358.799 443.869 363.403 414.655 334.545C402.201 322.248 391.08 311.142 374.408 304.561C357.831 298.014 339 296.218 321.303 296.33C303.646 296.445 286.017 298.916 268.921 303.301C252.752 307.447 236.205 312.893 222.862 323.267C211.904 331.779 203.697 343.981 204.113 358.297C204.562 373.866 214.47 387.866 226.412 397.129C256.393 420.383 304.718 421.789 320.388 461.371C332.857 492.89 320.994 528.371 332.085 560.291C342.341 589.784 372.491 610.738 403.996 604.149C419 601.018 432.12 592.08 440.002 578.884C448.058 565.399 450.697 549.587 455.186 534.746C457.763 526.237 460.952 517.77 466.074 510.427C473.511 499.771 484.541 492.562 495.876 486.616C513.533 477.348 532.932 470.511 547.106 455.869C558.527 444.073 563.978 428.047 558.797 412.045C553.51 395.686 539.862 383.111 524.868 375.499C523.871 375.001 523.032 376.525 524.033 377.029C539.129 384.689 553.057 397.591 557.684 414.375C562.433 431.618 554.354 447.6 541.454 458.814C516.261 480.713 477.196 484.509 460.588 516.166C446.638 542.757 449.423 578.995 420.52 595.978C386.947 615.698 345.852 594.764 333.761 559.82C323.74 530.854 332.191 499.495 324.951 470.068C316.784 436.905 287.055 424.538 258.353 412.43C241.357 405.266 223.939 396.735 213.504 380.817C203.429 365.434 203.328 346.769 215.506 332.554C226.419 319.809 242.694 312.942 258.35 308.099C275.087 302.923 292.431 299.57 309.926 298.471C329.118 297.255 349.371 298.312 367.824 304.065C378.061 307.257 387.701 312.404 396.15 318.993C403.183 324.467 408.579 331.37 415.09 337.361C444.861 364.728 489.171 360.486 524.033 377.029C525.035 377.505 525.878 375.988 524.868 375.499Z" fill="#BB86FC"/>
<path d="M513.252 379.021C481.355 363.914 439.98 367.995 413.376 342.079C401.703 330.711 391.58 320.378 376.001 314.346C361.162 308.601 344.384 307.003 328.576 307.056C311.87 307.11 295.18 309.527 279.032 313.798C264.601 317.618 249.879 322.613 238.052 332.053C228.276 339.852 221.024 351.028 221.627 363.939C222.248 377.243 230.3 389.229 240.303 397.528C267.519 420.116 312.882 420.442 327.359 457.364C338.576 485.974 327.858 518.116 337.923 547.064C347.33 574.101 375.076 593.199 403.907 586.869C417.618 583.859 429.45 575.534 436.506 563.367C443.428 551.447 445.856 537.64 449.739 524.586C452.508 515.319 456.032 506.146 462.256 498.595C469.241 490.118 478.788 484.308 488.456 479.35C504.423 471.167 521.895 464.75 534.377 451.251C558.09 425.61 540.497 392.888 513.252 379.021C512.258 378.513 511.418 380.036 512.423 380.547C525.986 387.458 538.451 398.924 542.808 413.939C547.541 430.247 539.63 445.248 527.226 455.613C504.596 474.535 470.315 478.347 455.207 505.994C442.021 530.134 444.955 563.644 418.565 579.266C387.649 597.574 349.963 577.962 339.291 545.643C330.681 519.59 338.044 491.527 331.614 465.111C324.233 434.781 296.927 423.515 270.726 412.454C255.546 406.053 239.917 398.375 230.524 384.229C221.16 370.13 221.003 353.147 232.174 340.026C241.64 328.906 255.865 322.709 269.465 318.392C285.632 313.258 302.427 309.998 319.373 309.066C336.539 308.121 354.714 309.15 371.172 314.467C380.919 317.607 389.995 322.7 397.918 329.176C404.309 334.406 409.214 341.073 415.528 346.341C442.917 369.172 481.375 365.844 512.423 380.547C513.425 381.024 514.264 379.5 513.252 379.021Z" fill="#BB86FC"/>
<path d="M501.632 382.537C472.796 368.934 435.093 372.631 411.314 348.83C401.345 338.843 392.159 329.941 378.792 324.599C365.305 319.21 349.959 317.737 335.542 317.774C320.528 317.823 305.549 319.978 291.039 323.791C277.708 327.295 264.05 331.941 253.266 340.833C245.09 347.565 239.086 356.907 239.09 367.779C239.102 380.864 247.4 392.711 257.393 400.476C282.509 419.998 323.142 420.954 335.006 455.129C344.031 481.123 334.448 509.941 344.485 535.791C353.537 559.085 377.823 575.123 402.952 569.763C414.996 567.192 425.622 560.043 432.047 549.486C438.549 538.799 440.823 526.267 444.292 514.425C446.836 505.77 450.044 497.109 455.907 490.097C462.071 482.719 470.351 477.602 478.802 473.223C493.458 465.63 509.553 459.861 520.948 447.338C542.026 424.177 525.98 394.974 501.632 382.537C500.638 382.028 499.809 383.554 500.803 384.063C513.099 390.346 524.403 400.754 528.21 414.433C532.604 430.241 523.78 444.245 511.508 453.523C491.075 468.983 461.753 473.118 448.918 497.504C437.503 519.22 439.788 548.862 416.23 562.773C388.804 578.956 355.402 561.825 345.441 533.354C337.296 510.09 343.899 484.821 338.49 461.097C332.314 433.978 308.823 423.232 285.277 413.398C271.555 407.666 257.268 401.119 248.299 388.706C238.798 375.55 238.316 359.076 249.48 346.793C258.461 336.918 271.273 331.537 283.777 327.68C297.984 323.29 312.71 320.519 327.567 319.74C343.04 318.918 359.467 319.875 374.261 324.787C382.761 327.607 390.689 332.074 397.617 337.722C403.646 342.639 408.235 348.966 414.273 353.823C439.042 373.71 473.032 370.963 500.803 384.063C501.816 384.542 502.655 383.018 501.632 382.537Z" fill="#BB86FC"/>
<path d="M490.023 386.055C464.161 373.918 430.359 377.203 409.249 355.592C400.218 346.34 391.497 338.449 379.123 333.918C366.644 329.35 352.539 328.218 339.349 328.541C315.911 329.114 286.647 333.937 268.31 349.772C250.046 365.545 255.827 389.475 273.831 402.847C296.818 419.935 333.159 421.173 342.526 452.925C349.407 476.219 341.088 501.865 351.152 524.529C360.237 544.962 382.596 558.188 404.808 551.988C429.615 545.063 433.239 521.794 439.984 500.507C442.385 492.92 445.625 485.723 451.125 479.855C457.309 473.254 465.454 468.868 473.483 464.928C485.755 458.911 498.954 453.489 508.059 442.834C525.756 422.145 511.122 396.89 490.023 386.055C489.029 385.547 488.19 387.071 489.188 387.586C499.849 393.059 509.969 402.112 513.366 414.005C517.064 426.99 511.058 438.788 501.203 447.138C483.441 462.196 456.475 465.164 444.033 486.501C433.019 505.39 435.635 531.498 415.961 544.997C391.716 561.623 360.409 545.885 351.274 520.131C344.101 499.89 349.663 477.796 345.358 457.07C340.512 433.702 321.398 423.272 300.925 414.78C289.121 409.887 276.638 404.872 267.878 395.172C258.006 384.238 254.738 368.658 264.315 356.417C271.799 346.841 283.613 341.568 294.893 337.974C307.421 333.974 320.427 331.389 333.569 330.546C347.814 329.633 362.926 330.385 376.574 334.871C384.273 337.396 391.413 341.422 397.681 346.553C402.91 350.844 406.919 356.33 412.155 360.572C434.13 378.381 464.459 375.974 489.188 387.586C490.196 388.058 491.036 386.534 490.023 386.055Z" fill="#BB86FC"/>
<path d="M478.406 389.578C455.515 378.9 425.679 381.76 407.231 362.326C399.637 354.331 391.665 347.637 381.117 343.854C370.527 340.061 358.674 339.063 347.491 339.236C326.98 339.572 301.504 343.721 285.197 357.167C270.023 369.681 271.851 389.173 286.002 401.839C305.095 418.941 338.47 418.453 348.402 445.557C355.908 466.046 348.032 488.95 356.193 509.373C363.381 527.379 382.306 539.59 401.754 535.398C423.783 530.655 428.418 511.017 433.958 492.226C435.986 485.358 438.559 478.527 443.296 473.02C448.626 466.824 455.897 462.737 463.12 459.146C474.001 453.74 485.825 449.075 493.991 439.656C509.769 421.463 497.069 399.245 478.406 389.578C477.415 389.059 476.576 390.582 477.578 391.104C487.392 396.191 496.634 404.684 499.12 415.89C501.949 428.648 493.824 439.243 483.922 446.165C467.957 457.325 446.313 460.929 436.821 479.714C428.29 496.601 429.805 519.324 411.445 529.886C388.678 542.981 362.096 526.707 355.961 503.055C351.284 484.99 356.219 465.803 350.967 447.847C345.268 428.347 327.275 420.685 310.032 413.46C299.234 408.93 287.967 403.712 281.125 393.761C273.88 383.202 274.323 370.31 283.465 361.08C298.067 346.327 324.285 341.969 344.078 341.095C356.227 340.549 369.178 341.378 380.7 345.545C387.439 347.981 393.7 351.796 399.075 356.512C403.226 360.154 406.531 364.626 410.901 368.026C430.12 383 456.167 381.118 477.578 391.104C478.587 391.576 479.426 390.053 478.406 389.578Z" fill="#BB86FC"/>
<path d="M466.793 393.09C447.192 384.008 421.806 386.361 405.953 369.877C399.531 363.2 393.04 357.563 384.234 354.222C375.272 350.819 365.141 349.881 355.607 349.948C337.923 350.08 316.212 353.558 301.909 364.74C289.103 374.744 288.932 390.651 300.089 402.12C315.96 418.438 345.962 417.053 355.044 440.64C361.871 458.351 354.792 478.355 362.004 496.053C368.061 510.912 383.423 521.271 399.649 518.511C419.017 515.218 423.78 498.509 428.516 482.09C430.324 475.813 432.565 469.54 436.942 464.543C441.69 459.129 448.157 455.637 454.53 452.505C464.057 447.815 474.406 443.574 481.177 434.987C493.514 419.32 482.097 401.092 466.793 393.09C465.806 392.577 464.967 394.101 465.958 394.62C474.498 399.084 482.595 406.5 484.483 416.381C486.7 427.988 478.587 437.009 469.521 442.812C455.336 451.898 437.682 455.42 430.149 472.153C423.522 486.837 424.155 506.051 407.69 514.151C387.085 524.273 365.634 508.484 361.399 487.889C358.174 472.227 362.569 455.364 356.72 440.169C350.784 424.751 335.37 419.023 321.317 413.032C312.109 409.1 302.359 404.377 297.013 395.447C291.159 385.66 292.951 374.803 301.518 367.295C315.235 355.294 338.139 351.818 355.634 351.691C366.303 351.608 377.701 352.779 387.429 357.479C396.906 362.054 402.198 370.257 410.532 376.109C426.943 387.63 448.187 386.384 465.962 394.627C466.974 395.088 467.813 393.564 466.793 393.09Z" fill="#BB86FC"/>
<path d="M455.178 396.612C437.808 388.647 417.169 390.563 403.19 375.815C391.557 363.543 375.896 360.062 359.421 360.756C344.966 361.366 326.432 364.447 315.551 374.892C305.858 384.18 308.316 397.492 317.845 405.93C332.179 418.641 356.911 417.919 362.897 439.353C367.061 454.246 361.593 470.667 368.831 484.932C375.056 497.216 389.018 504.636 402.563 500.544C417.313 496.083 419.829 482.268 423.818 469.361C427.475 457.542 434.939 451.24 445.888 445.885C454.043 441.896 463.038 438.069 468.278 430.223C477.042 417.09 467.278 403.012 455.178 396.612C454.193 396.089 453.354 397.612 454.349 398.138C461.619 401.985 468.428 408.255 469.707 416.763C471.275 427.205 463.268 434.641 455.015 439.394C443.927 445.777 430.801 449.258 424.842 461.679C419.193 473.445 419.999 489 407.531 496.482C389.954 507.021 370.606 492.683 367.314 474.68C365.052 462.284 368.116 449.166 364.02 437.054C359.661 424.174 347.533 418.835 335.871 413.966C328.792 411.011 321.349 407.819 316.246 401.856C309.491 393.96 309.123 383.472 316.815 376.09C327.505 365.815 346.426 362.875 360.597 362.446C370.054 362.16 380.34 363.022 388.954 367.213C396.626 370.937 401.035 377.482 407.669 382.354C421.291 392.352 439.376 391.274 454.349 398.138C455.361 398.6 456.2 397.076 455.178 396.612Z" fill="#BB86FC"/>
</svg>
