<svg width="358" height="806" viewBox="0 0 358 806" fill="none" xmlns="http://www.w3.org/2000/svg">
<path d="M-176.464 153.662C-195.497 177.958 -207.185 208.306 -200.93 239.323C-195.552 265.984 -177.049 298.298 -195.167 323.835C-206.399 339.672 -227.659 344.071 -245.884 344.59C-262.895 345.078 -279.74 341.787 -296.732 341.548C-312.198 341.34 -328.187 343.655 -341.048 352.858C-353.642 361.871 -361.655 376.139 -365.179 391.013C-373.301 425.325 -357.711 462.068 -341.431 491.589C-323.02 524.976 -297.671 554.55 -267.432 577.788C-236.634 601.454 -199.799 616.238 -170.152 641.464C-156.099 653.419 -143.621 667.942 -136.026 684.892C-132.294 693.225 -129.88 702.059 -129.014 711.155C-128.322 718.38 -127.3 725.332 -123.842 731.84C-111.978 754.188 -82.6336 754.409 -60.8364 751.149C-45.6956 748.878 -31.404 744.534 -18.4699 736.122C-3.23574 726.21 9.26037 712.395 19.1694 697.267C40.1307 665.298 49.7858 627.763 66.0941 593.512C74.6013 575.63 84.983 558.318 98.9646 544.144C113.785 529.113 132.356 519.609 152.139 512.795C186.684 500.897 225.504 495.228 253.372 469.548C278.776 446.138 280.889 412.93 275.12 380.786C269.34 348.544 257.586 313.703 231.576 292.095C207.443 272.051 176.632 272.334 146.992 270.199C131.717 269.1 116.162 267.098 102.235 260.343C84.0287 251.508 71.0285 235.149 61.956 217.457C44.7269 183.83 41.532 144.761 22.9294 111.738C8.5168 86.1462 -16.9265 64.0799 -47.9557 66.519C-80.6407 69.088 -109.359 94.3072 -134.089 113.522C-149.508 125.502 -164.167 138.42 -176.464 153.662C-177.089 154.447 -175.868 155.406 -175.233 154.622C-162.274 138.549 -146.651 125.11 -130.315 112.58C-116.54 102.012 -102.618 91.2093 -87.6548 82.3444C-72.9028 73.6014 -56.1751 66.759 -38.7019 68.0265C-22.915 69.1797 -8.64403 77.0308 2.65282 87.8171C29.9618 113.894 36.9083 152.207 47.9737 186.697C57.6864 216.98 73.2576 249.253 103.956 262.869C129.67 274.272 158.732 270.887 185.934 274.838C202.312 277.215 217.744 282.635 230.616 293.326C244.761 305.07 254.583 321.224 261.484 338.077C267.978 353.943 272.186 370.8 274.689 387.734C277.206 404.782 277.732 422.753 271.946 439.223C259.237 475.429 220.397 490.712 186.595 500.705C168.408 506.09 149.891 510.84 132.637 518.875C116.909 526.2 103.125 536.482 91.7916 549.636C68.1443 577.102 56.4205 611.978 43.1359 645.081C29.1099 680.044 11.336 716.365 -22.112 736.583C-35.6061 744.745 -50.8178 748.546 -66.3677 750.303C-79.5592 751.799 -93.9674 751.852 -106.262 746.177C-121.873 738.977 -125.848 724.821 -127.659 709.008C-129.327 694.45 -135.222 680.691 -143.376 668.605C-163.054 639.408 -193.972 621.721 -223.678 604.349C-257.234 584.721 -287.642 562.26 -312.355 531.892C-335.571 503.354 -355.64 468.577 -363.274 432.244C-370.894 395.954 -358.443 352.867 -317.71 344.75C-285.989 338.424 -253.791 351.582 -222.175 342.87C-208.402 339.072 -195.83 331.01 -189.789 317.642C-184.996 307.053 -185.312 295.243 -187.462 284.052C-190.08 270.441 -195.076 257.436 -198.307 243.98C-202.127 228.026 -202.059 211.989 -197.407 196.194C-192.916 180.982 -184.979 167.066 -175.233 154.622C-174.613 153.831 -175.844 152.87 -176.464 153.662Z" fill="#BB86FC"/>
<path d="M-169.786 166.526C-187.955 189.735 -198.991 218.618 -192.909 248.207C-187.709 273.506 -169.847 305.043 -188.242 328.882C-199.267 343.168 -218.747 347.114 -235.831 347.576C-252.469 348.017 -268.946 344.682 -285.577 344.665C-300.379 344.655 -315.557 347.319 -327.498 356.647C-338.419 365.17 -345.441 377.926 -348.661 391.248C-356.51 423.729 -341.89 458.489 -326.516 486.506C-309.143 518.14 -285.253 546.185 -256.702 568.267C-227.217 591.078 -191.763 605.166 -163.408 629.494C-150.252 640.782 -138.631 654.476 -131.509 670.409C-128.001 678.25 -125.717 686.539 -124.821 695.089C-124.077 702.266 -123.204 709.089 -119.651 715.509C-108.163 736.241 -80.4375 736.235 -60.0095 733.167C-45.5555 730.989 -31.9138 726.801 -19.5901 718.727C-5.68025 709.606 5.80263 697.035 15.0077 683.268C35.1449 653.167 44.3522 617.611 59.6199 585.104C67.6893 567.913 77.5053 551.227 90.8101 537.53C104.967 522.958 122.723 513.757 141.762 507.187C174.478 495.903 211.223 490.542 237.685 466.318C261.561 444.465 263.989 413.388 258.737 383.145C253.412 352.495 242.44 319.324 218.025 298.484C195.116 278.925 165.708 279.073 137.286 277.044C122.475 275.982 107.354 274.075 93.9095 267.37C77.0288 258.953 64.9454 243.682 56.4553 227.203C39.7218 194.683 36.943 156.638 18.3214 124.964C4.36624 101.229 -19.6674 81.3069 -48.6536 83.9328C-62.8033 85.217 -76.0108 91.3508 -88.0164 98.6448C-103.067 107.788 -117.22 118.745 -131.067 129.599C-145.156 140.641 -158.516 152.556 -169.786 166.526C-170.421 167.31 -169.189 168.27 -168.555 167.486C-156.388 152.403 -141.76 139.767 -126.446 127.991C-113.707 118.193 -100.839 108.246 -87.0874 99.8924C-72.7364 91.1723 -56.3978 84.1659 -39.2525 85.3751C-24.1761 86.4346 -10.5404 93.9581 0.21715 104.283C25.8616 128.877 32.5048 164.907 42.8835 197.399C52.134 226.381 66.9691 257.343 96.4226 270.267C121.301 281.18 149.378 277.621 175.615 281.757C190.903 284.163 205.189 289.573 217.071 299.711C230.039 310.783 239.084 325.773 245.495 341.407C251.983 357.242 256.131 374.161 258.387 391.11C260.499 406.957 260.619 423.593 254.912 438.749C241.95 473.169 204.147 486.941 171.772 496.414C154.708 501.407 137.375 506.014 121.319 513.807C106.774 520.856 94.1345 530.704 83.7199 543.05C61.4017 569.517 50.4395 602.883 37.671 634.481C24.429 667.222 7.36572 701.057 -24.1317 719.725C-36.9847 727.339 -51.5445 730.832 -66.2818 732.402C-78.4594 733.695 -91.6755 733.652 -103.035 728.517C-118.307 721.616 -121.6 708.161 -123.489 692.923C-125.239 678.853 -131.053 665.585 -139.029 653.954C-157.797 626.588 -186.932 610.029 -214.945 593.639C-247.265 574.727 -276.423 552.918 -299.976 523.475C-321.867 496.095 -341.101 462.474 -347.477 427.616C-353.729 393.438 -340.456 354.561 -302.671 347.599C-272.888 342.111 -242.784 354.177 -213.137 346.023C-199.981 342.401 -188.004 334.71 -182.285 321.912C-177.752 311.775 -178.132 300.465 -180.234 289.781C-182.798 276.708 -187.634 264.216 -190.648 251.256C-194.08 236.526 -193.898 221.694 -189.652 207.145C-185.411 192.626 -177.843 179.349 -168.56 167.49C-167.94 166.699 -169.165 165.734 -169.786 166.526Z" fill="#BB86FC"/>
<path d="M-163.107 179.39C-180.402 201.503 -190.788 228.942 -184.888 257.091C-179.842 281.144 -162.803 311.577 -181.359 333.873C-192.674 347.458 -212.158 350.623 -228.873 350.589C-244.094 350.553 -259.163 347.593 -274.401 347.81C-287.926 347.998 -301.704 350.785 -312.517 359.37C-323.52 368.106 -330.267 381.35 -332.91 394.981C-338.829 425.455 -324.886 457.668 -310.328 483.695C-293.217 514.296 -269.603 541.301 -241.438 562.195C-213.824 582.672 -181.109 595.818 -155.271 618.738C-142.935 629.676 -132.145 642.948 -125.862 658.304C-122.564 666.364 -121.252 674.47 -120.274 683.048C-119.612 688.835 -118.118 694.546 -115.084 699.564C-103.411 718.86 -76.5132 718.065 -57.1093 714.852C-26.2137 709.737 -2.74022 690.914 13.7914 664.753C31.8642 636.145 40.4553 602.987 55.0432 572.686C63.1902 555.766 73.3105 539.369 87.1492 526.484C100.361 514.191 116.579 506.545 133.537 500.848C164.102 490.57 198.288 485.202 222.754 462.384C245.395 441.272 247.052 411.383 241.839 382.615C236.575 353.574 225.86 322.16 202.166 302.945C180.32 285.22 152.581 285.769 125.98 283.772C112.433 282.748 98.6281 280.875 86.3319 274.757C69.4099 266.344 57.6373 250.725 49.5245 234.072C35.0306 204.333 31.9945 170.136 15.4825 141.259C2.27158 118.153 -20.9723 98.4791 -49.0745 101.336C-78.186 104.296 -103.722 126.692 -125.84 143.953C-139.41 154.547 -152.269 165.964 -163.107 179.39C-163.746 180.168 -162.515 181.129 -161.88 180.344C-150.389 166.112 -136.592 154.174 -122.13 143.059C-109.736 133.527 -97.1992 123.792 -83.7527 115.781C-70.5235 107.896 -55.4588 101.616 -39.7575 102.726C-25.0292 103.76 -11.82 111.236 -1.46744 121.471C22.0053 144.702 28.2281 178.101 37.8723 208.364C46.4803 235.396 60.125 264.317 87.2578 276.932C110.123 287.555 136.226 284.665 160.575 287.974C175.404 289.992 189.447 294.633 201.206 304.176C213.937 314.499 222.824 328.788 229.092 343.764C235.334 358.67 239.301 374.595 241.551 390.579C243.679 405.79 243.977 421.866 238.541 436.465C226.56 468.642 191.635 481.918 161.34 490.839C130.72 499.849 100.395 508.419 78.4923 533.162C57.1527 557.264 46.4273 588.176 34.7223 617.594C22.3421 648.733 7.22527 680.941 -21.6622 700.067C-34.2922 708.422 -48.4869 712.382 -63.3791 714.174C-75.1632 715.601 -88.0078 715.806 -99.1357 711.077C-113.058 705.164 -117.57 692.999 -119.066 678.9C-120.477 665.548 -125.532 652.988 -132.893 641.824C-149.772 616.218 -176.378 600.355 -202.281 585.223C-232.751 567.434 -260.568 547.723 -283.293 520.358C-304.864 494.377 -323.494 462.441 -330.477 429.084C-337.285 396.585 -326.031 357.912 -289.494 350.802C-261.124 345.282 -232.356 356.927 -204.102 349.171C-192.118 345.887 -181.09 339.037 -175.451 327.614C-170.753 318.093 -170.811 307.309 -172.69 297.081C-174.811 285.547 -178.921 274.507 -181.853 263.186C-185.511 249.086 -186.225 235.01 -182.629 220.794C-178.864 205.935 -171.272 192.355 -161.88 180.344C-161.265 179.557 -162.491 178.593 -163.107 179.39Z" fill="#BB86FC"/>
<path d="M-156.432 192.248C-172.432 212.72 -182.371 238.225 -177.196 264.362C-172.678 287.215 -156.12 316.023 -173.261 337.388C-193.924 363.139 -233.486 350.546 -261.279 350.94C-274.176 351.122 -287.298 353.811 -297.543 362.107C-307.579 370.23 -313.8 382.353 -316.345 394.862C-322.16 423.479 -309.174 453.798 -295.587 478.305C-279.852 506.676 -258.208 531.776 -232.386 551.425C-206.219 571.333 -174.918 583.798 -150.031 605.451C-137.917 615.985 -127.304 628.864 -121.232 643.852C-118.162 651.44 -117.013 658.957 -116.067 666.989C-115.453 672.198 -114.152 677.315 -111.523 681.896C-100.831 700.472 -75.4444 699.966 -57.0289 696.991C-28.4954 692.371 -6.63308 675.603 9.06038 651.649C26.7078 624.727 34.8611 593.133 48.5607 564.267C55.6893 549.253 64.3562 534.703 76.0254 522.74C88.5452 509.912 104.216 501.793 121.008 495.97C150.071 485.885 182.655 481.185 206.316 459.83C227.755 440.485 230.217 412.968 225.619 385.957C220.947 358.477 211.199 328.718 189.41 309.971C168.929 292.359 142.621 292.501 117.148 290.669C104.048 289.731 90.6791 288.049 78.7747 282.146C63.1361 274.406 52.1296 260.102 44.5004 244.779C30.3941 216.433 27.6556 183.652 11.7942 156.078C-0.462545 134.779 -21.7464 116.591 -47.6592 118.565C-75.335 120.669 -99.692 142.044 -120.608 158.304C-133.654 168.454 -146.021 179.372 -156.432 192.248C-157.067 193.032 -155.836 193.993 -155.201 193.209C-144.379 179.821 -131.415 168.593 -117.817 158.121C-106.271 149.23 -94.5866 140.191 -82.0836 132.669C-69.5306 125.119 -55.2102 119.046 -40.2564 120.072C-26.257 121.035 -13.7075 128.175 -3.91271 137.936C17.9112 159.681 23.8235 190.811 32.7853 219.083C40.9368 244.808 53.8312 272.411 79.719 284.334C101.747 294.478 126.857 291.402 150.254 294.878C163.993 296.924 176.905 301.552 187.677 310.559C199.493 320.442 207.71 333.949 213.511 348.072C219.262 362.08 222.934 377.023 224.973 392.007C226.972 406.639 227.056 422.092 221.477 435.997C209.282 466.358 175.372 478.13 146.534 486.535C118.095 494.83 90.4485 503.424 70.4123 526.564C50.3962 549.671 40.4466 579.081 29.2662 607.005C17.6857 635.92 3.29369 665.684 -23.6718 683.246C-35.2315 690.768 -48.172 694.382 -61.7367 696.093C-72.9328 697.509 -85.1412 697.792 -95.7679 693.401C-109.119 687.872 -113.401 676.293 -114.857 662.832C-116.257 649.96 -121.227 637.861 -128.449 627.172C-144.715 603.093 -169.98 588.279 -194.531 573.946C-223.088 557.268 -249.044 538.528 -270.231 512.811C-290.246 488.5 -307.615 458.651 -314.08 427.533C-320.447 396.831 -309.849 360.551 -275.374 353.838C-248.704 348.64 -221.646 359.602 -195.065 352.335C-183.708 349.225 -173.262 342.727 -167.943 331.89C-163.493 322.812 -163.616 312.539 -165.445 302.807C-167.518 291.815 -171.469 281.288 -174.209 270.464C-177.643 256.964 -178.055 243.508 -174.379 229.997C-170.705 216.497 -163.784 204.19 -155.207 193.213C-154.586 192.421 -155.811 191.457 -156.432 192.248Z" fill="#BB86FC"/>
<path d="M-149.76 205.116C-164.884 224.483 -174.173 248.543 -169.181 273.25C-164.843 294.716 -149.48 321.655 -165.775 341.635C-185.445 365.757 -222.877 353.481 -249.12 354.091C-260.996 354.367 -273.017 357.028 -282.397 364.707C-291.653 372.276 -297.417 383.471 -299.832 395.055C-305.42 421.875 -293.315 450.306 -280.616 473.322C-265.582 500.56 -244.751 524.628 -219.844 543.286C-195.442 561.564 -166.471 573.219 -143.424 593.369C-131.982 603.371 -121.976 615.661 -116.4 629.924C-111.88 641.478 -113.718 655.115 -107.051 665.764C-96.5061 682.59 -72.7736 681.785 -55.6329 678.914C-28.2025 674.307 -7.42014 657.426 7.15928 634.15C23.1981 608.533 30.7553 578.886 43.9861 551.899C51.2065 537.164 60.1407 522.914 72.3336 511.761C83.901 501.191 98.0448 494.582 112.772 489.629C140.254 480.384 171.236 475.587 192.85 454.519C211.85 435.985 213.128 410.15 208.722 385.417C204.119 359.557 194.61 331.542 173.54 314.43C154.126 298.657 129.473 299.204 105.836 297.402C93.441 296.454 80.7803 294.672 69.6579 288.756C55.4315 281.192 45.4666 267.786 38.5328 253.564C25.3482 226.55 22.8858 195.227 7.1628 169.321C-4.58687 149.958 -24.3213 133.969 -48.0893 135.957C-74.2641 138.153 -97.4935 158.653 -117.242 174.115C-129.079 183.391 -140.272 193.39 -149.76 205.116C-150.393 205.89 -149.162 206.851 -148.533 206.071C-138.126 193.224 -125.642 182.487 -112.554 172.465C-102.152 164.488 -91.6332 156.38 -80.4113 149.563C-68.5287 142.343 -54.9526 136.477 -40.7562 137.418C-27.5001 138.302 -15.6871 145.075 -6.44147 154.337C14.0736 174.886 19.5554 204.219 28.0462 230.867C35.615 254.651 47.5949 280.07 71.3501 291.339C91.7585 301.017 115.148 298.341 136.929 301.356C149.589 303.112 161.631 307.027 171.797 315.016C183.669 324.352 191.839 337.582 197.521 351.402C207.463 375.59 215.135 408.425 205.105 433.713C193.956 461.845 162.809 473.135 136.095 480.963C109.266 488.815 82.8236 496.602 63.7542 518.328C45.169 539.498 35.6987 566.469 25.4719 592.232C14.5139 619.822 1.27081 648.321 -24.1918 665.44C-35.5435 673.074 -48.4497 676.662 -61.9069 678.231C-72.2204 679.434 -83.4478 679.565 -93.1591 675.4C-106.57 669.649 -109.12 657.98 -110.887 644.831C-112.415 633.496 -117.076 622.804 -123.441 613.371C-138.543 590.988 -162.011 577.13 -184.827 563.801C-211.806 548.047 -236.397 530.471 -256.414 506.17C-275.457 483.057 -292.042 454.572 -297.887 424.895C-303.605 395.89 -292.776 362.392 -260.348 356.695C-235.288 352.296 -209.957 362.409 -185.069 355.211C-174.706 352.209 -165.265 346.095 -160.436 336.165C-156.239 327.524 -156.432 317.767 -158.212 308.531C-160.121 298.619 -163.625 289.111 -166.16 279.363C-169.634 265.963 -170.055 252.603 -166.153 239.217C-162.616 227.073 -156.273 215.998 -148.533 206.071C-147.912 205.28 -149.137 204.315 -149.76 205.116Z" fill="#BB86FC"/>
<path d="M-143.085 217.974C-156.914 235.71 -165.736 257.829 -161.48 280.522C-157.644 300.965 -142.368 327 -158.288 345.882C-176.748 367.759 -210.713 356.852 -235.032 357.203C-246.601 357.366 -258.356 359.847 -267.424 367.454C-275.712 374.4 -280.945 384.47 -283.245 394.928C-288.77 420.029 -277.5 446.741 -265.642 468.328C-252.03 493.12 -233.314 515.089 -210.931 532.388C-187.417 550.561 -158.976 561.659 -136.648 581.429C-125.833 591.008 -116.447 602.763 -111.427 616.435C-107.495 627.128 -109.223 639.669 -102.706 649.353C-92.5219 664.499 -70.6529 663.605 -54.8143 660.921C-29.7099 656.667 -10.584 641.348 3.00342 620.181C18.3098 596.329 25.3984 568.489 37.6545 543.145C44.3438 529.321 52.6071 515.926 63.8933 505.36C75.125 494.853 88.9999 488.444 103.457 483.666C128.937 475.244 157.556 470.56 177.469 450.982C195.046 433.704 196.226 409.65 192.144 386.676C187.969 363.221 179.579 338.118 161.238 321.874C143.647 306.291 120.955 305.912 98.7655 304.428C87.0802 303.646 75.14 302.342 64.4141 297.304C50.2973 290.664 40.3357 277.967 33.5086 264.271C21.0971 239.395 18.6673 210.637 4.79523 186.404C-5.84824 167.809 -24.3283 151.821 -46.9255 153.23C-71.6109 154.762 -93.4331 173.974 -112.004 188.461C-123.317 197.294 -134.024 206.797 -143.085 217.974C-143.714 218.754 -142.483 219.715 -141.854 218.935C-132.121 206.928 -120.464 196.895 -108.237 187.533C-98.2442 179.878 -88.1635 172.078 -77.3452 165.615C-65.9621 158.811 -52.9316 153.503 -39.4177 154.925C-26.6569 156.268 -15.3893 163.526 -6.90311 172.856C25.7677 208.81 15.355 277.788 65.3758 299.444C84.6485 307.788 106.308 305.155 126.612 308.265C138.752 310.123 150.127 314.348 159.538 322.446C169.728 331.209 176.803 343.04 181.804 355.383C190.804 377.613 197.697 407.371 189.018 430.674C178.886 457.88 148.981 468.566 123.48 476.016C98.682 483.263 74.3634 490.58 56.6842 510.577C38.7457 530.847 29.8979 556.91 20.0187 581.623C9.87753 606.976 -2.65244 633.111 -26.213 648.627C-42.8049 659.559 -70.6872 665.686 -89.7956 657.718C-102.114 652.586 -105.088 641.901 -106.58 629.73C-107.952 618.509 -112.616 607.944 -119.025 598.705C-133.516 577.798 -155.771 564.984 -177.259 552.41C-202.582 537.603 -225.486 520.763 -244.046 497.761C-261.566 476.049 -277.067 449.15 -281.868 421.33C-286.625 393.735 -274.789 363.704 -244.379 359.43C-220.925 356.137 -197.236 365.418 -174.133 357.77C-154.338 351.223 -147.121 333.723 -150.977 314.256C-152.833 304.882 -156.171 295.883 -158.52 286.636C-161.471 275.026 -161.882 263.411 -158.841 251.761C-155.684 239.704 -149.475 228.711 -141.848 218.93C-141.233 218.143 -142.464 217.183 -143.085 217.974Z" fill="#BB86FC"/>
<path d="M-136.406 230.838C-149.575 247.753 -157.665 268.669 -153.298 290.22C-149.4 309.469 -135.262 334.429 -152.068 351.393C-171.131 370.631 -202.197 359.006 -225.735 360.466C-247.277 361.811 -263.1 375.71 -267.131 397.047C-271.531 420.385 -260.907 444.999 -249.787 464.938C-236.741 488.336 -218.77 508.982 -197.334 525.057C-175.567 541.373 -149.525 551.615 -129.298 570.022C-119.265 579.16 -110.592 590.424 -106.302 603.438C-103.059 613.265 -104.629 624.513 -98.1639 633.16C-88.007 646.752 -67.4394 645.413 -52.6682 642.705C-29.3547 638.423 -11.7066 623.306 0.574786 603.468C14.4391 581.072 21.0013 555.225 32.6231 531.741C39.0728 518.718 47.1191 506.179 58.1281 496.531C68.7936 487.175 81.8363 481.644 95.2157 477.366C118.6 469.881 144.724 465.143 162.648 446.886C178.81 430.43 179.254 407.573 175.236 386.18C171.148 364.395 163.023 340.927 145.427 326.317C128.849 312.56 107.823 312.603 87.4438 311.16C76.4564 310.383 65.2271 308.994 55.2806 303.928C42.2355 297.281 33.2513 285.049 27.0752 272.095C15.8324 248.502 13.6387 221.231 -0.328205 198.831C-10.8378 181.969 -28.4086 168.408 -49.1995 170.785C-71.4738 173.333 -91.0942 190.532 -108.04 203.808C-118.373 211.903 -128.118 220.619 -136.406 230.838C-137.04 231.613 -135.809 232.573 -135.179 231.793C-126.494 221.091 -116.165 212.048 -105.288 203.645C-95.9796 196.456 -86.5442 189.163 -76.5105 183.009C-66.1122 176.627 -54.2764 171.399 -41.8118 172.117C-29.681 172.816 -18.8645 179.29 -10.6414 187.943C20.7863 221.033 10.453 284.766 56.2149 306.114C73.7386 314.284 93.7525 312.129 112.427 314.628C123.826 316.149 134.616 319.635 143.695 326.93C153.369 334.7 160.2 345.475 165.015 356.791C173.809 377.466 180.541 405.539 172.964 427.514C164.168 453.049 136.744 463.471 113.035 470.449C89.8288 477.276 66.8144 483.8 50.0407 502.349C33.4933 520.64 25.1331 544.346 16.2104 566.879C6.85444 590.491 -4.25947 614.861 -25.6011 630.023C-41.2331 641.12 -67.9778 647.593 -86.5281 639.993C-98.2223 635.196 -100.924 625.26 -102.373 613.732C-103.598 603.987 -107.483 594.754 -112.877 586.591C-125.945 566.795 -146.506 554.571 -166.546 542.867C-190.329 528.968 -211.958 513.483 -229.53 491.987C-245.9 471.963 -260.07 447.365 -265.101 421.744C-270.156 395.972 -259.883 367.008 -231.208 362.602C-209.789 359.313 -188.243 367.662 -166.996 361.512C-148.573 356.182 -140.183 340.736 -143.305 322.35C-146.712 302.255 -156.326 284.744 -151.346 263.821C-148.54 252.035 -142.577 241.296 -135.179 231.793C-134.559 231.002 -135.79 230.041 -136.406 230.838Z" fill="#BB86FC"/>
<path d="M-129.732 243.697C-141.813 259.24 -149.35 278.473 -145.449 298.299C-141.887 316.357 -128.395 339.912 -144.616 355.594C-162.535 372.904 -190.805 362.142 -212.589 363.604C-232.989 364.978 -247.661 378.643 -250.904 398.887C-254.342 420.316 -244.516 442.722 -234.257 460.944C-222.145 482.467 -205.505 501.48 -185.686 516.232C-165.234 531.464 -140.72 541.028 -121.982 558.605C-113.173 566.875 -105.66 576.965 -101.856 588.536C-98.8482 597.701 -100.3 608.07 -94.2135 616.099C-84.8557 628.427 -66.1112 627.28 -52.5939 624.848C-30.8915 620.947 -14.4563 607.045 -2.99883 588.585C9.63397 568.227 15.72 544.764 26.133 523.336C31.9584 511.338 39.1853 499.694 49.0949 490.625C58.9629 481.595 71.1518 476.184 83.7528 472.103C105.326 465.113 129.413 460.914 146.232 444.386C161.52 429.373 162.462 408.476 158.856 388.52C155.207 368.303 147.888 346.539 131.872 332.701C116.286 319.236 96.3006 319.35 76.8699 317.939C66.9098 317.216 56.7406 315.9 47.7271 311.323C35.296 305.011 26.871 293.242 21.1296 280.873C11.0506 259.153 8.94899 234.145 -4.00709 213.687C-13.9115 198.056 -30.285 185.757 -49.6063 188.196C-70.0712 190.784 -88.1343 206.646 -103.735 218.885C-113.21 226.315 -122.12 234.337 -129.732 243.697C-130.361 244.477 -129.134 245.431 -128.501 244.657C-113.91 226.702 -93.7108 211.439 -74.004 199.398C-64.5109 193.592 -53.6772 188.834 -42.3111 189.463C-30.9265 190.104 -20.7695 196.206 -13.1156 204.394C15.596 235.102 6.29553 293.974 48.6757 313.517C65.0898 321.08 83.7822 318.93 101.243 321.4C125.069 324.76 140.953 340.164 149.819 362.048C157.679 381.443 163.755 407.691 155.592 427.888C146.396 450.651 120.986 459.502 99.3384 465.818C77.9618 472.056 57.1056 478.468 41.9346 495.752C27.2407 512.494 19.6479 533.814 11.5746 554.202C2.83319 576.298 -7.52634 599.171 -27.6297 613.225C-42.0538 623.316 -66.8442 629.223 -83.829 622.04C-94.5124 617.514 -96.801 608.276 -98.169 597.729C-99.3355 588.767 -102.914 580.294 -107.867 572.781C-119.784 554.699 -138.534 543.413 -156.827 532.73C-179.046 519.748 -199.28 505.43 -215.717 485.34C-230.706 467.028 -243.661 444.612 -248.494 421.228C-253.468 397.14 -244.219 369.622 -217.106 365.651C-197.048 362.707 -176.835 370.582 -157.005 364.392C-140.707 359.302 -133.272 345.261 -135.92 328.862C-138.976 309.919 -148.19 293.543 -143.336 273.826C-140.693 263.086 -135.248 253.338 -128.501 244.657C-127.884 243.86 -129.115 242.9 -129.732 243.697Z" fill="#BB86FC"/>
<path d="M-123.053 256.561C-133.829 270.44 -140.881 287.683 -137.757 305.463C-134.906 321.693 -122.164 343.058 -135.239 357.864C-150.898 375.592 -178.315 365.582 -198.498 366.697C-216.373 367.686 -229.807 378.605 -233.836 396.205C-238.396 416.138 -229.47 437.409 -220.056 454.579C-209.249 474.289 -194.394 491.73 -176.609 505.47C-158.131 519.761 -135.809 528.494 -118.207 543.962C-109.442 551.67 -101.832 561.198 -97.8711 572.287C-94.9001 580.626 -96.2193 590.335 -91.1235 597.884C-83.2007 609.634 -66.3796 609.226 -53.9842 607.246C-34.3608 604.101 -19.2316 592.747 -8.28645 576.359C4.29979 557.503 9.99782 535.227 19.645 514.921C25.0227 503.613 31.6766 492.609 40.891 484.004C49.8147 475.677 60.8336 470.63 72.3047 466.848C92.5996 460.161 115.395 456.389 131.106 440.607C144.468 427.178 145.5 408.599 142.471 390.864C139.282 372.208 132.702 352.189 118.307 339.119C104.508 326.584 86.6508 326.056 69.043 324.907C59.7533 324.307 50.2592 323.361 41.6887 319.45C30.0818 314.161 22.0546 303.751 16.5446 292.552C6.56479 272.28 4.85361 248.68 -7.21435 229.331C-15.9158 215.376 -30.3259 203.981 -47.5543 205.36C-66.8924 206.905 -83.9092 221.853 -98.519 233.248C-107.46 240.226 -115.872 247.745 -123.053 256.561C-123.686 257.335 -122.455 258.296 -121.826 257.516C-108.268 240.873 -89.3779 226.433 -70.9519 215.443C-61.9299 210.069 -51.6817 205.862 -40.9709 206.961C-30.6823 208.018 -21.7721 213.999 -14.9837 221.514C10.6676 249.929 2.32522 304.101 41.8552 321.238C56.8872 327.758 73.7822 325.799 89.6378 328.12C112.163 331.417 126.687 346.562 134.6 367.332C141.407 385.207 146.735 409.147 138.474 427.371C129.004 448.274 104.814 455.62 84.5819 461.496C65.3882 467.07 47.1921 473.493 33.8648 489.156C20.2624 505.129 13.4555 525.331 5.76452 544.5C-2.32513 564.651 -12.4009 585.516 -31.3699 597.568C-44.558 605.939 -67.6644 611.001 -82.3718 603.484C-92.6758 598.212 -92.4672 588.6 -94.4737 578.653C-96.1 570.603 -99.8074 563.08 -104.605 556.457C-116.393 540.173 -134.082 530.241 -151.078 520.283C-171.309 508.418 -189.454 494.636 -204.031 476.052C-217.353 459.069 -229.238 438.09 -232.66 416.494C-236.303 393.513 -225.19 370.541 -200.212 368.374C-182.126 366.809 -163.766 373.448 -146.103 366.906C-131.563 361.523 -126.178 348.217 -128.835 333.657C-131.896 316.907 -139.704 302.215 -135.551 284.746C-133.169 274.707 -128.11 265.611 -121.826 257.516C-121.205 256.724 -122.436 255.764 -123.053 256.561Z" fill="#BB86FC"/>
<path d="M-116.378 269.419C-126.098 281.968 -132.518 297.469 -129.885 313.55C-127.423 328.575 -115.795 347.442 -127.133 361.391C-140.845 378.256 -167.091 368.744 -185.363 369.833C-201.665 370.807 -213.903 380.943 -217.466 397.03C-221.432 414.929 -213.557 433.939 -205.184 449.402C-195.627 467.063 -182.485 482.765 -166.761 495.254C-149.945 508.603 -129.545 516.668 -113.137 530.543C-104.876 537.54 -97.6317 546.264 -93.7581 556.484C-90.9042 564.02 -92.0205 572.832 -87.8133 579.832C-80.9923 591.166 -65.6252 591.147 -54.0855 589.404C-36.0847 586.684 -22.1344 576.59 -11.9776 561.616C-0.343317 544.457 4.87295 524.079 13.6508 505.497C18.2251 495.81 23.7875 486.41 31.3319 478.729C39.8142 470.108 50.5651 464.976 61.9219 461.243C79.9766 455.299 100.093 451.92 114.409 438.351C127.355 426.095 128.724 408.974 125.908 392.264C123.028 375.183 117.084 356.914 103.987 344.88C91.2814 333.194 74.7757 332.772 58.4877 331.699C49.7059 331.112 40.5386 330.198 32.5909 326.108C22.0676 320.697 14.9901 310.906 10.1428 300.37C1.85769 282.386 0.0263766 261.767 -10.5298 244.771C-18.5839 231.792 -31.9908 221.242 -47.9837 222.752C-65.507 224.404 -80.9406 237.942 -94.214 248.324C-102.293 254.643 -109.873 261.452 -116.378 269.419C-117.012 270.193 -115.786 271.158 -115.147 270.379C-102.871 255.349 -85.8807 242.359 -69.279 232.337C-60.966 227.312 -51.4176 223.253 -41.4858 224.309C-31.855 225.332 -23.5218 231.003 -17.2886 238.167C5.30418 264.135 -1.74367 312.459 33.5467 328.288C47.0689 334.356 62.3915 332.724 76.7371 334.666C97.3177 337.454 110.801 350.722 118.228 369.692C124.642 386.072 129.703 408.316 122.116 425.104C113.157 444.924 89.9986 451.279 70.9263 456.86C53.6067 461.928 37.5559 468.222 25.8201 482.557C14.0398 496.951 7.95752 514.781 1.14162 531.804C-6.36949 550.546 -15.7942 570.063 -33.7031 580.934C-45.8359 588.296 -68.6605 593.175 -81.3858 584.449C-89.6947 578.751 -88.5209 569.407 -90.7432 560.796C-92.6895 553.26 -96.5816 546.336 -101.424 540.299C-112.744 526.149 -128.886 517.529 -144.219 508.467C-162.175 497.853 -178.128 485.116 -190.927 468.5C-202.873 452.984 -213.677 433.708 -216.382 414.042C-219.325 392.622 -208.027 372.742 -185.187 371.383C-168.586 370.392 -151.23 376.497 -135.283 369.31C-123.038 363.795 -119.239 351.884 -121.597 339.387C-124.489 324.069 -131.478 310.741 -127.558 294.763C-125.362 285.788 -120.773 277.638 -115.151 270.374C-114.536 269.587 -115.762 268.622 -116.378 269.419Z" fill="#BB86FC"/>
<path d="M-109.7 282.283C-118.722 293.966 -124.513 308.304 -121.738 323.212C-119.176 337.024 -108.641 354.863 -120.918 366.87C-134.851 380.5 -157.091 371.35 -174.071 373.123C-188.845 374.668 -199.129 385.253 -201.441 399.829C-204.063 416.345 -196.441 433.569 -188.457 447.578C-179.209 463.796 -166.56 478.094 -151.534 489.182C-136.085 500.586 -117.612 507.808 -103.564 521.118C-96.5864 527.728 -90.668 535.928 -88.0758 545.287C-86.1813 552.132 -87.1354 559.417 -82.1932 565.158C-74.9354 573.579 -61.6853 572.866 -51.7797 571.175C-35.5869 568.405 -23.1843 558.538 -14.3507 544.906C-4.18004 529.21 0.4685 510.829 8.5891 494.124C13.1941 484.646 18.9365 475.619 26.8796 468.592C34.5078 461.836 44.0313 457.983 53.6317 454.962C69.5354 449.952 87.1361 446.551 99.468 434.415C111.134 422.926 111.8 406.986 109.018 391.745C106.203 376.316 100.539 359.725 88.1859 349.289C76.7724 339.648 62.1939 339.436 48.0347 338.486C40.2332 337.961 32.0802 337.119 25.0129 333.494C15.1292 328.417 8.62092 319.091 4.21262 309.145C-3.04343 292.77 -4.76718 274.063 -14.713 258.855C-21.963 247.768 -33.6719 238.926 -47.4929 240.054C-63.2439 241.338 -77.0512 253.417 -88.9665 262.672C-96.5375 268.55 -103.626 274.86 -109.7 282.283C-110.333 283.057 -109.112 284.016 -108.473 283.238C-97.1613 269.432 -81.4028 257.262 -65.9677 248.242C-58.7463 244.021 -50.5279 240.757 -42.0055 241.653C-33.1165 242.587 -25.4642 247.929 -19.8031 254.612C0.106684 278.112 -5.95187 320.548 25.165 335.312C37.314 341.077 51.3019 339.576 64.2869 341.267C82.6311 343.657 94.9717 355.116 101.856 372.044C107.984 387.106 112.817 408.292 105.359 423.712C97.1401 440.703 77.1554 446.421 60.483 451.283C44.6892 455.891 29.9871 461.332 19.1536 474.31C8.77866 486.733 3.22977 502.172 -2.65676 517.026C-9.50933 534.335 -17.6564 552.509 -33.9242 562.968C-44.8056 569.968 -63.5762 574.114 -75.7714 568.107C-84.7711 563.679 -84.2113 555.256 -86.103 546.789C-87.5548 540.299 -90.6237 534.267 -94.5441 528.93C-103.571 516.64 -116.749 508.74 -129.688 501.16C-146.862 491.095 -162.409 480.145 -175.024 464.505C-186.316 450.512 -196.262 433.32 -199.507 415.426C-201.394 405.007 -200.32 393.63 -193.645 384.995C-186.333 375.52 -174.927 373.956 -163.718 374.541C-149.458 375.293 -131.42 379.289 -119.856 368.116C-110.638 359.206 -113.665 346.407 -116.87 335.52C-119.288 327.303 -121.681 319.263 -120.652 310.597C-119.447 300.448 -114.645 291.232 -108.473 283.238C-107.862 282.445 -109.088 281.48 -109.7 282.283Z" fill="#BB86FC"/>
<path d="M-103.025 295.142C-111.175 305.739 -116.317 318.606 -113.727 332.095C-111.277 344.861 -101.335 362.19 -114.79 372.244C-128.355 382.39 -146.568 374.191 -161.814 376.381C-174.712 378.236 -183.384 388.119 -185.08 400.894C-186.938 414.874 -180.851 429.238 -174.266 441.211C-166.343 455.603 -155.458 468.369 -142.463 478.425C-128.693 489.068 -112.022 495.542 -99.0086 507.176C-92.3887 513.091 -86.6473 520.479 -84.0196 529.074C-82.0763 535.411 -83.0653 542.446 -78.4942 547.796C-71.9885 555.398 -60.0302 554.767 -51.1141 553.217C-37.1502 550.799 -26.3756 542.509 -18.4994 530.888C-8.85612 516.67 -4.72329 499.688 2.73889 484.381C6.88534 475.875 12.0484 467.636 19.2781 461.407C26.4677 455.208 35.3189 451.802 44.2748 449.039C58.3153 444.705 73.8632 441.463 84.4872 430.474C94.8534 419.748 94.8428 405.014 92.0932 391.226C89.4125 377.734 84.1763 363.271 73.0955 354.388C62.5983 345.977 49.3327 346.167 36.5878 345.204C27.6466 344.523 18.8554 342.955 11.6856 337.174C3.52244 330.584 -1.06132 320.617 -4.32017 310.9C-9.56798 295.262 -12.3579 277.848 -24.897 266.003C-35.5683 255.925 -49.0895 255.353 -61.7934 261.948C-68.8172 265.586 -75.1548 270.528 -81.4447 275.283C-89.2999 281.221 -96.7582 287.513 -103.025 295.142C-103.659 295.916 -102.433 296.881 -101.794 296.102C-92.0575 284.244 -78.8865 274.214 -65.8949 266.106C-51.4545 257.088 -35.555 256.182 -23.5053 269.664C-5.0656 290.317 -10.7744 327.752 16.0717 341.941C26.6173 347.513 38.988 346.504 50.4819 347.722C67.6892 349.553 79.3902 359.424 85.8671 375.374C91.3378 388.862 95.6671 407.675 88.9951 421.45C81.4808 436.974 63.0943 441.875 47.919 446.334C34.1879 450.367 21.451 455.341 12.0362 466.604C2.36782 478.171 -2.58977 492.636 -8.11158 506.427C-14.143 521.505 -21.6039 537.256 -35.9268 546.133C-45.8119 552.249 -65.2297 556.601 -75.3461 548.655C-81.1857 544.062 -80.3818 536.898 -82.0292 530.421C-83.6991 523.853 -87.1577 517.835 -91.4911 512.672C-100.96 501.378 -114.16 494.571 -126.604 487.13C-140.737 478.688 -153.266 468.374 -163.289 455.224C-172.874 442.638 -181.685 426.887 -183.539 410.92C-184.553 402.2 -182.906 392.834 -177.07 385.988C-170.36 378.118 -160.3 377.148 -150.63 377.697C-138.114 378.412 -122.627 381.683 -112.331 372.237C-103.679 364.299 -106.334 352.728 -109.244 342.823C-111.5 335.134 -113.708 327.713 -112.537 319.608C-111.268 310.87 -107.121 303.022 -101.794 296.102C-101.183 295.309 -102.409 294.345 -103.025 295.142Z" fill="#BB86FC"/>
<path d="M-96.3463 308.006C-103.229 316.983 -107.832 327.91 -105.999 339.391C-104.109 351.248 -94.2261 367.412 -107.406 376.354C-119.838 384.784 -135.846 377.097 -149.504 379.723C-160.13 381.772 -166.981 390.361 -168.542 400.846C-170.471 413.751 -164.45 427.273 -158.195 438.193C-150.69 451.296 -140.39 462.798 -128.126 471.61C-116.3 480.107 -102.375 485.69 -91.691 495.749C-85.6853 501.401 -80.5868 508.582 -78.9168 516.787C-77.8417 522.054 -78.1304 527.126 -74.0729 531.213C-67.9021 537.409 -57.4401 536.585 -49.5903 535.107C-37.5177 532.826 -28.1711 525.199 -21.4846 515.087C-13.5286 503.059 -9.82942 488.935 -3.74678 475.981C-0.08509 468.175 4.52075 460.537 11.0496 454.777C17.5597 449.039 25.6663 445.948 33.855 443.444C46.0938 439.713 59.5114 436.777 68.7747 427.246C77.4322 418.335 77.9536 406.168 75.9029 394.537C73.82 382.743 69.6459 370.256 60.7271 361.827C51.8423 353.444 40.2875 352.92 28.7549 352.175C22.0676 351.737 15.1312 351.12 9.11137 347.898C-0.106402 342.974 -5.31884 333.226 -8.68984 323.753C-13.6282 309.833 -15.7203 294.097 -26.6015 283.187C-35.8457 273.915 -47.9032 272.681 -59.4312 278.454C-72.9891 285.24 -86.7288 296.334 -96.3463 308.006C-96.9897 308.778 -95.7586 309.739 -95.1194 308.96C-86.4034 298.396 -74.5629 289.303 -62.8776 282.176C-48.8798 273.639 -34.1863 274.841 -24.0697 288.535C-10.1092 307.426 -13.7992 340.858 11.5919 350.739C20.8256 354.334 30.9885 353.359 40.6369 354.644C55.6816 356.652 65.2723 366.414 70.4819 380.292C75.2404 392.966 78.9149 410.469 70.7163 422.482C62.8031 434.077 48.0076 437.612 35.372 441.372C23.5364 444.891 12.7177 449.442 4.68664 459.195C-3.62384 469.288 -7.95525 481.775 -12.7373 493.752C-17.9051 506.692 -24.1894 520.188 -36.1945 528.175C-44.894 533.959 -62.7422 538.389 -71.9317 531.042C-77.132 526.89 -76.2891 520.399 -77.8304 514.626C-79.2069 509.468 -81.8749 504.702 -85.1657 500.534C-92.5814 491.136 -103.038 485.134 -113.2 479.169C-137.987 464.639 -162.503 441.214 -166.871 411.239C-168.167 402.329 -166.436 392.491 -159.478 386.233C-152.861 380.292 -144.046 380.338 -135.673 380.997C-125.192 381.823 -111.702 383.787 -103.608 375.207C-96.9185 368.109 -99.1703 358.514 -101.623 350.118C-103.52 343.64 -105.452 337.33 -104.664 330.479C-103.75 322.495 -99.9376 315.262 -95.1151 308.966C-94.5087 308.168 -95.7341 307.203 -96.3463 308.006Z" fill="#BB86FC"/>
<path d="M-89.6716 320.864C-95.489 328.487 -99.4981 337.727 -98.1117 347.486C-96.5819 358.25 -87.4811 372.718 -100.024 380.27C-111.376 387.103 -125.02 379.879 -137.137 383.129C-145.47 385.366 -150.763 392.608 -152.03 400.953C-153.714 412.037 -148.639 423.631 -143.316 433.039C-137.247 443.768 -129.007 453.281 -119.206 460.769C-108.594 468.88 -95.7053 473.81 -85.8728 482.965C-81.1058 487.395 -76.972 492.911 -75.1443 499.236C-73.6578 504.375 -74.4528 509.806 -70.3553 513.863C-65.0944 519.065 -56.3086 518.474 -49.6371 517.279C-39.4713 515.447 -31.4816 509.391 -25.6145 501.01C-18.5097 490.862 -15.2541 478.723 -10.1923 467.552C-3.52281 452.853 5.90422 443.422 21.3781 438.492C32.3545 434.989 44.6211 432.705 53.012 424.117C60.5035 416.448 61.0789 406.002 59.344 395.943C57.6441 386.061 54.2451 375.595 47.092 368.27C39.6758 360.688 30.0379 359.681 19.9861 359.061C13.1018 358.645 5.91227 358.189 -0.0725724 354.345C-7.37171 349.656 -11.4176 341.379 -14.1388 333.424C-18.3053 321.234 -20.3786 307.494 -30.354 298.374C-38.3335 291.087 -48.4029 290.623 -57.8366 295.361C-69.5648 301.248 -81.3184 310.792 -89.6716 320.864C-90.315 321.637 -89.0839 322.597 -88.4404 321.824C-80.8539 312.67 -70.5742 304.695 -60.3793 298.554C-48.0322 291.121 -35.1843 292.843 -26.6791 304.97C-15.24 321.264 -18.0918 349.178 3.2963 357.806C11.5876 361.151 20.7644 360.154 29.4453 361.43C42.5237 363.354 50.6081 372.502 54.8421 384.58C58.8882 396.095 61.6923 411.462 53.1689 421.652C45.1972 431.173 32.02 433.477 20.8108 437.037C11.2331 440.077 2.90342 444.553 -3.33079 452.621C-10.0982 461.37 -13.6895 471.935 -17.7745 482.076C-22.4641 493.735 -28.4156 505.898 -39.8471 512.266C-47.4753 516.514 -63.5905 519.973 -70.0588 511.872C-73.3213 507.79 -72.5382 501.673 -74.2784 496.875C-75.8236 492.625 -78.3875 488.716 -81.3671 485.348C-88.4649 477.297 -98.0478 472.325 -107.121 466.903C-127.532 454.701 -148.635 432.872 -150.648 407.815C-151.291 399.807 -148.737 391.135 -141.561 386.734C-135.853 383.24 -129.06 383.617 -122.643 384.159C-113.823 384.904 -102.902 386.166 -95.9921 379.269C-89.9418 373.224 -91.8875 364.709 -94.0059 357.408C-95.6376 351.764 -97.2745 346.364 -96.6574 340.407C-95.9487 333.509 -92.5791 327.246 -88.4404 321.824C-87.834 321.026 -89.0652 320.065 -89.6716 320.864Z" fill="#BB86FC"/>
<path d="M-82.9932 333.727C-87.9206 340.252 -91.3139 348.037 -90.1095 356.357C-88.6778 366.189 -80.467 380.082 -94.3396 385.012C-103.99 388.444 -114.391 383.138 -124.04 386.453C-131.073 388.87 -135.081 395.591 -135.719 402.774C-136.558 412.197 -132.038 421.864 -127.374 429.752C-121.892 439.014 -114.416 447.13 -105.638 453.351C-96.2304 460.011 -84.9184 464.318 -77.1367 473.096C-72.8223 477.97 -70.9122 483.176 -69.8566 489.516C-69.3812 492.364 -68.4566 494.896 -66.2442 496.852C-61.5006 501.024 -53.8548 500.348 -48.1366 499.151C-39.1608 497.262 -32.3571 491.262 -27.5572 483.622C-21.981 474.755 -19.414 464.498 -14.8052 455.168C-11.8562 449.2 -8.21787 443.609 -2.92051 439.468C1.99194 435.623 8.09215 433.732 13.9878 431.984C22.9305 429.346 33.0534 426.693 39.054 418.933C44.3048 412.149 44.011 403.392 42.4245 395.383C40.8591 387.474 37.9523 379.114 32.0726 373.333C25.5728 366.946 17.2449 366.359 8.61717 365.8C2.58048 365.411 -3.35673 364.726 -8.4376 361.116C-14.3399 356.917 -17.4076 349.727 -19.5896 343.069C-22.9211 332.908 -24.9086 321.577 -33.4403 314.265C-40.1876 308.49 -48.5071 308.333 -56.2354 312.255C-66.1297 317.283 -75.9027 325.245 -82.9932 333.727C-83.6409 334.494 -82.4097 335.455 -81.7663 334.682C-75.4382 327.123 -67.0688 320.633 -58.6796 315.436C-48.2882 308.997 -37.0405 310.016 -29.8502 320.64C-20.614 334.286 -22.543 357.394 -5.10819 364.847C1.32137 367.603 8.47856 367.095 15.2861 367.827C27.0311 369.071 34.5108 376.046 38.4976 386.955C41.738 395.823 44.2511 407.848 38.866 416.315C32.897 425.706 21.3393 428.094 11.4091 431.138C3.38036 433.593 -3.83659 436.948 -9.32921 443.502C-14.915 450.17 -18.0644 458.414 -21.2187 466.412C-25.1432 476.362 -29.5049 487.279 -38.7454 493.519C-45.231 497.903 -59.2655 501.78 -65.6647 495.157C-68.9197 491.789 -68.2071 486.677 -69.6596 482.457C-70.8606 478.956 -72.8703 475.755 -75.241 472.93C-80.5608 466.598 -87.7305 462.454 -94.769 458.318C-112.869 447.678 -131.49 430.246 -134.017 408.072C-134.824 400.978 -132.846 393.455 -126.557 389.44C-121.544 386.232 -115.298 386.83 -109.645 387.326C-102.671 387.933 -94.1394 388.626 -88.5488 383.458C-83.7958 379.065 -84.2252 372.801 -85.721 367.065C-86.8858 362.586 -88.6815 358.167 -88.8181 353.491C-89.0253 346.511 -85.8608 340.115 -81.7663 334.682C-81.1599 333.884 -82.391 332.923 -82.9932 333.727Z" fill="#BB86FC"/>
<path d="M-76.3186 346.586C-80.1939 351.776 -82.9305 357.826 -82.2269 364.446C-81.2372 373.78 -73.5405 386.935 -88.9417 389C-96.3175 389.991 -104.332 386.635 -111.352 390.146C-116.81 392.876 -119.323 398.964 -119.255 404.838C-119.063 420.495 -106.197 436.065 -93.9593 444.531C-86.2315 449.879 -76.8163 453.419 -70.7927 460.935C-67.3127 465.274 -66.8014 469.306 -65.4976 474.438C-64.9358 476.662 -63.8579 478.6 -61.9645 479.948C-57.8076 482.902 -51.3661 482.197 -46.7625 481.02C-39.9879 479.294 -34.8182 474.528 -31.1349 468.734C-26.5922 461.597 -24.4373 453.32 -20.7992 445.745C-18.4621 440.891 -15.4832 436.182 -11.1747 432.84C-6.40691 429.147 -0.54063 427.635 5.13644 425.952C12.0721 423.892 19.7733 421.236 23.9267 414.842C27.4202 409.474 27.0664 402.799 25.8684 396.769C24.5568 390.157 22.0907 383.142 17.0565 378.412C12.0038 373.67 5.58113 373.061 -1.032 372.639C-5.87736 372.332 -11.0495 372.029 -15.1609 369.112C-20.4596 365.353 -23.0351 359.015 -24.904 353.041C-27.3051 345.372 -29.0533 337.075 -35.1645 331.377C-48.5731 318.853 -67.5649 336.251 -76.3186 346.586C-76.9662 347.353 -75.7351 348.313 -75.0874 347.546C-69.6681 341.145 -62.2666 335.171 -54.886 331.116C-44.2226 325.257 -35.1673 330.56 -30.5206 340.898C-25.6828 351.672 -25.2915 366.941 -12.7227 372.207C-7.79776 374.269 -2.30241 373.967 2.90617 374.475C12.4318 375.379 18.651 380.374 22.1536 389.331C25.048 396.731 27.1035 406.934 22.4969 413.985C17.3207 421.897 7.40291 423.392 -0.900762 426.124C-14.9107 430.738 -20.6762 440.689 -25.8846 453.802C-29.0071 461.687 -32.2012 470.062 -39.0842 475.49C-45.0428 480.176 -58.5988 483.918 -63.4811 475.677C-65.0404 473.057 -64.599 468.787 -65.9146 465.826C-66.9895 463.414 -68.4491 461.263 -70.1776 459.276C-74.324 454.508 -79.7375 451.324 -85.1167 448.151C-99.8927 439.43 -114.989 425.788 -117.444 407.688C-118.347 401.003 -116.283 394.396 -109.937 391.174C-105.459 388.898 -99.7324 390.363 -94.9554 390.649C-89.7647 390.965 -83.4373 390.622 -79.7777 386.349C-76.6355 382.683 -77.207 377.913 -78.3209 373.574C-80.9205 363.464 -81.7269 356.432 -75.0932 347.551C-74.491 346.746 -75.7164 345.782 -76.3186 346.586Z" fill="#BB86FC"/>
<path d="M-69.64 359.45C-72.2567 363.008 -74.3112 367.012 -74.3211 371.538C-74.3235 373.889 -73.6587 376.036 -73.0685 378.274C-72.5966 380.067 -71.3133 382.447 -71.6979 384.308C-73.2272 386.639 -74.7579 388.98 -76.2872 391.311C-78.6803 392.088 -81.1315 392.356 -83.6381 392.096C-88.2298 391.903 -93.1735 390.736 -97.3638 393.341C-101.016 395.616 -102.641 399.886 -102.691 404.024C-102.819 416.254 -92.6883 428.46 -83.1866 435.068C-76.6519 439.614 -68.5989 442.532 -64.0617 449.437C-61.1585 453.85 -62.6487 460.582 -57.1701 463.077C-48.3815 467.066 -38.429 460.037 -34.1046 452.894C-30.9513 447.69 -29.4139 441.75 -26.7907 436.301C-21.7426 425.816 -14.4636 423.501 -4.23798 420.041C7.47355 416.08 11.8804 408.199 8.87492 396.194C6.05946 384.946 -0.324863 380.243 -11.5419 379.432C-16.9407 379.04 -21.7659 378.282 -25.3724 373.797C-28.3495 370.098 -29.4789 365.308 -30.8337 360.872C-32.5172 355.373 -34.579 349.462 -39.6481 346.155C-49.9856 339.405 -63.3812 352.12 -69.64 359.45C-70.2977 360.215 -69.0608 361.171 -68.4132 360.404C-64.5917 355.931 -59.7234 352.074 -54.7605 348.895C-46.3348 343.484 -38.1538 346.537 -34.2522 355.66C-30.8544 363.592 -30.3608 374.398 -21.7752 378.903C-18.1626 380.804 -14.0182 380.778 -10.0534 381.073C-2.21067 381.665 3.16634 385.063 6.16419 392.661C8.71642 399.123 9.87403 407.344 5.05687 412.942C0.496147 418.251 -7.2353 418.919 -13.424 421.241C-22.8336 424.769 -27.0011 432.338 -30.5581 441.241C-32.762 446.752 -34.805 452.384 -39.0099 456.725C-44.5009 462.397 -56.5285 466.149 -60.0082 456.338C-61.4131 452.385 -61.7456 449.465 -64.691 446.107C-67.9675 442.364 -72.2645 439.879 -76.4972 437.373C-87.2997 430.978 -101.269 418.908 -101.143 404.908C-100.975 384.704 -79.6825 400.503 -71.7397 389.82C-69.764 387.156 -69.9731 384.056 -70.6931 380.962C-72.5337 372.983 -73.6925 367.592 -68.4132 360.404C-67.821 359.599 -69.0464 358.634 -69.64 359.45Z" fill="#BB86FC"/>
</svg>
