<svg width="377" height="566" viewBox="0 0 377 566" fill="none" xmlns="http://www.w3.org/2000/svg">
<path d="M-393.848 581.969C-315.55 621.501 -216.326 613.687 -148.428 674.811C-132.819 688.858 -120.563 705.915 -104.221 719.342C-88.8421 731.974 -71.7806 742.575 -53.5086 750.48C-16.5998 766.448 25.5781 771.636 65.498 772.6C107.718 773.618 150.043 768.654 191.104 758.923C227.96 750.198 265.621 738.606 296.503 715.918C323.276 696.252 343.424 667.188 341.674 632.776C339.811 596.302 315.996 564.055 287.62 542.833C219.658 491.987 112.945 484.121 79.104 395.146C52.412 324.993 77.8983 247.208 58.8255 175.483C39.6032 103.179 -30.7192 48.2898 -106.87 63.1065C-142.272 69.9881 -172.967 90.888 -191.318 122.02C-209.538 152.946 -216.099 188.884 -227.221 222.596C-233.08 240.35 -240.249 257.858 -250.948 273.297C-264.614 293.016 -283.782 307.825 -304.406 319.702C-341.339 340.961 -382.794 353.537 -417.837 378.195C-445.429 397.616 -469.622 424.777 -473.534 459.564C-477.419 494.019 -460.158 526.852 -436.483 550.75C-424.003 563.347 -409.554 573.769 -393.848 581.969C-392.655 582.599 -391.616 580.776 -392.817 580.151C-425.736 562.954 -455.559 534.444 -467.258 498.425C-479.38 461.071 -465.861 424.227 -438.37 397.676C-381.339 342.573 -286.774 338 -244.069 266.449C-208.465 206.793 -214.935 122.258 -149.855 82.0101C-117.474 61.9888 -76.3309 57.2063 -40.2151 69.1839C-2.0053 81.8587 29.2505 111.885 46.5114 147.902C78.2172 214.053 57.1325 289.87 67.8922 359.762C73.2445 394.5 87.9105 425.901 114.302 449.612C144.846 477.051 183.641 492.037 220.652 508.427C259.027 525.423 298.207 545.542 321.802 581.745C343.046 614.335 346.304 654.615 322.976 687.024C301.422 716.955 265.409 734.563 231.177 745.599C192.018 758.221 151.293 766.404 110.256 769.391C68.7734 772.417 26.7701 770.095 -13.853 760.922C-54.2744 751.795 -90.5844 731.772 -119.796 702.319C-133.32 688.69 -144.61 673.965 -160.303 662.562C-176.77 650.614 -195.165 641.46 -214.122 634.181C-253.173 619.147 -294.848 612.981 -335.022 601.813C-354.909 596.283 -374.37 589.47 -392.812 580.159C-394.009 579.543 -395.053 581.357 -393.848 581.969Z" fill="#BB86FC"/>
<path d="M-379.794 578.005C-305.438 615.51 -211.51 608.251 -146.761 665.798C-131.834 679.063 -120.199 695.366 -104.727 708.195C-90.2178 720.229 -74.1189 730.372 -56.8604 737.958C-21.8786 753.329 18.0611 758.437 55.9861 759.497C95.2171 760.609 134.559 756.258 172.8 747.571C208.211 739.517 244.452 728.769 274.572 707.798C300.333 689.851 320.792 663.116 320.846 630.539C320.889 595.286 298.529 563.255 271.536 542.389C208.088 493.349 107.48 486.629 72.6526 404.922C44.2404 338.262 69.2496 262.574 52.0779 193.588C34.7972 124.131 -31.5244 70.2755 -104.692 83.4426C-138.209 89.4735 -167.797 108.686 -185.658 137.8C-203.418 166.748 -209.9 200.732 -220.148 232.673C-225.633 249.774 -232.258 266.695 -242.216 281.738C-254.733 300.671 -272.459 315.05 -291.843 326.526C-326.991 347.363 -366.784 359.249 -400.616 382.455C-427.222 400.695 -450.95 426.267 -455.461 459.416C-459.983 492.658 -443.667 524.554 -420.897 547.754C-408.901 559.988 -394.954 570.067 -379.794 578.005C-378.605 578.626 -377.561 576.812 -378.754 576.182C-410.591 559.536 -439.577 531.699 -450.198 496.562C-461.049 460.653 -447.111 425.89 -420.56 400.974C-365.902 349.708 -276.831 344.856 -236.671 276.806C-202.818 219.44 -209.01 138.779 -145.761 100.889C-114.016 81.879 -73.7607 78.2207 -39.0947 91.048C-3.17789 104.34 25.7927 133.584 41.2798 168.326C69.6194 231.92 49.0201 303.693 60.5427 370.21C66.3088 403.477 81.5717 432.874 107.497 454.892C137.373 480.252 174.471 494.06 209.769 509.903C245.433 525.905 281.35 545.382 302.778 579.403C323.443 612.219 324.304 652.239 299.085 682.829C277.411 709.122 244.651 724.531 212.791 734.576C174.603 746.615 134.943 754.301 94.9645 756.742C56.4184 759.094 17.4725 756.552 -20.194 747.795C-58.8219 738.809 -93.5091 718.763 -121.02 690.213C-133.37 677.388 -144.066 664.086 -158.727 653.656C-174.515 642.428 -192.087 633.868 -210.164 627.017C-247.099 613.038 -286.435 607.221 -324.345 596.63C-343.067 591.396 -361.382 584.945 -378.754 576.182C-379.954 575.578 -380.998 577.393 -379.794 578.005Z" fill="#BB86FC"/>
<path d="M-365.735 574.027C-294.706 609.835 -204.218 602.625 -143.019 658.637C-129.051 671.432 -117.966 686.69 -103.167 698.752C-89.7157 709.729 -74.8639 718.98 -58.9739 725.972C-26.2631 740.378 11.03 745.228 46.4954 746.392C84.589 747.649 122.845 743.457 159.967 734.948C193.226 727.322 227.21 717.214 255.542 697.584C279.653 680.875 299.049 656.205 299.869 625.803C300.761 592.6 280.281 561.934 255.217 541.818C195.186 493.669 98.4518 488.329 64.5169 410.446C36.6307 346.449 61.4246 273.405 44.1644 207.132C27.4587 142.948 -33.5956 93.0687 -101.536 103.659C-133.522 108.64 -162.396 126.24 -179.966 153.594C-197.719 181.217 -203.993 214.165 -213.818 245.01C-218.927 261.043 -225.029 276.909 -234.161 291.136C-245.744 309.158 -262.193 322.972 -280.395 333.983C-314.189 354.429 -352.753 365.724 -385.445 388.129C-410.802 405.493 -433.511 429.942 -437.671 461.567C-441.831 493.117 -426.388 523.315 -404.76 545.333C-393.361 556.93 -380.127 566.495 -365.735 574.027C-364.547 574.648 -363.503 572.833 -364.704 572.209C-395.043 556.322 -422.587 529.809 -432.637 496.283C-442.948 461.872 -429.149 428.716 -403.597 405.109C-350.847 356.387 -265.3 351.742 -228.119 285.121C-197.467 230.195 -202.19 154.149 -141.178 119.537C-110.863 102.336 -73.0988 99.4981 -40.575 112.016C-7.34813 124.825 19.47 152.063 34.0024 184.326C61.4376 245.225 41.2546 314.042 52.7376 377.757C58.3833 409.12 73.0112 436.703 97.5226 457.39C126.386 481.755 162.248 494.839 196.218 510.196C230.079 525.496 263.871 544.391 283.707 577.054C302.691 608.322 302.415 645.849 278.463 674.332C257.197 699.615 225.331 714.004 194.412 723.527C158.989 734.445 122.304 741.447 85.2846 743.724C48.3071 745.998 10.9118 743.497 -25.1844 734.966C-61.1998 726.442 -93.6569 707.592 -119.386 681.011C-131.406 668.606 -141.744 655.675 -156 645.589C-170.609 635.249 -186.82 627.286 -203.507 620.897C-238.335 607.563 -275.449 601.966 -311.28 592.103C-329.662 587.043 -347.651 580.796 -364.696 572.204C-365.896 571.6 -366.94 573.415 -365.735 574.027Z" fill="#BB86FC"/>
<path d="M-351.677 570.048C-284.573 603.841 -199.471 597.239 -141.347 649.632C-127.831 661.815 -117.228 676.578 -103.013 688.16C-89.7099 698.994 -75.0091 708.059 -59.2317 714.8C-28.1687 728.054 7.17703 732.461 40.7045 733.404C77.223 734.427 113.864 730.177 149.386 721.787C180.481 714.453 212.144 704.728 238.455 686.016C261.169 669.853 278.956 645.984 278.943 617.099C278.924 585.263 258.703 556.477 234.322 537.655C176.217 492.799 83.2249 486.876 53.9183 409.979C30.8587 349.461 53.1142 282.379 36.207 220.581C19.5099 159.522 -39.727 113.161 -104.229 124.849C-133.74 130.187 -160.028 146.923 -176.138 172.352C-192.887 198.806 -198.729 230.238 -208.211 259.62C-213.146 274.92 -219.102 290.036 -228.025 303.476C-239.38 320.571 -255.453 333.491 -272.981 343.839C-305.166 362.842 -341.626 373.607 -372.336 395.236C-395.624 411.632 -416.084 434.463 -419.885 463.711C-423.757 493.534 -409.048 522.106 -388.607 542.902C-377.816 553.88 -365.291 562.918 -351.677 570.048C-350.489 570.67 -349.453 568.86 -350.646 568.23C-378.831 553.464 -404.373 529.13 -414.376 498.249C-425.114 465.154 -412.267 432.953 -387.526 410.077C-337.89 364.193 -257.423 359.683 -221.891 297.507C-192.365 245.839 -197.219 173.73 -140.26 140.296C-111.96 123.683 -76.3077 120.419 -45.4953 131.713C-13.4675 143.449 12.4812 169.26 26.6029 200.059C52.8477 257.317 34.2134 322.326 44.4182 382.418C49.4311 411.932 62.6752 438.255 85.4113 458.06C112.06 481.274 145.504 493.892 177.335 508.098C209.919 522.642 242.932 540.189 262.502 571.282C281.07 600.774 281.812 636.555 259.284 664.105C239.811 687.925 210.063 701.81 181.314 710.841C147.485 721.48 112.39 728.326 76.9906 730.614C42.0424 732.87 6.70025 730.675 -27.4581 722.779C-62.3199 714.722 -93.581 696.827 -118.454 671.103C-129.862 659.303 -139.701 647.066 -153.264 637.516C-167.101 627.777 -182.429 620.285 -198.205 614.263C-231.407 601.592 -266.789 596.312 -300.92 586.84C-318.031 582.092 -334.762 576.229 -350.646 568.23C-351.841 567.635 -352.885 569.449 -351.677 570.048Z" fill="#BB86FC"/>
<path d="M-337.622 566.083C-274.456 597.857 -194.654 591.802 -139.679 640.618C-126.837 652.013 -116.856 666.023 -103.518 677.011C-91.1061 687.248 -77.3386 695.85 -62.5828 702.277C-33.4749 714.961 -0.313539 719.268 31.2097 720.291C65.6702 721.414 100.255 717.569 133.823 709.796C163.281 702.972 193.38 693.935 218.456 676.482C240.303 661.29 257.74 638.757 258.003 611.142C258.29 581.834 240.176 554.861 218.008 537.093C163.33 493.296 74.3656 488.566 45.8314 415.738C23.2972 358.22 44.943 294.043 28.5458 235.2C12.3814 177.193 -44.5915 133.764 -105.721 145.889C-133.985 151.499 -158.574 168.135 -173.399 192.92C-188.248 217.739 -193.639 246.707 -202.507 273.891C-207.175 288.218 -212.846 302.395 -221.32 314.932C-232.502 331.479 -248.385 343.821 -265.559 353.669C-295.532 370.858 -329.129 381.068 -357.497 401.145C-379.401 416.654 -398.645 438.269 -402.099 465.854C-405.612 493.997 -391.763 520.875 -372.465 540.489C-362.284 550.827 -350.463 559.345 -337.622 566.083C-336.433 566.704 -335.389 564.89 -336.582 564.26C-363.581 550.094 -388.058 526.639 -397.165 496.854C-406.593 466.022 -394.357 436.235 -371.438 415.035C-324.932 371.998 -249.775 367.66 -215.787 310.073C-187.436 262.03 -192.41 194.277 -140.387 161.736C-113.504 144.917 -79.0717 141.203 -49.2288 151.858C-18.5341 162.817 6.32308 187.514 19.7327 216.969C44.386 271.156 26.6927 332.588 36.5029 389.397C41.297 417.194 53.9404 441.989 75.4347 460.572C100.341 482.11 131.421 493.98 161.119 507.195C192.409 521.124 224.18 537.863 242.77 567.865C260.161 595.945 260.33 629.831 238.663 655.608C219.512 678.402 190.788 691.246 162.94 699.8C130.994 709.601 97.891 715.839 64.5171 717.762C31.6115 719.666 -1.70664 717.369 -33.7869 709.633C-65.9608 701.886 -94.8722 684.792 -117.766 660.943C-128.799 649.451 -138.419 637.762 -151.702 628.64C-164.84 619.619 -179.348 612.678 -194.245 607.119C-224.898 595.667 -257.453 590.692 -288.905 582.026C-305.317 577.506 -321.362 571.923 -336.595 564.257C-337.782 563.656 -338.826 565.471 -337.622 566.083Z" fill="#BB86FC"/>
<path d="M-323.564 562.106C-263.673 592.197 -187.51 586.262 -135.946 633.463C-124.156 644.245 -114.824 657.114 -102.315 667.273C-90.6868 676.72 -77.8363 684.642 -64.0668 690.571C-35.8682 702.701 -3.65143 706.639 26.8196 707.332C59.2476 708.072 91.7363 704.185 123.257 696.626C151.247 689.921 179.837 680.993 203.198 663.573C223.412 648.497 238.412 626.316 236.951 600.244C235.423 573.021 217.931 548.895 196.887 532.767C144.209 492.428 60.1463 487.14 35.749 416.053C17.1054 361.715 36.9421 302.348 20.2105 247.526C3.90669 194.104 -49.5144 155.1 -105.998 166.696C-132.701 172.176 -155.724 188.125 -169.533 211.689C-183.193 234.981 -188.226 261.986 -196.53 287.371C-201.105 301.35 -206.719 315.155 -215.22 327.25C-225.873 342.411 -240.845 353.67 -256.837 362.714C-285.151 378.736 -316.75 388.423 -343.336 407.546C-363.609 422.121 -381.173 442.361 -384.306 467.994C-387.526 494.419 -374.437 519.664 -356.317 538.05C-346.74 547.779 -335.628 555.768 -323.564 562.106C-322.376 562.727 -321.34 560.917 -322.533 560.287C-347.649 547.094 -370.534 525.335 -379.273 497.693C-388.492 468.507 -377.174 440.167 -355.372 419.995C-311.969 379.833 -241.821 375.622 -209.579 322.427C-182.222 277.283 -187.298 212.936 -138.41 181.914C-113.329 165.996 -81.1376 162.292 -53.0845 171.965C-24.3757 181.848 -1.01821 204.632 11.9156 231.832C35.8408 282.121 19.7972 339.806 28.0067 392.905C32.0214 418.809 42.8712 442.351 62.3033 460.272C85.0434 481.254 114.295 492.829 142.207 505.103C171.575 518.029 201.635 532.943 220.276 560.168C238.007 586.065 240.372 618.769 220.47 644.167C203.187 666.229 175.963 678.915 149.841 687.114C119.489 696.636 87.979 702.705 56.2188 704.666C24.8836 706.588 -6.84227 704.46 -37.4086 697.135C-68.3266 689.731 -96.0023 673.132 -117.776 650.032C-127.457 639.764 -136.098 629.504 -147.81 621.382C-160.481 612.582 -174.507 605.853 -188.936 600.481C-217.951 589.673 -248.785 585.034 -278.533 576.767C-293.674 572.559 -308.466 567.353 -322.533 560.287C-323.733 559.684 -324.777 561.498 -323.564 562.106Z" fill="#BB86FC"/>
<path d="M-309.514 558.131C-253.269 586.351 -181.452 580.728 -133.257 625.384C-122.296 635.545 -113.531 647.51 -101.804 656.976C-90.6035 666.005 -78.2294 673.537 -64.9513 679.107C-38.9454 690.029 -9.32309 693.592 18.6935 694.266C48.5828 694.992 78.583 691.497 107.668 684.649C134.047 678.44 161.022 670.207 183.193 654.085C202.218 640.254 216.77 619.881 216.081 595.521C215.367 569.912 199.231 546.81 179.643 531.466C130.669 493.117 52.0735 488.625 28.0165 422.914C9.56612 372.512 28.1113 316.869 13.5591 265.607C-0.818651 214.986 -50.3348 177.038 -103.83 187.014C-129.098 191.73 -151.176 206.412 -164.505 228.466C-177.668 250.26 -182.445 275.786 -190.203 299.721C-194.382 312.631 -199.471 325.402 -207.142 336.668C-217.158 351.384 -231.395 362.293 -246.748 370.99C-273.388 386.098 -303.192 395.172 -328.181 413.228C-347.555 427.229 -364.186 446.667 -366.631 471.302C-369.049 495.627 -356.856 518.719 -340.18 535.628C-331.2 544.721 -320.806 552.187 -309.514 558.131C-308.321 558.761 -307.276 556.946 -308.474 556.309C-332.097 543.887 -353.565 523.446 -361.707 497.421C-370.387 469.712 -359.184 443.021 -338.412 424.143C-297.219 386.721 -231.24 382.675 -201.603 331.783C-176.751 289.114 -180.995 229.052 -134.333 200.779C-81.6632 168.867 -16.5493 198.391 6.6314 252.219C27.034 299.605 11.9219 352.793 20.4769 402.191C24.607 426.032 35.2054 447.461 53.3605 463.723C75.0102 483.121 102.456 493.799 128.677 505.394C156.188 517.562 184.313 531.883 201.276 557.81C217.522 582.647 218.473 613.191 199.127 636.589C182.511 656.694 157.177 668.123 132.795 675.653C104.347 684.433 74.8725 690.023 45.1437 691.724C-13.2357 695.049 -74.318 684.973 -116.131 640.867C-125.488 630.989 -133.757 621.126 -145.078 613.322C-156.571 605.39 -169.235 599.28 -182.284 594.352C-209.621 584.013 -238.725 579.649 -266.815 571.874C-281.158 567.913 -295.157 563.001 -308.47 556.317C-309.669 555.713 -310.714 557.528 -309.514 558.131Z" fill="#BB86FC"/>
<path d="M-295.45 554.162C-242.838 580.514 -175.4 575.22 -130.552 617.298C-120.076 627.128 -111.63 638.503 -100.246 647.491C-90.1363 655.483 -78.9789 662.138 -67.0951 667.107C-42.9026 677.214 -15.4548 680.562 10.5803 681.205C38.4331 681.898 66.3516 678.67 93.4677 672.339C118.148 666.568 143.389 658.901 164.16 643.884C181.625 631.26 195.187 612.813 195.164 590.511C195.134 565.443 179.114 542.919 159.877 528.2C113.809 492.968 40.7878 488.404 19.1412 426.501C2.5639 379.072 20.0687 327.041 5.55767 279.093C-8.54908 232.503 -54.9548 198.122 -104.294 207.853C-127.069 212.337 -147.128 225.491 -159.438 245.254C-172.103 265.571 -176.652 289.569 -183.867 312.067C-187.91 324.647 -192.819 337.107 -200.38 348.036C-209.919 361.822 -223.536 371.936 -238.033 380.04C-263.013 394.001 -290.823 402.544 -314.026 419.654C-331.739 432.716 -346.725 450.777 -348.829 473.437C-350.928 496.05 -339.546 517.495 -324.035 533.202C-315.664 541.676 -305.978 548.615 -295.45 554.162C-294.262 554.783 -293.226 552.973 -294.419 552.344C-316.527 540.693 -336.617 521.559 -344.153 497.147C-352.097 471.39 -341.615 446.621 -322.332 429.106C-283.96 394.254 -222.532 390.431 -194.79 343.144C-171.397 303.27 -175.52 247.131 -131.858 220.648C-83.0559 191.061 -22.5883 218.191 -0.750209 267.964C18.6222 312.118 4.56545 361.87 12.3642 408.02C16.0996 430.104 25.6935 450.042 42.328 465.296C62.3268 483.632 87.9769 493.713 112.439 504.493C138.161 515.831 164.609 529.007 180.677 553.085C196.461 576.727 197.404 605.957 178.481 628.106C162.522 646.784 138.754 657.187 115.757 664.188C89.2412 672.254 61.7612 677.333 34.0768 678.779C-19.7397 681.601 -75.8561 672.154 -114.503 631.691C-123.173 622.605 -130.801 613.341 -141.198 606.061C-151.807 598.62 -163.548 592.86 -175.64 588.229C-200.867 578.557 -227.734 574.404 -253.732 567.359C-267.74 563.564 -281.422 558.861 -294.419 552.344C-295.619 551.74 -296.663 553.555 -295.45 554.162Z" fill="#BB86FC"/>
<path d="M-281.4 550.187C-232.729 574.533 -170.596 569.779 -128.868 608.273C-119.523 616.903 -112.073 627.121 -102.155 635.234C-92.3523 643.262 -81.4627 649.962 -69.7806 654.884C-47.4395 664.317 -22.0596 667.466 2.02727 668.134C28.283 668.857 54.6228 665.822 80.1681 659.812C103.212 654.398 126.793 647.179 146.095 632.98C161.802 621.427 173.988 604.692 174.233 584.548C174.51 562.029 160.597 541.317 143.589 527.643C101.667 493.961 33.0981 490.474 11.7284 434.159C-5.01282 390.009 11.533 341.053 -1.42698 296.068C-14.0467 252.294 -57.1174 219.68 -103.353 228.423C-124.194 232.366 -142.796 244.175 -154.358 262.044C-166.531 280.855 -170.858 303.35 -177.536 324.403C-181.186 335.927 -185.579 347.336 -192.306 357.444C-200.933 370.397 -213.317 379.983 -226.716 387.627C-249.966 400.903 -276.064 408.749 -297.866 424.603C-314.46 436.679 -328.729 453.376 -330.93 474.511C-333.128 495.501 -322.757 515.502 -308.448 530.204C-300.557 538.301 -291.378 544.911 -281.4 550.187C-280.207 550.817 -279.167 548.994 -280.36 548.364C-301.093 537.412 -319.938 519.412 -326.725 496.389C-333.977 471.79 -323.088 448.553 -304.419 432.429C-268.48 401.384 -212.578 397.246 -187.404 353.495C-166.034 316.363 -169.652 264.414 -128.836 240.178C-81.7208 212.199 -23.9287 240.68 -5.7973 289.457C9.51935 330.635 -3.35824 375.582 4.97957 417.875C9.08515 438.676 19.212 456.877 35.5231 470.574C54.255 486.305 77.2898 495.184 99.3787 504.992C122.733 515.365 146.557 527.682 160.992 549.672C175.357 571.562 175.96 598.392 158.589 618.738C143.706 636.183 121.449 645.842 99.977 652.332C75.423 659.754 49.9913 664.434 24.3636 665.758C-26.7021 668.396 -79.5372 659.002 -115.428 619.759C-123.376 611.073 -130.867 602.951 -140.783 596.407C-150.394 590.069 -160.885 585.112 -171.654 581.09C-195.221 572.29 -220.259 568.507 -244.426 561.799C-256.799 558.379 -268.868 554.127 -280.355 548.372C-281.555 547.769 -282.6 549.583 -281.4 550.187Z" fill="#BB86FC"/>
<path d="M-267.342 546.21C-221.999 568.839 -163.361 564.208 -125.192 601.13C-116.791 609.26 -109.821 618.424 -100.596 625.772C-91.8562 632.734 -82.2173 638.555 -71.9118 642.889C-51.0098 651.682 -27.2273 654.577 -4.7056 655.104C19.506 655.667 43.7787 652.792 67.3226 647.187C88.5812 642.119 110.325 635.363 128.016 622.074C142.359 611.311 153.221 595.832 153.292 577.348C153.368 556.724 140.537 537.808 124.978 525.28C85.9639 493.853 21.9813 490.81 2.8269 437.739C-12.0331 396.559 3.54719 351.193 -9.45461 309.548C-21.8524 269.833 -61.5344 240.908 -103.629 249.23C-122.909 253.044 -139.976 264.151 -150.53 280.803C-161.713 298.442 -165.607 319.422 -171.933 339.027C-175.403 349.771 -179.62 360.522 -186.222 369.772C-194.715 381.71 -206.53 390.378 -219.253 397.379C-240.621 409.12 -264.292 416.467 -283.97 431.223C-298.467 442.096 -310.749 456.913 -312.998 475.458C-315.376 495.157 -305.745 513.972 -292.303 527.779C-285.013 535.253 -276.55 541.34 -267.342 546.21C-266.149 546.84 -265.113 545.03 -266.306 544.4C-285.826 534.055 -303.663 516.912 -309.486 494.988C-315.55 472.179 -304.744 451.192 -287.459 436.655C-254.089 408.558 -202.737 404.511 -180.015 363.836C-160.6 329.057 -163.632 280.76 -124.735 259.107C-81.01 234.769 -28.7193 261.678 -12.6594 306.516C0.979005 344.586 -10.9064 385.894 -2.9249 424.838C0.888933 443.419 9.98126 459.776 24.4704 472.17C41.9757 487.139 63.7099 495.428 84.4832 504.678C105.7 514.129 127.312 525.336 140.576 545.19C154.377 565.858 154.802 591.231 137.946 610.243C124.09 625.883 103.867 634.551 84.2796 640.452C61.2358 647.393 37.3595 651.707 13.3126 652.805C-11.8605 653.953 -38.312 652.101 -62.3847 644.237C-75.7032 639.88 -88.1686 633 -99.1264 624.278C-109.066 616.373 -116.384 606.232 -125.713 597.778C-164.535 562.63 -221.364 566.825 -266.306 544.4C-267.506 543.796 -268.55 545.611 -267.342 546.21Z" fill="#BB86FC"/>
<path d="M-253.287 542.245C-211.307 563.133 -156.079 558.621 -121.57 594.007C-106.858 609.086 -93.7242 622.701 -73.8085 630.996C-54.0054 639.247 -31.3838 641.832 -10.0837 642.095C11.1696 642.352 32.4404 639.775 53.1134 634.882C72.6648 630.256 92.7008 624.074 108.992 611.889C122.37 601.891 132.522 587.391 132.343 570.153C132.153 551.405 120.542 534.335 106.379 522.919C70.8204 494.259 12.6952 491.482 -5.27385 443.495C-19.5723 405.283 -4.49854 362.85 -17.1284 324.185C-28.8093 288.462 -64.6226 262.567 -102.686 269.788C-120.813 273.219 -136.803 283.681 -146.585 299.386C-156.583 315.433 -160.114 334.403 -165.85 352.162C-169.143 362.345 -173.17 372.463 -179.5 381.185C-188.689 393.842 -202.126 402.27 -215.9 409.171C-237.358 419.927 -260.857 427.721 -278.245 445.022C-292.254 458.963 -299.174 478.126 -293.299 497.5C-287.304 517.307 -271.161 532.747 -253.287 542.245C-252.099 542.866 -251.055 541.052 -252.248 540.422C-270.244 530.864 -286.715 515.025 -291.907 494.721C-297.234 473.863 -287.152 454.811 -271.377 441.605C-240.565 415.817 -193.467 412.127 -172.769 374.401C-155.382 342.714 -157.921 299.04 -122.755 279.251C-81.9082 256.273 -32.9226 282.389 -19.156 324.715C-7.74675 359.799 -18.6218 397.349 -10.5705 432.926C-1.48689 473.02 34.0134 488.571 68.2836 503.787C88.5767 512.791 109.347 523.449 121.547 542.839C133.326 561.578 133.029 584.044 118.053 600.877C104.634 615.97 84.8929 623.869 65.9433 629.346C45.6841 635.199 24.7363 638.844 3.65689 639.773C-19.4677 640.806 -43.8178 639.079 -65.8958 631.741C-78.1437 627.669 -89.6289 621.259 -99.649 613.139C-107.991 606.393 -114.329 597.965 -122.031 590.609C-157.244 557.005 -210.665 561.114 -252.248 540.422C-253.443 539.827 -254.492 541.633 -253.287 542.245Z" fill="#BB86FC"/>
<path d="M-239.228 538.267C-201.181 557.165 -151.297 553.183 -119.862 584.97C-106.069 598.912 -94.1184 611.576 -75.505 619.184C-57.7764 626.433 -37.6211 628.732 -18.5949 629.024C1.5111 629.334 21.651 626.8 41.1806 622.023C58.6343 617.749 76.4635 612.07 90.9088 600.975C102.849 591.809 111.827 578.522 111.392 562.97C110.944 546.945 101.522 532.339 89.6703 522.127C57.4253 494.331 2.839 492.92 -13.7533 448.161C-26.6101 413.478 -12.9892 375.037 -24.4522 339.973C-35.1652 307.223 -68.1278 283.617 -102.967 290.587C-119.535 293.901 -133.961 303.654 -142.727 318.138C-151.324 332.328 -154.557 348.89 -159.523 364.513C-163.064 375.603 -167.51 386.563 -175.171 395.51C-183.767 405.555 -195.387 412.333 -207.134 418.082C-226.533 427.571 -247.705 434.901 -263.029 450.867C-292.143 481.192 -271.705 520.967 -239.228 538.267C-238.043 538.901 -236.999 537.087 -238.197 536.449C-254.364 527.828 -269.108 513.749 -274.013 495.581C-279.344 475.848 -269.486 457.973 -254.326 445.777C-226.666 423.514 -185.325 419.697 -166.521 386.765C-150.11 358.009 -152.889 317.615 -120.778 299.408C-83.1599 278.069 -38.2478 302.517 -26.1306 341.653C-16.3539 373.199 -25.8448 406.807 -18.7007 438.742C-10.4984 475.409 22.1093 489.58 53.3935 503.481C71.5174 511.525 90.1544 521.116 101.14 538.352C112.093 555.529 111.9 575.971 98.1614 591.511C86.52 604.681 69.2619 611.819 52.7973 616.709C33.2254 622.525 12.9398 626.07 -7.47435 626.811C-28.1543 627.563 -50.0039 625.917 -69.6913 619.147C-81.351 615.15 -92.1589 608.817 -101.548 600.845C-109.123 594.408 -114.876 586.273 -122.356 579.792C-154.805 551.7 -201.162 554.842 -238.197 536.449C-239.392 535.853 -240.436 537.668 -239.228 538.267Z" fill="#BB86FC"/>
<path d="M-225.165 534.298C-190.768 551.316 -145.311 547.713 -117.228 576.892C-105.455 589.135 -94.6006 600.054 -78.6336 606.784C-62.5234 613.572 -44.0881 615.689 -26.7375 615.968C-8.66805 616.246 9.40777 613.99 26.9553 609.728C43.0772 605.81 59.6192 600.526 72.7963 590.066C82.7867 582.149 90.2226 571.041 90.4616 557.956C90.7415 542.209 81.0212 527.764 69.1701 518.196C39.3819 494.137 -9.49591 492.073 -23.0069 450.68C-33.2833 419.194 -21.1037 384.728 -32.6018 353.392C-42.9721 325.156 -71.8396 305.309 -102.202 311.195C-116.753 314.018 -129.703 322.383 -137.672 334.944C-145.737 347.66 -148.755 362.69 -153.196 376.864C-156.452 387.222 -160.507 397.574 -167.721 405.881C-175.305 414.62 -185.384 420.594 -195.653 425.673C-213.461 434.482 -232.961 441.063 -246.955 455.878C-272.843 483.278 -254.188 518.784 -225.165 534.298C-223.98 534.932 -222.949 533.114 -224.134 532.48C-238.79 524.643 -252.16 511.863 -256.434 495.314C-261.368 476.192 -250.434 459.537 -235.456 448.647C-210.519 430.5 -175.138 426.183 -159.143 397.123C-144.918 371.246 -147.001 335.521 -118.339 319.309C-84.9688 300.45 -45.1551 321.816 -33.8075 356.304C-24.5278 384.484 -33.0425 414.746 -27.0657 443.419C-20.2426 476.194 7.78746 489.654 35.903 502.018C52.2883 509.225 69.3346 517.424 79.8502 532.565C90.9877 548.61 91.1982 568.448 77.4867 582.979C66.4567 594.661 50.9172 600.849 35.7824 605.21C18.5864 610.174 0.801509 613.178 -17.0958 613.782C-35.7353 614.423 -55.4836 612.902 -73.1764 606.659C-83.3432 603.074 -92.7839 597.52 -100.995 590.568C-108.139 584.514 -113.52 576.797 -120.678 570.817C-150.04 546.326 -191.006 548.869 -224.134 532.48C-225.342 531.881 -226.386 533.696 -225.165 534.298Z" fill="#BB86FC"/>
<path d="M-211.115 530.323C-180.264 545.511 -139.511 542.317 -114.591 568.8C-103.931 580.137 -93.6121 589.829 -78.8225 595.56C-63.9074 601.339 -46.9581 603.017 -31.0768 602.925C-2.85738 602.762 32.4688 597.615 54.8925 578.97C77.2275 560.399 70.8079 531.469 49.4408 514.972C22.1603 493.891 -21.5466 491.584 -32.1061 453.162C-39.8637 424.974 -29.2762 394.297 -40.8791 366.796C-51.3527 342.001 -77.9641 325.582 -104.834 332.545C-134.844 340.32 -139.729 368.242 -148.324 393.709C-151.384 402.786 -155.445 411.375 -162.196 418.313C-169.787 426.118 -179.687 431.213 -189.438 435.775C-204.342 442.74 -220.348 448.969 -231.545 461.587C-253.308 486.088 -236.264 516.811 -211.115 530.323C-209.93 530.958 -208.886 529.143 -210.076 528.501C-222.783 521.674 -234.759 510.552 -238.579 496.162C-242.738 480.453 -235.246 466.389 -223.198 456.561C-201.483 438.839 -168.964 435.872 -153.512 410.475C-139.833 387.989 -142.394 356.511 -118.414 340.707C-88.8622 321.243 -51.539 340.887 -41.1236 372.086C-32.9465 396.606 -40.1362 423.07 -35.4212 448.11C-30.1143 476.342 -7.34557 489.323 17.1017 500.003C31.1979 506.157 46.1077 512.473 56.4324 524.342C68.0674 537.723 71.6507 556.547 59.8502 571.063C50.6276 582.419 36.2912 588.5 22.6362 592.572C7.4695 597.104 -8.24147 599.922 -24.0761 600.642C-41.2394 601.421 -59.4101 600.176 -75.7335 594.471C-84.9428 591.259 -93.445 586.253 -100.872 579.938C-107.069 574.656 -111.77 567.964 -117.976 562.742C-144.022 540.815 -180.576 543.03 -210.076 528.501C-211.279 527.91 -212.323 529.725 -211.115 530.323Z" fill="#BB86FC"/>
<path d="M-197.056 526.345C-169.747 539.709 -133.777 536.938 -112.011 560.741C-103.052 570.532 -93.6087 578.768 -80.9998 583.557C-68.3394 588.361 -54.0973 589.828 -40.6356 589.87C-15.9432 589.927 14.8085 585.507 34.7356 569.691C53.2786 554.971 51.5169 531.473 34.7707 515.912C12.1768 494.901 -27.9987 494.739 -39.3433 461.897C-47.9154 437.07 -37.9227 409.683 -47.2861 384.921C-55.5319 363.091 -78.0333 347.97 -101.532 352.578C-128.15 357.791 -134.169 381.32 -141.258 403.81C-143.853 412.03 -147.103 420.193 -152.928 426.715C-159.481 434.051 -168.324 438.807 -177.096 442.966C-190.313 449.228 -204.648 454.576 -214.687 465.728C-234.083 487.268 -219.299 514.292 -197.056 526.345C-195.875 526.992 -194.831 525.177 -196.025 524.527C-207.722 518.184 -218.652 507.756 -221.394 494.214C-224.511 478.796 -214.495 466.228 -202.423 458.12C-182.959 445.049 -156.829 441.198 -144.984 418.803C-134.338 398.672 -135.651 371.293 -113.319 358.994C-85.6251 343.746 -54.0004 363.928 -47.1481 392.531C-41.9257 414.376 -48.2956 437.356 -42.3783 459.083C-35.958 482.679 -14.4766 492.304 6.11315 501.387C19.0055 507.081 32.4481 513.613 40.458 525.743C48.9404 538.613 48.1171 554.118 36.9085 565.02C19.0041 582.447 -12.6468 587.103 -36.4867 587.71C-51.1194 588.094 -66.6873 586.805 -80.4591 581.532C-88.5143 578.449 -95.9636 573.717 -102.327 567.921C-107.24 563.445 -111.117 557.988 -116.3 553.799C-139.093 535.346 -170.481 537.026 -196.025 524.527C-197.228 523.936 -198.273 525.751 -197.056 526.345Z" fill="#BB86FC"/>
<path d="M-183.002 522.38C-159.616 533.75 -129.012 531.488 -110.304 551.683C-102.725 559.862 -95.0408 566.792 -84.5181 571.011C-73.8089 575.307 -61.6376 576.663 -50.1626 576.797C-28.8767 577.036 -2.67041 573.337 14.7933 560.201C30.4295 548.45 30.9932 529.31 17.8242 515.257C-0.90942 495.263 -37.0471 496.255 -47.4474 467.665C-55.265 446.198 -46.2958 422.282 -54.5783 400.822C-61.5343 382.804 -79.788 369.992 -99.3776 372.949C-122.761 376.476 -128.868 396.478 -134.937 416.131C-137.254 423.645 -140.092 431.144 -145.471 437.059C-151.307 443.467 -159.168 447.525 -166.908 451.152C-178.479 456.581 -191.028 461.453 -199.371 471.635C-214.57 490.212 -201.239 512.405 -183.002 522.38C-181.825 523.019 -180.781 521.204 -181.962 520.557C-192.139 514.993 -201.716 505.886 -203.767 493.952C-206.174 479.934 -196.208 469.26 -185.167 462.479C-167.892 451.863 -146.567 448.022 -137.125 428.053C-128.819 410.531 -129.151 387.393 -109.153 378.015C-84.1287 366.297 -58.6671 385.78 -54.0338 410.661C-50.5038 429.581 -56.172 449.776 -49.475 468.195C-42.677 486.882 -24.2552 494.122 -7.47829 501.648C3.51542 506.587 15.1431 512.49 21.3758 523.357C28.2008 535.266 25.801 548.292 15.3214 557.136C-1.45547 571.271 -29.0975 574.939 -50.1551 574.699C-62.9967 574.559 -76.6883 572.894 -88.2889 567.019C-99.5925 561.3 -105.776 551.31 -115.674 544.079C-135.165 529.845 -160.76 530.867 -181.967 520.549C-183.174 519.971 -184.218 521.786 -183.002 522.38Z" fill="#BB86FC"/>
<path d="M-168.943 518.402C-148.219 528.378 -123.337 526.536 -106.845 544.599C-93.1214 559.628 -74.3523 564.169 -54.5092 563.705C-37.0992 563.295 -14.7256 560.003 -1.39577 547.678C10.4777 536.718 7.81895 520.642 -3.45913 510.273C-20.4246 494.654 -50.2041 494.967 -56.9273 469.038C-61.6035 451.021 -54.6536 431.382 -63.0439 414.052C-70.2597 399.129 -86.8959 389.886 -103.288 394.505C-121.139 399.543 -124.478 416.112 -129.569 431.556C-134.235 445.697 -143.36 453.114 -156.657 459.312C-166.561 463.93 -177.471 468.334 -183.954 477.658C-194.796 493.266 -183.362 510.428 -168.943 518.402C-167.77 519.054 -166.726 517.239 -167.912 516.584C-176.575 511.791 -184.628 504.092 -185.977 493.824C-187.628 481.223 -177.825 472.454 -167.787 466.919C-154.299 459.486 -138.425 455.592 -130.974 440.778C-123.911 426.745 -124.532 408.007 -109.359 399.282C-87.9688 386.995 -65.0062 404.684 -61.4483 426.424C-59.0051 441.392 -62.9877 457.112 -58.3295 471.78C-53.3736 487.378 -38.8973 494.075 -24.9722 500.197C-16.519 503.912 -7.63333 507.922 -1.62705 515.212C6.32517 524.866 6.53216 537.496 -2.8896 546.208C-15.9863 558.333 -38.8234 561.446 -55.8868 561.644C-67.2737 561.776 -79.6342 560.507 -89.9059 555.27C-99.0549 550.617 -104.215 542.641 -112.089 536.628C-128.258 524.289 -150.046 525.181 -167.912 516.584C-169.119 516.006 -170.163 517.821 -168.943 518.402Z" fill="#BB86FC"/>
</svg>
