<svg width="36" height="36" viewBox="0 0 36 36" fill="none" xmlns="http://www.w3.org/2000/svg">
<path d="M33.75 12.15L30 14.2125L26.25 17.775V30H31.5C32.7427 30 33.75 28.9928 33.75 27.75V12.15Z" fill="#4CAF50"/>
<path d="M2.25 12.15L4.9605 13.4325L9.75 17.775V30H4.5C3.25725 30 2.25 28.9928 2.25 27.75V12.15Z" fill="#1E88E5"/>
<path d="M26.25 8.40002L18 14.5875L9.75 8.40002L9 12.75L9.75 17.775L18 23.9625L26.25 17.775L27 12.75L26.25 8.40002Z" fill="#E53935"/>
<path d="M2.25 9.2235V12.15L9.75 17.775V8.4L7.407 6.64425C6.849 6.22575 6.171 6 5.4735 6C3.693 6 2.25 7.443 2.25 9.2235Z" fill="#C62828"/>
<path d="M33.75 9.2235V12.15L26.25 17.775V8.4L28.593 6.64425C29.151 6.22575 29.829 6 30.5265 6C32.307 6 33.75 7.443 33.75 9.2235Z" fill="#FBC02D"/>
</svg>
