<svg width="62" height="62" viewBox="0 0 62 62" fill="none" xmlns="http://www.w3.org/2000/svg">
<path d="M56.1875 9.6875H5.8125C4.74082 9.6875 3.875 10.5533 3.875 11.625V50.375C3.875 51.4467 4.74082 52.3125 5.8125 52.3125H56.1875C57.2592 52.3125 58.125 51.4467 58.125 50.375V11.625C58.125 10.5533 57.2592 9.6875 56.1875 9.6875ZM53.7656 16.3961V47.9531H8.23438V16.3961L6.56328 15.0943L8.94277 12.0367L11.5342 14.0529H50.4719L53.0633 12.0367L55.4428 15.0943L53.7656 16.3961V16.3961ZM50.4719 14.0469L31 29.1836L11.5281 14.0469L8.93672 12.0307L6.55723 15.0883L8.22832 16.39L28.9111 32.4713C29.5059 32.9334 30.2377 33.1842 30.9909 33.1842C31.7441 33.1842 32.4759 32.9334 33.0707 32.4713L53.7656 16.3961L55.4367 15.0943L53.0572 12.0367L50.4719 14.0469Z" fill="#E3E3E3"/>
</svg>
