<svg width="300" height="371" viewBox="0 0 300 371" fill="none" xmlns="http://www.w3.org/2000/svg">
<path d="M539.534 86.8931C503.379 120.326 441.815 103.824 409.025 73.7707C399.44 64.9861 392.701 54.1465 389.252 41.5972C386.547 31.742 387.668 21.5181 383.822 11.9234C375.095 -9.82074 350.112 -18.7968 344.803 -42.6638C337.143 -77.1198 361.754 -139.632 405.414 -129.769C414.794 -127.654 423.607 -123.348 432.187 -119.14C444.135 -113.268 455.933 -107.093 467.984 -101.426C478.62 -96.4284 489.476 -92.0981 500.454 -87.9226C508.138 -85.0061 515.716 -81.8919 522.315 -76.9097C545.506 -59.4073 555.409 -32.9997 558.736 -5.11178C562.428 25.8203 563.503 63.2713 539.534 86.8931C538.795 87.63 539.921 88.7911 540.66 88.0602C561.864 67.1543 564.191 34.3187 561.588 6.28805C559.218 -19.2238 554.779 -43.7587 537.84 -63.952C531.489 -71.5203 524.263 -78.474 515.508 -83.1736C507.126 -87.6712 497.897 -90.5117 489.079 -94.0055C463.401 -104.172 439.881 -119.703 413.885 -128.943C397.143 -134.893 380.971 -132.919 367.85 -120.303C352.328 -105.384 343.331 -82.6077 341.943 -61.3485C341.264 -50.8645 342.558 -39.8941 347.453 -30.4681C352.868 -20.0377 362.336 -13.1406 370.397 -4.93799C375.904 0.669428 380.435 6.97378 383.047 14.4402C385.116 20.3556 385.152 26.3015 385.833 32.434C387.113 44.058 391.721 55.6295 398.761 64.9719C415.175 86.7628 443.617 100.449 470.03 104.982C494.764 109.236 521.664 105.627 540.666 88.0619C541.43 87.3515 540.304 86.1904 539.534 86.8931Z" fill="#BB86FC"/>
<path d="M532.762 98.1014C495.482 133.511 429.518 118.916 395.319 86.3599C385.702 77.2018 378.841 66.009 375.124 53.2545C371.894 42.1788 373.428 30.476 369.238 19.6718C360.605 -2.55331 334.834 -11.314 327.819 -34.5057C321.052 -56.8602 327.958 -82.9353 339.545 -102.495C349.686 -119.608 366.25 -134.718 387.485 -130.707C396.832 -128.94 405.596 -124.622 414.037 -120.407C426.368 -114.252 438.496 -107.698 450.945 -101.777C462.92 -96.0731 475.092 -91.0037 487.583 -86.5613C496.043 -83.552 504.704 -80.7788 512.302 -75.8756C537.793 -59.4288 548.861 -30.3915 552.275 -1.53545C556.214 31.7501 558.302 72.3285 532.762 98.1014C532.029 98.84 533.154 100.007 533.889 99.2625C556.419 76.5271 558 41.446 555.231 11.4033C552.656 -16.47 547.693 -42.7394 528.182 -64.0943C521.47 -71.4444 513.921 -77.6162 504.82 -81.749C494.942 -86.2286 484.42 -89.2159 474.343 -93.2114C458.232 -99.6032 442.748 -107.447 427.364 -115.393C417.184 -120.653 406.999 -126.312 396.128 -130.029C351.84 -145.17 324.277 -90.9743 323.703 -53.9324C323.532 -42.9872 325.62 -31.7621 331.546 -22.4126C338.233 -11.8542 348.895 -5.03964 357.289 3.97817C362.628 9.72087 366.749 16.3728 368.984 23.9292C370.735 29.8662 370.487 35.8757 371.157 41.9531C372.568 54.7853 377.726 67.5522 385.491 77.8393C416.899 119.423 493.514 137.615 533.895 99.2642C534.65 98.5444 533.523 97.3833 532.762 98.1014Z" fill="#BB86FC"/>
<path d="M525.992 109.304C487.782 146.478 418.11 134.021 382.271 99.6728C371.624 89.4718 364.192 76.7591 360.302 62.5506C357.099 50.8445 358.883 38.528 354.534 27.1264C345.536 3.53003 317.815 -5.05336 310.069 -29.3999C302.609 -52.8396 309.882 -80.3874 321.942 -101.012C332.27 -118.679 349.578 -135.519 371.675 -131.261C381.537 -129.357 390.703 -124.523 399.535 -119.938C412.081 -113.411 424.481 -106.618 437.259 -100.527C450.198 -94.358 463.392 -88.8924 476.98 -84.2996C485.811 -81.3164 494.963 -78.7579 503.095 -74.0892C530.591 -58.2988 542.473 -27.049 545.941 2.8701C550.034 38.2556 552.852 81.6281 525.992 109.304C525.269 110.052 526.394 111.219 527.118 110.471C551.399 85.4524 551.685 47.5296 548.762 15.0097C546.134 -14.3037 540.301 -41.7926 518.964 -63.5279C502.942 -79.8528 481.48 -83.725 460.917 -91.8626C444.262 -98.452 428.253 -106.559 412.443 -114.937C402.199 -120.365 391.998 -126.269 381.07 -130.249C334.944 -147.03 306.094 -88.1631 305.615 -50.1575C305.47 -38.769 307.679 -27.0676 313.905 -17.3736C321.344 -5.80441 333.383 1.27781 342.58 11.2166C347.952 17.0272 352.048 23.7955 354.271 31.42C356.16 37.884 355.754 44.3636 356.419 50.9732C357.799 64.6364 363.182 78.3707 371.21 89.4862C403.68 134.419 485.252 151.198 527.118 110.471C527.868 109.743 526.743 108.576 525.992 109.304Z" fill="#BB86FC"/>
<path d="M519.221 120.512C479.756 159.73 404.93 149.016 367.808 111.712C356.812 100.665 349.384 86.8921 345.481 71.8467C342.288 59.5447 344.34 46.6395 339.862 34.6746C330.34 9.23271 299.975 0.769378 291.913 -25.5918C284.513 -49.8025 291.957 -78.0117 304.224 -99.3533C314.751 -117.66 332.892 -136.383 355.959 -131.848C365.828 -129.902 374.934 -124.922 383.711 -120.21C396.948 -113.105 410.034 -105.763 423.597 -99.2635C437.384 -92.6622 451.483 -86.8462 466.031 -82.1279C475.619 -79.0113 485.64 -76.561 494.596 -71.8117C523.746 -56.3726 536.155 -23.3289 539.663 7.6103C543.901 44.9693 547.285 91.0645 519.221 120.512C518.504 121.262 519.629 122.429 520.348 121.673C545.592 95.1863 545.402 55.6398 542.588 21.4972C540.057 -9.27967 534.204 -38.5834 511.424 -61.1388C494.445 -77.9524 471.024 -81.3374 449.517 -89.6866C431.898 -96.5262 414.981 -105.044 398.386 -114.057C387.638 -119.893 376.989 -126.359 365.519 -130.705C317.68 -148.811 287.748 -84.6295 287.528 -46.0372C287.458 -34.0551 289.921 -21.7946 296.681 -11.73C304.368 -0.280187 316.381 6.78154 325.948 16.4204C332.254 22.7783 337.052 30.2702 339.563 38.9125C341.442 45.3671 341.069 51.7974 341.543 58.4124C342.607 73.1846 348.106 88.1814 356.393 100.417C386.355 144.636 459.194 160.783 505.136 133.528C510.699 130.228 515.759 126.235 520.348 121.673C521.087 120.936 519.967 119.777 519.221 120.512Z" fill="#BB86FC"/>
<path d="M512.45 131.714C472.458 172.236 395.018 164.097 355.876 126.313C343.663 114.522 335.489 99.435 331.155 83.0911C327.573 69.5739 330.033 55.2595 325.152 42.1277C315.201 15.3295 282.957 7.02409 274.164 -20.4918C265.993 -46.0439 273.998 -76.0489 287.022 -98.5847C297.803 -117.244 316.641 -137.204 340.332 -132.455C350.217 -130.472 359.298 -125.33 368.021 -120.496C381.256 -113.151 394.356 -105.603 407.969 -98.9594C422.705 -91.7676 437.832 -85.4167 453.457 -80.4299C464.153 -77.0165 475.411 -74.6111 485.576 -69.7448C516.873 -54.7664 529.922 -19.4283 533.464 12.8805C537.758 52.0903 541.594 100.616 512.45 131.714C511.744 132.473 512.863 133.639 513.577 132.875C540.255 104.407 539.102 62.32 536.272 25.9992C533.76 -6.24317 527.153 -37.4566 502.308 -60.2181C483.981 -77.0052 457.521 -79.8339 435.122 -88.6671C417.072 -95.7832 399.753 -104.582 382.824 -114.034C372.105 -120.018 361.513 -126.689 350.046 -131.184C300.343 -150.677 269.233 -80.8176 269.443 -41.5062C269.515 -28.7035 272.424 -15.7585 280.041 -5.26566C288.661 6.62059 301.781 13.7707 311.835 24.229C318.292 30.9547 323.024 39.0074 325.308 48.0875C326.918 54.4799 326.369 60.913 326.802 67.4189C327.879 83.7047 333.989 100.402 343.199 113.833C374.72 159.809 450.959 174.153 498.058 145.27C503.738 141.788 508.899 137.62 513.576 132.881C514.311 132.137 513.186 130.97 512.45 131.714Z" fill="#BB86FC"/>
<path d="M505.68 142.916C464.903 184.964 384.752 178.911 343.49 140.495C329.954 127.892 321.192 111.162 316.569 93.3837C314.494 85.4166 313.537 77.456 313.53 69.2404C313.521 63.4975 313.106 58.0446 311.418 52.5153C307.242 38.8388 297.942 28.9685 286.983 20.2555C275.162 10.8585 263.1 1.87614 257.389 -12.6854C247.185 -38.715 255.079 -70.4887 267.795 -94.2041C278.336 -113.867 297.791 -137.221 322.82 -133.439C333.024 -131.901 342.373 -126.508 351.213 -121.485C363.971 -114.228 376.547 -106.69 389.638 -100.043C405.836 -91.8173 422.573 -84.5672 439.881 -79.0122C451.205 -75.3777 463.025 -72.9583 474.104 -68.6111C503.139 -57.2068 519.64 -26.9046 525.044 2.3974C528.256 19.7749 529.295 37.8268 529.797 55.4685C530.384 75.8089 529.327 96.9328 522.089 116.166C518.343 126.118 512.895 135.106 505.68 142.916C504.978 143.683 506.103 144.85 506.805 144.084C534.883 113.657 532.856 68.9241 529.978 30.4484C527.454 -3.26791 520.019 -36.8737 492.744 -59.5078C484.371 -66.4567 474.735 -70.4977 464.393 -73.5455C449.243 -78.0219 434.142 -82.1851 419.473 -88.1477C400.7 -95.772 382.736 -105.129 365.209 -115.255C354.787 -121.28 344.44 -128.013 333.134 -132.293C311.904 -140.325 292.645 -130.199 278.836 -113.63C261.134 -92.402 250.401 -62.8603 251.413 -35.1443C251.878 -22.4205 255.198 -9.78345 262.938 0.502904C272.412 13.1032 286.848 20.4129 297.502 31.8201C303.96 38.7283 308.614 47.0389 310.761 56.2825C312.353 63.1124 311.614 69.9934 312.087 76.9141C313.244 93.9382 319.466 111.467 328.871 125.669C345.964 151.477 375.811 165.822 405.63 170.93C434.232 175.829 465.841 172.834 490.817 157.108C496.671 153.421 501.995 149.045 506.805 144.084C507.535 143.337 506.41 142.17 505.68 142.916Z" fill="#BB86FC"/>
<path d="M498.909 154.125C457.269 197.746 374.538 193.517 331.054 154.643C316.667 141.782 307.495 124.118 302.478 105.676C300.074 96.8361 298.744 87.9056 298.804 78.7519C298.841 72.9631 298.716 67.4285 297.226 61.7922C293.429 47.4858 284.167 36.8258 272.797 27.8155C260.193 17.8159 246.675 8.8298 240.123 -6.53977C228.607 -33.5606 236.747 -67.1206 249.831 -92.0607C260.513 -112.414 280.587 -137.586 306.535 -134.204C317.115 -132.821 326.738 -127.085 335.779 -121.778C348.851 -114.108 361.744 -106.169 375.224 -99.2109C392.394 -90.3428 410.245 -82.6315 428.684 -76.8126C440.688 -73.0269 453.152 -70.5836 465.011 -66.3503C495.277 -55.5324 512.684 -24.7686 518.511 5.37385C522.001 23.454 522.925 42.2419 523.549 60.6139C524.291 82.449 523.495 105.084 515.946 125.825C512.119 136.346 506.451 145.839 498.909 154.125C498.212 154.893 499.337 156.06 500.035 155.286C529.415 122.997 526.659 75.6328 523.722 35.0842C521.212 0.460266 513.304 -34.7615 484.662 -57.4197C475.72 -64.4954 465.397 -68.2665 454.516 -71.25C437.988 -75.7797 421.656 -80.3329 405.756 -86.8542C386.637 -94.6857 368.367 -104.272 350.617 -114.812C339.966 -121.135 329.44 -128.276 317.854 -132.81C295.844 -141.43 275.763 -130.084 261.619 -112.924C243.097 -90.4615 231.822 -59.1189 233.397 -29.9045C234.131 -16.3048 238.115 -3.05938 246.89 7.54912C257.318 20.1621 272.485 27.5331 283.384 39.6466C290.029 47.0299 294.796 56.2121 296.526 66.0418C297.734 72.8945 296.878 79.8666 297.395 86.7732C298.751 105.064 305.417 123.96 315.607 139.194C333.256 165.574 364.321 179.707 394.887 184.517C424.849 189.229 457.839 185.579 483.726 168.832C489.692 164.975 495.13 160.423 500.035 155.286C500.753 154.536 499.634 153.371 498.909 154.125Z" fill="#BB86FC"/>
<path d="M492.138 165.327C469.799 189.079 436.606 198.53 404.719 198.096C373.803 197.679 340.545 188.413 317.122 167.435C301.901 153.808 292.627 134.579 287.604 115.042C285.22 105.804 283.944 96.518 284.079 86.9816C284.172 80.6424 284.026 74.6205 282.297 68.4681C278.081 53.5175 268.152 42.6581 256.102 33.3795C243.074 23.3393 229.262 14.1732 222.43 -1.4565C210.084 -29.7185 218.773 -65.1035 232.544 -91.1987C243.555 -112.052 264.425 -138.441 291.153 -134.873C302.007 -133.42 311.815 -127.32 321 -121.738C334.466 -113.567 347.774 -105.18 361.756 -97.8996C379.613 -88.6049 398.233 -80.594 417.458 -74.6073C430.332 -70.6045 443.672 -68.1507 456.442 -63.8709C488.329 -53.1922 506.351 -21.2739 512.328 10.2126C515.918 29.1274 516.745 48.7278 517.375 67.9349C518.124 90.7481 517.437 114.436 509.583 136.126C505.663 146.96 499.838 156.76 492.138 165.327C491.446 166.103 492.565 167.269 493.263 166.494C523.721 132.607 520.477 83.0296 517.546 40.6926C515.091 5.2186 507.13 -31.4175 477.595 -54.514C468.004 -62.0182 456.885 -65.7581 445.235 -68.7614C427.509 -73.3334 410.069 -78.1635 393.093 -85.1161C373.261 -93.238 354.349 -103.231 336.065 -114.376C325.2 -121 314.492 -128.563 302.631 -133.35C279.699 -142.605 258.659 -129.828 244.185 -111.954C225.221 -88.5405 213.614 -56.1258 215.335 -25.8747C216.144 -11.6814 220.386 2.13086 229.67 13.1093C240.631 26.0731 256.454 33.5428 267.899 45.9847C274.657 53.3346 279.426 62.3024 281.528 72.0801C283.157 79.6623 282.109 87.3226 282.575 94.9898C283.761 114.469 290.623 134.761 301.232 151.128C319.128 178.768 351.483 193.15 383.123 197.935C414.414 202.668 448.848 198.601 475.819 181.097C482.213 176.942 488.039 172.05 493.263 166.494C493.978 165.731 492.851 164.569 492.138 165.327Z" fill="#BB86FC"/>
<path d="M485.367 176.535C462.473 201.199 428.309 211.401 395.378 211.462C363.365 211.526 328.804 202.521 304.215 181.172C287.797 166.917 278.21 146.175 272.982 125.416C270.533 115.691 269.138 105.897 269.344 95.8725C269.476 89.3488 269.466 83.1436 267.8 76.7876C263.609 60.7701 252.98 49.2267 240.079 39.476C226.228 29.004 211.622 19.5117 204.449 2.96008C191.691 -26.4843 200.906 -63.3756 215.319 -90.4629C226.806 -112.042 249.002 -140.078 276.871 -135.397C287.794 -133.567 297.571 -127.169 306.776 -121.38C320.534 -112.737 334.178 -103.996 348.577 -96.436C367.184 -86.678 386.664 -78.3681 406.763 -72.228C420.297 -68.0929 434.286 -65.6332 447.776 -61.4126C480.646 -51.1098 499.411 -19.0097 505.803 13.2304C509.685 32.8194 510.42 53.0971 511.126 73.015C511.972 96.9684 511.637 121.821 503.809 144.743C499.785 156.53 493.64 167.218 485.367 176.535C484.682 177.307 485.799 178.479 486.493 177.696C518.378 141.8 514.359 89.038 511.256 44.453C508.729 8.11926 499.954 -30.2867 468.745 -52.9596C458.782 -60.2034 447.191 -63.5351 435.379 -66.4014C416.632 -70.9529 398.259 -76.0766 380.373 -83.4071C360.028 -91.744 340.644 -102.025 322.008 -113.659C310.871 -120.613 299.967 -128.614 287.825 -133.747C264.525 -143.593 242.818 -130.508 227.896 -112.401C207.78 -87.9886 195.46 -53.8857 197.252 -22.1377C198.086 -7.47527 202.447 6.83909 212.052 18.1808C223.638 31.866 240.513 39.5063 252.657 52.5925C260.019 60.5279 265.184 70.407 267.123 81.0956C268.496 88.6845 267.383 96.3916 267.815 104.043C268.978 124.746 276.174 146.498 287.374 163.935C305.77 192.56 339.678 206.948 372.336 211.496C404.991 216.05 440.816 211.338 468.718 192.831C475.239 188.504 481.175 183.427 486.493 177.696C487.202 176.931 486.075 175.77 485.367 176.535Z" fill="#BB86FC"/>
<path d="M478.597 187.737C454.757 213.738 418.897 224.605 384.386 224.823C351.102 225.033 314.847 215.873 289.49 193.313C272.44 178.152 263.007 155.742 257.896 133.935C255.534 123.851 254.326 113.763 254.644 103.406C254.843 96.8753 254.754 90.6284 253.087 84.2527C248.716 67.5534 237.573 55.5868 224.036 45.5538C209.58 34.8475 194.321 25.1274 186.753 8.03557C173.367 -22.1897 182.716 -60.2148 197.304 -88.2295C209.002 -110.7 232.057 -140.715 261.096 -136.169C272.065 -134.456 281.843 -127.947 290.991 -122.045C304.948 -113.046 318.763 -103.912 333.409 -96.0493C352.908 -85.5732 373.442 -76.7733 394.616 -70.2871C409.132 -65.845 424.099 -63.3005 438.653 -59.0687C473.105 -49.0659 492.747 -16.3819 499.473 17.2469C503.61 37.9288 504.263 59.3158 504.959 80.3376C505.787 105.288 505.561 131.168 497.44 155.048C493.318 167.16 487.041 178.136 478.597 187.737C477.911 188.515 479.036 189.683 479.724 188.899C512.705 151.382 508.229 96.1821 505.085 49.7635C502.551 12.3862 493.485 -27.9364 460.774 -50.7041C449.998 -58.2076 437.401 -61.2933 424.788 -64.1818C404.475 -68.8389 384.688 -74.5598 365.421 -82.6084C344.971 -91.1504 325.527 -101.683 306.884 -113.638C295.618 -120.855 284.618 -129.235 272.24 -134.499C247.908 -144.848 225.112 -129.75 210.018 -110.891C189.747 -85.5717 177.267 -50.6869 179.192 -18.1141C180.112 -2.54889 184.913 12.5456 195.382 24.3568C207.668 38.218 225.191 45.9613 237.734 59.5301C245.032 67.4348 250.107 77.1715 252.244 87.7333C253.81 95.4933 252.729 103.274 252.973 111.107C253.646 132.839 260.851 155.888 272.061 174.48C290.5 205.044 325.794 220.131 359.955 224.84C394.143 229.549 431.647 224.466 460.819 205.091C467.766 200.473 474.086 195.048 479.722 188.905C480.426 188.132 479.301 186.965 478.597 187.737Z" fill="#BB86FC"/>
<path d="M471.826 198.94C447.227 226.075 410.019 237.639 374.197 238.174C340.197 238.685 303.177 229.838 276.851 207.301C258.665 191.731 248.902 168.246 243.516 145.418C240.988 134.721 239.513 123.934 239.879 112.94C240.106 106.006 240.267 99.3543 238.593 92.5602C234.29 75.1054 222.818 62.5259 208.665 52.1322C193.419 40.9448 177.136 31.023 169.044 13.0818C154.838 -18.4208 164.768 -58.3142 180.076 -87.5074C192.184 -110.586 216.268 -141.907 246.227 -136.811C257.33 -134.924 267.142 -128.185 276.346 -122.091C290.677 -112.591 304.884 -102.996 320.017 -94.7815C340.44 -83.6959 361.979 -74.5109 384.246 -67.8363C399.357 -63.3123 414.91 -60.7669 430.091 -56.5878C466.117 -46.6782 486.437 -12.9261 493.319 22.1C497.549 43.6148 498.11 65.8161 498.794 87.6739C499.6 113.614 499.485 140.514 491.074 165.361C486.876 177.771 480.426 189.062 471.826 198.94C471.144 199.725 472.269 200.892 472.951 200.107C506.793 161.237 502.034 104.278 499.002 56.3417C496.546 17.5416 487.408 -25.3137 452.804 -48.4348C441.577 -55.9341 428.479 -58.8542 415.485 -61.7061C394.4 -66.3253 373.807 -72.1216 353.836 -80.4193C332.559 -89.264 312.347 -100.265 293.085 -112.868C281.526 -120.434 270.287 -129.284 257.595 -134.916C232.568 -146.013 208.855 -130.175 193.266 -110.778C171.882 -84.1813 158.688 -47.2054 161.209 -12.9234C162.396 3.22405 167.728 18.6755 178.883 30.6652C191.929 44.6935 210.154 52.5551 223.053 66.7374C230.658 75.1054 235.876 85.5395 237.813 96.7026C239.201 104.725 237.928 112.843 238.232 120.927C239.085 143.971 246.651 168.638 258.726 188.279C277.738 219.192 314.466 233.971 349.139 238.386C384.712 242.91 423.586 237.208 453.713 216.818C460.787 212.027 467.219 206.432 472.953 200.101C473.649 199.332 472.53 198.167 471.826 198.94Z" fill="#BB86FC"/>
<path d="M465.055 210.148C439.509 238.62 400.595 250.839 363.199 251.533C327.724 252.198 288.669 243.088 261.57 218.987C243.488 202.906 234.134 178.676 228.822 155.609C226.206 144.25 224.689 132.82 225.156 121.163C225.442 113.993 225.615 107.09 223.884 100.059C219.414 81.8938 207.411 68.8859 192.611 58.2006C176.792 46.7814 159.8 36.6286 151.351 18.1452C136.466 -14.4195 146.656 -55.7108 162.429 -85.9846C174.878 -109.885 200.077 -143.076 231.213 -137.488C242.505 -135.463 252.418 -128.41 261.699 -122.079C275.958 -112.345 290.124 -102.579 305.239 -94.2076C326.405 -82.4976 348.855 -72.8692 372.02 -65.8915C388.318 -60.9834 405.07 -58.35 421.503 -54.0617C459.147 -44.2596 480.082 -9.51563 487.16 26.9515C491.496 49.2966 491.965 72.3181 492.63 95.0103C493.408 121.561 493.452 149.13 485.057 174.639C480.741 187.751 474.075 199.698 465.055 210.148C464.381 210.929 465.5 212.095 466.181 211.309C501.053 170.898 495.904 111.656 492.864 61.9801C490.427 22.0657 481.045 -22.9011 444.83 -46.1275C432.949 -53.7514 419.084 -56.4433 405.48 -59.3029C383.058 -64.0032 361.23 -70.2488 340.075 -79.1313C318.228 -88.3112 297.527 -99.7482 277.873 -112.955C266.417 -120.656 255.3 -129.641 242.688 -135.419C216.965 -147.192 192.286 -130.343 176.312 -110.428C154.167 -82.8338 140.467 -44.4697 143.148 -8.91946C144.408 7.82765 150.007 23.8157 161.669 36.1814C175.238 50.5709 194.109 58.5477 207.563 73.0678C215.59 81.7226 221.089 92.5736 223.114 104.23C224.59 112.759 223.166 121.388 223.466 129.978C224.294 153.855 231.894 179.424 244.081 199.968C263.258 232.294 301.528 247.399 337.34 251.814C374.488 256.388 415.162 250.161 446.454 228.652C453.707 223.663 460.308 217.861 466.181 211.309C466.88 210.535 465.755 209.367 465.055 210.148Z" fill="#BB86FC"/>
<path d="M458.285 221.35C432.156 250.766 392.261 263.68 353.797 264.863C317.146 265.987 276.611 257.095 248.334 232.482C229.154 215.788 219.635 190.263 214.168 166.052C211.546 154.431 209.908 142.667 210.373 130.737C210.669 123.14 211.093 115.826 209.358 108.344C204.958 89.4175 192.628 75.7847 177.211 64.7447C160.807 52.9991 142.999 42.7613 133.938 23.8139C118.08 -9.34795 128.296 -51.8948 144.081 -83.096C156.708 -108.053 182.654 -143.449 215.113 -138.358C226.665 -136.54 236.749 -129.282 246.108 -122.741C260.553 -112.65 274.872 -102.476 290.237 -93.7875C312.201 -81.3726 335.609 -71.2812 359.75 -63.9526C376.872 -58.7556 394.433 -55.9676 411.798 -51.8223C426.411 -48.3356 438.993 -42.1037 449.742 -31.4513C466.571 -14.7772 476.044 6.99974 480.674 29.9674C485.3 52.9729 485.727 76.6593 486.404 100.032C487.217 128.109 487.589 157.227 478.91 184.265C474.511 197.952 467.625 210.43 458.285 221.35C457.609 222.138 458.734 223.305 459.411 222.511C476.88 202.097 484.604 176.843 487.13 150.441C489.78 122.759 488.372 94.4119 486.683 66.6955C484.197 25.8171 474.308 -21.1986 436.388 -44.1209C423.748 -51.7551 409.041 -54.1615 394.784 -57.0346C370.548 -61.9295 347.033 -68.9138 324.3 -78.7189C302.689 -88.0413 282.255 -99.5987 262.885 -112.935C251.068 -121.068 239.607 -130.729 226.4 -136.569C200.103 -148.197 174.657 -129.466 158.776 -109.35C136.002 -80.5058 121.843 -40.4283 125.205 -3.49657C126.791 13.947 133.069 30.3203 145.581 42.8586C159.965 57.2675 179.478 65.3913 193.174 80.5843C201.174 89.4726 206.643 100.641 208.535 112.475C209.944 121.284 208.399 130.185 208.692 139.034C209.536 164.158 217.32 191.256 230.139 212.894C249.668 245.865 289.267 260.945 325.695 265.253C364.213 269.812 406.326 263.141 438.714 240.812C446.334 235.556 453.264 229.436 459.411 222.511C460.102 221.741 458.978 220.568 458.285 221.35Z" fill="#BB86FC"/>
<path d="M451.513 232.558C424.453 263.302 382.822 276.909 342.791 278.226C305.058 279.471 263.138 270.575 234.071 245.084C214.423 227.856 205.02 201.38 199.515 176.515C196.824 164.347 195.085 152.015 195.62 139.532C195.952 131.756 196.503 124.223 194.815 116.547C190.43 96.6153 177.432 82.3009 161.196 70.8368C144.182 58.8295 125.687 48.3675 116.234 28.848C99.5549 -5.59121 110.342 -49.9959 126.849 -82.3816C139.842 -107.881 166.623 -144.378 199.872 -139.085C211.737 -137.199 222.003 -129.571 231.528 -122.737C246.322 -112.124 261.022 -101.5 276.869 -92.4614C299.333 -79.6464 323.371 -69.3201 348.114 -61.8167C366.216 -56.3264 384.734 -53.4466 403.127 -49.2805C418.093 -45.8905 431.119 -39.8471 442.222 -29.0693C459.709 -12.0941 469.561 10.3548 474.371 33.9586C479.292 58.0749 479.571 82.8719 480.262 107.381C481.081 136.436 481.572 166.597 472.569 194.585C468.07 208.583 461.025 221.348 451.513 232.558C450.843 233.347 451.968 234.515 452.64 233.719C470.971 212.127 478.781 185.426 481.167 157.593C483.599 129.291 482.246 100.308 480.567 71.9754C478.09 30.0388 467.729 -19.1982 428.104 -41.9394C415.104 -49.4011 400.059 -51.6222 385.564 -54.438C359.777 -59.4411 334.789 -66.8829 310.673 -77.3741C288.972 -86.8191 268.456 -98.5233 249.09 -112.106C237.09 -120.518 225.538 -130.529 212.204 -136.796C185.096 -149.529 158.525 -130.078 142.023 -109.256C118.402 -79.4519 103.702 -37.9765 107.127 0.242109C108.785 18.7796 115.589 36.0419 129.137 49.1107C144.252 63.6981 164.463 71.978 178.492 87.7976C186.957 97.3497 192.702 109.604 194.163 122.326C195.135 130.746 193.689 139.246 193.918 147.693C194.613 173.862 202.508 202.311 215.662 224.961C235.608 259.305 276.997 274.619 314.677 278.775C354.573 283.18 398.087 275.944 431.449 252.644C439.26 247.194 446.353 240.865 452.646 233.721C453.326 232.942 452.201 231.774 451.513 232.558Z" fill="#BB86FC"/>
<path d="M444.742 243.761C416.951 275.699 373.956 289.973 332.601 291.603C293.535 293.145 249.811 284.207 219.764 257.661C199.857 240.075 190.588 213.005 185.017 187.744C182.166 174.828 180.266 161.696 180.859 148.448C181.201 140.727 181.902 133.191 180.417 125.538C176.334 104.546 162.829 89.3219 145.793 77.3672C128.394 65.1546 109.24 54.723 99.1268 35.0713C80.842 -0.467801 92.1219 -47.169 109.217 -80.8935C122.541 -107.179 150.204 -145.225 184.523 -139.848C196.577 -137.962 206.942 -130.105 216.52 -123.066C231.428 -112.116 246.233 -101.169 262.256 -91.854C285.652 -78.2513 310.84 -67.4279 336.741 -59.5944C355.552 -53.899 374.777 -50.9129 393.945 -46.8425C409.42 -43.551 423.1 -37.7282 434.69 -26.6906C453.066 -9.19352 463.272 14.272 468.206 38.8282C473.061 62.9715 473.393 87.7381 474.034 112.265C474.835 142.76 475.733 174.421 466.552 203.882C461.968 218.579 454.68 232.006 444.742 243.761C444.073 244.55 445.198 245.717 445.869 244.922C464.563 222.8 472.527 195.523 474.96 167.059C477.48 137.512 476.149 107.214 474.43 77.6275C471.931 34.6303 461.378 -16.8081 420.134 -39.5531C406.239 -47.2128 390.171 -49.2189 374.81 -52.1271C348.026 -57.1943 322.07 -65.0628 297.089 -76.0235C274.8 -85.8087 253.786 -97.9904 234.025 -112.185C222.003 -120.818 210.44 -131.118 196.983 -137.504C169.041 -150.77 141.395 -129.757 124.63 -108.365C100.291 -77.2972 85.076 -34.0262 89.1974 5.63657C91.1649 24.5795 98.4686 41.988 112.498 55.1523C128.451 70.1171 149.64 78.599 164.074 95.3195C172.406 104.977 177.998 117.267 179.465 129.965C180.526 139.139 178.862 148.397 179.159 157.599C180.043 184.609 187.944 214.036 201.437 237.496C221.706 272.738 264.569 288.151 303.035 292.247C344.542 296.66 389.837 288.9 424.356 264.394C432.281 258.767 439.49 252.257 445.869 244.922C446.549 244.142 445.424 242.975 444.742 243.761Z" fill="#BB86FC"/>
<path d="M82.6733 42.3818C62.7163 6.49229 73.1375 -41.0022 89.9158 -76.0129C98.4582 -93.8334 109.813 -110.913 124.835 -123.928C136.277 -133.844 151.436 -142.369 167.108 -140.877C179.674 -139.681 190.394 -131.724 200.196 -124.415C215.146 -113.265 229.853 -101.942 245.871 -92.3282C269.534 -78.1235 295.112 -66.8786 321.424 -58.5851C341.63 -52.22 362.248 -48.7468 382.989 -44.7378C398.888 -41.6597 413.435 -36.5901 425.701 -25.6372C444.654 -8.71427 455.636 14.6951 461.093 39.1761C466.61 63.9278 467.172 89.4353 467.767 114.685C468.514 146.024 469.894 178.405 461.659 208.977C436.385 302.799 311.699 326.067 233.116 288.307C213.614 278.936 197.127 265.462 186.896 246.116C173.643 221.05 165.455 189.414 165.973 161C166.114 153.067 167.331 145.154 166.376 137.233C165.067 126.434 160.92 115.753 154.72 106.827C142.736 89.5817 123.684 80.2326 107.12 68.1952C97.3625 61.1 88.8107 52.858 82.6733 42.3818C82.143 41.485 80.7311 42.2748 81.2598 43.1776C93.038 63.2754 113.266 73.5648 131.568 86.6936C151.553 101.022 166.103 121.797 165.076 147.283C164.641 157.966 164.057 168.294 165.372 178.978C167.264 194.326 170.835 209.604 175.845 224.23C183.589 246.838 195.278 266.208 215.178 279.862C249.856 303.648 295.737 310.11 336.792 305.362C380.044 300.37 424.514 281.217 448.595 243.295C464.71 217.92 468.912 187.575 469.71 158.087C470.5 128.98 469.961 99.2487 467.355 70.2279C463.578 28.2401 448.823 -22.2772 406.053 -40.0275C390.002 -46.6822 372.058 -48.0543 355.169 -51.5263C325.971 -57.5287 297.596 -67.4533 270.848 -80.5874C250.064 -90.7979 230.771 -103.338 212.314 -117.265C201.426 -125.483 190.505 -135.169 177.574 -140.04C146.594 -151.702 117.13 -122.672 101.387 -99.3734C79.0841 -66.3693 64.9428 -22.0041 72.3271 17.9071C73.9651 26.761 76.8833 35.2959 81.2658 43.1793C81.7669 44.0874 83.1788 43.2976 82.6733 42.3818Z" fill="#BB86FC"/>
</svg>
