<svg width="305" height="268" viewBox="0 0 305 268" fill="none" xmlns="http://www.w3.org/2000/svg">
<path d="M-365.277 -50.4148C-340.049 -113.208 -253.112 -131.861 -194.355 -111.626C-177.831 -105.932 -163.49 -96.2933 -152.057 -83.0643C-142.127 -71.5775 -137.554 -56.7315 -126.623 -46.0959C-104.121 -24.2238 -68.4809 -27.8514 -47.3861 -3.93676C-27.046 19.1115 -21.0325 54.0999 -24.1883 83.8537C-26.9538 109.888 -38.5042 137.041 -66.1147 143.87C-78.2685 146.873 -91.1215 146.504 -103.532 146.082C-121.66 145.468 -139.764 144.266 -157.905 143.997C-175.36 143.727 -192.704 144.326 -210.086 145.849C-221.858 146.88 -233.743 148.304 -245.521 146.597C-285.034 140.872 -314.182 112.181 -334.068 79.5154C-357.009 41.8362 -381.73 -5.5843 -365.277 -50.4148C-364.803 -51.7005 -366.789 -52.4812 -367.261 -51.1874C-381.775 -11.6405 -364.457 31.2104 -344.691 65.6491C-326.346 97.5976 -306.021 126.319 -270.978 141.193C-258.92 146.314 -246.506 149.567 -233.349 149.528C-219.075 149.481 -204.847 147.294 -190.598 146.558C-167.816 145.385 -144.99 146.293 -122.227 147.379C-107.164 148.1 -91.8753 149.296 -76.8293 147.79C-15.5349 141.66 -12.2242 61.7048 -31.8213 17.0588C-37.6111 3.86639 -46.2568 -8.4244 -58.4678 -16.3693C-72.2527 -25.3437 -88.7453 -27.6605 -103.729 -33.8568C-113.263 -37.806 -121.838 -43.5101 -128.651 -51.3297C-133.997 -57.4765 -136.991 -64.8046 -141.121 -71.7112C-149.836 -86.2961 -163.001 -98.7507 -177.928 -106.81C-238.288 -139.378 -339.942 -119.196 -367.269 -51.1861C-367.778 -49.9115 -365.794 -49.1389 -365.277 -50.4148Z" fill="#BB86FC"/>
<path d="M-363.309 -67.5282C-337.935 -132.942 -247.73 -156.186 -186.029 -134.704C-167.701 -128.325 -151.845 -117.18 -139.409 -102.306C-129.165 -90.0498 -124.556 -74.3327 -113.107 -63.0688C-89.4181 -39.7556 -51.5409 -44.6631 -28.9383 -19.7671C-7.1753 4.20085 -0.793632 41.1522 -3.93284 72.4402C-6.61957 99.2387 -18.1127 128.872 -46.8897 135.876C-59.7349 138.997 -73.3521 138.231 -86.4332 137.58C-105.022 136.638 -123.582 135.299 -142.211 135.007C-161.074 134.709 -179.858 135.393 -198.635 137.337C-210.837 138.602 -223.191 140.552 -235.48 139.417C-277.034 135.576 -308.367 104.683 -328.9 70.7747C-353.176 30.6671 -380.299 -19.6983 -363.309 -67.5282C-362.853 -68.8195 -364.838 -69.6003 -365.294 -68.309C-380.654 -25.0708 -360.23 20.472 -338.925 57.7912C-319.727 91.4343 -297.694 121.139 -260.256 135.468C-232.141 146.232 -204.334 139.113 -175.268 137.592C-151.727 136.358 -128.128 137.294 -104.619 138.663C-89.388 139.55 -73.946 141.03 -58.6881 139.809C5.70523 134.634 7.99758 48.384 -12.241 2.63663C-18.3043 -11.0722 -27.3553 -23.8669 -40.1148 -32.0594C-55.3535 -41.8316 -73.6401 -43.715 -90.0894 -50.5736C-99.7006 -54.5859 -108.308 -60.4436 -115.143 -68.3515C-120.945 -75.0528 -124.007 -83.0298 -128.422 -90.5764C-137.556 -106.173 -151.518 -119.662 -167.213 -128.569C-230.678 -164.564 -337.492 -139.977 -365.294 -68.309C-365.794 -67.0276 -363.808 -66.2468 -363.309 -67.5282Z" fill="#BB86FC"/>
<path d="M-361.342 -84.6501C-335.586 -153.197 -240.167 -181.349 -175.313 -157.031C-156.104 -149.831 -139.671 -137.416 -126.761 -121.547C-116.204 -108.572 -111.593 -92.0036 -99.6819 -80.1362C-74.3534 -54.9019 -33.3783 -61.4007 -9.29496 -34.2662C12.8192 -9.34311 19.3573 28.4939 16.3629 60.7529C13.7894 88.4272 2.3311 120.769 -27.7592 127.972C-40.6366 131.048 -54.2614 130.074 -67.3464 129.241C-87.0788 127.986 -106.761 126.365 -126.551 126.013C-146.667 125.663 -166.725 126.423 -186.72 128.742C-199.902 130.263 -213.237 132.818 -226.556 132.038C-269.897 129.523 -302.842 96.7713 -323.982 61.6642C-349.512 19.274 -378.804 -34.0397 -361.342 -84.6501C-360.894 -85.9401 -362.88 -86.7209 -363.326 -85.4227C-379.035 -39.8995 -357.152 7.32553 -335.088 46.6464C-315.205 82.0938 -292.154 113.96 -252.539 128.48C-223.012 139.304 -193.128 130.53 -162.817 128.746C-137.985 127.283 -113.075 128.213 -88.2782 129.913C-72.2199 131.012 -55.9339 132.919 -39.8269 131.839C27.3412 127.312 28.0187 34.1093 7.14885 -12.1983C0.670878 -26.5766 -8.98988 -39.9016 -22.5917 -48.2451C-38.062 -57.7386 -56.3053 -59.6121 -73.0335 -65.9089C-84.062 -70.065 -93.9067 -76.404 -101.644 -85.3722C-107.427 -92.068 -110.503 -99.9678 -114.693 -107.625C-124.055 -124.722 -138.848 -139.659 -155.467 -149.765C-215.539 -186.279 -311.554 -165.717 -351.613 -107.941C-356.464 -100.946 -360.333 -93.3948 -363.326 -85.4227C-363.808 -84.1357 -361.832 -83.3618 -361.342 -84.6501Z" fill="#BB86FC"/>
<path d="M-359.374 -101.765C-333.7 -172.161 -236.563 -204.827 -169.028 -181.04C-147.955 -173.617 -129.911 -160.036 -115.774 -142.849C-104.085 -128.633 -99.1899 -110.155 -86.1577 -97.1117C-59.5744 -70.4886 -16.4364 -78.2056 9.15478 -50.0896C32.9255 -23.9831 39.7761 16.3101 36.5297 50.4128C33.8442 78.6476 22.2288 112.851 -8.72487 120.141C-21.6412 123.181 -35.324 121.999 -48.4115 120.991C-68.273 119.448 -88.0844 117.588 -108.015 117.091C-129.588 116.553 -151.17 117.236 -172.601 119.824C-187.271 121.596 -202.061 124.882 -216.893 124.625C-262.55 123.836 -297.519 88.6898 -319.45 51.962C-346.059 7.3869 -377.224 -48.5878 -359.374 -101.765C-358.943 -103.06 -360.921 -103.843 -361.358 -102.537C-377.696 -53.8583 -353.27 -4.11975 -329.994 37.7994C-309.332 75.0113 -284.332 108.749 -242.134 122.386C-211.008 132.44 -177.791 121.336 -146.147 119.642C-120.648 118.275 -95.1018 119.322 -69.6662 121.363C-53.5608 122.655 -37.2311 124.839 -21.0456 123.939C49.113 120.051 48.0904 19.4079 26.3118 -27.5246C19.215 -42.8075 8.64509 -56.7072 -6.2163 -65.0942C-23.0414 -74.5994 -42.659 -75.9721 -60.4184 -82.9831C-71.8291 -87.4965 -81.9022 -94.5427 -89.6081 -104.159C-95.0357 -110.928 -97.9015 -118.927 -101.982 -126.476C-112.189 -145.378 -128.644 -162.015 -147.022 -173.046C-209.922 -210.809 -309.019 -186.228 -349.572 -125.869C-354.462 -118.592 -358.357 -110.778 -361.359 -102.546C-361.831 -101.252 -359.846 -100.471 -359.374 -101.765Z" fill="#BB86FC"/>
<path d="M-357.405 -118.879C-331.629 -191.53 -232.389 -228.177 -161.97 -204.796C-138.87 -197.124 -119.221 -181.901 -103.953 -163.155C-97.1074 -154.756 -91.6028 -145.753 -87.0955 -135.924C-83.9406 -129.056 -80.4579 -122.757 -75.4089 -117.065C-62.9228 -102.983 -46.3868 -96.2632 -28.5006 -91.8362C-9.20678 -87.0634 10.1467 -82.918 24.9556 -68.6181C51.4219 -43.0539 59.3735 -0.704455 57.1418 34.6412C55.2933 63.9466 44.7981 102.55 12.7729 111.729C-0.28244 115.476 -14.4237 114.141 -27.7539 112.971C-46.997 111.272 -66.1753 109.137 -85.4832 108.35C-109.372 107.375 -133.373 107.864 -157.13 110.693C-172.673 112.544 -188.143 116.121 -203.783 116.986C-244.777 119.236 -281.119 92.0066 -303.632 59.8973C-316.992 40.8589 -328.12 19.8231 -338.382 -1.01538C-350.223 -25.0371 -360.526 -50.8969 -362.394 -77.8786C-363.361 -91.8403 -361.763 -105.581 -357.405 -118.879C-356.984 -120.182 -358.97 -120.962 -359.391 -119.66C-376.333 -67.8705 -349.411 -15.4439 -324.897 29.0275C-303.415 67.9975 -276.114 104.145 -231.076 116.298C-217.25 120.029 -203.506 119.589 -189.459 117.573C-168.877 114.635 -148.525 111.348 -127.703 110.452C-101.06 109.296 -74.4373 110.657 -47.9154 113.179C-32.144 114.682 -16.0739 117.074 -0.198865 116.006C29.6078 113.992 47.1114 91.3282 54.5651 63.9362C64.1267 28.8371 60.7944 -12.3955 44.4065 -45.012C36.8826 -59.9853 25.9888 -73.291 11.0935 -81.3636C-7.14559 -91.2554 -28.4251 -92.0987 -47.4226 -99.9165C-58.9345 -104.648 -69.0548 -112.046 -76.6864 -121.933C-82.3319 -129.235 -85.2151 -137.875 -89.5713 -145.898C-100.278 -165.639 -117.323 -183.211 -136.355 -195.057C-170.945 -216.583 -214.521 -217.408 -253.005 -207.193C-289.919 -197.393 -326.109 -176.5 -347.389 -144.003C-352.375 -136.384 -356.351 -128.232 -359.391 -119.66C-359.855 -118.367 -357.87 -117.587 -357.405 -118.879Z" fill="#BB86FC"/>
<path d="M-355.439 -136.001C-329.491 -211.009 -228.163 -251.251 -154.834 -228.537C-130.573 -221.024 -109.923 -204.906 -93.8203 -185.582C-86.1033 -176.319 -79.621 -166.359 -74.6802 -155.371C-71.5544 -148.423 -68.3736 -141.868 -63.5044 -135.938C-51.1256 -120.896 -34.2034 -113.21 -15.6618 -108.652C4.89761 -103.586 25.9967 -100.234 42.2552 -85.4281C70.8332 -59.3953 79.4691 -14.7737 77.4671 22.2394C75.8278 52.4472 65.5875 93.5664 32.6817 103.728C19.2622 107.866 4.60377 106.271 -9.12184 104.87C-28.9671 102.849 -48.7449 100.407 -68.6875 99.4614C-94.0924 98.2502 -119.679 98.7965 -144.933 101.929C-161.373 103.972 -177.627 107.873 -194.139 109.301C-236.285 112.928 -273.964 85.6417 -297.443 52.7577C-311.521 33.0309 -322.915 11.0515 -333.722 -10.5946C-346.567 -36.3204 -358.009 -63.846 -360.331 -92.8023C-361.513 -107.49 -359.929 -121.955 -355.439 -136.001C-355.026 -137.302 -357.011 -138.083 -357.423 -136.773C-374.903 -82.0429 -345.668 -26.8661 -319.949 20.0544C-297.985 60.1176 -269.234 97.9407 -222.548 109.374C-207.97 112.945 -193.552 111.806 -178.895 109.418C-156.635 105.788 -134.595 102.294 -111.995 101.392C-84.825 100.296 -57.7094 101.763 -30.6943 104.658C-14.4855 106.393 2.02204 109.175 18.3718 108.257C49.4334 106.521 67.2532 81.9453 74.7838 53.6642C84.651 16.6378 80.9818 -27.0471 63.0986 -61.1481C54.7728 -77.0221 42.7523 -90.693 26.4408 -98.5839C7.05405 -107.969 -15.1343 -108.485 -34.812 -117.014C-46.8067 -122.212 -57.541 -130.59 -64.9938 -141.407C-70.1922 -148.947 -72.9859 -157.76 -77.3857 -165.743C-89.0241 -186.89 -107.35 -205.855 -127.887 -218.508C-163.456 -240.414 -208.373 -240.317 -247.588 -229.336C-286.027 -218.569 -323.511 -196.135 -345.322 -161.917C-350.35 -154.033 -354.365 -145.608 -357.423 -136.773C-357.871 -135.483 -355.893 -134.701 -355.439 -136.001Z" fill="#BB86FC"/>
<path d="M-353.47 -153.115C-339.741 -193.774 -305.192 -223.262 -266.791 -240.203C-229.563 -256.634 -184.686 -263.757 -145.166 -251.477C-119.487 -243.502 -97.8577 -225.568 -81.1478 -204.937C-73.237 -195.186 -66.6243 -184.771 -61.5631 -173.284C-58.2032 -165.647 -54.7318 -158.519 -49.293 -152.103C-36.0604 -136.519 -18.231 -128.959 1.27125 -124.453C22.3612 -119.571 43.9114 -116.165 60.6459 -101.2C90.8982 -74.137 99.8761 -27.0304 97.6839 11.7415C95.9253 42.7281 85.3987 85.7382 51.4563 96.1049C37.6714 100.309 22.5927 98.3792 8.54374 96.7291C-12.0468 94.3239 -32.5666 91.5736 -53.2868 90.5168C-79.7483 89.1716 -106.419 89.7804 -132.706 93.1431C-150.306 95.4023 -167.614 99.7703 -185.242 101.641C-229.251 106.322 -268.298 77.9908 -292.694 43.5813C-307.347 22.9096 -319.07 -0.0953082 -330.342 -22.7369C-343.731 -49.6297 -355.88 -78.355 -358.358 -108.615C-359.598 -123.727 -357.994 -138.646 -353.47 -153.115C-353.067 -154.423 -355.044 -155.205 -355.456 -153.896C-373.351 -96.6613 -342.321 -39.1036 -315.629 9.96006C-293.266 51.0711 -263.676 90.5574 -215.681 102.026C-200.093 105.755 -184.738 104.143 -169.151 101.357C-145.432 97.1221 -121.916 93.3531 -97.7915 92.3778C-69.609 91.2382 -41.5032 92.8417 -13.518 96.168C3.11315 98.1455 20.0689 101.333 36.8852 100.567C69.3985 99.0866 87.5835 72.2729 95.1177 42.9557C104.993 4.55001 101.134 -40.5999 82.5083 -75.8615C73.7678 -92.4051 61.1281 -106.613 44.0056 -114.668C23.7885 -124.181 0.761309 -124.456 -19.7497 -133.079C-31.8619 -138.175 -42.4804 -146.296 -50.3505 -156.847C-56.4522 -165.029 -59.3924 -174.771 -64.149 -183.692C-76.2354 -206.355 -95.5597 -226.883 -117.218 -240.662C-153.772 -263.941 -200.37 -263.437 -240.857 -251.837C-280.898 -240.366 -319.882 -216.643 -342.575 -180.925C-347.952 -172.451 -352.246 -163.406 -355.456 -153.896C-355.893 -152.591 -353.909 -151.818 -353.47 -153.115Z" fill="#BB86FC"/>
<path d="M-351.503 -170.237C-337.611 -212.292 -302.309 -243.209 -262.932 -261.315C-224.653 -278.922 -178.359 -287.07 -137.241 -274.984C-109.785 -266.914 -86.9536 -247.341 -69.3291 -225.359C-61.073 -215.061 -54.0405 -204.103 -48.7975 -191.993C-45.3827 -184.113 -41.9735 -176.692 -36.4992 -169.998C-22.7121 -153.123 -3.67001 -145.128 17.109 -140.523C39.4204 -135.575 62.0995 -132.213 79.7469 -116.332C111.139 -88.0789 120.313 -38.8819 117.896 1.42877C115.965 33.545 104.753 79.2522 68.8367 88.9115C54.761 92.7026 39.5567 90.3996 25.3701 88.5124C4.17275 85.7019 -16.9444 82.7117 -38.316 81.5489C-65.9278 80.0595 -93.792 80.7814 -121.21 84.4394C-139.671 86.9014 -157.76 91.618 -176.216 93.9539C-221.197 99.6232 -261.232 71.4813 -286.536 36.3966C-301.91 15.0785 -313.894 -8.78718 -325.645 -32.2385C-339.775 -60.4425 -352.982 -90.3705 -356.166 -122.089C-357.805 -138.4 -356.303 -154.555 -351.503 -170.237C-351.107 -171.536 -353.086 -172.326 -353.488 -171.01C-371.991 -110.589 -338.288 -49.6445 -310.16 2.01532C-287.239 44.1158 -255.707 85.275 -205.941 95.3202C-190.05 98.5337 -174.354 96.174 -158.648 93.1361C-133.718 88.3173 -108.924 84.3884 -83.504 83.3673C-54.5903 82.2042 -25.7609 83.894 2.91252 87.6128C20.0502 89.8362 37.4811 93.4414 54.8227 92.935C88.1007 91.9602 106.913 64.4129 114.857 34.5716C125.563 -5.6606 121.633 -53.2213 102.105 -90.2363C93.0772 -107.327 80.019 -122.071 62.3128 -130.385C40.9528 -140.419 16.5729 -140.322 -5.12688 -149.333C-18.283 -154.799 -29.8745 -163.794 -38.0477 -175.524C-43.847 -183.855 -46.7349 -193.688 -51.4413 -202.609C-64.17 -226.749 -84.6932 -248.841 -107.647 -263.577C-145.337 -287.762 -193.798 -286.413 -235.373 -273.974C-276.948 -261.542 -317.243 -236.284 -340.502 -198.857C-345.936 -190.107 -350.261 -180.781 -353.488 -171.01C-353.917 -169.706 -351.932 -168.933 -351.503 -170.237Z" fill="#BB86FC"/>
<path d="M-349.535 -187.352C-335.242 -231.524 -298.275 -264.166 -257.093 -283.325C-217.373 -301.802 -168.966 -310.693 -126.266 -297.579C-97.5581 -288.771 -73.997 -267.116 -55.939 -243.816C-47.5908 -233.04 -40.6206 -221.629 -35.33 -209.06C-31.9916 -201.135 -28.4644 -193.707 -22.9781 -186.989C-8.60184 -169.397 11.286 -161.177 32.982 -156.583C56.1455 -151.686 79.73 -148.408 98.1468 -132.097C130.718 -103.254 140.352 -52.6257 138.233 -11.1094C136.539 22.1888 125.382 70.7352 88.1394 81.1967C74.0731 85.1534 58.8062 82.7183 44.6265 80.663C22.9951 77.5368 1.45946 74.17 -20.3741 72.7794C-49.4474 70.9193 -78.8414 71.6321 -107.735 75.4645C-127.539 78.0966 -146.845 83.2475 -166.581 86.1528C-213.29 93.0468 -254.696 64.6869 -281.161 28.1233C-297.437 5.63642 -309.929 -19.6021 -322.274 -44.3797C-336.928 -73.7871 -350.829 -104.883 -354.187 -137.911C-355.886 -154.663 -354.384 -171.236 -349.535 -187.352C-349.14 -188.658 -351.126 -189.439 -351.52 -188.124C-370.449 -125.164 -334.864 -61.5519 -305.683 -7.71966C-282.182 35.6255 -249.252 78.9193 -197.635 88.2549C-180.63 91.3343 -163.864 88.1293 -147.187 84.6795C-120.327 79.1301 -93.5128 75.1413 -66.047 74.2234C-36.8949 73.2482 -7.85629 75.2056 21.0024 79.3044C38.4377 81.7731 56.1906 85.7785 73.8874 85.2996C108.675 84.3623 127.689 53.8098 135.427 22.974C145.823 -18.4287 141.656 -67.0127 121.515 -104.942C111.89 -123.066 97.8794 -138.502 78.8815 -146.905C56.5882 -156.767 31.3762 -156.438 8.93496 -165.809C-4.12891 -171.272 -15.5344 -180.146 -23.8752 -191.617C-29.9992 -200.046 -32.9651 -209.951 -37.5467 -219.191C-50.2529 -244.83 -71.4965 -268.471 -95.0934 -284.583C-133.898 -311.065 -184.4 -309.794 -227.863 -296.723C-271.357 -283.638 -313.458 -257.018 -337.762 -217.855C-343.547 -208.524 -348.14 -198.571 -351.521 -188.132C-351.941 -186.822 -349.955 -186.041 -349.535 -187.352Z" fill="#BB86FC"/>
<path d="M-347.567 -204.466C-332.985 -250.412 -294.788 -284.626 -252.209 -304.883C-211.798 -324.112 -162.648 -333.797 -118.8 -321.24C-88.509 -312.564 -63.9634 -289.804 -45.0181 -265.433C-36.1343 -254.015 -28.4621 -241.913 -22.88 -228.554C-19.3546 -220.133 -15.9047 -212.083 -10.1812 -204.868C4.52729 -186.335 25.1455 -177.562 47.7751 -172.873C72.1472 -167.832 97.0676 -164.874 116.577 -147.833C150.83 -117.911 160.791 -64.7288 158.457 -21.4077C156.603 12.8426 144.931 63.5165 106.285 73.8236C91.9639 77.6451 76.5311 74.9522 62.1781 72.6987C39.8246 69.177 17.5675 65.4731 -5.04181 63.9293C-35.5536 61.8452 -66.3616 62.6474 -96.6661 66.8528C-117.228 69.713 -137.235 75.1834 -157.692 78.4947C-206.235 86.363 -249.037 57.0958 -276.453 18.9452C-293.296 -4.48775 -306.126 -30.7505 -318.914 -56.5355C-334.082 -87.1396 -348.676 -119.396 -352.216 -153.739C-353.986 -170.89 -352.45 -187.936 -347.567 -204.466C-347.181 -205.779 -349.167 -206.56 -349.553 -205.247C-368.77 -140.195 -331.883 -74.6333 -302.005 -18.9234C-277.819 26.1678 -243.415 72.4528 -189.34 81.1749C-171.798 84.0026 -154.522 80.3247 -137.409 76.6222C-109.646 70.6046 -81.826 66.2651 -53.3802 65.2594C-23.0731 64.1938 7.14018 66.2915 37.095 70.8271C55.072 73.5527 73.3691 77.9901 91.6427 77.7793C127.672 77.3559 147.378 45.4165 155.413 13.665C166.441 -29.8751 161.985 -81.3532 140.195 -121.001C129.932 -139.676 115.089 -155.249 95.1731 -163.49C71.8784 -173.135 45.761 -172.563 22.5581 -182.474C8.87372 -188.324 -3.08536 -197.954 -11.5154 -210.253C-17.5706 -219.095 -20.4914 -229.508 -25.2823 -239.016C-38.9224 -266.128 -61.4843 -291.506 -86.691 -308.4C-126.372 -334.986 -178.421 -332.561 -222.335 -318.858C-267.387 -304.793 -310.789 -276.681 -335.68 -235.781C-341.521 -226.174 -346.156 -215.955 -349.551 -205.238C-349.964 -203.937 -347.987 -203.155 -347.567 -204.466Z" fill="#BB86FC"/>
<path d="M-345.6 -221.588C-330.618 -269.652 -290.738 -305.585 -246.362 -326.893C-204.27 -347.115 -152.54 -357.599 -106.91 -343.594C-76.4639 -334.25 -52.0011 -310.374 -33.0127 -285.676C-23.6605 -273.513 -15.5866 -260.665 -9.76222 -246.459C-6.17856 -237.721 -2.60518 -229.365 3.31681 -221.897C18.6128 -202.605 40.1012 -193.61 63.6653 -188.926C88.8501 -183.922 114.747 -181.076 134.979 -163.582C170.626 -132.76 181.042 -77.7622 178.742 -32.8934C176.932 2.52779 164.948 56.0486 124.625 66.4116C110.001 70.1722 94.2758 67.1581 79.7011 64.664C57.3056 60.8232 35.0044 56.8924 12.3303 55.15C-19.4128 52.7257 -51.5537 53.496 -83.0989 57.8304C-105.292 60.8813 -126.783 66.903 -148.798 70.7692C-199.218 79.6519 -243.298 49.5342 -271.739 9.76619C-289.164 -14.6023 -302.331 -41.8973 -315.554 -68.6911C-331.024 -100.041 -346.173 -133.012 -350.095 -168.138C-352.109 -186.194 -350.673 -204.143 -345.6 -221.588C-345.222 -222.892 -347.199 -223.674 -347.585 -222.36C-367.19 -154.901 -328.587 -86.8206 -297.746 -29.0327C-272.972 17.4022 -237.121 66.0813 -181.061 74.0476C-162.666 76.6656 -144.598 72.2947 -126.751 68.2677C-97.3427 61.6146 -67.7995 57.1368 -37.6168 56.1827C-6.4438 55.206 24.5946 57.5577 55.348 62.602C73.2756 65.5442 91.5002 70.2102 109.758 70.2189C146.991 70.2237 167.299 36.544 175.513 3.96266C186.904 -41.1883 182.293 -94.6045 159.617 -135.683C148.938 -155.036 133.483 -171.104 112.754 -179.518C88.635 -189.309 61.683 -188.522 37.6292 -198.532C23.2839 -204.495 10.7609 -214.47 1.95314 -227.311C-4.48247 -236.71 -7.50445 -247.817 -12.5667 -257.934C-26.6335 -286.056 -49.73 -312.495 -75.5654 -330.408C-116.217 -358.595 -170.291 -355.717 -215.568 -341.39C-262.531 -326.522 -307.8 -296.796 -333.472 -253.918C-339.42 -243.977 -344.143 -233.418 -347.585 -222.36C-347.996 -221.051 -346.011 -220.27 -345.6 -221.588Z" fill="#BB86FC"/>
<path d="M-343.632 -238.701C-328.469 -288.214 -287.795 -325.517 -242.409 -347.995C-199.161 -369.409 -145.779 -380.964 -98.4589 -366.992C-66.3632 -357.516 -40.9936 -332.18 -21.1929 -306.198C-11.6916 -293.725 -3.28953 -280.544 2.68662 -266.011C6.49366 -256.757 9.99105 -247.771 16.1648 -239.767C31.7943 -219.525 54.0156 -209.961 78.5121 -205.191C104.577 -200.117 131.496 -197.616 152.715 -179.901C189.853 -148.897 200.925 -92.3826 199.119 -46.3974C197.674 -9.61406 186.005 46.9557 144.369 58.6365C129.548 62.7873 113.506 59.6227 98.7234 56.9192C75.9089 52.752 53.2016 48.4176 30.0549 46.4325C-3.03008 43.6018 -36.5705 44.3424 -69.4756 48.7911C-92.8133 51.9474 -115.357 58.2272 -138.409 62.7748C-157.807 66.6039 -176.278 66.0358 -194.975 59.1727C-224.247 48.4327 -247.51 27.5577 -265.628 2.60549C-283.762 -22.3943 -297.243 -50.5086 -310.852 -78.1099C-327.2 -111.267 -343.59 -145.913 -348.009 -183.023C-350.239 -201.814 -348.831 -220.518 -343.632 -238.701C-343.255 -240.014 -345.24 -240.795 -345.617 -239.474C-355.344 -205.476 -350.759 -171.022 -339.325 -138.042C-327.338 -103.462 -310.13 -70.3065 -292.932 -38.06C-267.571 9.50163 -229.991 60.3549 -172.055 67.0231C-152.748 69.2381 -133.829 64.0649 -115.192 59.6961C-83.5067 52.2829 -51.5395 47.765 -18.9636 47.0513C12.0061 46.3739 42.7897 49.0165 73.2745 54.3703C91.8707 57.633 110.878 62.9188 129.881 62.6763C167.722 62.1926 187.918 25.8414 195.909 -6.93033C207.369 -53.9212 202.369 -109.64 178.122 -151.998C166.672 -172.006 150.192 -188.164 128.352 -196.318C103.247 -205.686 75.4455 -204.724 50.7344 -215.407C36.2926 -221.663 23.632 -232.034 14.8877 -245.161C8.37664 -254.933 5.35129 -266.432 0.156088 -276.862C-14.6126 -306.468 -38.767 -334.635 -65.9571 -353.513C-107.385 -382.278 -163.035 -378.642 -208.99 -363.849C-257.585 -348.214 -304.333 -317.169 -330.867 -272.711C-337.108 -262.247 -342.052 -251.128 -345.617 -239.474C-346.021 -238.174 -344.034 -237.385 -343.632 -238.701Z" fill="#BB86FC"/>
<path d="M-341.665 -255.825C-326.115 -307.436 -283.742 -346.518 -236.555 -370.016C-192.078 -392.167 -137.037 -404.476 -88.2908 -389.885C-55.3412 -380.026 -29.59 -353.489 -9.38495 -326.745C0.497564 -313.655 9.33228 -299.849 15.5275 -284.616C19.3881 -275.128 22.8542 -265.812 29.0772 -257.548C45.2402 -236.096 68.6347 -226.082 94.3432 -221.253C121.281 -216.199 149.144 -213.806 171.147 -195.622C209.967 -163.538 221.372 -104.488 219.352 -56.6895C217.765 -19.0571 205.699 39.2873 163.008 51.1597C147.776 55.4006 131.312 51.8932 116.171 48.929C92.6532 44.3298 69.2421 39.6638 45.3278 37.5242C11.4254 34.4885 -22.9985 35.2933 -56.7198 39.8625C-81.3896 43.2039 -105.129 49.8979 -129.424 54.9839C-149.191 59.1218 -168.09 59.022 -187.28 52.2035C-217.504 41.4634 -241.588 19.9913 -260.27 -5.62359C-279.365 -31.7913 -293.277 -61.3158 -307.525 -90.2694C-324.416 -124.594 -341.52 -160.421 -346.071 -198.847C-348.352 -218.064 -346.911 -237.199 -341.665 -255.825C-341.296 -257.136 -343.282 -257.916 -343.65 -256.597C-353.765 -220.718 -348.49 -184.485 -336.105 -149.867C-323.518 -114.663 -306.026 -80.7178 -288.503 -47.7293C-262.574 1.10395 -223.212 54.357 -163.336 59.8756C-143.691 61.6866 -124.469 56.1064 -105.58 51.5391C-71.9788 43.406 -37.9979 38.6288 -3.39096 37.9788C27.7529 37.3992 58.7157 40.1722 89.3309 45.8228C108.298 49.3193 127.606 54.9752 146.996 55.1728C186.412 55.568 207.561 17.7386 215.908 -16.2168C227.857 -64.8214 222.738 -122.509 197.711 -166.373C185.576 -187.651 167.979 -204.584 144.608 -212.806C118.531 -221.987 89.8083 -220.829 64.356 -232.08C48.994 -238.877 35.4088 -250.396 26.6934 -264.822C20.9196 -274.368 17.9953 -285.331 13.096 -295.315C-2.06665 -326.254 -27.0932 -355.979 -55.2387 -375.883C-97.9174 -406.064 -155.837 -401.727 -203.209 -386.068C-253.368 -369.492 -301.483 -337.004 -328.651 -290.85C-335.015 -280.05 -340.039 -268.592 -343.658 -256.596C-344.045 -255.29 -342.059 -254.51 -341.665 -255.825Z" fill="#BB86FC"/>
<path d="M-339.697 -272.938C-323.926 -326.38 -280.285 -367.007 -231.684 -391.605C-185.775 -414.842 -128.552 -428.089 -78.0547 -412.772C-44.6004 -402.625 -18.6837 -375.304 1.81592 -348.122C12.3018 -334.225 21.7664 -319.55 28.3115 -303.37C32.1293 -293.942 35.4169 -284.539 41.3856 -276.194C57.7667 -253.306 82.2664 -242.481 109.201 -237.502C136.713 -232.414 165.348 -230.418 188.213 -212.437C229.557 -179.916 241.63 -117.848 239.638 -68.1248C238.086 -29.3704 225.813 31.3118 181.795 43.6691C166.337 48.0124 149.63 44.2846 134.312 41.1059C110.474 36.1649 86.7603 31.1707 62.4832 28.7961C27.0343 25.3279 -9.03772 26.1673 -44.3249 30.9752C-69.9575 34.4601 -94.6002 41.4135 -119.77 47.0386C-140.092 51.5731 -159.653 52.0956 -179.569 45.2327C-211.142 34.3549 -236.206 11.8598 -255.558 -14.8269C-274.589 -41.0633 -288.549 -70.5217 -302.747 -99.5251C-320.404 -135.583 -338.816 -172.983 -343.962 -213.269C-346.524 -233.368 -345.154 -253.428 -339.697 -272.938C-339.327 -274.249 -341.313 -275.03 -341.681 -273.711C-351.94 -236.999 -346.536 -199.993 -333.86 -164.595C-320.696 -127.853 -302.512 -92.3212 -284.254 -57.8536C-257.717 -7.76313 -216.92 48.0195 -155.105 52.6557C-134.28 54.2139 -113.951 47.8159 -93.9755 42.885C-59.1451 34.2824 -23.7726 29.4861 12.1262 28.9246C44.1603 28.43 75.9805 31.502 107.404 37.6682C126.519 41.4169 145.998 47.4133 165.6 47.686C206.305 48.2619 227.885 7.97595 236.235 -26.8068C248.351 -77.3169 242.866 -137.435 216.214 -182.647C203.487 -204.24 185.213 -221.075 161.214 -229.148C133.926 -238.322 103.922 -236.87 77.4916 -248.977C62.2316 -255.973 48.8103 -267.619 40.1 -282.012C33.8073 -292.411 30.7292 -304.403 25.3343 -315.252C9.48629 -347.094 -16.0835 -377.986 -45.0794 -398.674C-88.6346 -429.752 -148.375 -424.727 -196.653 -408.565C-248.745 -391.117 -298.704 -357.027 -326.597 -308.796C-333.001 -297.722 -338.064 -285.982 -341.681 -273.711C-342.068 -272.406 -340.083 -271.625 -339.697 -272.938Z" fill="#BB86FC"/>
<path d="M203.901 -230.196C247.439 -198.172 260.974 -135.624 260.066 -84.5353C259.601 -58.53 255.364 -31.871 244.512 -8.06865C236.249 10.0638 222.774 28.5676 203.201 35.3641C187.508 40.8135 170.32 37.1615 154.587 33.7812C130.589 28.6231 106.788 23.125 82.3536 20.3909C46.2546 16.3489 9.48528 16.8974 -26.5464 21.3801C-54.2145 24.8271 -80.7914 31.9604 -107.81 38.5203C-128.523 43.5424 -148.71 45.4415 -169.386 39.0495C-201.336 29.1747 -227.299 7.17234 -247.235 -19.1383C-267.393 -45.7398 -282.033 -75.9595 -296.571 -105.853C-314.626 -142.95 -334.01 -180.948 -340.895 -222.046C-362.024 -348.172 -225.542 -444.296 -110.816 -442.137C-82.3446 -441.601 -55.2343 -434.504 -32.3959 -416.953C-2.80882 -394.211 24.3141 -360.833 39.2539 -326.543C43.4285 -316.971 46.3056 -306.835 51.7861 -297.879C59.2662 -285.671 70.0783 -275.159 82.3859 -267.872C106.171 -253.794 134.093 -253.039 160.508 -247.702C176.071 -244.554 190.819 -239.373 203.901 -230.196C205.027 -229.413 206.284 -231.131 205.157 -231.922C180.055 -249.526 150.212 -250.763 121.119 -256.453C89.3555 -262.658 60.5654 -279.554 47.8384 -310.618C42.5096 -323.641 37.5523 -336.322 30.128 -348.388C19.4589 -365.721 6.81864 -382.05 -7.18608 -396.811C-28.8342 -419.628 -53.4303 -436.409 -84.7227 -441.853C-139.251 -451.33 -197.7 -433.94 -244.235 -405.776C-293.264 -376.117 -335.999 -328.843 -344.053 -270.272C-349.444 -231.078 -337.855 -192.46 -322.664 -156.732C-307.67 -121.465 -290.744 -86.1772 -271.733 -52.872C-244.22 -4.68958 -198.899 47.69 -137.992 45.5125C-115.138 44.6876 -92.9111 36.5035 -70.7977 31.4108C-32.5667 22.6057 6.82687 18.9454 46.0317 20.017C76.4973 20.8557 106.454 25.2989 136.169 31.86C153.701 35.7333 172.075 41.3445 190.217 40.0937C233.681 37.0858 253.047 -13.7915 259.129 -50.296C267.748 -102.008 260.378 -162.848 229.686 -206.57C222.877 -216.269 214.711 -224.886 205.149 -231.921C204.052 -232.733 202.795 -231.015 203.901 -230.196Z" fill="#BB86FC"/>
</svg>
